<svg xmlns="http://www.w3.org/2000/svg" xmlns:xlink="http://www.w3.org/1999/xlink" width="1366" zoomAndPan="magnify" viewBox="0 0 1024.5 576" height="768" preserveAspectRatio="xMidYMid meet" version="1.0"><defs><clipPath id="0940a1da81"><path d="M 470.179688 57.710938 L 819 57.710938 L 819 72 L 470.179688 72 Z M 470.179688 57.710938 " clip-rule="nonzero"/></clipPath><clipPath id="017a428a8c"><path d="M 470.179688 84 L 871 84 L 871 99 L 470.179688 99 Z M 470.179688 84 " clip-rule="nonzero"/></clipPath><clipPath id="1fa4026097"><path d="M 470.179688 112 L 903 112 L 903 126 L 470.179688 126 Z M 470.179688 112 " clip-rule="nonzero"/></clipPath><clipPath id="4ae7e749b3"><path d="M 470.179688 139 L 926 139 L 926 153 L 470.179688 153 Z M 470.179688 139 " clip-rule="nonzero"/></clipPath><clipPath id="b1a2f13744"><path d="M 470.179688 166 L 942 166 L 942 181 L 470.179688 181 Z M 470.179688 166 " clip-rule="nonzero"/></clipPath><clipPath id="2ad7cedc3f"><path d="M 470.179688 193 L 954 193 L 954 208 L 470.179688 208 Z M 470.179688 193 " clip-rule="nonzero"/></clipPath><clipPath id="61dd6e26a9"><path d="M 470.179688 220 L 962 220 L 962 235 L 470.179688 235 Z M 470.179688 220 " clip-rule="nonzero"/></clipPath><clipPath id="afb8afc23a"><path d="M 470.179688 248 L 966 248 L 966 262 L 470.179688 262 Z M 470.179688 248 " clip-rule="nonzero"/></clipPath><clipPath id="4c87284781"><path d="M 470.179688 275 L 966.4375 275 L 966.4375 290 L 470.179688 290 Z M 470.179688 275 " clip-rule="nonzero"/></clipPath><clipPath id="69622e4909"><path d="M 470.179688 302 L 966 302 L 966 317 L 470.179688 317 Z M 470.179688 302 " clip-rule="nonzero"/></clipPath><clipPath id="a55243c14b"><path d="M 470.179688 329 L 961 329 L 961 344 L 470.179688 344 Z M 470.179688 329 " clip-rule="nonzero"/></clipPath><clipPath id="c4b79a0f74"><path d="M 470.179688 357 L 954 357 L 954 371 L 470.179688 371 Z M 470.179688 357 " clip-rule="nonzero"/></clipPath><clipPath id="0e12c71a36"><path d="M 470.179688 384 L 942 384 L 942 398 L 470.179688 398 Z M 470.179688 384 " clip-rule="nonzero"/></clipPath><clipPath id="b4d1b98291"><path d="M 470.179688 411 L 926 411 L 926 426 L 470.179688 426 Z M 470.179688 411 " clip-rule="nonzero"/></clipPath><clipPath id="0c8972e6be"><path d="M 470.179688 438 L 903 438 L 903 453 L 470.179688 453 Z M 470.179688 438 " clip-rule="nonzero"/></clipPath><clipPath id="a1ffee56fa"><path d="M 470.179688 466 L 871 466 L 871 480 L 470.179688 480 Z M 470.179688 466 " clip-rule="nonzero"/></clipPath><clipPath id="2cd311ed19"><path d="M 470.179688 493 L 819 493 L 819 506.742188 L 470.179688 506.742188 Z M 470.179688 493 " clip-rule="nonzero"/></clipPath></defs><g clip-path="url(#0940a1da81)"><path fill="#a3b18a" d="M 818.691406 71.261719 C 794.550781 62.402344 768.671875 57.710938 741.402344 57.710938 L 470.28125 57.710938 L 470.28125 71.261719 Z M 818.691406 71.261719 " fill-opacity="1" fill-rule="nonzero"/></g><g clip-path="url(#017a428a8c)"><path fill="#a3b18a" d="M 870.796875 98.355469 C 863.851562 93.492188 856.554688 88.800781 848.914062 84.808594 L 470.453125 84.808594 L 470.453125 98.355469 Z M 870.796875 98.355469 " fill-opacity="1" fill-rule="nonzero"/></g><g clip-path="url(#1fa4026097)"><path fill="#a3b18a" d="M 902.582031 125.625 C 897.890625 120.933594 893.203125 116.246094 888.164062 112.074219 L 470.28125 112.074219 L 470.28125 125.625 Z M 902.582031 125.625 " fill-opacity="1" fill-rule="nonzero"/></g><g clip-path="url(#4ae7e749b3)"><path fill="#a3b18a" d="M 925.335938 152.890625 C 922.035156 148.203125 918.5625 143.6875 914.914062 139.34375 L 470.453125 139.34375 L 470.453125 152.890625 Z M 925.335938 152.890625 " fill-opacity="1" fill-rule="nonzero"/></g><g clip-path="url(#b1a2f13744)"><path fill="#a3b18a" d="M 941.660156 180.160156 C 939.230469 175.472656 936.796875 170.957031 934.019531 166.613281 L 470.453125 166.613281 L 470.453125 180.160156 Z M 941.660156 180.160156 " fill-opacity="1" fill-rule="nonzero"/></g><g clip-path="url(#2ad7cedc3f)"><path fill="#a3b18a" d="M 953.472656 207.429688 C 951.910156 202.738281 949.996094 198.222656 948.085938 193.882812 L 470.28125 193.882812 L 470.28125 207.429688 Z M 953.472656 207.429688 " fill-opacity="1" fill-rule="nonzero"/></g><g clip-path="url(#61dd6e26a9)"><path fill="#a3b18a" d="M 961.113281 234.523438 C 960.070312 230.007812 959.03125 225.320312 957.8125 220.976562 L 470.453125 220.976562 L 470.453125 234.523438 Z M 961.113281 234.523438 " fill-opacity="1" fill-rule="nonzero"/></g><g clip-path="url(#afb8afc23a)"><path fill="#a3b18a" d="M 965.28125 261.792969 C 964.933594 257.277344 964.414062 252.585938 963.71875 248.246094 L 470.453125 248.246094 L 470.453125 261.792969 Z M 965.28125 261.792969 " fill-opacity="1" fill-rule="nonzero"/></g><g clip-path="url(#4c87284781)"><path fill="#a3b18a" d="M 966.152344 275.515625 L 470.28125 275.515625 L 470.28125 289.0625 L 965.976562 289.0625 C 965.976562 286.804688 966.152344 284.546875 966.152344 282.289062 C 966.324219 280.03125 966.152344 277.773438 966.152344 275.515625 Z M 966.152344 275.515625 " fill-opacity="1" fill-rule="nonzero"/></g><g clip-path="url(#69622e4909)"><path fill="#a3b18a" d="M 470.28125 302.609375 L 470.28125 316.15625 L 963.546875 316.15625 C 964.238281 311.640625 964.761719 307.125 965.109375 302.609375 Z M 470.28125 302.609375 " fill-opacity="1" fill-rule="nonzero"/></g><g clip-path="url(#a55243c14b)"><path fill="#a3b18a" d="M 470.28125 329.878906 L 470.28125 343.425781 L 957.640625 343.425781 C 958.855469 338.910156 960.070312 334.394531 960.941406 329.878906 Z M 470.28125 329.878906 " fill-opacity="1" fill-rule="nonzero"/></g><g clip-path="url(#c4b79a0f74)"><path fill="#a3b18a" d="M 470.28125 357.144531 L 470.28125 370.691406 L 947.914062 370.691406 C 949.824219 366.175781 951.5625 361.660156 953.296875 357.144531 Z M 470.28125 357.144531 " fill-opacity="1" fill-rule="nonzero"/></g><g clip-path="url(#0e12c71a36)"><path fill="#a3b18a" d="M 470.28125 384.414062 L 470.28125 397.960938 L 934.191406 397.960938 C 936.796875 393.445312 939.402344 388.929688 941.835938 384.414062 Z M 470.28125 384.414062 " fill-opacity="1" fill-rule="nonzero"/></g><g clip-path="url(#b4d1b98291)"><path fill="#a3b18a" d="M 470.28125 411.683594 L 470.28125 425.230469 L 914.914062 425.230469 C 918.5625 420.886719 922.035156 416.199219 925.335938 411.683594 Z M 470.28125 411.683594 " fill-opacity="1" fill-rule="nonzero"/></g><g clip-path="url(#0c8972e6be)"><path fill="#a3b18a" d="M 470.28125 438.777344 L 470.28125 452.324219 L 888.164062 452.324219 C 893.203125 447.984375 898.066406 443.46875 902.582031 438.777344 Z M 470.28125 438.777344 " fill-opacity="1" fill-rule="nonzero"/></g><g clip-path="url(#a1ffee56fa)"><path fill="#a3b18a" d="M 470.28125 466.046875 L 470.28125 479.59375 L 848.914062 479.59375 C 856.554688 475.425781 863.851562 470.910156 870.796875 466.046875 Z M 470.28125 466.046875 " fill-opacity="1" fill-rule="nonzero"/></g><g clip-path="url(#2cd311ed19)"><path fill="#a3b18a" d="M 470.28125 493.316406 L 470.28125 506.863281 L 735.148438 506.863281 C 737.234375 506.863281 739.316406 507.035156 741.402344 507.035156 C 743.484375 507.035156 745.570312 507.035156 747.65625 506.863281 C 772.664062 506.167969 796.460938 501.476562 818.867188 493.316406 Z M 470.28125 493.316406 " fill-opacity="1" fill-rule="nonzero"/></g></svg>