<svg xmlns="http://www.w3.org/2000/svg" xmlns:xlink="http://www.w3.org/1999/xlink" width="1366" zoomAndPan="magnify" viewBox="0 0 1024.5 576" height="768" preserveAspectRatio="xMidYMid meet" version="1.0"><defs><clipPath id="725f3eab0a"><path d="M 0 0.140625 L 1024 0.140625 L 1024 575.859375 L 0 575.859375 Z M 0 0.140625 " clip-rule="nonzero"/></clipPath><clipPath id="80fe6d9370"><path d="M 588 342.378906 L 1023 342.378906 L 1023 575.515625 L 588 575.515625 Z M 588 342.378906 " clip-rule="nonzero"/></clipPath><clipPath id="4873470063"><path d="M 606 354 L 1011 354 L 1011 575.515625 L 606 575.515625 Z M 606 354 " clip-rule="nonzero"/></clipPath><clipPath id="af3866f626"><path d="M 627 365 L 1001 365 L 1001 575.515625 L 627 575.515625 Z M 627 365 " clip-rule="nonzero"/></clipPath><clipPath id="d52225abfb"><path d="M 651 374 L 991 374 L 991 575.515625 L 651 575.515625 Z M 651 374 " clip-rule="nonzero"/></clipPath><clipPath id="2896b6a209"><path d="M 679 381 L 982 381 L 982 575.515625 L 679 575.515625 Z M 679 381 " clip-rule="nonzero"/></clipPath><clipPath id="93395c2f36"><path d="M 705 388 L 972 388 L 972 575.515625 L 705 575.515625 Z M 705 388 " clip-rule="nonzero"/></clipPath><clipPath id="8889141a0d"><path d="M 719 394 L 965 394 L 965 575.515625 L 719 575.515625 Z M 719 394 " clip-rule="nonzero"/></clipPath><clipPath id="423c4bd09b"><path d="M 729 400 L 955 400 L 955 575.515625 L 729 575.515625 Z M 729 400 " clip-rule="nonzero"/></clipPath><clipPath id="a3630fe3e1"><path d="M 739 406 L 947 406 L 947 575.515625 L 739 575.515625 Z M 739 406 " clip-rule="nonzero"/></clipPath><clipPath id="a87ee7fa59"><path d="M 748 413 L 938 413 L 938 575.515625 L 748 575.515625 Z M 748 413 " clip-rule="nonzero"/></clipPath><clipPath id="94b1f79eb1"><path d="M 758 420 L 929 420 L 929 575.515625 L 758 575.515625 Z M 758 420 " clip-rule="nonzero"/></clipPath><clipPath id="98b7c7d7ae"><path d="M 766 427 L 920 427 L 920 575.515625 L 766 575.515625 Z M 766 427 " clip-rule="nonzero"/></clipPath><clipPath id="cc12937ea7"><path d="M 0.304688 0.140625 L 257 0.140625 L 257 230.277344 L 0.304688 230.277344 Z M 0.304688 0.140625 " clip-rule="nonzero"/></clipPath></defs><g clip-path="url(#725f3eab0a)"><path fill="#ffffff" d="M 0 0.140625 L 1024 0.140625 L 1024 575.859375 L 0 575.859375 Z M 0 0.140625 " fill-opacity="1" fill-rule="nonzero"/><path fill="#ffffff" d="M 0 0.140625 L 1024 0.140625 L 1024 575.859375 L 0 575.859375 Z M 0 0.140625 " fill-opacity="1" fill-rule="nonzero"/></g><g clip-path="url(#80fe6d9370)"><path fill="#bc4749" d="M 1015.914062 574.980469 C 1016.234375 572.457031 1016.566406 570.171875 1016.800781 567.882812 C 1017.121094 564.75 1017.496094 561.617188 1017.632812 558.46875 C 1017.773438 555.320312 1017.773438 552.160156 1017.621094 549.011719 C 1017.398438 544.660156 1017.191406 540.277344 1016.609375 535.96875 C 1015.042969 524.347656 1011.3125 513.382812 1005.074219 503.46875 C 1002.0625 498.6875 998.222656 494.402344 994.550781 490.074219 C 992.566406 487.734375 990.15625 485.738281 987.882812 483.644531 C 984.082031 480.148438 979.867188 477.238281 975.25 474.910156 C 972.394531 473.464844 969.582031 471.898438 966.628906 470.695312 C 963.519531 469.433594 960.304688 468.28125 957.046875 467.546875 C 951.765625 466.367188 946.441406 465.160156 941.074219 464.703125 C 929.984375 463.746094 918.976562 464.789062 908.007812 466.742188 C 900.992188 467.988281 893.867188 468.753906 886.769531 469.402344 C 882.304688 469.804688 877.757812 469.460938 873.542969 467.710938 C 866.707031 464.882812 862.992188 459.558594 861.980469 452.296875 C 860.632812 442.671875 861.328125 433.050781 861.796875 423.417969 C 862.296875 413.351562 863.324219 403.285156 861.980469 393.191406 C 860.414062 381.449219 855.253906 372.007812 844.910156 365.699219 C 838.480469 361.773438 831.476562 359.210938 824.378906 356.839844 C 820.234375 355.453125 816.074219 354.09375 811.859375 352.957031 C 807.851562 351.875 803.804688 350.945312 799.714844 350.253906 C 794.707031 349.394531 789.664062 348.605469 784.601562 348.214844 C 779.582031 347.828125 774.535156 348.078125 769.503906 347.867188 C 762.417969 347.578125 755.527344 349.046875 748.554688 349.894531 C 739.542969 350.988281 731.113281 354.039062 722.808594 357.324219 C 717.402344 359.472656 712.242188 362.453125 707.320312 365.601562 C 700.320312 370.050781 693.902344 375.308594 688.1875 381.40625 C 681.757812 388.269531 676.140625 395.742188 671.691406 403.992188 C 664.910156 416.496094 660.777344 429.917969 659.296875 444.085938 C 658.351562 453.15625 658.269531 462.25 659.296875 471.316406 C 660.101562 478.304688 661.027344 485.277344 661.875 492.253906 C 662.46875 497.132812 663.261719 502.011719 662.625 506.976562 C 661.984375 511.914062 659.378906 515.433594 654.652344 516.738281 C 650.046875 518.011719 645.25 518.664062 640.523438 519.511719 C 634.8125 520.523438 629.015625 521.1875 623.375 522.476562 C 618.0625 523.695312 613.375 526.34375 609.121094 529.894531 C 605.738281 532.707031 603.171875 536.105469 601.273438 539.890625 C 599.734375 542.96875 598.945312 546.449219 597.917969 549.777344 C 595.464844 557.691406 596.269531 565.746094 595.867188 573.761719 C 595.8125 574.980469 595.449219 575.4375 594.203125 575.371094 C 592.707031 575.273438 591.207031 575.300781 589.710938 575.371094 C 588.644531 575.410156 588.199219 575.050781 588.214844 573.957031 C 588.269531 567.023438 588.074219 560.078125 588.394531 553.160156 C 588.558594 549.691406 589.640625 546.269531 590.320312 542.828125 C 590.707031 540.902344 591.015625 538.949219 591.554688 537.0625 C 591.96875 535.605469 592.609375 534.21875 593.246094 532.847656 C 594.132812 530.976562 595.007812 529.078125 596.089844 527.316406 C 599.136719 522.367188 603.160156 518.429688 608.179688 515.378906 C 613.929688 511.871094 620.335938 510.527344 626.714844 509 C 631.011719 507.976562 635.421875 507.421875 639.734375 506.421875 C 646.597656 504.855469 650.382812 500.253906 651.046875 493.417969 C 651.585938 487.816406 651.574219 482.144531 651.644531 476.488281 C 651.738281 467.476562 651.15625 458.464844 652.128906 449.441406 C 653.597656 435.8125 656.925781 422.710938 662.441406 410.191406 C 665.367188 403.546875 668.875 397.171875 673.328125 391.402344 C 677.207031 386.371094 681.089844 381.296875 685.472656 376.722656 C 689.230469 372.785156 693.554688 369.332031 697.878906 366.019531 C 701.734375 363.066406 705.796875 360.332031 710.027344 357.960938 C 714.253906 355.589844 718.761719 353.707031 723.222656 351.75 C 737.101562 345.691406 751.882812 343.777344 766.785156 342.738281 C 772.164062 342.363281 777.613281 342.878906 783.019531 343.15625 C 786.945312 343.347656 790.867188 343.65625 794.75 344.222656 C 799.171875 344.859375 803.582031 345.691406 807.9375 346.71875 C 812.996094 347.910156 818.027344 349.242188 822.976562 350.808594 C 832.433594 353.789062 841.777344 357.160156 850.386719 362.136719 C 859.636719 367.488281 865.292969 375.625 867.800781 385.996094 C 869.8125 394.285156 869.5625 402.703125 869.394531 411.132812 C 869.214844 419.601562 869.242188 428.0625 869.1875 436.53125 C 869.160156 440.539062 869.589844 444.476562 870.921875 448.300781 C 872.15625 451.867188 874.609375 454.332031 877.730469 456.136719 C 883.484375 459.464844 889.875 459.628906 896.238281 459.285156 C 904.585938 458.839844 912.917969 457.910156 921.261719 457.5625 C 930.941406 457.160156 940.589844 457.523438 950.171875 459.449219 C 956.449219 460.710938 962.566406 462.390625 968.402344 464.914062 C 972.839844 466.839844 977.121094 469.210938 981.238281 471.761719 C 985.023438 474.105469 988.726562 476.695312 992.082031 479.609375 C 995.242188 482.339844 997.863281 485.695312 1000.804688 488.703125 C 1004.753906 492.75 1007.304688 497.769531 1010.398438 502.414062 C 1014.554688 508.667969 1017.121094 515.542969 1019.0625 522.644531 C 1020.558594 528.121094 1021.628906 533.789062 1022.222656 539.445312 C 1023.054688 547.265625 1023.195312 555.140625 1022.488281 563.003906 C 1022.152344 566.691406 1021.585938 570.363281 1021.058594 574.023438 C 1021.003906 574.386719 1020.503906 574.925781 1020.183594 574.941406 C 1018.8125 575.035156 1017.441406 574.980469 1015.914062 574.980469 Z M 1015.914062 574.980469 " fill-opacity="1" fill-rule="nonzero"/></g><g clip-path="url(#4873470063)"><path fill="#bc4749" d="M 1004.726562 574.980469 C 1005.074219 572.554688 1005.378906 570.363281 1005.683594 568.1875 C 1006.890625 559.523438 1006.972656 550.828125 1005.878906 542.164062 C 1005.378906 538.226562 1004.449219 534.316406 1003.480469 530.460938 C 1001.523438 522.710938 998.308594 515.476562 993.800781 508.875 C 989.019531 501.875 983.222656 495.914062 976.179688 491.074219 C 968.625 485.875 960.386719 482.339844 951.472656 480.566406 C 943.417969 478.957031 935.210938 478.25 927.03125 479.707031 C 919.835938 480.980469 912.679688 482.4375 905.527344 483.90625 C 897.941406 485.472656 890.441406 487.511719 882.789062 488.660156 C 875.386719 489.785156 868.132812 488.730469 861.964844 483.933594 C 857.320312 480.328125 854.339844 475.546875 852.566406 469.929688 C 850.886719 464.621094 850.386719 459.144531 850.386719 453.667969 C 850.402344 443.535156 850.691406 433.382812 850.957031 423.25 C 851.164062 415.542969 851.648438 407.847656 850.625 400.164062 C 849.183594 389.449219 845.105469 380.105469 835.816406 373.949219 C 831.976562 371.410156 827.652344 369.484375 823.324219 367.832031 C 815.296875 364.785156 807.074219 362.191406 798.5625 360.902344 C 792.171875 359.929688 785.710938 359.097656 779.265625 358.808594 C 772.984375 358.515625 766.660156 358.835938 760.367188 359.128906 C 752.007812 359.527344 743.894531 361.621094 736.007812 364.117188 C 728.214844 366.570312 720.644531 369.871094 713.839844 374.570312 C 710.648438 376.761719 707.335938 378.84375 704.453125 381.394531 C 700.445312 384.929688 696.632812 388.726562 692.984375 392.664062 C 688.214844 397.808594 684.347656 403.632812 681.214844 409.898438 C 676.292969 419.726562 672.882812 430.015625 671.664062 441.023438 C 670.011719 455.898438 671.871094 470.359375 676.613281 484.445312 C 679.414062 492.792969 682.699219 500.960938 685.625 509.265625 C 687.289062 513.964844 688.8125 518.71875 688.589844 523.835938 C 688.410156 528.175781 684.792969 532.902344 680.785156 534.523438 C 675.460938 536.675781 669.832031 537.214844 664.273438 538.15625 C 657.894531 539.238281 651.433594 539.933594 645.085938 541.136719 C 638.109375 542.46875 631.277344 544.425781 625.742188 549.222656 C 623 551.59375 620.585938 554.210938 618.714844 557.484375 C 615.898438 562.40625 615.316406 567.828125 614.140625 573.136719 C 613.765625 574.800781 613.238281 575.550781 611.464844 575.339844 C 610.203125 575.1875 608.914062 575.257812 607.636719 575.328125 C 606.554688 575.382812 606.054688 574.953125 606.210938 573.886719 C 606.984375 568.339844 607.195312 562.640625 608.691406 557.304688 C 611.0625 548.859375 616.246094 542.039062 624.109375 537.992188 C 628.308594 535.828125 633.148438 534.746094 637.804688 533.625 C 642.199219 532.570312 646.734375 532.058594 651.210938 531.390625 C 654.386719 530.921875 657.578125 530.644531 660.75 530.171875 C 665.589844 529.464844 670.402344 528.578125 674.242188 525.207031 C 676.042969 523.628906 676.917969 521.519531 677.304688 519.148438 C 678.027344 514.921875 677.179688 510.898438 676.070312 506.867188 C 673.535156 497.6875 670.886719 488.535156 668.597656 479.289062 C 665.546875 466.949219 665.007812 454.417969 666.503906 441.800781 C 668.113281 428.171875 672.410156 415.386719 679.46875 403.660156 C 682.503906 398.613281 686.125 393.828125 690.019531 389.40625 C 694.066406 384.816406 698.53125 380.535156 703.230469 376.609375 C 706.863281 373.585938 711.066406 371.214844 715.140625 368.761719 C 727.648438 361.207031 741.511719 357.476562 755.777344 355.398438 C 765.191406 354.023438 774.714844 353.871094 784.269531 354.730469 C 793.847656 355.589844 803.320312 357.089844 812.496094 359.820312 C 820.121094 362.09375 827.761719 364.632812 834.957031 368 C 847.394531 373.808594 853.578125 384.289062 855.226562 397.765625 C 856.15625 405.421875 855.671875 413.046875 855.335938 420.683594 C 854.785156 433.523438 853.589844 446.390625 855.226562 459.214844 C 856.101562 466.007812 858.625 472.246094 864.53125 476.417969 C 868.46875 479.207031 872.917969 480.539062 877.757812 480.691406 C 885.355469 480.925781 892.742188 479.609375 900.121094 477.972656 C 910.726562 475.617188 921.359375 473.535156 932.285156 473.21875 C 940.382812 472.980469 948.339844 473.660156 956.117188 475.835938 C 963.0625 477.777344 969.636719 480.621094 975.792969 484.488281 C 983.445312 489.3125 989.65625 495.484375 995.117188 502.664062 C 999.234375 508.070312 1002.660156 513.8125 1004.878906 520.148438 C 1007.015625 526.234375 1008.953125 532.417969 1009.898438 538.90625 C 1011.117188 547.308594 1011.078125 555.683594 1010.371094 564.097656 C 1010.121094 567.023438 1009.605469 569.921875 1009.34375 572.847656 C 1009.175781 574.59375 1008.402344 575.285156 1006.679688 575.007812 C 1006.15625 574.910156 1005.601562 574.980469 1004.726562 574.980469 Z M 1004.726562 574.980469 " fill-opacity="1" fill-rule="nonzero"/></g><g clip-path="url(#af3866f626)"><path fill="#bc4749" d="M 994.507812 574.816406 C 994.910156 571.695312 995.410156 568.699219 995.660156 565.679688 C 996.1875 559.4375 996.253906 553.214844 995.285156 546.960938 C 994.398438 541.304688 992.871094 535.882812 991.015625 530.460938 C 988.824219 524.015625 985.414062 518.359375 981.101562 513.328125 C 977.898438 509.582031 974.085938 506.214844 970.050781 503.386719 C 963.398438 498.742188 955.894531 496.050781 947.757812 494.75 C 937.832031 493.167969 928.207031 494.25 918.640625 496.566406 C 911.320312 498.339844 904.125 500.585938 896.832031 502.441406 C 890.375 504.09375 883.84375 505.242188 877.117188 504.648438 C 862.769531 503.371094 852.980469 495.855469 847.226562 482.839844 C 844.261719 476.140625 843 469.015625 842.75 461.804688 C 842.277344 447.957031 842.234375 434.089844 841.972656 420.242188 C 841.832031 413.128906 841.25 406.070312 839.144531 399.222656 C 836.082031 389.226562 829.730469 382.183594 820.21875 377.953125 C 812.941406 374.710938 805.289062 372.671875 797.441406 371.4375 C 791.214844 370.453125 784.960938 369.59375 778.683594 369.191406 C 772 368.761719 765.300781 369.191406 758.648438 370.148438 C 749.496094 371.453125 740.722656 373.90625 732.167969 377.441406 C 724.957031 380.410156 718.511719 384.554688 712.4375 389.242188 C 707.058594 393.386719 702.289062 398.347656 698.324219 403.910156 C 694.164062 409.730469 690.738281 415.929688 688.3125 422.738281 C 685.5 430.640625 683.820312 438.707031 683.726562 447.082031 C 683.628906 456.300781 685.082031 465.285156 688.160156 474.007812 C 691.542969 483.613281 696.132812 492.613281 701.359375 501.347656 C 704.644531 506.851562 707.75 512.496094 710.539062 518.277344 C 713.046875 523.476562 713.949219 529.0625 712.160156 534.761719 C 710.941406 538.644531 708.402344 541.609375 705.214844 544.0625 C 700.804688 547.460938 695.59375 549.054688 690.339844 550.414062 C 680.8125 552.894531 671.191406 555.042969 661.679688 557.59375 C 657.5625 558.703125 653.5 560.230469 649.644531 562.046875 C 647.234375 563.183594 645.390625 565.441406 643.0625 566.816406 C 640.011719 568.617188 638.984375 571.777344 637.167969 574.425781 C 636.890625 574.828125 636.351562 575.273438 635.90625 575.285156 C 633.035156 575.355469 630.167969 575.328125 627.035156 575.328125 C 627.214844 574.648438 627.28125 574.121094 627.476562 573.648438 C 628.515625 571.140625 629.445312 568.5625 630.722656 566.175781 C 631.527344 564.667969 632.746094 563.308594 634.007812 562.128906 C 635.738281 560.492188 637.597656 558.941406 639.582031 557.609375 C 643.324219 555.113281 647.496094 553.464844 651.851562 552.480469 C 661.667969 550.273438 671.566406 548.363281 681.394531 546.183594 C 686.191406 545.132812 691.046875 544.078125 695.355469 541.511719 C 700.183594 538.65625 703.289062 534.550781 703.675781 528.882812 C 703.9375 525.042969 703.289062 521.203125 701.679688 517.679688 C 698.933594 511.691406 696.078125 505.757812 693.097656 499.878906 C 688.273438 490.382812 683.613281 480.84375 681.1875 470.359375 C 678.429688 458.492188 677.832031 446.554688 680.1875 434.5625 C 681.839844 426.148438 684.625 418.121094 688.894531 410.648438 C 693.097656 403.296875 698.183594 396.726562 704.3125 390.835938 C 714.851562 380.726562 727.371094 374.265625 741.082031 369.871094 C 749.511719 367.167969 758.203125 365.976562 767.023438 365.394531 C 775.964844 364.796875 784.851562 365.253906 793.667969 366.65625 C 804.136719 368.320312 814.4375 370.828125 824.144531 375.152344 C 835.566406 380.257812 841.917969 389.40625 844.164062 401.566406 C 845.828125 410.578125 845.578125 419.671875 845.382812 428.753906 C 845.105469 442.4375 844.425781 456.164062 846.894531 469.738281 C 848.667969 479.511719 852.925781 487.953125 861.464844 493.609375 C 866.929688 497.230469 873.054688 498.699219 879.601562 498.601562 C 885.699219 498.519531 891.578125 497.214844 897.417969 495.675781 C 902.988281 494.207031 908.523438 492.585938 914.109375 491.183594 C 923.828125 488.746094 933.671875 487.304688 943.722656 488.21875 C 949.503906 488.746094 955.160156 489.964844 960.625 492.113281 C 966.433594 494.402344 971.839844 497.3125 976.402344 501.582031 C 979.175781 504.175781 981.640625 507.085938 984.414062 509.679688 C 987.910156 512.925781 990.363281 516.929688 992.191406 521.160156 C 994.523438 526.511719 996.3125 532.113281 997.972656 537.714844 C 998.988281 541.136719 999.582031 544.742188 999.875 548.304688 C 1000.21875 552.589844 1000.191406 556.929688 1000.054688 561.242188 C 999.957031 564.609375 999.527344 567.980469 999.097656 571.320312 C 998.542969 575.535156 998.777344 575.175781 994.507812 574.816406 Z M 994.507812 574.816406 " fill-opacity="1" fill-rule="nonzero"/></g><g clip-path="url(#d52225abfb)"><path fill="#bc4749" d="M 651.585938 574.789062 C 652.722656 573.816406 653.820312 572.777344 655.011719 571.890625 C 656.371094 570.878906 657.757812 569.894531 659.253906 569.101562 C 662.070312 567.621094 664.871094 566.066406 667.835938 564.957031 C 672.078125 563.363281 676.460938 562.144531 680.785156 560.757812 C 688.0625 558.441406 695.371094 556.195312 702.636719 553.796875 C 709.375 551.566406 715.15625 547.875 719.328125 542.011719 C 723.042969 536.785156 723.945312 530.960938 722.585938 524.75 C 721.285156 518.746094 718.386719 513.480469 715.058594 508.40625 C 710.855469 502.011719 706.585938 495.675781 702.496094 489.214844 C 696.3125 479.441406 692.125 468.820312 690.558594 457.371094 C 688.730469 444.019531 690.367188 431.097656 696.203125 418.773438 C 699.417969 411.992188 703.441406 405.835938 708.542969 400.386719 C 717.484375 390.863281 728.394531 384.261719 740.539062 379.769531 C 748.445312 376.847656 756.679688 375.113281 765.148438 374.488281 C 773.816406 373.835938 782.4375 373.949219 791.007812 375.222656 C 800.117188 376.570312 809.15625 378.328125 817.558594 382.335938 C 825.847656 386.289062 831.378906 392.734375 834.5 401.289062 C 836.621094 407.125 837.605469 413.210938 837.800781 419.382812 C 838.144531 429.792969 838.257812 440.21875 838.617188 450.644531 C 838.921875 459.519531 839.53125 468.378906 841.570312 477.058594 C 844.09375 487.773438 849.015625 497.089844 858.167969 503.71875 C 864.292969 508.15625 871.199219 510.414062 878.742188 510.96875 C 888.128906 511.664062 897.109375 509.570312 906.136719 507.449219 C 914.054688 505.589844 922.011719 503.828125 930.039062 502.511719 C 937.46875 501.292969 944.929688 501.75 952.25 503.855469 C 957.171875 505.269531 961.816406 507.253906 966.101562 510.039062 C 967.722656 511.09375 969.332031 512.21875 970.703125 513.546875 C 975.320312 518.039062 979.839844 522.683594 982.652344 528.550781 C 985.648438 534.789062 988.1875 541.207031 989.183594 548.179688 C 990.363281 556.417969 990.320312 564.625 989.058594 572.832031 C 988.683594 575.273438 988.644531 575.257812 985.289062 574.789062 C 985.414062 573.359375 985.621094 571.902344 985.664062 570.449219 C 985.773438 564.859375 986.203125 559.257812 985.800781 553.699219 C 985.425781 548.542969 984.097656 543.480469 982.28125 538.546875 C 980.324219 533.277344 977.773438 528.382812 974.140625 524.167969 C 971.6875 521.3125 968.734375 518.84375 965.824219 516.417969 C 960.109375 511.636719 953.289062 509.195312 946.082031 508.042969 C 940.175781 507.101562 934.144531 506.960938 928.207031 508.101562 C 918.046875 510.054688 907.925781 512.316406 897.75 514.214844 C 888.292969 515.988281 878.796875 516.375 869.453125 513.453125 C 856.460938 509.390625 847.863281 500.585938 842.597656 488.261719 C 839.449219 480.882812 837.980469 473.066406 837.410156 465.148438 C 836.59375 453.542969 836.328125 441.898438 835.539062 430.277344 C 835.054688 423.222656 834.554688 416.082031 833.140625 409.164062 C 830.089844 394.34375 820.539062 385.429688 806.078125 381.613281 C 794.652344 378.605469 783.0625 376.886719 771.222656 377.414062 C 762.183594 377.832031 753.324219 379.203125 744.628906 381.960938 C 738.640625 383.859375 733.039062 386.523438 727.730469 389.644531 C 722.085938 392.96875 716.945312 397.117188 712.339844 401.941406 C 707.03125 407.515625 702.914062 413.808594 699.78125 420.753906 C 697.089844 426.730469 695.382812 432.996094 694.761719 439.609375 C 694.246094 445.128906 694.246094 450.535156 695.136719 455.996094 C 696.464844 464.121094 699.085938 471.789062 702.914062 479.054688 C 707.433594 487.609375 713.007812 495.441406 718.648438 503.273438 C 721.714844 507.53125 724.542969 512.039062 726.871094 516.722656 C 730.378906 523.808594 731.613281 531.335938 728.242188 538.890625 C 725.332031 545.421875 720.589844 550.496094 714.128906 553.574219 C 708.332031 556.332031 702.371094 558.746094 696.382812 561.046875 C 690.808594 563.195312 685.070312 564.914062 679.46875 566.996094 C 675.917969 568.3125 672.4375 569.878906 669 571.488281 C 666.867188 572.484375 664.882812 573.789062 662.832031 574.941406 C 662.59375 575.078125 662.332031 575.230469 662.070312 575.230469 C 658.65625 575.246094 655.246094 575.246094 651.835938 575.246094 C 651.765625 575.121094 651.683594 574.953125 651.585938 574.789062 Z M 651.585938 574.789062 " fill-opacity="1" fill-rule="nonzero"/></g><g clip-path="url(#2896b6a209)"><path fill="#bc4749" d="M 679.066406 574.773438 C 683.890625 572.695312 688.730469 570.613281 693.554688 568.519531 C 701.664062 564.984375 709.914062 561.726562 717.84375 557.816406 C 724.054688 554.765625 729.324219 550.332031 733.152344 544.367188 C 737.742188 537.242188 738.542969 529.644531 736.257812 521.589844 C 734.273438 514.589844 730.53125 508.542969 726.273438 502.761719 C 720.921875 495.496094 715.253906 488.425781 710.386719 480.84375 C 702.09375 467.921875 698.296875 453.683594 700.125 438.238281 C 700.792969 432.609375 702.371094 427.214844 704.703125 422.015625 C 707.40625 416 711.039062 410.6875 715.40625 405.765625 C 722.476562 397.808594 731.140625 392.082031 740.761719 387.949219 C 750.164062 383.902344 760.117188 381.824219 770.417969 381.394531 C 782.828125 380.867188 794.972656 382.183594 806.828125 385.84375 C 817.902344 389.269531 825.335938 396.589844 829.148438 407.570312 C 831.199219 413.488281 832.101562 419.632812 832.515625 425.828125 C 833.195312 435.949219 833.527344 446.085938 834.265625 456.191406 C 835.039062 466.910156 836.148438 477.613281 839.90625 487.800781 C 845.1875 502.152344 854.671875 512.398438 869.425781 517.207031 C 877.507812 519.84375 885.882812 520.273438 894.253906 519.09375 C 903.183594 517.832031 912.085938 516.25 920.984375 514.78125 C 928.777344 513.492188 936.609375 512.839844 944.457031 514.0625 C 949.921875 514.90625 955.132812 516.527344 959.875 519.636719 C 963.230469 521.839844 966.140625 524.402344 968.957031 527.246094 C 971.660156 529.976562 973.949219 532.957031 975.515625 536.355469 C 977.953125 541.664062 980.074219 547.085938 980.992188 552.980469 C 982.015625 559.550781 981.945312 566.050781 981.296875 572.609375 C 981.058594 575.035156 980.894531 575.160156 977.316406 574.882812 C 977.316406 574.328125 977.261719 573.734375 977.332031 573.164062 C 978.007812 567.425781 978.066406 561.714844 977.121094 555.972656 C 975.734375 547.585938 973.019531 539.738281 967.527344 533.167969 C 964.796875 529.894531 961.566406 527.050781 957.835938 524.792969 C 948.242188 518.984375 937.761719 518.054688 926.976562 519.066406 C 920.417969 519.691406 913.914062 520.785156 907.382812 521.671875 C 897.265625 523.058594 887.15625 524.28125 876.953125 522.519531 C 861.605469 519.882812 850.125 511.773438 842.359375 498.324219 C 838.0625 490.878906 835.898438 482.726562 834.445312 474.324219 C 832.390625 462.570312 831.808594 450.671875 831.046875 438.792969 C 830.464844 429.722656 829.882812 420.671875 827.222656 411.867188 C 823.492188 399.484375 815.464844 391.554688 803.097656 387.964844 C 796.316406 385.996094 789.355469 385.09375 782.328125 384.582031 C 774.714844 384.027344 767.148438 384.402344 759.6875 385.800781 C 755.417969 386.605469 751.246094 388.019531 747.058594 389.226562 C 740.914062 390.988281 735.398438 394.191406 730.226562 397.726562 C 725.527344 400.929688 721.007812 404.601562 717.609375 409.371094 C 716.265625 411.257812 714.710938 412.988281 713.410156 414.917969 C 709.027344 421.363281 706.394531 428.460938 705.089844 436.183594 C 703.453125 445.808594 704.660156 455.054688 707.917969 464.121094 C 710.179688 470.417969 713.351562 476.265625 717.277344 481.675781 C 721.65625 487.71875 726.300781 493.570312 730.765625 499.558594 C 736.296875 506.992188 741.027344 514.824219 742.773438 524.125 C 744.535156 533.511719 742.414062 541.816406 736.089844 549.011719 C 730.960938 554.851562 724.695312 559.175781 717.761719 562.558594 C 711.550781 565.582031 705.242188 568.394531 698.988281 571.335938 C 696.550781 572.484375 694.152344 573.746094 691.738281 574.941406 C 691.445312 575.078125 691.128906 575.273438 690.824219 575.273438 C 686.96875 575.300781 683.101562 575.285156 679.246094 575.285156 C 679.148438 575.121094 679.109375 574.953125 679.066406 574.773438 Z M 679.066406 574.773438 " fill-opacity="1" fill-rule="nonzero"/></g><g clip-path="url(#93395c2f36)"><path fill="#bc4749" d="M 705.117188 575.3125 C 712.464844 571.210938 719.703125 567.371094 726.71875 563.167969 C 733.582031 559.050781 739.957031 554.253906 744.699219 547.613281 C 748.691406 542.054688 750.230469 535.773438 749.664062 529.0625 C 748.625 516.722656 743.148438 506.160156 735.855469 496.425781 C 730.40625 489.160156 724.445312 482.230469 719.535156 474.617188 C 710.886719 461.210938 707.585938 446.554688 712.023438 430.792969 C 713.867188 424.234375 717.039062 418.355469 721.339844 412.988281 C 726.84375 406.097656 733.636719 400.832031 741.316406 396.769531 C 750.480469 391.917969 760.378906 389.40625 770.75 388.714844 C 779.886719 388.105469 788.898438 388.78125 797.828125 390.75 C 811.804688 393.84375 820.871094 402.285156 824.546875 416.066406 C 826.207031 422.292969 827.125 428.78125 827.804688 435.199219 C 829.34375 449.800781 829.855469 464.496094 832.863281 478.929688 C 835.164062 489.980469 839.046875 500.320312 846.464844 509.054688 C 855.851562 520.121094 868.023438 525.722656 882.277344 527.300781 C 891.941406 528.371094 901.535156 527.273438 911.128906 526.402344 C 919.015625 525.679688 926.890625 524.863281 934.851562 525.5 C 941.242188 526 947.328125 527.664062 952.886719 530.710938 C 955.785156 532.292969 958.351562 534.664062 960.679688 537.046875 C 962.9375 539.363281 965.058594 541.957031 966.585938 544.785156 C 969.691406 550.511719 971.757812 556.652344 971.921875 563.265625 C 972.007812 566.46875 971.8125 569.683594 971.921875 572.875 C 971.980469 574.675781 971.300781 575.285156 969.609375 575.007812 C 969.234375 574.953125 968.84375 574.96875 968.375 574.953125 C 968.375 573.191406 968.359375 571.488281 968.375 569.796875 C 968.414062 564.222656 967.554688 558.828125 965.753906 553.519531 C 964.476562 549.761719 962.660156 546.367188 960.234375 543.371094 C 957.890625 540.472656 955.078125 537.992188 951.832031 535.96875 C 947.355469 533.167969 942.515625 531.335938 937.386719 530.40625 C 930.164062 529.089844 922.84375 529.230469 915.523438 529.6875 C 905.734375 530.296875 895.972656 531.210938 886.144531 530.585938 C 861.480469 529.007812 842.859375 515.019531 834.707031 491.671875 C 831.78125 483.308594 830.132812 474.660156 829.078125 465.910156 C 827.621094 453.863281 826.515625 441.785156 825.003906 429.738281 C 824.476562 425.523438 823.476562 421.324219 822.230469 417.261719 C 818 403.421875 808.503906 395.394531 794.375 392.761719 C 784.101562 390.847656 773.789062 390.558594 763.484375 392.5 C 757.773438 393.566406 752.089844 394.925781 746.90625 397.683594 C 742.660156 399.945312 738.238281 402.039062 734.480469 404.960938 C 730.640625 407.957031 727.3125 411.699219 724.140625 415.429688 C 719.398438 421.015625 716.667969 427.714844 715.253906 434.839844 C 712.964844 446.292969 715.253906 457.121094 720.644531 467.3125 C 724.859375 475.28125 730.40625 482.351562 736.046875 489.355469 C 742.441406 497.3125 747.707031 505.964844 751.078125 515.65625 C 753.546875 522.753906 754.917969 529.976562 753.753906 537.546875 C 752.921875 542.953125 750.441406 547.503906 746.875 551.507812 C 741.59375 557.457031 735.105469 561.921875 728.394531 566.066406 C 723.5 569.089844 718.511719 571.957031 713.5625 574.882812 C 713.1875 575.105469 712.742188 575.300781 712.339844 575.3125 C 709.984375 575.328125 707.613281 575.3125 705.117188 575.3125 Z M 705.117188 575.3125 " fill-opacity="1" fill-rule="nonzero"/></g><g clip-path="url(#8889141a0d)"><path fill="#bc4749" d="M 722.558594 574.953125 C 724.238281 573.832031 725.914062 572.695312 727.589844 571.570312 C 735.078125 566.550781 742.785156 561.867188 749.457031 555.738281 C 757.980469 547.902344 760.601562 538.199219 758.6875 527.039062 C 756.414062 513.730469 750.925781 501.761719 743.203125 490.796875 C 738.933594 484.722656 734.21875 478.96875 729.933594 472.925781 C 725.773438 467.046875 722.613281 460.613281 720.949219 453.585938 C 719.007812 445.40625 719.175781 437.253906 722.085938 429.253906 C 723.722656 424.761719 726.082031 420.710938 728.976562 416.886719 C 733.746094 410.605469 739.792969 405.878906 746.601562 402.257812 C 755.292969 397.640625 764.691406 395.242188 774.578125 394.746094 C 781.816406 394.371094 788.957031 394.773438 796 396.492188 C 807.4375 399.292969 815.035156 406.390625 819.261719 417.289062 C 821.785156 423.789062 822.976562 430.597656 823.851562 437.472656 C 825.683594 451.894531 826.679688 466.421875 829.839844 480.648438 C 832.476562 492.515625 836.664062 503.664062 844.664062 513.0625 C 852.882812 522.699219 863.226562 528.757812 875.539062 531.710938 C 886.019531 534.21875 896.625 534.109375 907.261719 533.789062 C 916.949219 533.484375 926.65625 533.054688 936.207031 535.289062 C 942.074219 536.660156 947.464844 538.988281 952.015625 543.136719 C 955.273438 546.101562 958.265625 549.289062 960.054688 553.3125 C 962.34375 558.46875 964.035156 563.835938 964.019531 569.589844 C 964.019531 570.960938 964.117188 572.332031 964.199219 573.707031 C 964.257812 574.605469 963.921875 574.980469 962.980469 575.023438 C 960.234375 575.148438 960.347656 575.050781 960.152344 572.234375 C 959.945312 569.171875 959.402344 566.109375 958.738281 563.113281 C 958.265625 560.976562 957.558594 558.84375 956.589844 556.886719 C 952.015625 547.613281 944.457031 542.082031 934.558594 539.378906 C 926.65625 537.230469 918.613281 537.074219 910.53125 536.980469 C 903.503906 536.882812 896.445312 536.910156 889.445312 536.410156 C 871.699219 535.148438 856.128906 529.019531 844.234375 515.210938 C 838.105469 508.097656 833.890625 499.917969 831.128906 490.992188 C 827.898438 480.507812 826.113281 469.722656 824.699219 458.867188 C 823.285156 448.066406 822.480469 437.167969 819.71875 426.578125 C 818.027344 420.101562 815.601562 413.945312 811.125 408.789062 C 805.660156 402.480469 798.550781 399.292969 790.480469 398.101562 C 781.523438 396.769531 772.636719 397.144531 763.792969 399.277344 C 756.402344 401.066406 749.609375 404.007812 743.273438 408.261719 C 739.527344 410.773438 736.339844 413.820312 733.554688 417.191406 C 728.464844 423.320312 725.234375 430.363281 724.390625 438.457031 C 723.222656 449.632812 726.730469 459.476562 732.679688 468.585938 C 736.878906 475.03125 741.566406 481.160156 745.835938 487.566406 C 754.003906 499.824219 759.980469 513.035156 762.488281 527.664062 C 763.457031 533.332031 763.570312 539.003906 761.808594 544.617188 C 760.226562 549.652344 757.191406 553.714844 753.308594 557.097656 C 749.898438 560.0625 746.238281 562.753906 742.566406 565.402344 C 738.128906 568.589844 733.566406 571.625 729.019531 574.664062 C 728.382812 575.09375 727.507812 575.273438 726.730469 575.328125 C 725.414062 575.4375 724.082031 575.355469 722.753906 575.355469 C 722.683594 575.203125 722.613281 575.078125 722.558594 574.953125 Z M 722.558594 574.953125 " fill-opacity="1" fill-rule="nonzero"/></g><g clip-path="url(#423c4bd09b)"><path fill="#bc4749" d="M 736.171875 574.898438 C 738.210938 573.429688 740.277344 571.972656 742.300781 570.503906 C 747.390625 566.789062 752.628906 563.253906 757.539062 559.316406 C 766.507812 552.105469 769.003906 542.457031 767.339844 531.433594 C 764.957031 515.628906 759.105469 501.070312 750.96875 487.441406 C 746.792969 480.453125 741.941406 473.882812 737.585938 467.003906 C 732.195312 458.480469 728.839844 449.285156 729.90625 439 C 730.601562 432.332031 732.957031 426.285156 737.089844 420.878906 C 741.179688 415.527344 746.210938 411.328125 751.992188 408.109375 C 760.046875 403.617188 768.851562 401.550781 778.058594 401.039062 C 784.144531 400.691406 790.148438 401.082031 795.957031 402.992188 C 806.121094 406.335938 812.191406 413.753906 815.839844 423.472656 C 818.304688 430.042969 819.457031 436.933594 820.578125 443.824219 C 822.660156 456.59375 824.488281 469.417969 826.984375 482.117188 C 829.148438 493.097656 833.128906 503.496094 839.742188 512.703125 C 849.820312 526.734375 863.644531 534.816406 880.375 538.253906 C 890.027344 540.238281 899.84375 540.460938 909.644531 540.945312 C 916.285156 541.277344 922.925781 541.761719 929.375 543.523438 C 935.765625 545.257812 941.683594 548.042969 946.175781 553.019531 C 949.199219 556.375 951.917969 560.0625 952.847656 564.722656 C 953.304688 566.996094 953.984375 569.214844 954.441406 571.488281 C 954.648438 572.542969 954.578125 573.664062 954.648438 574.871094 C 953.96875 574.925781 953.484375 574.925781 953.011719 574.996094 C 951.292969 575.285156 950.933594 574.371094 950.753906 572.847656 C 950.140625 567.621094 948.5625 562.792969 945.316406 558.453125 C 939.8125 551.078125 932.257812 547.265625 923.550781 545.714844 C 916.425781 544.453125 909.1875 543.773438 901.964844 543.121094 C 891.414062 542.164062 880.890625 541.222656 870.796875 537.644531 C 851.484375 530.796875 838.382812 517.542969 830.769531 498.6875 C 826.984375 489.300781 824.824219 479.46875 823.089844 469.542969 C 821.050781 457.882812 819.207031 446.179688 817.042969 434.535156 C 816.003906 428.960938 814.050781 423.636719 811.152344 418.714844 C 806.1875 410.285156 798.855469 405.449219 789.191406 403.964844 C 781.039062 402.714844 773.109375 403.742188 765.207031 405.820312 C 758.828125 407.5 753.046875 410.425781 747.945312 414.433594 C 743.523438 417.910156 739.832031 422.140625 737.324219 427.394531 C 734.191406 433.9375 733.09375 440.691406 734.261719 447.746094 C 735.300781 454.054688 737.976562 459.769531 741.277344 465.230469 C 747.140625 474.894531 753.53125 484.253906 758.257812 494.566406 C 763.597656 506.199219 768.046875 518.109375 770.167969 530.796875 C 770.917969 535.246094 771.25 539.710938 770.558594 544.203125 C 769.546875 550.675781 766.496094 556.085938 761.394531 560.105469 C 756.375 564.070312 751.050781 567.660156 745.851562 571.417969 C 744.546875 572.359375 743.160156 573.191406 741.941406 574.21875 C 740.207031 575.703125 738.253906 575.21875 736.355469 575.285156 C 736.296875 575.175781 736.230469 575.035156 736.171875 574.898438 Z M 736.171875 574.898438 " fill-opacity="1" fill-rule="nonzero"/></g><g clip-path="url(#a3630fe3e1)"><path fill="#bc4749" d="M 747.167969 575.121094 C 750.425781 572.957031 753.519531 570.945312 756.566406 568.882812 C 762.042969 565.164062 767.535156 561.449219 771.222656 555.738281 C 774.246094 551.050781 775.0625 545.839844 774.925781 540.363281 C 774.746094 533.042969 772.984375 526.027344 770.960938 519.066406 C 767.257812 506.285156 762.40625 493.945312 756.179688 482.171875 C 753.335938 476.792969 750.136719 471.609375 747.167969 466.285156 C 744.007812 460.628906 740.96875 454.902344 739.792969 448.414062 C 738.378906 440.582031 739.5 433.21875 743.648438 426.300781 C 747.210938 420.351562 752.339844 416.097656 758.246094 412.867188 C 767.007812 408.054688 776.558594 406.070312 786.5 406.945312 C 798.367188 407.984375 806.632812 414.320312 811.511719 425.164062 C 814.285156 431.347656 815.90625 437.863281 817.15625 444.460938 C 818.597656 452.085938 819.886719 459.726562 821.132812 467.378906 C 822.714844 477.125 824.960938 486.707031 828.191406 496.023438 C 832.019531 507.058594 837.882812 516.863281 846.382812 524.957031 C 855.644531 533.789062 866.707031 539.265625 879.074219 542.273438 C 888.167969 544.492188 897.472656 545.257812 906.734375 546.308594 C 913.414062 547.058594 920.097656 547.945312 926.449219 550.273438 C 931.382812 552.089844 935.902344 554.585938 939.480469 558.621094 C 942.003906 561.464844 944.152344 564.5 945.316406 568.117188 C 946.011719 570.238281 946.386719 572.472656 946.96875 574.96875 C 945.707031 574.96875 944.625 575.035156 943.558594 574.925781 C 943.25 574.882812 942.820312 574.316406 942.765625 573.941406 C 942.003906 568.976562 939.6875 564.820312 936.347656 561.160156 C 929.734375 553.878906 920.886719 551.410156 911.710938 549.734375 C 900.648438 547.710938 889.375 546.949219 878.464844 544.0625 C 863.917969 540.210938 851.359375 533.097656 841.445312 521.660156 C 833.75 512.800781 828.84375 502.429688 825.472656 491.269531 C 822.328125 480.828125 820.273438 470.140625 818.375 459.40625 C 816.738281 450.132812 815.296875 440.800781 812.066406 431.902344 C 809.628906 425.136719 806.257812 418.980469 800.226562 414.679688 C 795.761719 411.492188 790.714844 409.925781 785.253906 409.605469 C 777.808594 409.175781 770.683594 410.453125 763.957031 413.695312 C 761.183594 415.027344 758.257812 416.277344 755.902344 418.1875 C 746.722656 425.660156 741.109375 435.824219 744.476562 449.675781 C 745.949219 455.71875 748.804688 461.15625 751.644531 466.574219 C 759.148438 480.910156 765.898438 495.566406 770.902344 510.984375 C 773.648438 519.453125 776.214844 527.96875 777.476562 536.796875 C 778.375 543.148438 778.363281 549.511719 775.328125 555.445312 C 773.039062 559.925781 769.503906 563.308594 765.46875 566.164062 C 762.101562 568.546875 758.46875 570.574219 755.210938 573.109375 C 752.851562 574.996094 750.414062 575.785156 747.167969 575.121094 Z M 747.167969 575.121094 " fill-opacity="1" fill-rule="nonzero"/></g><g clip-path="url(#a87ee7fa59)"><path fill="#bc4749" d="M 758.578125 575.246094 C 761.546875 573.277344 764.179688 571.585938 766.757812 569.796875 C 771 566.855469 775.144531 563.835938 777.933594 559.328125 C 781.261719 553.933594 781.925781 548.015625 781.316406 541.886719 C 780.277344 531.449219 777.144531 521.507812 773.96875 511.59375 C 769.351562 497.175781 763.734375 483.144531 757.316406 469.417969 C 754.847656 464.164062 752.519531 458.8125 750.523438 453.363281 C 747.652344 445.488281 747.722656 437.597656 751.785156 430.042969 C 753.699219 426.480469 756.441406 423.652344 759.632812 421.183594 C 767.160156 415.332031 775.714844 412.65625 785.199219 413.15625 C 795.527344 413.695312 802.820312 419.007812 807.644531 427.976562 C 811.164062 434.535156 813.039062 441.648438 814.550781 448.871094 C 816.726562 459.1875 818.609375 469.558594 820.941406 479.832031 C 823.324219 490.410156 826.5 500.765625 831.78125 510.332031 C 842.292969 529.355469 858.414062 541.167969 879.238281 546.546875 C 887.945312 548.792969 896.890625 550.191406 905.722656 551.953125 C 912.625 553.324219 919.460938 554.917969 925.601562 558.59375 C 929.457031 560.894531 932.660156 563.777344 934.960938 567.746094 C 936.25 569.976562 937.289062 572.207031 937.929688 574.675781 C 935.222656 575.480469 934.753906 575.257812 933.851562 572.929688 C 931.316406 566.359375 926.351562 562.128906 920.277344 559.050781 C 914.539062 556.140625 908.339844 554.710938 902.101562 553.421875 C 891.664062 551.246094 881.125 549.414062 871.101562 545.589844 C 848.210938 536.839844 833.265625 520.480469 825.128906 497.589844 C 821.066406 486.167969 818.527344 474.355469 816.117188 462.515625 C 814.3125 453.695312 812.71875 444.808594 809.460938 436.367188 C 807.160156 430.402344 804.191406 424.84375 798.980469 420.863281 C 793.683594 416.832031 787.679688 415.429688 781.039062 415.875 C 774.578125 416.304688 768.714844 418.371094 763.597656 422.042969 C 755.390625 427.9375 750.84375 437.042969 753.058594 448.511719 C 754.628906 456.578125 758.09375 463.996094 761.199219 471.511719 C 769.917969 492.628906 777.726562 514.0625 782.730469 536.410156 C 784.1875 542.925781 784.867188 549.554688 782.757812 556.125 C 781.273438 560.769531 778.40625 564.445312 774.589844 567.355469 C 771.609375 569.628906 768.351562 571.558594 765.425781 573.914062 C 763.402344 575.453125 761.296875 575.382812 758.578125 575.246094 Z M 758.578125 575.246094 " fill-opacity="1" fill-rule="nonzero"/></g><g clip-path="url(#94b1f79eb1)"><path fill="#bc4749" d="M 772.191406 575.1875 C 775.132812 572.847656 778.195312 570.574219 781.050781 568.0625 C 786.972656 562.863281 788.84375 556.054688 788.304688 548.457031 C 787.597656 538.378906 784.671875 528.785156 781.605469 519.261719 C 776.269531 502.679688 770.640625 486.179688 765.21875 469.625 C 763.292969 463.746094 761.296875 457.855469 759.855469 451.839844 C 758.410156 445.890625 758.535156 439.871094 761.363281 434.1875 C 764.289062 428.324219 769.171875 424.773438 775.105469 422.390625 C 780.125 420.367188 785.265625 420.144531 790.398438 421.570312 C 796.832031 423.359375 801.308594 427.699219 804.550781 433.382812 C 808.15625 439.679688 810.210938 446.570312 811.902344 453.570312 C 814.480469 464.273438 816.824219 475.046875 819.609375 485.695312 C 822.632812 497.203125 826.734375 508.308594 833.40625 518.304688 C 843.554688 533.511719 857.527344 543.785156 874.761719 549.484375 C 883.496094 552.382812 892.507812 554.460938 901.394531 556.902344 C 908.5625 558.871094 915.675781 560.976562 921.511719 565.859375 C 923.175781 567.257812 924.605469 568.992188 925.949219 570.710938 C 926.878906 571.902344 927.515625 573.332031 928.292969 574.691406 C 925.753906 575.3125 925.226562 575.273438 923.953125 573.136719 C 920.335938 567.09375 914.761719 563.570312 908.398438 561.378906 C 900.410156 558.636719 892.246094 556.417969 884.121094 554.03125 C 873.402344 550.886719 863.128906 546.808594 853.867188 540.417969 C 839.003906 530.15625 829.246094 516.085938 823.074219 499.28125 C 818.792969 487.621094 815.992188 475.558594 813.132812 463.511719 C 811.082031 454.859375 809.101562 446.179688 805.09375 438.167969 C 802.195312 432.371094 798.300781 427.476562 792.089844 425.023438 C 787.761719 423.320312 783.269531 423.027344 778.792969 424.429688 C 776.601562 425.121094 774.257812 425.746094 772.402344 427.007812 C 768.378906 429.738281 765.261719 433.34375 763.734375 438.125 C 761.613281 444.792969 762.417969 451.449219 764.359375 457.910156 C 768.851562 472.953125 773.703125 487.898438 778.238281 502.929688 C 781.996094 515.40625 785.683594 527.925781 789.066406 540.515625 C 790.632812 546.335938 791.382812 552.382812 789.980469 558.414062 C 788.707031 563.929688 785.558594 568.203125 781.023438 571.5 C 780.359375 571.988281 779.679688 572.484375 779.070312 573.054688 C 777.074219 574.871094 774.867188 575.910156 772.191406 575.1875 Z M 772.191406 575.1875 " fill-opacity="1" fill-rule="nonzero"/></g><g clip-path="url(#98b7c7d7ae)"><path fill="#bc4749" d="M 782.148438 575.066406 C 783.296875 574.066406 784.449219 573.066406 785.613281 572.070312 C 790.273438 568.0625 793.058594 563.097656 793.433594 556.875 C 793.847656 550.121094 792.476562 543.621094 790.617188 537.230469 C 786.667969 523.628906 782.425781 510.109375 778.445312 496.507812 C 774.882812 484.335938 771.402344 472.136719 768.117188 459.894531 C 766.828125 455.082031 766.316406 450.089844 766.871094 445.058594 C 767.742188 437.183594 771.734375 431.511719 779.152344 428.753906 C 785.808594 426.273438 792.003906 427.632812 797.398438 432.34375 C 801.753906 436.144531 804.496094 441.066406 806.246094 446.402344 C 808.949219 454.695312 811.304688 463.109375 813.523438 471.539062 C 816.738281 483.769531 819.929688 495.996094 825.167969 507.558594 C 834.636719 528.453125 850.140625 543.105469 871.378906 551.496094 C 880.113281 554.949219 889.179688 557.527344 898.082031 560.507812 C 904.195312 562.558594 910.183594 564.859375 915.230469 569.019531 C 917.144531 570.585938 918.890625 572.332031 919.988281 574.789062 C 918.363281 575.175781 917.378906 574.898438 916.328125 573.582031 C 912.859375 569.242188 908.273438 566.289062 903.167969 564.332031 C 895.792969 561.503906 888.28125 558.996094 880.820312 556.390625 C 869.730469 552.519531 859.164062 547.65625 849.832031 540.390625 C 836.84375 530.28125 828.011719 517.207031 822.0625 501.984375 C 817.445312 490.171875 814.367188 477.917969 811.125 465.703125 C 809.042969 457.898438 806.910156 450.089844 803.082031 442.894531 C 801.351562 439.636719 799.257812 436.613281 796.304688 434.367188 C 791.480469 430.695312 786.222656 429.324219 780.304688 431.691406 C 773.773438 434.3125 770.820312 439.5 769.863281 446.054688 C 768.933594 452.421875 770.140625 458.660156 771.527344 464.828125 C 776.28125 485.917969 782.855469 506.492188 789.121094 527.136719 C 791.546875 535.136719 794.167969 543.09375 795.140625 551.441406 C 795.816406 557.316406 795.777344 563.15625 792.074219 568.175781 C 790.3125 570.558594 788.191406 572.722656 785.960938 574.675781 C 785.140625 575.398438 783.546875 575.246094 782.300781 575.496094 C 782.246094 575.371094 782.203125 575.21875 782.148438 575.066406 Z M 782.148438 575.066406 " fill-opacity="1" fill-rule="nonzero"/></g><g clip-path="url(#cc12937ea7)"><path fill="#bc4749" d="M 4.324219 164.480469 C 2.9375 165.667969 1.699219 166.75 0.304688 167.945312 C 1.375 169.589844 2.363281 171.289062 3.53125 172.855469 C 6.644531 177.0625 9.636719 181.386719 13.054688 185.34375 C 16.328125 189.136719 19.976562 192.625 23.621094 196.078125 C 26.246094 198.570312 29.066406 200.84375 31.910156 203.09375 C 36.648438 206.84375 41.683594 210.140625 46.953125 213.109375 C 51.90625 215.90625 56.960938 218.476562 62.285156 220.457031 C 67.644531 222.441406 73.054688 224.3125 78.515625 226.011719 C 81.390625 226.902344 84.414062 227.363281 87.386719 227.929688 C 90.570312 228.53125 93.753906 229.167969 96.972656 229.527344 C 100.058594 229.871094 103.1875 229.871094 106.289062 230.042969 C 108.789062 230.175781 111.28125 230.492188 113.769531 230.445312 C 116.871094 230.382812 119.992188 230.15625 123.078125 229.761719 C 125.398438 229.464844 127.742188 228.988281 129.945312 228.214844 C 132.265625 227.40625 134.578125 226.363281 136.636719 225.03125 C 139.351562 223.289062 141.96875 221.320312 144.367188 219.152344 C 146.140625 217.5625 147.589844 215.582031 148.992188 213.632812 C 150.367188 211.726562 151.597656 209.691406 152.730469 207.625 C 154.78125 203.882812 156.644531 200.035156 158.710938 196.304688 C 160.445312 193.175781 163.035156 190.925781 166.328125 189.453125 C 171.328125 187.214844 176.621094 186.117188 181.972656 185.179688 C 186.433594 184.398438 190.902344 183.714844 195.351562 182.90625 C 200.613281 181.953125 205.898438 181.097656 211.097656 179.859375 C 216.375 178.597656 221.5 176.808594 226.355469 174.300781 C 232.480469 171.128906 237.890625 167.070312 242.496094 161.929688 C 245.527344 158.539062 247.945312 154.746094 250.058594 150.742188 C 251.800781 147.441406 253.1875 143.988281 254.105469 140.375 C 254.796875 137.679688 255.308594 134.933594 255.832031 132.191406 C 256.847656 126.84375 257.117188 121.429688 256.757812 116.007812 C 256.414062 110.882812 256.019531 105.738281 255.203125 100.675781 C 254.507812 96.414062 253.1875 92.25 252.109375 88.0625 C 251.703125 86.507812 251.253906 84.949219 250.730469 83.429688 C 249.886719 80.992188 249.007812 78.574219 248.0625 76.183594 C 247.0625 73.65625 246.074219 71.113281 244.914062 68.65625 C 243.492188 65.644531 241.910156 62.714844 240.382812 59.746094 C 236.886719 52.976562 232.703125 46.609375 228.359375 40.371094 C 225.617188 36.429688 222.660156 32.628906 219.65625 28.878906 C 215.441406 23.617188 211.167969 18.394531 206.78125 13.277344 C 204.074219 10.121094 201.089844 7.207031 198.238281 4.160156 C 197.0625 2.902344 195.9375 1.605469 194.667969 0.183594 C 193.160156 1.472656 191.703125 2.703125 190.136719 4.035156 C 191.386719 5.417969 192.574219 6.695312 193.726562 8.015625 C 197.152344 11.929688 200.621094 15.804688 203.964844 19.789062 C 207.148438 23.574219 210.199219 27.484375 213.308594 31.332031 C 217.183594 36.132812 221.132812 40.882812 224.933594 45.746094 C 227.328125 48.792969 229.621094 51.933594 231.757812 55.160156 C 234.808594 59.753906 237.847656 64.367188 240.203125 69.394531 C 241.328125 71.796875 242.640625 74.105469 243.738281 76.515625 C 244.644531 78.496094 245.417969 80.542969 246.171875 82.59375 C 247.101562 85.066406 248.070312 87.539062 248.808594 90.074219 C 249.609375 92.828125 250.085938 95.667969 250.820312 98.4375 C 252.980469 106.503906 253.203125 114.765625 253.125 123.019531 C 253.097656 126.042969 252.449219 129.0625 251.980469 132.066406 C 251.703125 133.902344 251.363281 135.753906 250.8125 137.523438 C 250.03125 140.085938 249.078125 142.597656 248.105469 145.097656 C 247.566406 146.488281 246.945312 147.882812 246.15625 149.152344 C 244.742188 151.433594 243.222656 153.648438 241.6875 155.851562 C 238.683594 160.148438 234.78125 163.503906 230.472656 166.425781 C 224.234375 170.660156 217.273438 173.214844 210.035156 175.066406 C 201.179688 177.332031 192.152344 178.652344 183.105469 179.867188 C 179.265625 180.378906 175.4375 181.046875 171.640625 181.863281 C 168.421875 182.554688 165.203125 183.363281 162.109375 184.472656 C 157.992188 185.9375 154.710938 188.554688 152.8125 192.644531 C 150.960938 196.644531 149.144531 200.664062 147.210938 204.628906 C 145.394531 208.351562 143.144531 211.804688 140.207031 214.753906 C 137.984375 216.976562 135.585938 219.015625 132.839844 220.5625 C 131.1875 221.5 129.351562 222.128906 127.582031 222.839844 C 124.648438 224.027344 121.503906 224.242188 118.445312 224.878906 C 115.398438 225.519531 112.414062 225.527344 109.398438 225.480469 C 106.308594 225.429688 103.222656 224.980469 100.140625 224.699219 C 98.394531 224.546875 96.648438 224.429688 94.914062 224.222656 C 93.539062 224.050781 92.171875 223.792969 90.804688 223.53125 C 89.230469 223.226562 87.660156 222.894531 86.09375 222.542969 C 84.492188 222.191406 82.894531 221.851562 81.320312 221.417969 C 78.628906 220.691406 75.90625 220.007812 73.28125 219.089844 C 69.621094 217.820312 66.015625 216.410156 62.425781 214.960938 C 57.121094 212.8125 52.070312 210.125 47.257812 207.058594 C 42.753906 204.191406 38.394531 201.078125 34.128906 197.859375 C 29.167969 194.109375 24.535156 189.945312 20.410156 185.289062 C 16.894531 181.316406 13.503906 177.214844 10.230469 173.042969 C 8.378906 170.675781 6.886719 168.035156 5.214844 165.527344 C 5.007812 165.175781 4.683594 164.886719 4.324219 164.480469 Z M 4.324219 164.480469 " fill-opacity="1" fill-rule="nonzero"/></g><path fill="#bc4749" d="M 185.480469 8.214844 C 184.5625 8.953125 183.753906 9.601562 182.933594 10.246094 C 182.394531 10.667969 182.269531 11.054688 182.78125 11.660156 C 186.523438 16.027344 189.867188 20.6875 193.09375 25.453125 C 197.203125 31.503906 201.476562 37.464844 205.800781 43.363281 C 208.578125 47.148438 211.546875 50.800781 214.53125 54.433594 C 217.101562 57.5625 219.890625 60.519531 222.460938 63.65625 C 224.484375 66.121094 226.382812 68.695312 228.226562 71.292969 C 229.84375 73.574219 231.445312 75.878906 232.804688 78.324219 C 234.851562 82.019531 236.742188 85.796875 238.566406 89.609375 C 239.4375 91.441406 240.050781 93.410156 240.671875 95.355469 C 241.613281 98.3125 242.59375 101.269531 243.296875 104.28125 C 243.84375 106.648438 244.058594 109.101562 244.292969 111.539062 C 244.527344 113.96875 244.625 116.414062 244.753906 118.847656 C 244.976562 123.191406 244.367188 127.464844 243.289062 131.625 C 242.34375 135.257812 240.984375 138.765625 239.285156 142.15625 C 237.011719 146.695312 233.792969 150.480469 230.175781 153.925781 C 227.265625 156.703125 223.902344 158.960938 220.242188 160.6875 C 217.15625 162.144531 214.089844 163.726562 210.855469 164.742188 C 205.925781 166.289062 200.898438 167.566406 195.847656 168.617188 C 190.890625 169.644531 185.855469 170.308594 180.847656 171.019531 C 174.554688 171.917969 168.234375 172.609375 161.949219 173.589844 C 157.441406 174.292969 153 175.261719 148.863281 177.375 C 145.332031 179.183594 142.921875 181.980469 141.265625 185.460938 C 139.621094 188.921875 138.300781 192.546875 136.589844 195.972656 C 134.191406 200.78125 131.214844 205.234375 126.746094 208.40625 C 125.144531 209.539062 123.128906 210.105469 121.53125 211.25 C 119.777344 212.515625 117.644531 212.316406 115.785156 213.171875 C 114.507812 213.765625 112.90625 213.828125 111.449219 213.847656 C 108.050781 213.882812 104.660156 213.792969 101.261719 213.667969 C 99.507812 213.605469 97.757812 213.46875 96.03125 213.179688 C 93.144531 212.695312 90.238281 212.210938 87.414062 211.457031 C 82.460938 210.132812 77.425781 208.945312 72.660156 207.09375 C 67.320312 205.027344 62.148438 202.464844 57.078125 199.792969 C 53.210938 197.761719 49.496094 195.386719 45.9375 192.851562 C 42.4375 190.359375 39.164062 187.546875 35.902344 184.742188 C 33.5625 182.726562 31.296875 180.605469 29.222656 178.328125 C 26.414062 175.261719 23.710938 172.089844 21.164062 168.796875 C 18.726562 165.652344 16.550781 162.316406 14.285156 159.042969 C 13.84375 158.402344 13.484375 157.710938 13.042969 156.984375 C 11.910156 157.917969 10.84375 158.746094 9.84375 159.652344 C 9.671875 159.816406 9.671875 160.398438 9.824219 160.660156 C 12.863281 165.796875 16.246094 170.714844 20.066406 175.300781 C 24.367188 180.46875 28.996094 185.324219 34.15625 189.667969 C 38.285156 193.140625 42.554688 196.410156 47.085938 199.34375 C 52.195312 202.644531 57.480469 205.628906 63.109375 207.929688 C 67.824219 209.855469 72.570312 211.734375 77.390625 213.371094 C 80.5 214.429688 83.765625 215.078125 86.976562 215.796875 C 89.835938 216.445312 92.710938 216.976562 95.597656 217.480469 C 97.035156 217.730469 98.511719 217.855469 99.976562 217.945312 C 103.230469 218.136719 106.488281 218.378906 109.75 218.359375 C 111.808594 218.351562 113.859375 217.929688 115.910156 217.6875 C 117.160156 217.535156 118.4375 217.488281 119.640625 217.171875 C 121.53125 216.679688 123.402344 216.066406 125.214844 215.367188 C 129.09375 213.855469 132.222656 211.25 135.027344 208.273438 C 137.425781 205.726562 139.234375 202.734375 140.746094 199.59375 C 142.515625 195.917969 144.199219 192.1875 145.941406 188.5 C 148.101562 183.949219 151.734375 181.117188 156.4375 179.507812 C 160.769531 178.023438 165.222656 177.105469 169.753906 176.484375 C 175.371094 175.714844 181 174.949219 186.601562 174.066406 C 191.855469 173.238281 197.097656 172.386719 202.304688 171.308594 C 207.796875 170.175781 213.199219 168.636719 218.316406 166.296875 C 221.96875 164.625 225.636719 162.9375 228.765625 160.328125 C 230.808594 158.628906 232.917969 157 234.789062 155.121094 C 237.917969 151.976562 240.492188 148.386719 242.351562 144.339844 C 243.582031 141.671875 244.707031 138.953125 245.796875 136.230469 C 246.226562 135.140625 246.488281 133.964844 246.695312 132.804688 C 247.089844 130.621094 247.539062 128.433594 247.71875 126.222656 C 247.980469 122.941406 248.242188 119.621094 248.105469 116.339844 C 247.9375 112.257812 247.601562 108.148438 246.902344 104.121094 C 246.253906 100.398438 245.039062 96.773438 244.050781 93.113281 C 242.628906 87.863281 240.320312 82.953125 237.957031 78.097656 C 236.328125 74.753906 234.332031 71.570312 232.328125 68.433594 C 228.316406 62.175781 223.855469 56.238281 219 50.601562 C 216.636719 47.859375 214.433594 44.972656 212.15625 42.160156 C 209.902344 39.371094 207.554688 36.648438 205.394531 33.789062 C 201.816406 29.03125 198.425781 24.121094 194.8125 19.390625 C 192.070312 15.804688 189.09375 12.386719 186.214844 8.898438 C 186.027344 8.648438 185.757812 8.457031 185.480469 8.214844 Z M 185.480469 8.214844 " fill-opacity="1" fill-rule="nonzero"/><path fill="#bc4749" d="M 20.914062 150.175781 C 19.832031 151.074219 18.78125 151.910156 17.800781 152.828125 C 17.667969 152.953125 17.773438 153.511719 17.9375 153.765625 C 20.09375 157.152344 22.171875 160.605469 24.480469 163.890625 C 27.980469 168.863281 31.953125 173.457031 36.351562 177.65625 C 41.160156 182.242188 46.304688 186.429688 51.878906 190.089844 C 57.851562 194.011719 64.0625 197.464844 70.734375 199.980469 C 75.78125 201.886719 80.941406 203.523438 86.128906 205.027344 C 89.167969 205.90625 92.34375 206.3125 95.472656 206.859375 C 99.113281 207.507812 102.773438 207.695312 106.46875 207.230469 C 107.90625 207.050781 109.425781 207.273438 110.828125 206.96875 C 113.085938 206.464844 115.378906 205.898438 117.476562 204.964844 C 121.753906 203.046875 125.289062 200.144531 127.914062 196.167969 C 130.34375 192.5 132.09375 188.5 134.046875 184.597656 C 135.160156 182.359375 136.382812 180.15625 137.761719 178.058594 C 139.269531 175.757812 141.5 174.230469 143.992188 173.070312 C 147.472656 171.449219 151.148438 170.433594 154.933594 169.921875 C 164.546875 168.609375 174.1875 167.496094 183.78125 166.109375 C 192.824219 164.796875 201.746094 162.863281 210.242188 159.375 C 217.023438 156.585938 223.226562 152.882812 228.242188 147.453125 C 230.84375 144.636719 233.152344 141.5625 234.617188 137.976562 C 235.5625 135.671875 236.460938 133.34375 237.296875 130.996094 C 237.667969 129.964844 237.863281 128.855469 238.046875 127.769531 C 238.683594 123.867188 238.90625 119.9375 238.636719 115.980469 C 238.558594 114.757812 238.546875 113.527344 238.332031 112.332031 C 237.757812 109.175781 237.253906 105.980469 236.390625 102.898438 C 235.285156 98.949219 233.703125 95.148438 231.652344 91.585938 C 229.808594 88.394531 228 85.15625 225.878906 82.152344 C 223.710938 79.089844 221.210938 76.246094 218.820312 73.34375 C 216.652344 70.707031 214.351562 68.191406 212.246094 65.511719 C 209.566406 62.101562 206.863281 58.6875 204.46875 55.070312 C 201.089844 49.953125 198.050781 44.613281 194.75 39.433594 C 190.945312 33.464844 187.070312 27.546875 183.132812 21.667969 C 181.675781 19.5 179.957031 17.511719 178.359375 15.433594 C 178.203125 15.238281 178.070312 15.023438 177.898438 14.761719 C 176.957031 15.535156 176.164062 16.191406 175.265625 16.917969 C 176.039062 17.917969 176.828125 18.835938 177.503906 19.832031 C 180.019531 23.546875 182.648438 27.195312 184.949219 31.035156 C 188.535156 37.007812 191.863281 43.140625 195.359375 49.164062 C 198.570312 54.683594 201.851562 60.160156 205.125 65.652344 C 208.28125 70.960938 212.3125 75.589844 216.410156 80.15625 C 220.179688 84.347656 223.882812 88.621094 226.714844 93.511719 C 228.378906 96.371094 229.96875 99.308594 231.230469 102.367188 C 232.238281 104.8125 232.660156 107.5 233.371094 110.074219 C 234.636719 114.675781 234.4375 119.378906 234.25 124.054688 C 234.1875 125.699219 233.65625 127.335938 233.253906 128.957031 C 232.855469 130.503906 232.378906 132.03125 231.875 133.542969 C 230.988281 136.203125 229.738281 138.695312 227.984375 140.878906 C 226.222656 143.082031 224.484375 145.355469 222.433594 147.273438 C 218.136719 151.28125 213.046875 154.105469 207.617188 156.308594 C 199.335938 159.664062 190.695312 161.640625 181.882812 162.847656 C 173.699219 163.960938 165.480469 164.84375 157.28125 165.867188 C 152.578125 166.460938 147.894531 167.136719 143.335938 168.574219 C 137.660156 170.363281 133.640625 173.921875 131.027344 179.246094 C 129.074219 183.222656 126.96875 187.132812 124.820312 191.015625 C 123.328125 193.714844 121.324219 195.988281 118.777344 197.804688 C 117.050781 199.039062 115.15625 199.835938 113.304688 200.789062 C 111.324219 201.808594 109.285156 202.3125 107.199219 202.589844 C 105.039062 202.878906 102.820312 202.761719 100.625 202.777344 C 99.625 202.789062 98.621094 202.777344 97.640625 202.660156 C 95.238281 202.363281 92.785156 202.210938 90.445312 201.617188 C 85.867188 200.46875 81.265625 199.324219 76.851562 197.699219 C 72.21875 195.988281 67.707031 193.875 63.300781 191.636719 C 57.886719 188.886719 52.761719 185.585938 48.113281 181.664062 C 44.074219 178.277344 40.128906 174.75 36.421875 171.011719 C 31.515625 166.046875 27.316406 160.488281 23.644531 154.539062 C 22.730469 153.117188 21.847656 151.695312 20.914062 150.175781 Z M 20.914062 150.175781 " fill-opacity="1" fill-rule="nonzero"/><path fill="#bc4749" d="M 172.242188 19.644531 C 171.597656 20.15625 170.992188 20.632812 170.300781 21.171875 C 171.183594 22.367188 172.054688 23.492188 172.871094 24.652344 C 180.777344 35.835938 186.773438 48.03125 191.945312 60.664062 C 194.515625 66.949219 197.132812 73.207031 199.820312 79.4375 C 202.277344 85.128906 205.800781 90.113281 210.097656 94.582031 C 212.285156 96.847656 214.433594 99.195312 216.257812 101.746094 C 218.390625 104.730469 220.015625 108.023438 221.375 111.492188 C 223.109375 115.917969 223.117188 120.46875 222.894531 125.019531 C 222.785156 127.15625 221.949219 129.308594 221.160156 131.347656 C 218.371094 138.515625 213.164062 143.566406 206.671875 147.417969 C 200.074219 151.320312 192.871094 153.601562 185.441406 155.300781 C 176.378906 157.371094 167.152344 158.277344 157.929688 159.160156 C 151.742188 159.753906 145.574219 160.464844 139.421875 161.335938 C 135.546875 161.882812 131.898438 163.324219 128.722656 165.660156 C 126.484375 167.304688 124.820312 169.519531 123.308594 171.882812 C 120.730469 175.929688 118.597656 180.28125 115.371094 183.894531 C 114.21875 185.179688 112.890625 186.3125 111.59375 187.457031 C 109.617188 189.191406 107.351562 190.46875 104.796875 191.132812 C 101.964844 191.871094 99.070312 192.304688 96.128906 191.988281 C 92.972656 191.644531 89.761719 191.464844 86.679688 190.765625 C 80.265625 189.316406 74.269531 186.71875 68.460938 183.679688 C 63.03125 180.839844 57.976562 177.464844 53.164062 173.679688 C 49.148438 170.515625 45.398438 167.070312 41.980469 163.285156 C 37.347656 158.160156 33.167969 152.683594 29.804688 146.625 C 29.320312 145.753906 28.761719 144.917969 28.160156 143.9375 C 27.234375 144.71875 26.308594 145.429688 25.5 146.257812 C 25.328125 146.425781 25.453125 147.074219 25.640625 147.390625 C 27.117188 149.851562 28.566406 152.34375 30.164062 154.726562 C 34.355469 160.992188 39.203125 166.703125 44.742188 171.828125 C 49.148438 175.910156 53.902344 179.542969 58.992188 182.761719 C 64.296875 186.117188 69.871094 188.886719 75.699219 191.195312 C 81.15625 193.363281 86.707031 195.082031 92.550781 195.898438 C 96.417969 196.4375 100.21875 196.664062 104.050781 195.746094 C 105.046875 195.503906 106.171875 195.65625 107.105469 195.296875 C 110.289062 194.046875 113.644531 192.914062 116.027344 190.378906 C 118.195312 188.078125 120.101562 185.476562 121.828125 182.824219 C 124.039062 179.4375 125.847656 175.777344 128.039062 172.378906 C 130.304688 168.863281 133.757812 166.820312 137.625 165.398438 C 142.191406 163.71875 146.976562 163.160156 151.761719 162.628906 C 159.65625 161.75 167.566406 161.101562 175.445312 160.085938 C 183.96875 158.988281 192.375 157.234375 200.496094 154.304688 C 204.882812 152.722656 209.039062 150.652344 212.878906 148.046875 C 217.554688 144.863281 221.457031 140.871094 224.152344 135.808594 C 225.78125 132.757812 226.769531 129.53125 227.488281 126.140625 C 228.269531 122.464844 227.804688 118.847656 227.667969 115.214844 C 227.605469 113.402344 226.957031 111.585938 226.417969 109.8125 C 225.078125 105.351562 223.039062 101.214844 220.3125 97.457031 C 218.480469 94.941406 216.445312 92.558594 214.46875 90.148438 C 211.96875 87.097656 209.246094 84.214844 206.960938 81.003906 C 204.847656 78.035156 203.050781 74.816406 201.359375 71.589844 C 195.8125 60.996094 191.269531 49.890625 185.308594 39.507812 C 181.441406 32.78125 177.546875 26.0625 172.640625 20.011719 C 172.539062 19.90625 172.449219 19.839844 172.242188 19.644531 Z M 172.242188 19.644531 " fill-opacity="1" fill-rule="nonzero"/><path fill="#bc4749" d="M 168.054688 23.222656 C 167.433594 23.753906 166.921875 24.183594 166.335938 24.6875 C 167.117188 25.785156 167.875 26.855469 168.636719 27.925781 C 176.738281 39.378906 182.492188 51.96875 186.53125 65.347656 C 188.707031 72.570312 190.460938 79.898438 191.835938 87.324219 C 192.566406 91.261719 193.5625 95.175781 195.308594 98.832031 C 196.53125 101.394531 198.472656 103.429688 200.433594 105.441406 C 203.167969 108.238281 205.890625 111.054688 207.652344 114.605469 C 208.292969 115.890625 208.625 117.339844 209.253906 118.632812 C 210.367188 120.925781 210.070312 123.425781 210.0625 125.773438 C 210.054688 127.796875 209.261719 129.9375 208.363281 131.804688 C 206.347656 136.03125 203.121094 139.277344 199.261719 141.894531 C 192.050781 146.796875 183.921875 149.339844 175.515625 151.121094 C 165.957031 153.144531 156.257812 153.871094 146.527344 154.476562 C 141.472656 154.789062 136.429688 155.15625 131.457031 156.253906 C 125.683594 157.53125 120.953125 160.363281 117.410156 165.148438 C 115.171875 168.167969 112.933594 171.191406 110.523438 174.066406 C 108.960938 175.9375 107.105469 177.519531 105.003906 178.878906 C 103.589844 179.785156 102.261719 180.820312 100.652344 181.234375 C 97.449219 182.070312 94.203125 182.691406 90.851562 182.394531 C 81.859375 181.585938 73.953125 177.925781 66.394531 173.285156 C 59.675781 169.167969 53.640625 164.210938 48.246094 158.492188 C 42.835938 152.75 38.285156 146.335938 34.554688 139.367188 C 34.472656 139.214844 34.375 139.0625 34.300781 138.929688 C 34.195312 138.917969 34.101562 138.882812 34.066406 138.910156 C 31.152344 140.988281 31.117188 141.015625 32.828125 144.097656 C 35.847656 149.546875 39.488281 154.566406 43.582031 159.265625 C 48.15625 164.519531 53.347656 169.058594 59 173.125 C 63.984375 176.703125 69.304688 179.707031 74.898438 182.152344 C 80.113281 184.425781 85.507812 186.304688 91.289062 186.71875 C 94.472656 186.945312 97.621094 186.980469 100.707031 185.964844 C 101.40625 185.730469 102.269531 185.890625 102.890625 185.558594 C 104.90625 184.472656 106.902344 183.328125 108.808594 182.050781 C 113.175781 179.121094 115.773438 174.652344 118.464844 170.34375 C 122.933594 163.195312 129.28125 159.160156 137.570312 158.234375 C 144.601562 157.449219 151.652344 156.875 158.703125 156.246094 C 167.441406 155.464844 176.144531 154.382812 184.644531 152.128906 C 191.835938 150.210938 198.742188 147.550781 204.792969 143.109375 C 209.128906 139.925781 212.660156 135.996094 214.667969 130.917969 C 215.207031 129.550781 215.25 127.992188 215.71875 126.582031 C 216.4375 124.378906 216.148438 122.148438 215.941406 119.972656 C 215.609375 116.449219 214.558594 113.066406 212.582031 110.066406 C 211.242188 108.03125 209.890625 106 208.363281 104.101562 C 206.789062 102.160156 204.917969 100.453125 203.335938 98.519531 C 202.023438 96.917969 200.808594 95.210938 199.757812 93.429688 C 197.410156 89.445312 196.0625 85.039062 194.722656 80.644531 C 192.367188 72.917969 190.136719 65.152344 187.097656 57.652344 C 183.84375 49.621094 180.183594 41.78125 175.652344 34.382812 C 173.503906 30.875 171.128906 27.492188 168.835938 24.066406 C 168.636719 23.78125 168.359375 23.554688 168.054688 23.222656 Z M 168.054688 23.222656 " fill-opacity="1" fill-rule="nonzero"/><path fill="#bc4749" d="M 163.925781 26.746094 C 163.648438 26.980469 163.414062 27.207031 163.152344 27.375 C 162.640625 27.71875 162.683594 28.023438 163.027344 28.519531 C 164.789062 31.054688 166.675781 33.519531 168.207031 36.1875 C 170.375 39.945312 172.414062 43.796875 174.238281 47.734375 C 177.054688 53.8125 179.15625 60.152344 180.660156 66.6875 C 181.992188 72.453125 182.675781 78.316406 182.953125 84.195312 C 183.140625 88.160156 182.726562 92.160156 182.738281 96.144531 C 182.746094 99.480469 182.753906 102.835938 183.175781 106.125 C 183.484375 108.507812 184.804688 110.613281 186.667969 112.277344 C 189.390625 114.722656 191.835938 117.429688 193.816406 120.511719 C 194.308594 121.285156 194.453125 122.300781 194.714844 123.21875 C 194.832031 123.632812 194.785156 124.089844 194.929688 124.488281 C 195.945312 127.15625 194.972656 129.566406 193.816406 131.859375 C 191.945312 135.539062 188.851562 138.019531 185.34375 140.023438 C 176.972656 144.808594 167.792969 146.964844 158.332031 147.902344 C 151.652344 148.566406 144.9375 148.835938 138.226562 149.222656 C 133.121094 149.519531 128.050781 150.03125 123.121094 151.488281 C 119.660156 152.515625 116.546875 154.257812 113.894531 156.675781 C 111.433594 158.925781 109.203125 161.417969 106.773438 163.710938 C 105.019531 165.363281 103.152344 166.917969 101.261719 168.421875 C 100.246094 169.230469 99.140625 170.003906 97.953125 170.515625 C 94.664062 171.945312 91.191406 172.414062 87.59375 172.171875 C 80.4375 171.683594 74.179688 168.746094 68.40625 164.804688 C 64.558594 162.1875 60.90625 159.25 57.417969 156.15625 C 53.6875 152.847656 50.308594 149.132812 47.527344 144.960938 C 45.117188 141.355469 42.90625 137.613281 40.59375 133.9375 C 40.523438 133.820312 40.425781 133.710938 40.234375 133.480469 C 39.460938 134.144531 38.6875 134.746094 38.007812 135.449219 C 37.863281 135.59375 37.988281 136.132812 38.148438 136.402344 C 40.09375 139.628906 41.953125 142.921875 44.046875 146.050781 C 47.113281 150.636719 50.738281 154.769531 54.765625 158.539062 C 60.152344 163.566406 66.035156 167.871094 72.605469 171.253906 C 75.941406 172.96875 79.367188 174.453125 83 175.328125 C 86.695312 176.214844 90.480469 176.808594 94.265625 175.917969 C 96.40625 175.417969 98.628906 174.886719 100.550781 173.878906 C 104.148438 171.980469 107.042969 169.15625 109.722656 166.082031 C 112.3125 163.105469 115.003906 160.183594 117.96875 157.605469 C 121.242188 154.761719 125.378906 153.601562 129.597656 152.800781 C 135.414062 151.707031 141.3125 151.570312 147.191406 151.292969 C 155.816406 150.886719 164.402344 150.121094 172.835938 148.164062 C 179.554688 146.597656 186.046875 144.375 191.84375 140.539062 C 195.738281 137.957031 199.101562 134.800781 200.703125 130.285156 C 201.3125 128.550781 201.3125 126.582031 201.449219 124.710938 C 201.519531 123.792969 201.375 122.832031 201.144531 121.933594 C 200.601562 119.855469 199.867188 117.832031 198.4375 116.1875 C 196.25 113.679688 193.957031 111.269531 191.773438 108.75 C 189.757812 106.433594 188.355469 103.777344 188.007812 100.6875 C 187.449219 95.804688 186.882812 90.921875 186.511719 86.019531 C 185.828125 76.976562 184.039062 68.171875 181.191406 59.566406 C 178.609375 51.753906 175.292969 44.273438 171.101562 37.214844 C 169.078125 33.796875 166.675781 30.59375 164.449219 27.304688 C 164.320312 27.125 164.125 26.960938 163.925781 26.746094 Z M 163.925781 26.746094 " fill-opacity="1" fill-rule="nonzero"/><path fill="#bc4749" d="M 45.027344 129.296875 C 44.28125 129.972656 43.589844 130.492188 43.050781 131.140625 C 42.878906 131.347656 42.976562 131.960938 43.15625 132.265625 C 44.949219 135.296875 46.683594 138.363281 48.625 141.292969 C 52.132812 146.597656 56.464844 151.191406 61.242188 155.375 C 65.59375 159.175781 70.304688 162.484375 75.5625 164.851562 C 79.558594 166.648438 83.765625 167.945312 88.234375 167.753906 C 90.347656 167.664062 92.496094 167.484375 94.464844 166.488281 C 95.183594 166.128906 96.109375 166.15625 96.785156 165.742188 C 99.5625 164.023438 102.261719 162.179688 104.707031 159.988281 C 107.492188 157.476562 110.21875 154.871094 113.238281 152.667969 C 116.917969 149.996094 121.199219 148.460938 125.703125 147.882812 C 130.46875 147.273438 135.269531 146.859375 140.070312 146.589844 C 147.820312 146.148438 155.589844 146.039062 163.226562 144.421875 C 169.636719 143.0625 175.796875 141.050781 181.152344 137.136719 C 183.195312 135.65625 184.976562 133.875 186.0625 131.535156 C 186.972656 129.578125 187.167969 127.582031 186.59375 125.414062 C 185.8125 122.445312 184.105469 120.144531 182.070312 117.960938 C 180.695312 116.476562 179.453125 114.867188 178.167969 113.300781 C 176.667969 111.46875 176.324219 109.238281 176.386719 107.015625 C 176.460938 104.515625 176.765625 102.007812 177.179688 99.535156 C 178.222656 93.367188 179.375 87.214844 179.320312 80.941406 C 179.230469 71.390625 177.160156 62.210938 173.800781 53.308594 C 171.328125 46.746094 168.234375 40.488281 164.285156 34.679688 C 163.136719 32.988281 162 31.296875 160.714844 29.410156 C 160.257812 30.027344 159.933594 30.480469 159.503906 31.070312 C 160.132812 31.933594 160.914062 32.996094 161.667969 34.074219 C 164.734375 38.472656 167.269531 43.15625 169.457031 48.046875 C 172.449219 54.765625 174.644531 61.734375 175.660156 69.027344 C 176.828125 77.441406 176.480469 85.785156 174.070312 93.996094 C 172.980469 97.71875 171.875 101.441406 171.003906 105.207031 C 169.859375 110.136719 171.121094 114.46875 174.5625 118.230469 C 175.9375 119.738281 177.394531 121.332031 178.203125 123.164062 C 179.113281 125.214844 180.335938 127.390625 179.582031 129.847656 C 179.328125 130.65625 179.015625 131.484375 178.566406 132.191406 C 177.082031 134.503906 174.976562 136.183594 172.613281 137.507812 C 167.128906 140.582031 161.15625 142.164062 154.96875 142.757812 C 147.460938 143.46875 139.925781 143.785156 132.402344 144.324219 C 126.429688 144.753906 120.53125 145.582031 115.039062 148.164062 C 111.710938 149.726562 108.664062 151.707031 105.839844 154.0625 C 103.761719 155.796875 101.730469 157.605469 99.546875 159.1875 C 97.910156 160.363281 96.144531 161.507812 94.277344 162.199219 C 90.75 163.503906 87.109375 163.960938 83.277344 163.296875 C 75.851562 161.992188 69.828125 158.125 64.199219 153.421875 C 56.492188 146.976562 50.433594 139.214844 45.65625 130.402344 C 45.488281 130.078125 45.296875 129.773438 45.027344 129.296875 Z M 45.027344 129.296875 " fill-opacity="1" fill-rule="nonzero"/><path fill="#bc4749" d="M 157.34375 32.464844 C 156.941406 32.816406 156.617188 33.09375 156.300781 33.363281 C 157.316406 34.894531 158.316406 36.367188 159.285156 37.851562 C 165.140625 46.824219 169.050781 56.546875 170.445312 67.199219 C 171.15625 72.660156 170.785156 78.082031 169.574219 83.476562 C 168.441406 88.492188 166.253906 93.023438 163.746094 97.441406 C 162.011719 100.496094 160.222656 103.554688 159.277344 106.972656 C 158.648438 109.273438 158.683594 111.636719 159.285156 113.984375 C 159.925781 116.441406 161.382812 118.527344 162.316406 120.820312 C 163.378906 123.40625 164.90625 126.085938 163.613281 129.136719 C 162.613281 131.484375 160.816406 132.929688 158.613281 134.035156 C 153.558594 136.582031 148.074219 137.265625 142.554688 137.804688 C 135.765625 138.46875 128.949219 138.945312 122.175781 139.765625 C 117.304688 140.359375 112.628906 141.867188 108.265625 144.152344 C 104.839844 145.941406 101.488281 147.882812 98.105469 149.761719 C 96.363281 150.734375 94.691406 151.847656 92.875 152.648438 C 88.316406 154.65625 83.613281 154.808594 78.835938 153.378906 C 73.324219 151.730469 68.820312 148.460938 64.695312 144.601562 C 59.027344 139.304688 54.425781 133.191406 50.746094 126.367188 C 50.59375 126.078125 50.421875 125.808594 50.253906 125.53125 C 50.179688 125.414062 50.074219 125.324219 49.867188 125.097656 C 49.300781 125.621094 48.6875 126.0625 48.257812 126.644531 C 48.085938 126.878906 48.246094 127.472656 48.425781 127.804688 C 50.792969 132.257812 53.488281 136.5 56.71875 140.382812 C 59.980469 144.324219 63.558594 147.957031 67.660156 151.039062 C 71.6875 154.0625 76.039062 156.542969 81.011719 157.558594 C 84.464844 158.261719 87.929688 158.207031 91.398438 157.039062 C 95.515625 155.652344 98.90625 153.125 102.433594 150.769531 C 106.828125 147.828125 111.40625 145.1875 116.503906 143.621094 C 120.675781 142.34375 124.972656 141.652344 129.324219 141.375 C 135.132812 140.988281 140.953125 140.746094 146.75 140.269531 C 152.058594 139.828125 157.316406 139.035156 162.261719 136.894531 C 164.320312 136.003906 166.273438 134.933594 167.902344 133.378906 C 170.101562 131.277344 171.121094 128.183594 169.78125 124.863281 C 168.789062 122.417969 167.441406 120.226562 166.109375 117.976562 C 164.113281 114.613281 163.007812 110.964844 164.230469 107.070312 C 165.195312 104.039062 166.265625 101 167.640625 98.140625 C 173.214844 86.550781 174.625 74.574219 171.53125 62.046875 C 169.691406 54.601562 166.992188 47.527344 163.046875 40.945312 C 161.460938 38.300781 159.691406 35.765625 157.992188 33.183594 C 157.839844 32.96875 157.621094 32.78125 157.34375 32.464844 Z M 157.34375 32.464844 " fill-opacity="1" fill-rule="nonzero"/><path fill="#bc4749" d="M 53.949219 121.746094 C 53.355469 122.195312 52.742188 122.582031 52.265625 123.085938 C 52.097656 123.273438 52.121094 123.832031 52.265625 124.109375 C 54.308594 128.03125 56.671875 131.761719 59.460938 135.195312 C 62.957031 139.503906 66.824219 143.421875 71.570312 146.390625 C 76.050781 149.1875 80.859375 150.894531 86.191406 150.230469 C 88.394531 149.960938 90.5625 149.367188 92.65625 148.304688 C 98.195312 145.492188 103.808594 142.804688 109.527344 140.382812 C 115.171875 137.992188 121.214844 137.046875 127.292969 136.355469 C 133.839844 135.609375 140.476562 135.429688 146.878906 133.648438 C 149.621094 132.886719 152.199219 131.816406 154.3125 129.757812 C 156.101562 128.011719 156.507812 125.878906 156.183594 123.625 C 155.941406 121.925781 155.265625 120.277344 154.710938 118.632812 C 154.207031 117.175781 153.46875 115.792969 153.0625 114.308594 C 151.894531 110.039062 152.847656 106.054688 155.140625 102.386719 C 157.234375 99.039062 159.503906 95.8125 161.660156 92.503906 C 166.425781 85.183594 168.46875 77.128906 167.875 68.441406 C 167.441406 62.121094 165.796875 56.078125 163.351562 50.234375 C 161.230469 45.152344 158.511719 40.421875 155.328125 35.953125 C 155.085938 35.613281 154.828125 35.28125 154.519531 34.875 C 154.105469 35.246094 153.757812 35.539062 153.371094 35.882812 C 153.605469 36.234375 153.820312 36.558594 154.027344 36.878906 C 155.609375 39.390625 157.34375 41.808594 158.746094 44.414062 C 162.011719 50.496094 164.367188 56.90625 165.292969 63.800781 C 166.289062 71.21875 165.320312 78.316406 162.21875 85.101562 C 160.277344 89.347656 157.273438 92.898438 154.457031 96.578125 C 152.632812 98.949219 150.949219 101.460938 149.414062 104.03125 C 147.730469 106.855469 147.390625 110.019531 148.019531 113.203125 C 148.46875 115.488281 149.1875 117.714844 149.925781 119.929688 C 151.023438 123.210938 149.753906 126.898438 146.761719 128.804688 C 143.917969 130.609375 140.71875 131.445312 137.464844 131.996094 C 131.097656 133.066406 124.695312 133.910156 118.347656 135.0625 C 112.609375 136.105469 107.171875 138.171875 101.855469 140.546875 C 98.746094 141.929688 95.589844 143.21875 92.449219 144.546875 C 91.605469 144.90625 90.769531 145.320312 89.898438 145.589844 C 84.527344 147.226562 79.351562 146.742188 74.339844 144.1875 C 69.316406 141.625 65.386719 137.792969 61.84375 133.503906 C 59.074219 130.152344 56.609375 126.582031 54.605469 122.714844 C 54.414062 122.390625 54.191406 122.105469 53.949219 121.746094 Z M 53.949219 121.746094 " fill-opacity="1" fill-rule="nonzero"/><path fill="#bc4749" d="M 151.742188 37.257812 C 151.363281 37.582031 151.078125 37.832031 150.746094 38.121094 C 150.996094 38.515625 151.203125 38.851562 151.425781 39.164062 C 154.269531 43.164062 156.644531 47.429688 158.332031 52.023438 C 160.921875 59.046875 162.046875 66.257812 160.375 73.683594 C 159.257812 78.636719 157.164062 83.152344 153.820312 86.984375 C 151.105469 90.085938 148.226562 93.050781 145.367188 96.027344 C 142.722656 98.78125 140.539062 101.835938 139.199219 105.40625 C 138.6875 106.773438 138.515625 108.328125 138.46875 109.804688 C 138.40625 111.683594 138.660156 113.570312 138.722656 115.460938 C 138.785156 117.464844 138.867188 119.523438 137.777344 121.285156 C 136.746094 122.957031 135.242188 124.289062 133.382812 124.9375 C 130.269531 126.023438 127.113281 127.015625 123.929688 127.859375 C 119.210938 129.117188 114.398438 130.035156 109.722656 131.417969 C 103.988281 133.109375 98.339844 135.125 92.65625 137.011719 C 87.695312 138.65625 82.667969 139.152344 77.605469 137.605469 C 73.324219 136.300781 69.9375 133.605469 66.886719 130.441406 C 63.578125 127.003906 60.898438 123.101562 58.589844 118.9375 C 58.453125 118.695312 58.273438 118.472656 58.121094 118.246094 C 58.003906 118.273438 57.921875 118.273438 57.867188 118.308594 C 56.214844 119.488281 56.1875 119.496094 57.203125 121.3125 C 60.339844 126.941406 64.125 132.058594 69.136719 136.175781 C 71.851562 138.40625 74.808594 140.277344 78.242188 141.132812 C 80.914062 141.796875 83.640625 141.929688 86.425781 141.507812 C 92.019531 140.671875 97.097656 138.324219 102.324219 136.429688 C 109.777344 133.710938 117.4375 131.871094 125.253906 130.574219 C 129.570312 129.863281 133.875 129.082031 137.984375 127.425781 C 141.769531 125.90625 143.957031 122.3125 143.363281 118.335938 C 142.984375 115.800781 142.597656 113.265625 142.425781 110.710938 C 142.148438 106.496094 143.972656 102.933594 146.507812 99.785156 C 149.503906 96.074219 152.792969 92.601562 155.824219 88.90625 C 160.949219 82.648438 163.316406 75.382812 163.136719 67.328125 C 163.019531 62.226562 161.910156 57.300781 160.148438 52.515625 C 158.242188 47.355469 155.519531 42.652344 152.425781 38.128906 C 152.238281 37.878906 152.03125 37.636719 151.742188 37.257812 Z M 151.742188 37.257812 " fill-opacity="1" fill-rule="nonzero"/><path fill="#bc4749" d="M 62.492188 114.238281 C 61.886719 114.777344 61.394531 115.226562 60.738281 115.820312 C 62.183594 117.996094 63.542969 120.1875 65.0625 122.257812 C 67.75 125.925781 71.003906 129 75.105469 131.042969 C 77.921875 132.453125 80.941406 133.234375 84.125 133.011719 C 86.679688 132.832031 89.277344 132.734375 91.777344 132.210938 C 94.898438 131.5625 97.925781 130.539062 100.992188 129.65625 C 107.441406 127.804688 113.894531 125.972656 120.335938 124.054688 C 123.058594 123.246094 125.710938 122.195312 127.960938 120.394531 C 130.988281 117.960938 131.347656 114.515625 131.539062 110.9375 C 131.636719 108.976562 132.042969 106.972656 132.660156 105.101562 C 134.648438 99.148438 139.117188 95.066406 143.613281 91.011719 C 147.570312 87.449219 151.417969 83.808594 154.171875 79.152344 C 156.453125 75.277344 157.585938 71.101562 157.785156 66.671875 C 158.046875 60.691406 156.949219 54.9375 154.285156 49.578125 C 152.75 46.464844 150.898438 43.507812 149.179688 40.488281 C 149.0625 40.28125 148.863281 40.117188 148.648438 39.875 C 148.351562 40.144531 148.089844 40.378906 147.796875 40.65625 C 148.019531 41.015625 148.207031 41.351562 148.425781 41.671875 C 150.484375 44.667969 152.273438 47.804688 153.539062 51.214844 C 156.273438 58.542969 157.101562 65.96875 154.304688 73.503906 C 152.660156 77.945312 149.960938 81.667969 146.527344 84.871094 C 143.273438 87.910156 139.917969 90.839844 136.664062 93.878906 C 133.847656 96.503906 131.375 99.480469 129.882812 103.03125 C 128.886719 105.40625 128.246094 107.976562 127.824219 110.523438 C 127.1875 114.378906 125.667969 117.5625 122.175781 119.542969 C 120.710938 120.367188 119.191406 121.167969 117.601562 121.691406 C 111.199219 123.8125 104.789062 125.90625 98.332031 127.859375 C 94.1875 129.109375 89.960938 130.160156 85.597656 130.296875 C 80.5 130.449219 75.886719 128.957031 71.84375 125.78125 C 68.28125 122.984375 65.648438 119.433594 63.316406 115.613281 C 63.09375 115.207031 62.839844 114.8125 62.492188 114.238281 Z M 62.492188 114.238281 " fill-opacity="1" fill-rule="nonzero"/><path fill="#bc4749" d="M 66.125 111.3125 C 65.960938 111.378906 65.890625 111.386719 65.835938 111.421875 C 64.53125 112.464844 64.539062 112.464844 65.441406 113.902344 C 68.183594 118.265625 71.570312 122.023438 76.222656 124.335938 C 78.171875 125.296875 80.417969 125.773438 82.585938 126.132812 C 88.476562 127.105469 94.140625 125.65625 99.726562 124.054688 C 104.519531 122.679688 109.257812 121.097656 113.933594 119.371094 C 117.429688 118.074219 120.503906 116.015625 122.113281 112.457031 C 122.921875 110.675781 123.398438 108.742188 123.957031 106.855469 C 125.503906 101.675781 128.335938 97.277344 132.300781 93.664062 C 136.113281 90.175781 140.132812 86.910156 143.957031 83.429688 C 148.585938 79.214844 152.175781 74.3125 153.296875 67.9375 C 154.1875 62.867188 153.621094 57.921875 152.085938 53.058594 C 150.886719 49.289062 148.953125 45.890625 146.816406 42.597656 C 146.679688 42.394531 146.527344 42.203125 146.382812 41.996094 C 145.511719 42.328125 145.492188 42.78125 145.960938 43.480469 C 148.226562 46.835938 150.015625 50.421875 151.050781 54.34375 C 153.242188 62.652344 152.128906 70.375 146.859375 77.308594 C 144.277344 80.707031 140.917969 83.324219 137.695312 86.09375 C 134.324219 88.988281 130.882812 91.839844 127.78125 95.019531 C 125.054688 97.816406 122.996094 101.179688 121.609375 104.902344 C 120.902344 106.808594 120.171875 108.714844 119.253906 110.523438 C 117.789062 113.410156 115.363281 115.371094 112.519531 116.816406 C 106.65625 119.820312 100.425781 121.789062 94.007812 123.074219 C 91.109375 123.660156 88.109375 124.027344 85.160156 123.992188 C 79.601562 123.921875 74.855469 121.644531 71.058594 117.589844 C 69.476562 115.898438 68.164062 113.941406 66.726562 112.105469 C 66.535156 111.84375 66.320312 111.566406 66.125 111.3125 Z M 66.125 111.3125 " fill-opacity="1" fill-rule="nonzero"/></svg>