<svg xmlns="http://www.w3.org/2000/svg" xmlns:xlink="http://www.w3.org/1999/xlink" width="1366" zoomAndPan="magnify" viewBox="0 0 1024.5 576" height="768" preserveAspectRatio="xMidYMid meet" version="1.0"><defs><clipPath id="cd4e69fd16"><path d="M 379 270.304688 L 949 270.304688 L 949 575.859375 L 379 575.859375 Z M 379 270.304688 " clip-rule="nonzero"/></clipPath><clipPath id="6561ede9cf"><path d="M 403 285 L 933 285 L 933 575.859375 L 403 575.859375 Z M 403 285 " clip-rule="nonzero"/></clipPath><clipPath id="6c183b965f"><path d="M 430 300 L 919 300 L 919 575.859375 L 430 575.859375 Z M 430 300 " clip-rule="nonzero"/></clipPath><clipPath id="2c719f0d12"><path d="M 462 311 L 906 311 L 906 575.859375 L 462 575.859375 Z M 462 311 " clip-rule="nonzero"/></clipPath><clipPath id="ea0bda14e3"><path d="M 498 321 L 895 321 L 895 575.859375 L 498 575.859375 Z M 498 321 " clip-rule="nonzero"/></clipPath><clipPath id="890c39caba"><path d="M 532 330 L 882 330 L 882 575.859375 L 532 575.859375 Z M 532 330 " clip-rule="nonzero"/></clipPath><clipPath id="0d1e9b9558"><path d="M 551 338 L 872 338 L 872 575.859375 L 551 575.859375 Z M 551 338 " clip-rule="nonzero"/></clipPath><clipPath id="e12ee02a91"><path d="M 564 346 L 860 346 L 860 575.859375 L 564 575.859375 Z M 564 346 " clip-rule="nonzero"/></clipPath><clipPath id="e7b3c48b73"><path d="M 577 354 L 850 354 L 850 575.859375 L 577 575.859375 Z M 577 354 " clip-rule="nonzero"/></clipPath><clipPath id="dcf5b6a393"><path d="M 589 362 L 838 362 L 838 575.859375 L 589 575.859375 Z M 589 362 " clip-rule="nonzero"/></clipPath><clipPath id="d894778d0a"><path d="M 602 372 L 825 372 L 825 575.859375 L 602 575.859375 Z M 602 372 " clip-rule="nonzero"/></clipPath><clipPath id="fede9408ce"><path d="M 613 381 L 814 381 L 814 575.859375 L 613 575.859375 Z M 613 381 " clip-rule="nonzero"/></clipPath><clipPath id="f5003dd379"><path d="M 844 0.140625 L 1024 0.140625 L 1024 177.746094 L 844 177.746094 Z M 844 0.140625 " clip-rule="nonzero"/></clipPath><clipPath id="bf6f4be783"><path d="M 853 0.140625 L 1024 0.140625 L 1024 166 L 853 166 Z M 853 0.140625 " clip-rule="nonzero"/></clipPath><clipPath id="646eb5ece3"><path d="M 862 0.140625 L 1024 0.140625 L 1024 155 L 862 155 Z M 862 0.140625 " clip-rule="nonzero"/></clipPath><clipPath id="ca9de6de70"><path d="M 873 0.140625 L 1024 0.140625 L 1024 144 L 873 144 Z M 873 0.140625 " clip-rule="nonzero"/></clipPath><clipPath id="f787e29e2c"><path d="M 885 0.140625 L 1024 0.140625 L 1024 135 L 885 135 Z M 885 0.140625 " clip-rule="nonzero"/></clipPath><clipPath id="85c57b6b8a"><path d="M 899 0.140625 L 1024 0.140625 L 1024 124 L 899 124 Z M 899 0.140625 " clip-rule="nonzero"/></clipPath><clipPath id="7d9e142a26"><path d="M 914 0.140625 L 1024 0.140625 L 1024 116 L 914 116 Z M 914 0.140625 " clip-rule="nonzero"/></clipPath><clipPath id="8bd727a94c"><path d="M 928 0.140625 L 1024 0.140625 L 1024 106 L 928 106 Z M 928 0.140625 " clip-rule="nonzero"/></clipPath><clipPath id="c56d13132c"><path d="M 933 0.140625 L 1024 0.140625 L 1024 98 L 933 98 Z M 933 0.140625 " clip-rule="nonzero"/></clipPath><clipPath id="6f9ae60ede"><path d="M 938 0.140625 L 1024 0.140625 L 1024 90 L 938 90 Z M 938 0.140625 " clip-rule="nonzero"/></clipPath><clipPath id="373e4227e2"><path d="M 943 0.140625 L 1024 0.140625 L 1024 81 L 943 81 Z M 943 0.140625 " clip-rule="nonzero"/></clipPath><clipPath id="c06daba514"><path d="M 947 0.140625 L 1024 0.140625 L 1024 74 L 947 74 Z M 947 0.140625 " clip-rule="nonzero"/></clipPath></defs><g clip-path="url(#cd4e69fd16)"><path fill="#bc4749" d="M 939.269531 574.707031 C 939.6875 571.402344 940.125 568.410156 940.433594 565.417969 C 940.851562 561.316406 941.339844 557.214844 941.519531 553.097656 C 941.703125 548.976562 941.703125 544.839844 941.503906 540.722656 C 941.210938 535.023438 940.941406 529.292969 940.179688 523.648438 C 938.128906 508.445312 933.246094 494.09375 925.082031 481.117188 C 921.144531 474.859375 916.121094 469.253906 911.3125 463.59375 C 908.714844 460.527344 905.558594 457.914062 902.582031 455.171875 C 897.613281 450.601562 892.097656 446.789062 886.054688 443.742188 C 882.316406 441.855469 878.632812 439.804688 874.769531 438.226562 C 870.703125 436.574219 866.496094 435.070312 862.230469 434.109375 C 855.320312 432.566406 848.351562 430.988281 841.328125 430.386719 C 826.8125 429.136719 812.40625 430.496094 798.054688 433.054688 C 788.875 434.6875 779.550781 435.6875 770.257812 436.539062 C 764.417969 437.066406 758.464844 436.613281 752.949219 434.324219 C 744.003906 430.625 739.140625 423.65625 737.816406 414.148438 C 736.058594 401.558594 736.964844 388.964844 737.582031 376.355469 C 738.234375 363.183594 739.578125 350.011719 737.816406 336.800781 C 735.765625 321.433594 729.019531 309.078125 715.480469 300.820312 C 707.0625 295.6875 697.902344 292.328125 688.609375 289.226562 C 683.1875 287.414062 677.742188 285.636719 672.226562 284.148438 C 666.984375 282.730469 661.683594 281.515625 656.332031 280.609375 C 649.78125 279.484375 643.179688 278.449219 636.554688 277.941406 C 629.988281 277.433594 623.382812 277.761719 616.796875 277.488281 C 607.523438 277.105469 598.507812 279.03125 589.382812 280.136719 C 577.585938 281.570312 566.554688 285.5625 555.6875 289.863281 C 548.609375 292.675781 541.863281 296.574219 535.421875 300.695312 C 526.257812 306.519531 517.855469 313.394531 510.382812 321.378906 C 501.960938 330.359375 494.613281 340.140625 488.789062 350.933594 C 479.917969 367.300781 474.511719 384.863281 472.570312 403.40625 C 471.335938 415.273438 471.226562 427.175781 472.570312 439.042969 C 473.621094 448.1875 474.835938 457.3125 475.945312 466.441406 C 476.722656 472.828125 477.757812 479.214844 476.925781 485.710938 C 476.089844 492.167969 472.679688 496.777344 466.492188 498.484375 C 460.46875 500.152344 454.1875 501.003906 448.003906 502.113281 C 440.527344 503.4375 432.941406 504.308594 425.558594 505.996094 C 418.609375 507.589844 412.476562 511.058594 406.90625 515.703125 C 402.480469 519.386719 399.121094 523.832031 396.636719 528.785156 C 394.621094 532.8125 393.589844 537.367188 392.246094 541.71875 C 389.035156 552.082031 390.085938 562.621094 389.558594 573.109375 C 389.488281 574.707031 389.015625 575.304688 387.382812 575.214844 C 385.421875 575.085938 383.464844 575.125 381.503906 575.214844 C 380.105469 575.269531 379.527344 574.796875 379.542969 573.363281 C 379.617188 564.292969 379.363281 555.203125 379.78125 546.148438 C 380 541.613281 381.414062 537.128906 382.300781 532.628906 C 382.8125 530.109375 383.210938 527.550781 383.917969 525.082031 C 384.460938 523.175781 385.296875 521.363281 386.132812 519.566406 C 387.292969 517.117188 388.433594 514.632812 389.851562 512.328125 C 393.84375 505.847656 399.105469 500.695312 405.671875 496.703125 C 413.203125 492.113281 421.585938 490.355469 429.929688 488.359375 C 435.554688 487.015625 441.324219 486.289062 446.96875 484.984375 C 455.949219 482.933594 460.902344 476.910156 461.773438 467.964844 C 462.480469 460.632812 462.464844 453.214844 462.554688 445.8125 C 462.679688 434.015625 461.917969 422.222656 463.1875 410.410156 C 465.113281 392.574219 469.464844 375.429688 476.6875 359.046875 C 480.515625 350.355469 485.105469 342.007812 490.929688 334.460938 C 496.011719 327.875 501.09375 321.234375 506.824219 315.246094 C 511.742188 310.09375 517.402344 305.574219 523.0625 301.238281 C 528.109375 297.375 533.425781 293.800781 538.957031 290.695312 C 544.492188 287.59375 550.390625 285.125 556.230469 282.570312 C 574.394531 274.640625 593.734375 272.136719 613.242188 270.773438 C 620.28125 270.285156 627.410156 270.957031 634.488281 271.320312 C 639.621094 271.574219 644.757812 271.972656 649.835938 272.714844 C 655.625 273.550781 661.394531 274.640625 667.09375 275.980469 C 673.714844 277.542969 680.300781 279.285156 686.777344 281.335938 C 699.152344 285.234375 711.382812 289.644531 722.648438 296.160156 C 734.75 303.160156 742.152344 313.8125 745.4375 327.382812 C 748.070312 338.234375 747.742188 349.246094 747.523438 360.28125 C 747.289062 371.367188 747.324219 382.433594 747.253906 393.519531 C 747.214844 398.761719 747.777344 403.917969 749.519531 408.925781 C 751.136719 413.585938 754.347656 416.816406 758.429688 419.175781 C 765.960938 423.53125 774.324219 423.746094 782.652344 423.292969 C 793.574219 422.714844 804.480469 421.496094 815.402344 421.042969 C 828.066406 420.519531 840.695312 420.988281 853.230469 423.511719 C 861.453125 425.164062 869.453125 427.359375 877.089844 430.660156 C 882.898438 433.183594 888.503906 436.285156 893.894531 439.625 C 898.847656 442.691406 903.691406 446.082031 908.082031 449.894531 C 912.21875 453.46875 915.648438 457.859375 919.496094 461.796875 C 924.664062 467.09375 928.003906 473.660156 932.050781 479.742188 C 937.492188 487.921875 940.851562 496.921875 943.390625 506.210938 C 945.347656 513.378906 946.746094 520.800781 947.527344 528.203125 C 948.617188 538.4375 948.796875 548.742188 947.871094 559.03125 C 947.4375 563.855469 946.691406 568.664062 946.003906 573.453125 C 945.929688 573.925781 945.277344 574.632812 944.859375 574.652344 C 943.0625 574.777344 941.265625 574.707031 939.269531 574.707031 Z M 939.269531 574.707031 " fill-opacity="1" fill-rule="nonzero"/></g><g clip-path="url(#6561ede9cf)"><path fill="#bc4749" d="M 924.628906 574.707031 C 925.082031 571.53125 925.480469 568.664062 925.882812 565.816406 C 927.460938 554.476562 927.566406 543.097656 926.136719 531.757812 C 925.480469 526.605469 924.265625 521.488281 922.996094 516.445312 C 920.4375 506.304688 916.226562 496.832031 910.332031 488.195312 C 904.070312 479.03125 896.488281 471.230469 887.269531 464.898438 C 877.382812 458.09375 866.605469 453.46875 854.9375 451.144531 C 844.394531 449.039062 833.65625 448.113281 822.949219 450.019531 C 813.53125 451.6875 804.171875 453.59375 794.808594 455.519531 C 784.882812 457.566406 775.066406 460.234375 765.050781 461.742188 C 755.363281 463.210938 745.875 461.832031 737.800781 455.554688 C 731.722656 450.835938 727.820312 444.578125 725.496094 437.230469 C 723.300781 430.28125 722.648438 423.113281 722.648438 415.945312 C 722.667969 402.683594 723.046875 389.402344 723.394531 376.136719 C 723.664062 366.050781 724.300781 355.980469 722.957031 345.925781 C 721.070312 331.902344 715.734375 319.671875 703.578125 311.617188 C 698.554688 308.296875 692.894531 305.773438 687.230469 303.617188 C 676.726562 299.625 665.96875 296.230469 654.828125 294.542969 C 646.460938 293.273438 638.007812 292.183594 629.570312 291.804688 C 621.351562 291.421875 613.078125 291.839844 604.839844 292.222656 C 593.898438 292.746094 583.285156 295.488281 572.960938 298.753906 C 562.761719 301.964844 552.855469 306.28125 543.949219 312.433594 C 539.773438 315.300781 535.4375 318.023438 531.664062 321.359375 C 526.421875 325.988281 521.429688 330.957031 516.660156 336.113281 C 510.417969 342.84375 505.355469 350.464844 501.253906 358.664062 C 494.8125 371.527344 490.351562 384.992188 488.753906 399.398438 C 486.59375 418.867188 489.027344 437.792969 495.230469 456.226562 C 498.894531 467.148438 503.195312 477.835938 507.023438 488.703125 C 509.203125 494.855469 511.199219 501.078125 510.90625 507.773438 C 510.671875 513.453125 505.9375 519.640625 500.691406 521.761719 C 493.726562 524.574219 486.359375 525.28125 479.082031 526.515625 C 470.738281 527.929688 462.28125 528.839844 453.972656 530.417969 C 444.84375 532.160156 435.898438 534.714844 428.660156 540.996094 C 425.066406 544.097656 421.910156 547.527344 419.460938 551.808594 C 415.777344 558.25 415.015625 565.34375 413.472656 572.292969 C 412.984375 574.46875 412.292969 575.449219 409.972656 575.179688 C 408.320312 574.976562 406.632812 575.070312 404.964844 575.160156 C 403.550781 575.230469 402.894531 574.667969 403.09375 573.273438 C 404.113281 566.015625 404.382812 558.558594 406.34375 551.574219 C 409.445312 540.523438 416.230469 531.597656 426.519531 526.296875 C 432.015625 523.46875 438.347656 522.050781 444.445312 520.582031 C 450.199219 519.203125 456.128906 518.53125 461.992188 517.660156 C 466.144531 517.042969 470.320312 516.679688 474.472656 516.066406 C 480.808594 515.140625 487.101562 513.976562 492.128906 509.570312 C 494.488281 507.5 495.628906 504.742188 496.136719 501.640625 C 497.082031 496.105469 495.976562 490.84375 494.523438 485.5625 C 491.203125 473.554688 487.738281 461.578125 484.742188 449.476562 C 480.753906 433.328125 480.042969 416.925781 482.003906 400.414062 C 484.109375 382.578125 489.734375 365.851562 498.96875 350.5 C 502.941406 343.894531 507.679688 337.636719 512.777344 331.847656 C 518.074219 325.84375 523.917969 320.234375 530.066406 315.101562 C 534.820312 311.144531 540.320312 308.042969 545.652344 304.832031 C 562.019531 294.941406 580.164062 290.0625 598.832031 287.339844 C 611.152344 285.542969 623.617188 285.34375 636.121094 286.46875 C 648.65625 287.59375 661.050781 289.554688 673.0625 293.128906 C 683.039062 296.105469 693.039062 299.425781 702.453125 303.832031 C 718.730469 311.4375 726.820312 325.152344 728.980469 342.789062 C 730.195312 352.804688 729.5625 362.785156 729.125 372.78125 C 728.402344 389.582031 726.839844 406.421875 728.980469 423.203125 C 730.125 432.09375 733.425781 440.257812 741.15625 445.71875 C 746.308594 449.367188 752.132812 451.109375 758.464844 451.308594 C 768.410156 451.617188 778.078125 449.894531 787.730469 447.753906 C 801.613281 444.667969 815.527344 441.945312 829.824219 441.527344 C 840.421875 441.21875 850.835938 442.109375 861.015625 444.957031 C 870.105469 447.5 878.707031 451.21875 886.761719 456.28125 C 896.777344 462.59375 904.90625 470.667969 912.054688 480.066406 C 917.445312 487.144531 921.925781 494.65625 924.828125 502.945312 C 927.621094 510.910156 930.164062 519.003906 931.398438 527.496094 C 932.992188 538.492188 932.9375 549.449219 932.011719 560.464844 C 931.6875 564.292969 931.015625 568.082031 930.671875 571.910156 C 930.453125 574.199219 929.4375 575.105469 927.1875 574.742188 C 926.496094 574.617188 925.773438 574.707031 924.628906 574.707031 Z M 924.628906 574.707031 " fill-opacity="1" fill-rule="nonzero"/></g><g clip-path="url(#6c183b965f)"><path fill="#bc4749" d="M 911.257812 574.488281 C 911.78125 570.40625 912.4375 566.488281 912.761719 562.53125 C 913.453125 554.367188 913.542969 546.21875 912.273438 538.035156 C 911.113281 530.632812 909.117188 523.539062 906.683594 516.445312 C 903.816406 508.007812 899.355469 500.605469 893.710938 494.019531 C 889.519531 489.121094 884.53125 484.710938 879.25 481.011719 C 870.542969 474.933594 860.726562 471.410156 850.074219 469.707031 C 837.082031 467.636719 824.492188 469.054688 811.972656 472.082031 C 802.390625 474.40625 792.976562 477.34375 783.433594 479.777344 C 774.976562 481.9375 766.429688 483.441406 757.632812 482.660156 C 738.851562 480.992188 726.042969 471.15625 718.511719 454.121094 C 714.628906 445.355469 712.976562 436.03125 712.652344 426.597656 C 712.035156 408.46875 711.980469 390.324219 711.636719 372.199219 C 711.453125 362.890625 710.691406 353.65625 707.933594 344.695312 C 703.925781 331.613281 695.613281 322.394531 683.167969 316.859375 C 673.640625 312.613281 663.625 309.949219 653.355469 308.332031 C 645.210938 307.042969 637.027344 305.921875 628.808594 305.394531 C 620.0625 304.832031 611.300781 305.394531 602.589844 306.644531 C 590.613281 308.351562 579.128906 311.5625 567.933594 316.191406 C 558.5 320.074219 550.0625 325.496094 542.117188 331.628906 C 535.074219 337.054688 528.835938 343.550781 523.644531 350.828125 C 518.203125 358.445312 513.71875 366.558594 510.542969 375.464844 C 506.863281 385.808594 504.667969 396.367188 504.539062 407.328125 C 504.414062 419.394531 506.316406 431.148438 510.34375 442.5625 C 514.773438 455.136719 520.777344 466.914062 527.617188 478.34375 C 531.917969 485.546875 535.984375 492.929688 539.628906 500.496094 C 542.914062 507.300781 544.09375 514.613281 541.753906 522.070312 C 540.15625 527.152344 536.835938 531.035156 532.664062 534.246094 C 526.894531 538.691406 520.070312 540.777344 513.195312 542.554688 C 500.730469 545.800781 488.136719 548.613281 475.691406 551.953125 C 470.300781 553.40625 464.984375 555.402344 459.941406 557.777344 C 456.785156 559.265625 454.371094 562.222656 451.324219 564.019531 C 447.332031 566.378906 445.988281 570.515625 443.613281 573.980469 C 443.25 574.507812 442.539062 575.085938 441.960938 575.105469 C 438.203125 575.195312 434.449219 575.160156 430.347656 575.160156 C 430.582031 574.269531 430.675781 573.582031 430.929688 572.964844 C 432.289062 569.679688 433.503906 566.304688 435.175781 563.183594 C 436.226562 561.207031 437.824219 559.429688 439.472656 557.886719 C 441.742188 555.746094 444.175781 553.714844 446.769531 551.972656 C 451.667969 548.707031 457.128906 546.546875 462.824219 545.257812 C 475.671875 542.375 488.625 539.871094 501.492188 537.019531 C 507.769531 535.640625 514.121094 534.261719 519.761719 530.90625 C 526.078125 527.167969 530.140625 521.796875 530.648438 514.378906 C 530.992188 509.351562 530.140625 504.324219 528.035156 499.714844 C 524.441406 491.878906 520.707031 484.113281 516.804688 476.417969 C 510.492188 463.992188 504.394531 451.507812 501.21875 437.789062 C 497.609375 422.257812 496.828125 406.636719 499.914062 390.941406 C 502.070312 379.929688 505.71875 369.425781 511.308594 359.644531 C 516.804688 350.027344 523.464844 341.425781 531.484375 333.714844 C 545.273438 320.488281 561.65625 312.035156 579.601562 306.28125 C 590.632812 302.746094 602.007812 301.183594 613.550781 300.421875 C 625.25 299.640625 636.882812 300.242188 648.421875 302.074219 C 662.121094 304.25 675.601562 307.535156 688.300781 313.195312 C 703.253906 319.871094 711.5625 331.847656 714.503906 347.761719 C 716.679688 359.554688 716.351562 371.457031 716.097656 383.339844 C 715.734375 401.25 714.847656 419.210938 718.078125 436.972656 C 720.398438 449.765625 725.96875 460.816406 737.144531 468.21875 C 744.296875 472.953125 752.316406 474.878906 760.878906 474.75 C 768.863281 474.640625 776.554688 472.9375 784.195312 470.921875 C 791.488281 469 798.726562 466.875 806.039062 465.042969 C 818.757812 461.851562 831.640625 459.964844 844.796875 461.160156 C 852.359375 461.851562 859.765625 463.445312 866.914062 466.257812 C 874.515625 469.253906 881.589844 473.0625 887.5625 478.652344 C 891.191406 482.042969 894.417969 485.855469 898.046875 489.246094 C 902.621094 493.492188 905.832031 498.738281 908.226562 504.269531 C 911.273438 511.273438 913.617188 518.605469 915.792969 525.933594 C 917.117188 530.417969 917.898438 535.132812 918.277344 539.796875 C 918.730469 545.402344 918.695312 551.082031 918.515625 556.726562 C 918.386719 561.132812 917.824219 565.542969 917.261719 569.917969 C 916.535156 575.433594 916.84375 574.960938 911.257812 574.488281 Z M 911.257812 574.488281 " fill-opacity="1" fill-rule="nonzero"/></g><g clip-path="url(#2c719f0d12)"><path fill="#bc4749" d="M 462.480469 574.453125 C 463.96875 573.183594 465.402344 571.820312 466.960938 570.660156 C 468.742188 569.335938 470.554688 568.046875 472.515625 567.011719 C 476.199219 565.070312 479.863281 563.039062 483.746094 561.589844 C 489.296875 559.5 495.03125 557.90625 500.691406 556.089844 C 510.21875 553.058594 519.78125 550.121094 529.289062 546.980469 C 538.105469 544.0625 545.671875 539.234375 551.132812 531.558594 C 555.996094 524.71875 557.175781 517.097656 555.398438 508.96875 C 553.691406 501.113281 549.898438 494.21875 545.542969 487.578125 C 540.046875 479.214844 534.457031 470.921875 529.105469 462.46875 C 521.015625 449.675781 515.535156 435.777344 513.484375 420.789062 C 511.089844 403.316406 513.230469 386.40625 520.867188 370.277344 C 525.078125 361.40625 530.339844 353.347656 537.015625 346.21875 C 548.71875 333.753906 563 325.117188 578.894531 319.238281 C 589.234375 315.410156 600.011719 313.140625 611.097656 312.324219 C 622.4375 311.472656 633.726562 311.617188 644.9375 313.285156 C 656.859375 315.046875 668.6875 317.351562 679.683594 322.59375 C 690.535156 327.765625 697.773438 336.203125 701.855469 347.398438 C 704.632812 355.035156 705.921875 363 706.175781 371.074219 C 706.628906 384.703125 706.773438 398.347656 707.246094 411.992188 C 707.644531 423.601562 708.441406 435.195312 711.109375 446.554688 C 714.410156 460.578125 720.851562 472.773438 732.828125 481.445312 C 740.847656 487.25 749.882812 490.210938 759.753906 490.933594 C 772.039062 491.84375 783.792969 489.101562 795.605469 486.328125 C 805.964844 483.894531 816.382812 481.589844 826.886719 479.867188 C 836.613281 478.269531 846.375 478.871094 855.953125 481.628906 C 862.394531 483.476562 868.472656 486.074219 874.078125 489.71875 C 876.203125 491.097656 878.308594 492.566406 880.101562 494.308594 C 886.144531 500.1875 892.058594 506.265625 895.742188 513.941406 C 899.664062 522.105469 902.984375 530.507812 904.289062 539.632812 C 905.832031 550.410156 905.777344 561.152344 904.125 571.894531 C 903.636719 575.085938 903.582031 575.070312 899.191406 574.453125 C 899.355469 572.582031 899.625 570.679688 899.679688 568.773438 C 899.824219 561.460938 900.386719 554.132812 899.863281 546.855469 C 899.371094 540.105469 897.628906 533.484375 895.253906 527.023438 C 892.695312 520.128906 889.355469 513.722656 884.601562 508.207031 C 881.390625 504.46875 877.527344 501.242188 873.714844 498.066406 C 866.242188 491.804688 857.3125 488.613281 847.878906 487.105469 C 840.148438 485.871094 832.257812 485.691406 824.492188 487.179688 C 811.191406 489.738281 797.945312 492.695312 784.628906 495.179688 C 772.253906 497.503906 759.828125 498.011719 747.597656 494.183594 C 730.597656 488.867188 719.347656 477.34375 712.453125 461.214844 C 708.332031 451.5625 706.410156 441.328125 705.667969 430.96875 C 704.597656 415.78125 704.25 400.542969 703.214844 385.335938 C 702.582031 376.101562 701.929688 366.757812 700.078125 357.703125 C 696.085938 338.308594 683.585938 326.640625 664.660156 321.652344 C 649.710938 317.714844 634.542969 315.464844 619.046875 316.152344 C 607.214844 316.699219 595.621094 318.492188 584.246094 322.105469 C 576.40625 324.589844 569.078125 328.074219 562.128906 332.15625 C 554.742188 336.511719 548.011719 341.9375 541.988281 348.25 C 535.039062 355.542969 529.652344 363.78125 525.550781 372.871094 C 522.03125 380.691406 519.796875 388.894531 518.980469 397.546875 C 518.308594 404.769531 518.308594 411.84375 519.472656 418.992188 C 521.214844 429.625 524.644531 439.660156 529.652344 449.167969 C 535.566406 460.363281 542.859375 470.613281 550.242188 480.867188 C 554.253906 486.433594 557.957031 492.332031 561.003906 498.464844 C 565.59375 507.738281 567.207031 517.589844 562.800781 527.476562 C 558.988281 536.023438 552.785156 542.664062 544.328125 546.691406 C 536.746094 550.300781 528.941406 553.460938 521.105469 556.472656 C 513.8125 559.285156 506.300781 561.535156 498.96875 564.253906 C 494.324219 565.980469 489.769531 568.03125 485.269531 570.132812 C 482.476562 571.441406 479.882812 573.144531 477.195312 574.652344 C 476.886719 574.832031 476.542969 575.03125 476.199219 575.03125 C 471.734375 575.050781 467.269531 575.050781 462.808594 575.050781 C 462.71875 574.886719 462.609375 574.671875 462.480469 574.453125 Z M 462.480469 574.453125 " fill-opacity="1" fill-rule="nonzero"/></g><g clip-path="url(#ea0bda14e3)"><path fill="#bc4749" d="M 498.441406 574.433594 C 504.757812 571.710938 511.089844 568.992188 517.402344 566.25 C 528.019531 561.625 538.8125 557.359375 549.191406 552.242188 C 557.320312 548.253906 564.214844 542.445312 569.222656 534.644531 C 575.226562 525.316406 576.28125 515.375 573.285156 504.832031 C 570.691406 495.671875 565.792969 487.761719 560.222656 480.195312 C 553.21875 470.6875 545.796875 461.433594 539.429688 451.507812 C 528.582031 434.597656 523.609375 415.964844 526.003906 395.75 C 526.875 388.382812 528.941406 381.328125 531.992188 374.523438 C 535.527344 366.648438 540.28125 359.699219 546 353.257812 C 555.25 342.84375 566.59375 335.351562 579.183594 329.941406 C 591.484375 324.644531 604.511719 321.921875 617.992188 321.359375 C 634.234375 320.671875 650.128906 322.394531 665.640625 327.183594 C 680.136719 331.667969 689.863281 341.246094 694.851562 355.617188 C 697.539062 363.363281 698.71875 371.402344 699.261719 379.511719 C 700.152344 392.757812 700.585938 406.019531 701.546875 419.246094 C 702.5625 433.273438 704.015625 447.28125 708.933594 460.617188 C 715.84375 479.394531 728.253906 492.804688 747.5625 499.101562 C 758.140625 502.546875 769.097656 503.109375 780.058594 501.566406 C 791.742188 499.917969 803.390625 497.847656 815.039062 495.925781 C 825.234375 494.238281 835.488281 493.382812 845.757812 494.980469 C 852.90625 496.089844 859.726562 498.210938 865.933594 502.273438 C 870.324219 505.160156 874.132812 508.515625 877.816406 512.234375 C 881.355469 515.8125 884.347656 519.710938 886.398438 524.15625 C 889.59375 531.105469 892.367188 538.199219 893.566406 545.910156 C 894.910156 554.511719 894.816406 563.019531 893.964844 571.605469 C 893.65625 574.777344 893.4375 574.941406 888.757812 574.578125 C 888.757812 573.851562 888.6875 573.074219 888.777344 572.328125 C 889.664062 564.816406 889.738281 557.34375 888.503906 549.832031 C 886.691406 538.855469 883.132812 528.585938 875.949219 519.984375 C 872.375 515.703125 868.148438 511.980469 863.265625 509.023438 C 850.710938 501.421875 836.992188 500.207031 822.878906 501.53125 C 814.292969 502.347656 805.785156 503.78125 797.238281 504.941406 C 783.996094 506.757812 770.765625 508.351562 757.414062 506.050781 C 737.328125 502.601562 722.304688 491.988281 712.144531 474.386719 C 706.519531 464.644531 703.6875 453.976562 701.785156 442.980469 C 699.097656 427.59375 698.335938 412.027344 697.339844 396.476562 C 696.574219 384.609375 695.8125 372.761719 692.332031 361.242188 C 687.449219 345.039062 676.945312 334.660156 660.757812 329.960938 C 651.886719 327.382812 642.777344 326.203125 633.578125 325.535156 C 623.617188 324.808594 613.710938 325.296875 603.949219 327.128906 C 598.363281 328.183594 592.902344 330.035156 587.421875 331.613281 C 579.382812 333.917969 572.164062 338.109375 565.394531 342.734375 C 559.242188 346.925781 553.328125 351.734375 548.882812 357.976562 C 547.125 360.441406 545.089844 362.710938 543.386719 365.234375 C 537.652344 373.667969 534.203125 382.960938 532.5 393.066406 C 530.359375 405.65625 531.9375 417.761719 536.199219 429.625 C 539.15625 437.863281 543.3125 445.519531 548.449219 452.597656 C 554.179688 460.507812 560.257812 468.164062 566.101562 476.003906 C 573.339844 485.726562 579.527344 495.980469 581.816406 508.152344 C 584.117188 520.4375 581.34375 531.304688 573.070312 540.722656 C 566.355469 548.359375 558.15625 554.023438 549.082031 558.449219 C 540.953125 562.40625 532.699219 566.085938 524.515625 569.933594 C 521.324219 571.441406 518.183594 573.089844 515.027344 574.652344 C 514.644531 574.832031 514.226562 575.085938 513.828125 575.085938 C 508.785156 575.125 503.722656 575.105469 498.679688 575.105469 C 498.550781 574.886719 498.496094 574.671875 498.441406 574.433594 Z M 498.441406 574.433594 " fill-opacity="1" fill-rule="nonzero"/></g><g clip-path="url(#890c39caba)"><path fill="#bc4749" d="M 532.535156 575.140625 C 542.152344 569.769531 551.625 564.746094 560.804688 559.246094 C 569.785156 553.859375 578.132812 547.582031 584.335938 538.890625 C 589.5625 531.613281 591.578125 523.394531 590.832031 514.613281 C 589.472656 498.464844 582.304688 484.640625 572.761719 471.902344 C 565.628906 462.394531 557.828125 453.324219 551.40625 443.359375 C 540.082031 425.816406 535.765625 406.636719 541.570312 386.007812 C 543.984375 377.425781 548.140625 369.734375 553.765625 362.710938 C 560.96875 353.691406 569.859375 346.796875 579.910156 341.480469 C 591.902344 335.132812 604.859375 331.847656 618.429688 330.941406 C 630.386719 330.140625 642.179688 331.03125 653.863281 333.609375 C 672.152344 337.652344 684.019531 348.703125 688.828125 366.738281 C 691.003906 374.886719 692.203125 383.375 693.09375 391.777344 C 695.105469 410.882812 695.777344 430.117188 699.714844 449.003906 C 702.726562 463.464844 707.808594 477 717.515625 488.429688 C 729.796875 502.910156 745.726562 510.242188 764.378906 512.308594 C 777.027344 513.707031 789.582031 512.273438 802.136719 511.128906 C 812.460938 510.1875 822.769531 509.117188 833.183594 509.949219 C 841.546875 510.601562 849.511719 512.78125 856.789062 516.773438 C 860.582031 518.839844 863.9375 521.941406 866.984375 525.0625 C 869.941406 528.09375 872.71875 531.488281 874.714844 535.1875 C 878.777344 542.683594 881.480469 550.71875 881.699219 559.375 C 881.808594 563.566406 881.554688 567.773438 881.699219 571.949219 C 881.773438 574.308594 880.882812 575.105469 878.671875 574.742188 C 878.179688 574.667969 877.671875 574.6875 877.054688 574.667969 C 877.054688 572.367188 877.035156 570.132812 877.054688 567.921875 C 877.109375 560.625 875.984375 553.566406 873.625 546.621094 C 871.957031 541.703125 869.578125 537.257812 866.40625 533.335938 C 863.339844 529.546875 859.65625 526.296875 855.410156 523.648438 C 849.546875 519.984375 843.214844 517.589844 836.503906 516.371094 C 827.050781 514.648438 817.46875 514.832031 807.890625 515.429688 C 795.082031 516.226562 782.308594 517.425781 769.441406 516.609375 C 737.164062 514.539062 712.796875 496.234375 702.128906 465.679688 C 698.300781 454.738281 696.140625 443.414062 694.761719 431.964844 C 692.855469 416.199219 691.40625 400.394531 689.425781 384.628906 C 688.738281 379.113281 687.429688 373.617188 685.796875 368.300781 C 680.265625 350.191406 667.835938 339.6875 649.347656 336.238281 C 635.902344 333.734375 622.402344 333.355469 608.921875 335.894531 C 601.445312 337.289062 594.007812 339.070312 587.222656 342.679688 C 581.667969 345.636719 575.882812 348.378906 570.964844 352.207031 C 565.9375 356.125 561.585938 361.023438 557.429688 365.902344 C 551.222656 373.214844 547.648438 381.980469 545.796875 391.304688 C 542.804688 406.292969 545.796875 420.464844 552.855469 433.800781 C 558.371094 444.230469 565.628906 453.484375 573.015625 462.648438 C 581.378906 473.0625 588.273438 484.386719 592.683594 497.066406 C 595.914062 506.359375 597.707031 515.808594 596.183594 525.71875 C 595.097656 532.792969 591.847656 538.746094 587.183594 543.988281 C 580.273438 551.773438 571.78125 557.613281 563 563.039062 C 556.59375 566.996094 550.0625 570.75 543.585938 574.578125 C 543.09375 574.871094 542.515625 575.125 541.988281 575.140625 C 538.902344 575.160156 535.800781 575.140625 532.535156 575.140625 Z M 532.535156 575.140625 " fill-opacity="1" fill-rule="nonzero"/></g><g clip-path="url(#0d1e9b9558)"><path fill="#bc4749" d="M 555.359375 574.671875 C 557.554688 573.199219 559.75 571.710938 561.945312 570.242188 C 571.746094 563.675781 581.832031 557.542969 590.558594 549.523438 C 601.71875 539.269531 605.148438 526.570312 602.644531 511.964844 C 599.667969 494.546875 592.484375 478.886719 582.378906 464.535156 C 576.789062 456.589844 570.621094 449.058594 565.011719 441.148438 C 559.570312 433.453125 555.433594 425.035156 553.257812 415.835938 C 550.714844 405.132812 550.933594 394.464844 554.742188 383.992188 C 556.886719 378.113281 559.96875 372.816406 563.761719 367.808594 C 570.003906 359.589844 577.914062 353.402344 586.824219 348.667969 C 598.199219 342.625 610.5 339.488281 623.4375 338.832031 C 632.910156 338.34375 642.253906 338.871094 651.46875 341.121094 C 666.4375 344.785156 676.382812 354.074219 681.914062 368.335938 C 685.21875 376.84375 686.777344 385.753906 687.921875 394.753906 C 690.316406 413.625 691.621094 432.636719 695.757812 451.253906 C 699.207031 466.785156 704.6875 481.375 715.15625 493.675781 C 725.914062 506.285156 739.449219 514.214844 755.5625 518.078125 C 769.28125 521.363281 783.160156 521.21875 797.074219 520.800781 C 809.757812 520.402344 822.460938 519.839844 834.960938 522.757812 C 842.636719 524.554688 849.695312 527.605469 855.644531 533.027344 C 859.910156 536.910156 863.828125 541.085938 866.167969 546.347656 C 869.164062 553.097656 871.375 560.117188 871.359375 567.648438 C 871.359375 569.445312 871.484375 571.242188 871.59375 573.035156 C 871.667969 574.214844 871.230469 574.707031 869.996094 574.761719 C 866.40625 574.925781 866.550781 574.796875 866.296875 571.113281 C 866.023438 567.105469 865.316406 563.09375 864.445312 559.175781 C 863.828125 556.378906 862.902344 553.585938 861.632812 551.027344 C 855.644531 538.890625 845.757812 531.648438 832.800781 528.113281 C 822.460938 525.300781 811.9375 525.101562 801.359375 524.972656 C 792.160156 524.847656 782.921875 524.882812 773.761719 524.230469 C 750.535156 522.578125 730.160156 514.558594 714.59375 496.488281 C 706.574219 487.179688 701.058594 476.472656 697.445312 464.789062 C 693.21875 451.074219 690.878906 436.957031 689.027344 422.75 C 687.175781 408.617188 686.125 394.355469 682.515625 380.492188 C 680.300781 372.019531 677.125 363.960938 671.265625 357.214844 C 664.117188 348.957031 654.808594 344.785156 644.25 343.222656 C 632.527344 341.480469 620.898438 341.972656 609.320312 344.765625 C 599.652344 347.105469 590.761719 350.953125 582.46875 356.523438 C 577.570312 359.808594 573.394531 363.800781 569.75 368.207031 C 563.089844 376.226562 558.863281 385.445312 557.753906 396.042969 C 556.230469 410.664062 560.820312 423.546875 568.605469 435.46875 C 574.105469 443.90625 580.234375 451.925781 585.824219 460.308594 C 596.511719 476.347656 604.332031 493.636719 607.617188 512.78125 C 608.886719 520.203125 609.03125 527.621094 606.726562 534.96875 C 604.65625 541.558594 600.683594 546.875 595.605469 551.300781 C 591.140625 555.183594 586.351562 558.703125 581.542969 562.167969 C 575.738281 566.339844 569.765625 570.316406 563.816406 574.289062 C 562.980469 574.851562 561.839844 575.085938 560.820312 575.160156 C 559.097656 575.304688 557.355469 575.195312 555.613281 575.195312 C 555.523438 574.996094 555.433594 574.832031 555.359375 574.671875 Z M 555.359375 574.671875 " fill-opacity="1" fill-rule="nonzero"/></g><g clip-path="url(#e12ee02a91)"><path fill="#bc4749" d="M 573.179688 574.597656 C 575.84375 572.675781 578.550781 570.769531 581.199219 568.84375 C 587.855469 563.984375 594.714844 559.355469 601.136719 554.203125 C 612.878906 544.769531 616.144531 532.140625 613.964844 517.714844 C 610.84375 497.03125 603.1875 477.980469 592.539062 460.144531 C 587.078125 451 580.726562 442.398438 575.027344 433.398438 C 567.972656 422.242188 563.578125 410.210938 564.976562 396.75 C 565.882812 388.023438 568.96875 380.109375 574.375 373.035156 C 579.726562 366.03125 586.316406 360.535156 593.878906 356.324219 C 604.421875 350.445312 615.945312 347.742188 627.992188 347.070312 C 635.957031 346.617188 643.8125 347.125 651.414062 349.628906 C 664.714844 354 672.664062 363.707031 677.433594 376.429688 C 680.664062 385.027344 682.167969 394.046875 683.640625 403.0625 C 686.359375 419.773438 688.757812 436.558594 692.023438 453.175781 C 694.851562 467.546875 700.058594 481.15625 708.714844 493.203125 C 721.90625 511.566406 739.996094 522.144531 761.894531 526.640625 C 774.523438 529.238281 787.367188 529.527344 800.195312 530.164062 C 808.886719 530.597656 817.578125 531.234375 826.015625 533.539062 C 834.378906 535.804688 842.128906 539.453125 848.007812 545.964844 C 851.960938 550.355469 855.519531 555.183594 856.734375 561.28125 C 857.332031 564.253906 858.222656 567.15625 858.820312 570.132812 C 859.09375 571.511719 859 572.984375 859.09375 574.5625 C 858.203125 574.632812 857.570312 574.632812 856.953125 574.722656 C 854.703125 575.105469 854.230469 573.90625 853.992188 571.910156 C 853.195312 565.070312 851.128906 558.757812 846.882812 553.078125 C 839.679688 543.425781 829.789062 538.4375 818.394531 536.402344 C 809.070312 534.753906 799.597656 533.863281 790.144531 533.011719 C 776.335938 531.757812 762.566406 530.523438 749.355469 525.84375 C 724.082031 516.882812 706.9375 499.535156 696.976562 474.859375 C 692.023438 462.574219 689.191406 449.710938 686.921875 436.71875 C 684.257812 421.460938 681.84375 406.148438 679.011719 390.90625 C 677.652344 383.613281 675.09375 376.644531 671.300781 370.203125 C 664.804688 359.171875 655.207031 352.839844 642.5625 350.898438 C 631.890625 349.265625 621.515625 350.609375 611.171875 353.332031 C 602.824219 355.527344 595.257812 359.355469 588.582031 364.597656 C 582.792969 369.152344 577.96875 374.6875 574.683594 381.5625 C 570.582031 390.125 569.148438 398.960938 570.675781 408.199219 C 572.035156 416.453125 575.535156 423.929688 579.855469 431.078125 C 587.53125 443.722656 595.894531 455.972656 602.082031 469.46875 C 609.066406 484.695312 614.890625 500.277344 617.667969 516.882812 C 618.648438 522.707031 619.082031 528.546875 618.175781 534.425781 C 616.851562 542.898438 612.859375 549.976562 606.183594 555.238281 C 599.613281 560.425781 592.648438 565.125 585.84375 570.042969 C 584.136719 571.277344 582.324219 572.367188 580.726562 573.707031 C 578.457031 575.648438 575.898438 575.015625 573.414062 575.105469 C 573.339844 574.960938 573.25 574.777344 573.179688 574.597656 Z M 573.179688 574.597656 " fill-opacity="1" fill-rule="nonzero"/></g><g clip-path="url(#e7b3c48b73)"><path fill="#bc4749" d="M 587.566406 574.886719 C 591.832031 572.058594 595.875 569.425781 599.867188 566.722656 C 607.035156 561.859375 614.21875 556.996094 619.046875 549.523438 C 623 543.390625 624.074219 536.566406 623.890625 529.402344 C 623.65625 519.820312 621.351562 510.640625 618.703125 501.53125 C 613.855469 484.800781 607.507812 468.652344 599.359375 453.25 C 595.640625 446.210938 591.449219 439.425781 587.566406 432.457031 C 583.429688 425.054688 579.457031 417.558594 577.914062 409.070312 C 576.0625 398.816406 577.53125 389.183594 582.957031 380.128906 C 587.621094 372.34375 594.335938 366.773438 602.0625 362.546875 C 613.53125 356.25 626.03125 353.65625 639.042969 354.800781 C 654.574219 356.160156 665.386719 364.453125 671.773438 378.640625 C 675.402344 386.734375 677.523438 395.261719 679.15625 403.898438 C 681.042969 413.878906 682.730469 423.875 684.363281 433.890625 C 686.433594 446.644531 689.371094 459.183594 693.601562 471.375 C 698.609375 485.820312 706.28125 498.644531 717.40625 509.242188 C 729.527344 520.800781 744.003906 527.96875 760.1875 531.90625 C 772.089844 534.808594 784.265625 535.804688 796.386719 537.183594 C 805.132812 538.164062 813.878906 539.324219 822.1875 542.375 C 828.648438 544.75 834.5625 548.015625 839.242188 553.296875 C 842.546875 557.015625 845.359375 560.988281 846.882812 565.726562 C 847.789062 568.5 848.277344 571.421875 849.039062 574.6875 C 847.390625 574.6875 845.972656 574.777344 844.578125 574.632812 C 844.179688 574.578125 843.617188 573.835938 843.542969 573.34375 C 842.546875 566.851562 839.515625 561.40625 835.140625 556.617188 C 826.488281 547.089844 814.910156 543.859375 802.898438 541.664062 C 788.421875 539.015625 773.671875 538.019531 759.390625 534.246094 C 740.359375 529.199219 723.917969 519.894531 710.945312 504.925781 C 700.875 493.328125 694.453125 479.757812 690.042969 465.152344 C 685.925781 451.488281 683.238281 437.5 680.753906 423.457031 C 678.613281 411.320312 676.726562 399.109375 672.5 387.460938 C 669.304688 378.605469 664.894531 370.550781 657.003906 364.925781 C 651.160156 360.75 644.558594 358.699219 637.40625 358.285156 C 627.664062 357.722656 618.339844 359.390625 609.539062 363.636719 C 605.910156 365.378906 602.082031 367.011719 598.996094 369.515625 C 586.984375 379.292969 579.636719 392.59375 584.046875 410.71875 C 585.96875 418.628906 589.707031 425.742188 593.425781 432.835938 C 603.242188 451.597656 612.078125 470.777344 618.628906 490.953125 C 622.222656 502.039062 625.578125 513.179688 627.230469 524.738281 C 628.410156 533.046875 628.390625 541.375 624.417969 549.140625 C 621.421875 555 616.796875 559.429688 611.515625 563.167969 C 607.109375 566.289062 602.355469 568.9375 598.089844 572.257812 C 595.003906 574.722656 591.8125 575.757812 587.566406 574.886719 Z M 587.566406 574.886719 " fill-opacity="1" fill-rule="nonzero"/></g><g clip-path="url(#dcf5b6a393)"><path fill="#bc4749" d="M 602.5 575.050781 C 606.382812 572.472656 609.828125 570.261719 613.203125 567.921875 C 618.757812 564.074219 624.179688 560.117188 627.828125 554.222656 C 632.183594 547.164062 633.054688 539.417969 632.253906 531.394531 C 630.894531 517.734375 626.792969 504.722656 622.640625 491.75 C 616.597656 472.882812 609.25 454.519531 600.847656 436.558594 C 597.617188 429.679688 594.570312 422.675781 591.957031 415.546875 C 588.203125 405.242188 588.292969 394.917969 593.609375 385.027344 C 596.113281 380.363281 599.703125 376.664062 603.878906 373.433594 C 613.730469 365.777344 624.925781 362.277344 637.335938 362.929688 C 650.851562 363.636719 660.398438 370.585938 666.710938 382.324219 C 671.320312 390.90625 673.769531 400.214844 675.746094 409.667969 C 678.59375 423.167969 681.0625 436.738281 684.109375 450.183594 C 687.230469 464.027344 691.386719 477.582031 698.300781 490.101562 C 712.054688 514.996094 733.15625 530.453125 760.40625 537.492188 C 771.800781 540.433594 783.503906 542.265625 795.0625 544.570312 C 804.097656 546.367188 813.042969 548.453125 821.082031 553.261719 C 826.125 556.273438 830.316406 560.046875 833.328125 565.234375 C 835.015625 568.15625 836.375 571.078125 837.210938 574.308594 C 833.671875 575.359375 833.054688 575.070312 831.875 572.019531 C 828.554688 563.421875 822.0625 557.886719 814.113281 553.859375 C 806.601562 550.046875 798.492188 548.179688 790.328125 546.492188 C 776.664062 543.644531 762.875 541.25 749.757812 536.242188 C 719.800781 524.792969 700.242188 503.382812 689.589844 473.425781 C 684.273438 458.476562 680.953125 443.015625 677.796875 427.523438 C 675.4375 415.980469 673.351562 404.351562 669.085938 393.300781 C 666.074219 385.5 662.191406 378.222656 655.371094 373.015625 C 648.441406 367.738281 640.582031 365.90625 631.890625 366.484375 C 623.4375 367.046875 615.761719 369.75 609.066406 374.558594 C 598.324219 382.269531 592.375 394.191406 595.277344 409.195312 C 597.328125 419.757812 601.863281 429.464844 605.929688 439.296875 C 617.339844 466.929688 627.554688 494.980469 634.105469 524.230469 C 636.011719 532.757812 636.898438 541.429688 634.140625 550.03125 C 632.199219 556.109375 628.445312 560.917969 623.457031 564.726562 C 619.554688 567.703125 615.289062 570.226562 611.460938 573.308594 C 608.8125 575.324219 606.054688 575.230469 602.5 575.050781 Z M 602.5 575.050781 " fill-opacity="1" fill-rule="nonzero"/></g><g clip-path="url(#d894778d0a)"><path fill="#bc4749" d="M 620.316406 574.976562 C 624.164062 571.910156 628.171875 568.9375 631.910156 565.652344 C 639.65625 558.847656 642.109375 549.941406 641.398438 539.996094 C 640.472656 526.804688 636.644531 514.25 632.636719 501.785156 C 625.652344 480.085938 618.285156 458.492188 611.191406 436.828125 C 608.667969 429.136719 606.054688 421.425781 604.167969 413.550781 C 602.28125 405.765625 602.445312 397.890625 606.144531 390.453125 C 609.972656 382.777344 616.359375 378.132812 624.125 375.011719 C 630.695312 372.363281 637.425781 372.074219 644.140625 373.941406 C 652.558594 376.28125 658.417969 381.960938 662.664062 389.402344 C 667.382812 397.636719 670.066406 406.65625 672.28125 415.820312 C 675.65625 429.824219 678.722656 443.921875 682.371094 457.859375 C 686.324219 472.917969 691.695312 487.453125 700.421875 500.53125 C 713.703125 520.4375 731.992188 533.882812 754.546875 541.339844 C 765.976562 545.132812 777.769531 547.851562 789.402344 551.046875 C 798.78125 553.621094 808.089844 556.378906 815.726562 562.765625 C 817.90625 564.601562 819.773438 566.867188 821.535156 569.117188 C 822.75 570.679688 823.585938 572.546875 824.601562 574.324219 C 821.28125 575.140625 820.589844 575.085938 818.921875 572.292969 C 814.1875 564.382812 806.890625 559.773438 798.5625 556.90625 C 788.113281 553.3125 777.425781 550.410156 766.792969 547.289062 C 752.769531 543.171875 739.324219 537.835938 727.203125 529.472656 C 707.753906 516.046875 694.980469 497.628906 686.90625 475.640625 C 681.296875 460.378906 677.632812 444.59375 673.894531 428.828125 C 671.210938 417.503906 668.617188 406.148438 663.371094 395.660156 C 659.582031 388.074219 654.480469 381.671875 646.351562 378.460938 C 640.691406 376.226562 634.8125 375.847656 628.953125 377.679688 C 626.085938 378.585938 623.019531 379.402344 620.589844 381.054688 C 615.328125 384.628906 611.246094 389.347656 609.25 395.605469 C 606.472656 404.332031 607.523438 413.042969 610.066406 421.496094 C 615.945312 441.183594 622.292969 460.742188 628.226562 480.410156 C 633.144531 496.742188 637.96875 513.125 642.398438 529.601562 C 644.449219 537.21875 645.429688 545.132812 643.59375 553.023438 C 641.925781 560.246094 637.808594 565.832031 631.875 570.152344 C 631.003906 570.785156 630.113281 571.441406 629.316406 572.183594 C 626.703125 574.5625 623.816406 575.921875 620.316406 574.976562 Z M 620.316406 574.976562 " fill-opacity="1" fill-rule="nonzero"/></g><g clip-path="url(#fede9408ce)"><path fill="#bc4749" d="M 633.34375 574.816406 C 634.851562 573.507812 636.355469 572.203125 637.878906 570.894531 C 643.976562 565.652344 647.625 559.15625 648.113281 551.011719 C 648.65625 542.175781 646.859375 533.664062 644.429688 525.300781 C 639.257812 507.5 633.707031 489.808594 628.5 472.011719 C 623.835938 456.082031 619.28125 440.113281 614.980469 424.09375 C 613.292969 417.796875 612.625 411.265625 613.347656 404.679688 C 614.492188 394.371094 619.71875 386.953125 629.425781 383.339844 C 638.132812 380.09375 646.246094 381.871094 653.300781 388.039062 C 659 393.011719 662.59375 399.453125 664.878906 406.4375 C 668.417969 417.289062 671.5 428.300781 674.402344 439.332031 C 678.613281 455.335938 682.785156 471.339844 689.644531 486.472656 C 702.039062 513.816406 722.324219 532.992188 750.121094 543.96875 C 761.550781 548.488281 773.417969 551.863281 785.066406 555.765625 C 793.066406 558.449219 800.90625 561.460938 807.507812 566.90625 C 810.011719 568.953125 812.300781 571.242188 813.730469 574.453125 C 811.609375 574.960938 810.320312 574.597656 808.941406 572.875 C 804.40625 567.195312 798.402344 563.328125 791.722656 560.773438 C 782.070312 557.070312 772.238281 553.785156 762.476562 550.375 C 747.960938 545.3125 734.132812 538.945312 721.921875 529.4375 C 704.921875 516.210938 693.363281 499.101562 685.582031 479.175781 C 679.539062 463.71875 675.511719 447.679688 671.265625 431.695312 C 668.542969 421.480469 665.75 411.265625 660.742188 401.847656 C 658.472656 397.582031 655.734375 393.628906 651.867188 390.6875 C 645.554688 385.878906 638.679688 384.085938 630.929688 387.1875 C 622.386719 390.617188 618.519531 397.402344 617.269531 405.984375 C 616.050781 414.3125 617.632812 422.476562 619.445312 430.550781 C 625.667969 458.148438 634.269531 485.074219 642.46875 512.089844 C 645.644531 522.558594 649.074219 532.976562 650.34375 543.898438 C 651.234375 551.589844 651.179688 559.230469 646.335938 565.796875 C 644.03125 568.917969 641.253906 571.75 638.332031 574.308594 C 637.261719 575.25 635.175781 575.050781 633.542969 575.378906 C 633.472656 575.214844 633.417969 575.015625 633.34375 574.816406 Z M 633.34375 574.816406 " fill-opacity="1" fill-rule="nonzero"/></g><g clip-path="url(#f5003dd379)"><path fill="#bc4749" d="M 1097.015625 111.953125 C 1098.402344 113.136719 1099.644531 114.21875 1101.035156 115.414062 C 1099.964844 117.058594 1098.976562 118.757812 1097.808594 120.324219 C 1094.699219 124.53125 1091.703125 128.855469 1088.285156 132.8125 C 1085.011719 136.605469 1081.363281 140.09375 1077.722656 143.546875 C 1075.09375 146.039062 1072.273438 148.3125 1069.429688 150.5625 C 1064.691406 154.3125 1059.65625 157.609375 1054.386719 160.578125 C 1049.433594 163.375 1044.378906 165.945312 1039.054688 167.925781 C 1033.699219 169.910156 1028.285156 171.78125 1022.828125 173.480469 C 1019.949219 174.371094 1016.929688 174.832031 1013.953125 175.398438 C 1010.769531 176 1007.585938 176.636719 1004.367188 176.996094 C 1001.28125 177.339844 998.152344 177.339844 995.050781 177.511719 C 992.550781 177.644531 990.0625 177.960938 987.570312 177.914062 C 984.46875 177.851562 981.347656 177.625 978.261719 177.230469 C 975.945312 176.933594 973.597656 176.457031 971.394531 175.683594 C 969.074219 174.875 966.761719 173.832031 964.703125 172.5 C 961.988281 170.757812 959.371094 168.789062 956.972656 166.621094 C 955.199219 165.03125 953.753906 163.050781 952.347656 161.101562 C 950.972656 159.195312 949.742188 157.160156 948.609375 155.09375 C 946.558594 151.351562 944.699219 147.503906 942.628906 143.773438 C 940.894531 140.644531 938.304688 138.394531 935.011719 136.921875 C 930.015625 134.683594 924.71875 133.585938 919.367188 132.648438 C 914.90625 131.867188 910.4375 131.183594 905.988281 130.375 C 900.726562 129.421875 895.441406 128.566406 890.242188 127.328125 C 884.964844 126.066406 879.839844 124.277344 874.984375 121.769531 C 868.859375 118.597656 863.449219 114.539062 858.84375 109.398438 C 855.8125 106.007812 853.394531 102.214844 851.28125 98.210938 C 849.539062 94.910156 848.152344 91.460938 847.234375 87.84375 C 846.542969 85.148438 846.03125 82.40625 845.507812 79.660156 C 844.492188 74.3125 844.222656 68.898438 844.582031 63.476562 C 844.925781 58.351562 845.320312 53.207031 846.140625 48.144531 C 846.832031 43.882812 848.152344 39.71875 849.230469 35.53125 C 849.636719 33.976562 850.085938 32.417969 850.609375 30.898438 C 851.453125 28.464844 852.335938 26.042969 853.277344 23.652344 C 854.277344 21.125 855.265625 18.582031 856.425781 16.125 C 857.847656 13.113281 859.429688 10.183594 860.957031 7.214844 C 864.457031 0.445312 868.636719 -5.921875 872.980469 -12.160156 C 875.722656 -16.101562 878.679688 -19.902344 881.683594 -23.652344 C 885.902344 -28.914062 890.171875 -34.136719 894.558594 -39.253906 C 897.265625 -42.410156 900.25 -45.324219 903.101562 -48.371094 C 904.28125 -49.628906 905.402344 -50.925781 906.671875 -52.347656 C 908.183594 -51.058594 909.640625 -49.828125 911.203125 -48.496094 C 909.953125 -47.113281 908.765625 -45.835938 907.617188 -44.515625 C 904.191406 -40.601562 900.71875 -36.726562 897.375 -32.742188 C 894.191406 -28.957031 891.144531 -25.046875 888.03125 -21.199219 C 884.15625 -16.398438 880.207031 -11.648438 876.40625 -6.785156 C 874.011719 -3.738281 871.71875 -0.597656 869.582031 2.628906 C 866.53125 7.222656 863.492188 11.835938 861.136719 16.863281 C 860.011719 19.265625 858.699219 21.574219 857.601562 23.984375 C 856.695312 25.964844 855.921875 28.011719 855.167969 30.0625 C 854.242188 32.535156 853.269531 35.007812 852.53125 37.542969 C 851.730469 40.296875 851.253906 43.136719 850.519531 45.90625 C 848.359375 53.972656 848.136719 62.234375 848.214844 70.492188 C 848.242188 73.511719 848.890625 76.53125 849.359375 79.535156 C 849.636719 81.371094 849.980469 83.222656 850.527344 84.992188 C 851.308594 87.554688 852.261719 90.066406 853.234375 92.566406 C 853.773438 93.957031 854.394531 95.351562 855.183594 96.621094 C 856.597656 98.902344 858.117188 101.117188 859.652344 103.320312 C 862.65625 107.617188 866.558594 110.972656 870.867188 113.894531 C 877.105469 118.128906 884.066406 120.683594 891.304688 122.535156 C 900.160156 124.800781 909.1875 126.121094 918.234375 127.335938 C 922.074219 127.847656 925.90625 128.515625 929.699219 129.332031 C 932.917969 130.023438 936.136719 130.832031 939.230469 131.941406 C 943.347656 133.40625 946.628906 136.023438 948.527344 140.113281 C 950.378906 144.113281 952.195312 148.132812 954.128906 152.097656 C 955.945312 155.820312 958.195312 159.273438 961.132812 162.222656 C 963.355469 164.445312 965.757812 166.484375 968.5 168.03125 C 970.152344 168.96875 971.988281 169.597656 973.757812 170.308594 C 976.691406 171.496094 979.835938 171.710938 982.894531 172.347656 C 985.941406 172.988281 988.929688 172.996094 991.941406 172.949219 C 995.03125 172.898438 998.117188 172.449219 1001.203125 172.167969 C 1002.945312 172.015625 1004.691406 171.898438 1006.425781 171.691406 C 1007.800781 171.519531 1009.167969 171.261719 1010.535156 171 C 1012.109375 170.695312 1013.683594 170.363281 1015.246094 170.011719 C 1016.847656 169.660156 1018.449219 169.320312 1020.019531 168.886719 C 1022.710938 168.160156 1025.433594 167.476562 1028.058594 166.558594 C 1031.71875 165.289062 1035.324219 163.878906 1038.914062 162.429688 C 1044.21875 160.28125 1049.269531 157.59375 1054.082031 154.527344 C 1058.585938 151.660156 1062.949219 148.546875 1067.210938 145.328125 C 1072.171875 141.578125 1076.804688 137.414062 1080.929688 132.757812 C 1084.445312 128.785156 1087.835938 124.683594 1091.109375 120.511719 C 1092.960938 118.144531 1094.453125 115.503906 1096.128906 112.996094 C 1096.332031 112.644531 1096.65625 112.355469 1097.015625 111.953125 Z M 1097.015625 111.953125 " fill-opacity="1" fill-rule="nonzero"/></g><g clip-path="url(#bf6f4be783)"><path fill="#bc4749" d="M 915.859375 -44.316406 C 916.777344 -43.578125 917.585938 -42.929688 918.40625 -42.285156 C 918.945312 -41.863281 919.070312 -41.476562 918.558594 -40.871094 C 914.816406 -36.503906 911.472656 -31.84375 908.246094 -27.078125 C 904.136719 -21.027344 899.863281 -15.066406 895.539062 -9.167969 C 892.761719 -5.382812 889.792969 -1.730469 886.808594 1.902344 C 884.238281 5.03125 881.449219 7.988281 878.878906 11.125 C 876.855469 13.589844 874.957031 16.164062 873.113281 18.761719 C 871.496094 21.042969 869.894531 23.347656 868.539062 25.792969 C 866.488281 29.488281 864.597656 33.265625 862.773438 37.078125 C 861.902344 38.910156 861.289062 40.878906 860.667969 42.824219 C 859.726562 45.78125 858.746094 48.738281 858.042969 51.75 C 857.496094 54.117188 857.28125 56.570312 857.046875 59.007812 C 856.8125 61.4375 856.714844 63.882812 856.585938 66.316406 C 856.363281 70.660156 856.972656 74.933594 858.054688 79.09375 C 858.996094 82.726562 860.355469 86.234375 862.054688 89.625 C 864.328125 94.164062 867.546875 97.949219 871.164062 101.394531 C 874.078125 104.171875 877.4375 106.429688 881.097656 108.15625 C 884.183594 109.613281 887.25 111.195312 890.484375 112.210938 C 895.414062 113.757812 900.441406 115.035156 905.492188 116.085938 C 910.449219 117.113281 915.484375 117.777344 920.492188 118.488281 C 926.785156 119.386719 933.105469 120.078125 939.390625 121.058594 C 943.898438 121.761719 948.339844 122.730469 952.476562 124.84375 C 956.007812 126.652344 958.417969 129.449219 960.074219 132.929688 C 961.71875 136.390625 963.039062 140.015625 964.75 143.441406 C 967.148438 148.25 970.125 152.703125 974.59375 155.875 C 976.195312 157.007812 978.210938 157.574219 979.808594 158.71875 C 981.5625 159.984375 983.695312 159.789062 985.554688 160.640625 C 986.832031 161.234375 988.433594 161.296875 989.890625 161.316406 C 993.289062 161.351562 996.679688 161.261719 1000.078125 161.136719 C 1001.832031 161.074219 1003.585938 160.9375 1005.3125 160.648438 C 1008.195312 160.164062 1011.101562 159.679688 1013.925781 158.925781 C 1018.878906 157.601562 1023.914062 156.414062 1028.679688 154.5625 C 1034.019531 152.496094 1039.191406 149.933594 1044.261719 147.261719 C 1048.128906 145.230469 1051.84375 142.855469 1055.402344 140.320312 C 1058.902344 137.828125 1062.175781 135.015625 1065.4375 132.210938 C 1067.777344 130.195312 1070.042969 128.074219 1072.121094 125.796875 C 1074.925781 122.730469 1077.632812 119.558594 1080.175781 116.265625 C 1082.613281 113.121094 1084.789062 109.785156 1087.054688 106.511719 C 1087.496094 105.871094 1087.855469 105.179688 1088.296875 104.453125 C 1089.429688 105.386719 1090.5 106.214844 1091.496094 107.121094 C 1091.667969 107.285156 1091.667969 107.867188 1091.515625 108.128906 C 1088.476562 113.265625 1085.09375 118.183594 1081.273438 122.769531 C 1076.976562 127.9375 1072.34375 132.792969 1067.183594 137.136719 C 1063.054688 140.609375 1058.785156 143.878906 1054.253906 146.8125 C 1049.144531 150.113281 1043.859375 153.097656 1038.230469 155.398438 C 1033.519531 157.324219 1028.769531 159.203125 1023.949219 160.839844 C 1020.839844 161.898438 1017.574219 162.546875 1014.367188 163.265625 C 1011.507812 163.914062 1008.628906 164.445312 1005.742188 164.949219 C 1004.304688 165.199219 1002.828125 165.324219 1001.363281 165.414062 C 998.109375 165.605469 994.851562 165.847656 991.589844 165.828125 C 989.53125 165.820312 987.480469 165.398438 985.429688 165.15625 C 984.179688 165.003906 982.902344 164.957031 981.699219 164.644531 C 979.808594 164.148438 977.941406 163.535156 976.125 162.835938 C 972.246094 161.324219 969.117188 158.71875 966.3125 155.742188 C 963.914062 153.195312 962.105469 150.203125 960.59375 147.0625 C 958.824219 143.386719 957.140625 139.65625 955.398438 135.96875 C 953.238281 131.417969 949.605469 128.585938 944.902344 126.976562 C 940.570312 125.492188 936.121094 124.574219 931.585938 123.953125 C 925.96875 123.183594 920.339844 122.417969 914.738281 121.535156 C 909.484375 120.710938 904.242188 119.855469 899.039062 118.777344 C 893.542969 117.644531 888.140625 116.105469 883.023438 113.765625 C 879.371094 112.09375 875.703125 110.40625 872.574219 107.796875 C 870.535156 106.097656 868.421875 104.46875 866.550781 102.589844 C 863.421875 99.445312 860.847656 95.855469 858.988281 91.808594 C 857.757812 89.140625 856.632812 86.421875 855.542969 83.699219 C 855.113281 82.609375 854.851562 81.433594 854.644531 80.273438 C 854.25 78.089844 853.800781 75.902344 853.621094 73.691406 C 853.359375 70.410156 853.097656 67.089844 853.234375 63.808594 C 853.40625 59.726562 853.738281 55.617188 854.4375 51.589844 C 855.085938 47.867188 856.300781 44.242188 857.289062 40.582031 C 858.710938 35.332031 861.019531 30.421875 863.386719 25.566406 C 865.011719 22.222656 867.007812 19.039062 869.015625 15.902344 C 873.023438 9.644531 877.484375 3.707031 882.339844 -1.929688 C 884.703125 -4.671875 886.90625 -7.558594 889.183594 -10.371094 C 891.4375 -13.160156 893.785156 -15.882812 895.945312 -18.742188 C 899.523438 -23.5 902.914062 -28.410156 906.527344 -33.140625 C 909.269531 -36.726562 912.246094 -40.144531 915.125 -43.632812 C 915.3125 -43.882812 915.582031 -44.074219 915.859375 -44.316406 Z M 915.859375 -44.316406 " fill-opacity="1" fill-rule="nonzero"/></g><g clip-path="url(#646eb5ece3)"><path fill="#bc4749" d="M 1080.425781 97.644531 C 1081.507812 98.542969 1082.558594 99.378906 1083.539062 100.296875 C 1083.671875 100.421875 1083.566406 100.980469 1083.402344 101.234375 C 1081.246094 104.621094 1079.167969 108.074219 1076.859375 111.359375 C 1073.359375 116.332031 1069.386719 120.925781 1064.988281 125.125 C 1060.179688 129.710938 1055.035156 133.898438 1049.460938 137.558594 C 1043.488281 141.480469 1037.277344 144.933594 1030.605469 147.449219 C 1025.558594 149.355469 1020.398438 150.992188 1015.210938 152.496094 C 1012.171875 153.375 1008.996094 153.78125 1005.867188 154.328125 C 1002.226562 154.976562 998.566406 155.164062 994.871094 154.699219 C 993.433594 154.519531 991.914062 154.742188 990.511719 154.4375 C 988.253906 153.933594 985.960938 153.367188 983.867188 152.433594 C 979.585938 150.515625 976.050781 147.613281 973.425781 143.636719 C 971 139.96875 969.246094 135.96875 967.292969 132.066406 C 966.179688 129.828125 964.957031 127.625 963.578125 125.527344 C 962.070312 123.226562 959.839844 121.699219 957.347656 120.539062 C 953.867188 118.917969 950.191406 117.902344 946.40625 117.390625 C 936.792969 116.078125 927.15625 114.964844 917.558594 113.578125 C 908.515625 112.265625 899.59375 110.332031 891.097656 106.84375 C 884.316406 104.054688 878.113281 100.351562 873.097656 94.921875 C 870.496094 92.105469 868.1875 89.03125 866.722656 85.445312 C 865.777344 83.140625 864.878906 80.8125 864.042969 78.464844 C 863.671875 77.433594 863.476562 76.324219 863.296875 75.238281 C 862.65625 71.335938 862.433594 67.40625 862.703125 63.449219 C 862.78125 62.226562 862.792969 60.996094 863.007812 59.800781 C 863.582031 56.644531 864.085938 53.449219 864.949219 50.367188 C 866.054688 46.417969 867.636719 42.617188 869.6875 39.054688 C 871.53125 35.863281 873.339844 32.625 875.460938 29.621094 C 877.628906 26.558594 880.128906 23.714844 882.519531 20.8125 C 884.6875 18.175781 886.988281 15.660156 889.09375 12.980469 C 891.773438 9.570312 894.480469 6.15625 896.871094 2.539062 C 900.25 -2.578125 903.289062 -7.917969 906.589844 -13.097656 C 910.394531 -19.066406 914.269531 -24.984375 918.207031 -30.863281 C 919.664062 -33.03125 921.382812 -35.019531 922.980469 -37.097656 C 923.136719 -37.292969 923.269531 -37.507812 923.441406 -37.769531 C 924.386719 -36.996094 925.175781 -36.339844 926.074219 -35.613281 C 925.300781 -34.613281 924.511719 -33.695312 923.835938 -32.699219 C 921.320312 -28.984375 918.691406 -25.335938 916.390625 -21.496094 C 912.804688 -15.523438 909.476562 -9.390625 905.980469 -3.367188 C 902.769531 2.152344 899.488281 7.628906 896.214844 13.125 C 893.058594 18.429688 889.03125 23.058594 884.929688 27.625 C 881.160156 31.816406 877.457031 36.089844 874.625 40.980469 C 872.960938 43.839844 871.371094 46.777344 870.109375 49.835938 C 869.105469 52.28125 868.679688 54.96875 867.972656 57.542969 C 866.703125 62.144531 866.902344 66.847656 867.089844 71.523438 C 867.152344 73.167969 867.683594 74.804688 868.085938 76.425781 C 868.484375 77.972656 868.960938 79.5 869.464844 81.011719 C 870.355469 83.671875 871.605469 86.164062 873.355469 88.347656 C 875.121094 90.550781 876.855469 92.824219 878.90625 94.742188 C 883.203125 98.75 888.292969 101.574219 893.722656 103.777344 C 902.003906 107.132812 910.644531 109.109375 919.457031 110.316406 C 927.640625 111.429688 935.859375 112.3125 944.058594 113.335938 C 948.761719 113.929688 953.445312 114.605469 958.003906 116.042969 C 963.679688 117.832031 967.699219 121.390625 970.316406 126.714844 C 972.265625 130.691406 974.371094 134.601562 976.519531 138.484375 C 978.011719 141.183594 980.015625 143.457031 982.5625 145.273438 C 984.289062 146.507812 986.183594 147.308594 988.039062 148.261719 C 990.015625 149.277344 992.058594 149.78125 994.144531 150.058594 C 996.300781 150.347656 998.523438 150.230469 1000.714844 150.246094 C 1001.714844 150.257812 1002.722656 150.246094 1003.699219 150.128906 C 1006.101562 149.832031 1008.554688 149.679688 1010.894531 149.085938 C 1015.472656 147.9375 1020.074219 146.792969 1024.488281 145.167969 C 1029.121094 143.457031 1033.632812 141.34375 1038.039062 139.105469 C 1043.453125 136.355469 1048.578125 133.054688 1053.226562 129.132812 C 1057.265625 125.746094 1061.210938 122.21875 1064.917969 118.480469 C 1069.828125 113.515625 1074.027344 107.957031 1077.695312 102.007812 C 1078.609375 100.585938 1079.492188 99.164062 1080.425781 97.644531 Z M 1080.425781 97.644531 " fill-opacity="1" fill-rule="nonzero"/></g><g clip-path="url(#ca9de6de70)"><path fill="#bc4749" d="M 929.097656 -32.886719 C 929.746094 -32.375 930.347656 -31.898438 931.039062 -31.359375 C 930.15625 -30.164062 929.285156 -29.039062 928.46875 -27.878906 C 920.5625 -16.695312 914.566406 -4.5 909.394531 8.132812 C 906.824219 14.417969 904.207031 20.675781 901.519531 26.90625 C 899.0625 32.597656 895.539062 37.582031 891.242188 42.050781 C 889.054688 44.316406 886.90625 46.664062 885.082031 49.214844 C 882.953125 52.199219 881.324219 55.492188 879.964844 58.964844 C 878.230469 63.386719 878.222656 67.9375 878.445312 72.488281 C 878.554688 74.625 879.390625 76.777344 880.183594 78.816406 C 882.96875 85.984375 888.175781 91.035156 894.667969 94.886719 C 901.265625 98.789062 908.46875 101.070312 915.898438 102.769531 C 924.960938 104.839844 934.1875 105.746094 943.410156 106.628906 C 949.597656 107.222656 955.765625 107.933594 961.917969 108.804688 C 965.792969 109.351562 969.441406 110.792969 972.617188 113.128906 C 974.855469 114.773438 976.519531 116.988281 978.03125 119.351562 C 980.609375 123.398438 982.742188 127.75 985.96875 131.363281 C 987.121094 132.648438 988.453125 133.78125 989.746094 134.925781 C 991.722656 136.660156 993.988281 137.9375 996.542969 138.601562 C 999.375 139.339844 1002.269531 139.773438 1005.210938 139.457031 C 1008.367188 139.113281 1011.578125 138.933594 1014.660156 138.234375 C 1021.074219 136.785156 1027.070312 134.1875 1032.878906 131.148438 C 1038.308594 128.308594 1043.363281 124.933594 1048.175781 121.148438 C 1052.195312 117.984375 1055.941406 114.539062 1059.359375 110.753906 C 1063.992188 105.628906 1068.171875 100.152344 1071.535156 94.09375 C 1072.019531 93.222656 1072.578125 92.386719 1073.179688 91.40625 C 1074.105469 92.1875 1075.03125 92.898438 1075.84375 93.726562 C 1076.011719 93.894531 1075.886719 94.542969 1075.699219 94.859375 C 1074.222656 97.320312 1072.777344 99.8125 1071.175781 102.195312 C 1066.984375 108.460938 1062.136719 114.171875 1056.597656 119.296875 C 1052.195312 123.378906 1047.4375 127.011719 1042.347656 130.230469 C 1037.042969 133.585938 1031.46875 136.355469 1025.640625 138.664062 C 1020.183594 140.832031 1014.636719 142.550781 1008.789062 143.367188 C 1004.925781 143.90625 1001.121094 144.132812 997.289062 143.214844 C 996.292969 142.972656 995.167969 143.125 994.234375 142.765625 C 991.050781 141.515625 987.695312 140.382812 985.3125 137.847656 C 983.144531 135.546875 981.238281 132.945312 979.511719 130.292969 C 977.300781 126.90625 975.496094 123.246094 973.300781 119.847656 C 971.035156 116.332031 967.582031 114.289062 963.714844 112.867188 C 959.148438 111.1875 954.363281 110.628906 949.578125 110.097656 C 941.683594 109.21875 933.773438 108.570312 925.894531 107.554688 C 917.371094 106.457031 908.964844 104.703125 900.84375 101.773438 C 896.457031 100.191406 892.300781 98.121094 888.464844 95.515625 C 883.789062 92.332031 879.886719 88.339844 877.1875 83.277344 C 875.558594 80.226562 874.570312 77 873.851562 73.609375 C 873.070312 69.933594 873.535156 66.316406 873.671875 62.6875 C 873.734375 60.871094 874.382812 59.054688 874.921875 57.28125 C 876.261719 52.820312 878.300781 48.683594 881.027344 44.925781 C 882.859375 42.410156 884.894531 40.027344 886.871094 37.617188 C 889.371094 34.570312 892.097656 31.683594 894.378906 28.472656 C 896.492188 25.503906 898.292969 22.285156 899.980469 19.058594 C 905.53125 8.464844 910.070312 -2.640625 916.03125 -13.023438 C 919.898438 -19.75 923.792969 -26.46875 928.699219 -32.519531 C 928.800781 -32.625 928.890625 -32.691406 929.097656 -32.886719 Z M 929.097656 -32.886719 " fill-opacity="1" fill-rule="nonzero"/></g><g clip-path="url(#f787e29e2c)"><path fill="#bc4749" d="M 933.285156 -29.308594 C 933.90625 -28.777344 934.417969 -28.347656 935.003906 -27.84375 C 934.222656 -26.746094 933.464844 -25.675781 932.703125 -24.605469 C 924.601562 -13.152344 918.847656 -0.5625 914.808594 12.816406 C 912.632812 20.039062 910.878906 27.367188 909.503906 34.792969 C 908.777344 38.730469 907.777344 42.644531 906.03125 46.300781 C 904.808594 48.867188 902.867188 50.898438 900.90625 52.910156 C 898.175781 55.707031 895.449219 58.523438 893.6875 62.074219 C 893.050781 63.359375 892.714844 64.808594 892.085938 66.101562 C 890.972656 68.394531 891.269531 70.894531 891.277344 73.242188 C 891.285156 75.265625 892.078125 77.40625 892.976562 79.273438 C 894.992188 83.5 898.21875 86.746094 902.078125 89.363281 C 909.289062 94.265625 917.417969 96.808594 925.824219 98.589844 C 935.382812 100.613281 945.085938 101.339844 954.8125 101.945312 C 959.867188 102.257812 964.910156 102.625 969.882812 103.722656 C 975.65625 105 980.386719 107.832031 983.929688 112.617188 C 986.167969 115.636719 988.40625 118.660156 990.816406 121.535156 C 992.378906 123.40625 994.234375 124.988281 996.335938 126.347656 C 997.75 127.253906 999.078125 128.289062 1000.6875 128.703125 C 1003.890625 129.539062 1007.136719 130.160156 1010.488281 129.863281 C 1019.480469 129.054688 1027.386719 125.394531 1034.949219 120.753906 C 1041.664062 116.636719 1047.699219 111.679688 1053.09375 105.960938 C 1058.503906 100.21875 1063.054688 93.804688 1066.789062 86.835938 C 1066.867188 86.683594 1066.96875 86.53125 1067.039062 86.398438 C 1067.148438 86.386719 1067.238281 86.351562 1067.273438 86.378906 C 1070.1875 88.457031 1070.222656 88.484375 1068.511719 91.566406 C 1065.492188 97.015625 1061.851562 102.035156 1057.757812 106.734375 C 1053.183594 111.988281 1047.996094 116.527344 1042.339844 120.59375 C 1037.355469 124.171875 1032.035156 127.175781 1026.441406 129.621094 C 1021.226562 131.894531 1015.832031 133.773438 1010.050781 134.1875 C 1006.867188 134.414062 1003.71875 134.449219 1000.636719 133.433594 C 999.933594 133.199219 999.070312 133.359375 998.449219 133.027344 C 996.4375 131.941406 994.441406 130.796875 992.535156 129.519531 C 988.164062 126.589844 985.566406 122.121094 982.875 117.8125 C 978.40625 110.664062 972.058594 106.628906 963.769531 105.703125 C 956.738281 104.917969 949.6875 104.34375 942.636719 103.714844 C 933.898438 102.933594 925.195312 101.855469 916.695312 99.597656 C 909.503906 97.679688 902.597656 95.019531 896.546875 90.578125 C 892.210938 87.394531 888.679688 83.464844 886.671875 78.386719 C 886.132812 77.019531 886.089844 75.460938 885.621094 74.050781 C 884.902344 71.847656 885.191406 69.617188 885.398438 67.441406 C 885.730469 63.917969 886.78125 60.535156 888.761719 57.535156 C 890.101562 55.5 891.449219 53.46875 892.976562 51.570312 C 894.550781 49.628906 896.421875 47.921875 898.003906 45.988281 C 899.316406 44.386719 900.53125 42.679688 901.582031 40.898438 C 903.929688 36.914062 905.277344 32.507812 906.617188 28.113281 C 908.972656 20.386719 911.203125 12.621094 914.242188 5.121094 C 917.496094 -2.910156 921.15625 -10.75 925.6875 -18.148438 C 927.839844 -21.65625 930.210938 -25.039062 932.503906 -28.464844 C 932.703125 -28.75 932.980469 -28.976562 933.285156 -29.308594 Z M 933.285156 -29.308594 " fill-opacity="1" fill-rule="nonzero"/></g><g clip-path="url(#85c57b6b8a)"><path fill="#bc4749" d="M 937.414062 -25.785156 C 937.691406 -25.550781 937.925781 -25.324219 938.1875 -25.15625 C 938.699219 -24.8125 938.65625 -24.507812 938.3125 -24.011719 C 936.550781 -21.476562 934.664062 -19.011719 933.132812 -16.34375 C 930.96875 -12.585938 928.925781 -8.734375 927.101562 -4.796875 C 924.285156 1.28125 922.183594 7.621094 920.679688 14.15625 C 919.351562 19.921875 918.667969 25.785156 918.386719 31.664062 C 918.199219 35.628906 918.613281 39.628906 918.601562 43.613281 C 918.59375 46.949219 918.585938 50.304688 918.164062 53.59375 C 917.855469 55.976562 916.535156 58.082031 914.675781 59.746094 C 911.949219 62.191406 909.503906 64.898438 907.527344 67.980469 C 907.03125 68.753906 906.886719 69.769531 906.625 70.6875 C 906.507812 71.101562 906.554688 71.558594 906.410156 71.957031 C 905.394531 74.625 906.367188 77.035156 907.527344 79.328125 C 909.394531 83.007812 912.488281 85.488281 915.996094 87.492188 C 924.367188 92.277344 933.546875 94.433594 943.007812 95.371094 C 949.6875 96.035156 956.40625 96.304688 963.113281 96.691406 C 968.21875 96.988281 973.292969 97.5 978.21875 98.957031 C 981.679688 99.984375 984.792969 101.726562 987.445312 104.144531 C 989.90625 106.394531 992.136719 108.886719 994.566406 111.179688 C 996.320312 112.832031 998.1875 114.386719 1000.078125 115.890625 C 1001.09375 116.699219 1002.199219 117.472656 1003.386719 117.984375 C 1006.675781 119.414062 1010.148438 119.882812 1013.746094 119.640625 C 1020.902344 119.152344 1027.160156 116.214844 1032.933594 112.273438 C 1036.78125 109.660156 1040.433594 106.71875 1043.921875 103.625 C 1047.652344 100.316406 1051.035156 96.601562 1053.8125 92.429688 C 1056.222656 88.824219 1058.433594 85.082031 1060.746094 81.40625 C 1060.816406 81.289062 1060.914062 81.179688 1061.105469 80.949219 C 1061.878906 81.613281 1062.652344 82.214844 1063.335938 82.917969 C 1063.476562 83.0625 1063.351562 83.601562 1063.191406 83.871094 C 1061.25 87.097656 1059.386719 90.390625 1057.292969 93.519531 C 1054.226562 98.105469 1050.601562 102.238281 1046.574219 106.007812 C 1041.1875 111.035156 1035.308594 115.339844 1028.734375 118.722656 C 1025.398438 120.4375 1021.972656 121.921875 1018.339844 122.796875 C 1014.644531 123.683594 1010.859375 124.277344 1007.074219 123.390625 C 1004.933594 122.886719 1002.710938 122.355469 1000.789062 121.347656 C 997.191406 119.449219 994.296875 116.625 991.617188 113.550781 C 989.027344 110.574219 986.339844 107.652344 983.371094 105.074219 C 980.097656 102.230469 975.960938 101.070312 971.746094 100.269531 C 965.925781 99.175781 960.027344 99.039062 954.148438 98.761719 C 945.523438 98.355469 936.9375 97.589844 928.503906 95.632812 C 921.785156 94.066406 915.292969 91.84375 909.496094 88.007812 C 905.601562 85.425781 902.238281 82.269531 900.636719 77.753906 C 900.027344 76.019531 900.027344 74.050781 899.890625 72.179688 C 899.820312 71.261719 899.964844 70.300781 900.199219 69.402344 C 900.738281 67.324219 901.472656 65.300781 902.902344 63.65625 C 905.089844 61.148438 907.382812 58.738281 909.566406 56.21875 C 911.582031 53.902344 912.984375 51.246094 913.335938 48.15625 C 913.890625 43.273438 914.457031 38.390625 914.828125 33.488281 C 915.511719 24.445312 917.300781 15.640625 920.148438 7.035156 C 922.730469 -0.777344 926.046875 -8.257812 930.238281 -15.316406 C 932.261719 -18.734375 934.664062 -21.9375 936.890625 -25.226562 C 937.019531 -25.40625 937.214844 -25.566406 937.414062 -25.785156 Z M 937.414062 -25.785156 " fill-opacity="1" fill-rule="nonzero"/></g><g clip-path="url(#7d9e142a26)"><path fill="#bc4749" d="M 1056.3125 76.765625 C 1057.058594 77.441406 1057.75 77.960938 1058.289062 78.609375 C 1058.460938 78.816406 1058.363281 79.429688 1058.183594 79.734375 C 1056.394531 82.765625 1054.65625 85.832031 1052.714844 88.761719 C 1049.207031 94.066406 1044.875 98.660156 1040.101562 102.84375 C 1035.746094 106.644531 1031.035156 109.953125 1025.777344 112.320312 C 1021.785156 114.117188 1017.574219 115.414062 1013.105469 115.222656 C 1010.992188 115.132812 1008.84375 114.953125 1006.875 113.957031 C 1006.15625 113.597656 1005.230469 113.625 1004.554688 113.210938 C 1001.777344 111.492188 999.078125 109.648438 996.632812 107.457031 C 993.847656 104.945312 991.121094 102.339844 988.101562 100.136719 C 984.421875 97.464844 980.144531 95.929688 975.636719 95.351562 C 970.871094 94.742188 966.070312 94.328125 961.269531 94.058594 C 953.519531 93.617188 945.75 93.507812 938.117188 91.890625 C 931.703125 90.53125 925.546875 88.519531 920.1875 84.605469 C 918.144531 83.125 916.363281 81.34375 915.277344 79.003906 C 914.367188 77.046875 914.171875 75.050781 914.746094 72.882812 C 915.527344 69.914062 917.238281 67.613281 919.269531 65.429688 C 920.644531 63.945312 921.886719 62.335938 923.171875 60.769531 C 924.671875 58.9375 925.015625 56.707031 924.953125 54.484375 C 924.878906 51.984375 924.574219 49.476562 924.160156 47.003906 C 923.117188 40.835938 921.964844 34.683594 922.019531 28.410156 C 922.109375 18.859375 924.179688 9.679688 927.542969 0.777344 C 930.015625 -5.785156 933.105469 -12.042969 937.054688 -17.851562 C 938.207031 -19.542969 939.339844 -21.234375 940.625 -23.121094 C 941.082031 -22.503906 941.40625 -22.050781 941.839844 -21.460938 C 941.207031 -20.597656 940.425781 -19.535156 939.671875 -18.457031 C 936.605469 -14.058594 934.070312 -9.375 931.882812 -4.484375 C 928.890625 2.234375 926.695312 9.203125 925.679688 16.496094 C 924.511719 24.910156 924.863281 33.253906 927.273438 41.464844 C 928.359375 45.1875 929.464844 48.910156 930.335938 52.675781 C 931.480469 57.605469 930.222656 61.9375 926.777344 65.699219 C 925.402344 67.207031 923.945312 68.800781 923.136719 70.632812 C 922.226562 72.683594 921.003906 74.859375 921.757812 77.316406 C 922.011719 78.125 922.324219 78.953125 922.777344 79.660156 C 924.257812 81.972656 926.363281 83.652344 928.726562 84.976562 C 934.214844 88.050781 940.183594 89.632812 946.371094 90.226562 C 953.878906 90.9375 961.414062 91.253906 968.9375 91.792969 C 974.910156 92.222656 980.808594 93.050781 986.300781 95.632812 C 989.628906 97.195312 992.675781 99.175781 995.5 101.53125 C 997.578125 103.265625 999.609375 105.074219 1001.796875 106.65625 C 1003.429688 107.832031 1005.195312 108.976562 1007.0625 109.667969 C 1010.589844 110.972656 1014.230469 111.429688 1018.0625 110.765625 C 1025.488281 109.460938 1031.511719 105.59375 1037.140625 100.890625 C 1044.847656 94.445312 1050.90625 86.683594 1055.683594 77.871094 C 1055.851562 77.550781 1056.042969 77.242188 1056.3125 76.765625 Z M 1056.3125 76.765625 " fill-opacity="1" fill-rule="nonzero"/></g><g clip-path="url(#8bd727a94c)"><path fill="#bc4749" d="M 943.996094 -20.066406 C 944.402344 -19.714844 944.722656 -19.4375 945.039062 -19.167969 C 944.023438 -17.636719 943.023438 -16.164062 942.054688 -14.679688 C 936.199219 -5.707031 932.289062 4.015625 930.894531 14.667969 C 930.183594 20.128906 930.554688 25.550781 931.765625 30.945312 C 932.898438 35.960938 935.085938 40.492188 937.59375 44.910156 C 939.328125 47.964844 941.117188 51.023438 942.0625 54.441406 C 942.691406 56.742188 942.65625 59.105469 942.054688 61.453125 C 941.414062 63.910156 939.957031 65.996094 939.023438 68.289062 C 937.960938 70.878906 936.433594 73.554688 937.730469 76.605469 C 938.726562 78.953125 940.523438 80.398438 942.726562 81.503906 C 947.78125 84.050781 953.265625 84.734375 958.789062 85.273438 C 965.578125 85.9375 972.390625 86.414062 979.164062 87.234375 C 984.035156 87.828125 988.710938 89.335938 993.074219 91.621094 C 996.5 93.410156 999.851562 95.351562 1003.234375 97.230469 C 1004.976562 98.203125 1006.652344 99.316406 1008.464844 100.117188 C 1013.027344 102.125 1017.726562 102.277344 1022.503906 100.847656 C 1028.015625 99.199219 1032.519531 95.929688 1036.648438 92.070312 C 1042.3125 86.773438 1046.914062 80.660156 1050.59375 73.835938 C 1050.746094 73.546875 1050.917969 73.277344 1051.085938 73 C 1051.160156 72.882812 1051.265625 72.792969 1051.472656 72.566406 C 1052.039062 73.089844 1052.652344 73.53125 1053.082031 74.113281 C 1053.253906 74.347656 1053.09375 74.941406 1052.914062 75.273438 C 1050.546875 79.726562 1047.851562 83.96875 1044.621094 87.851562 C 1041.359375 91.792969 1037.78125 95.425781 1033.679688 98.507812 C 1029.652344 101.53125 1025.300781 104.011719 1020.328125 105.027344 C 1016.875 105.730469 1013.414062 105.675781 1009.941406 104.507812 C 1005.824219 103.121094 1002.433594 100.59375 998.910156 98.238281 C 994.511719 95.296875 989.933594 92.65625 984.835938 91.089844 C 980.664062 89.8125 976.367188 89.121094 972.015625 88.84375 C 966.207031 88.457031 960.386719 88.214844 954.589844 87.738281 C 949.285156 87.296875 944.023438 86.503906 939.078125 84.363281 C 937.019531 83.472656 935.066406 82.40625 933.441406 80.847656 C 931.238281 78.746094 930.222656 75.652344 931.558594 72.332031 C 932.550781 69.886719 933.898438 67.695312 935.230469 65.445312 C 937.226562 62.082031 938.332031 58.433594 937.109375 54.539062 C 936.144531 51.507812 935.078125 48.46875 933.699219 45.609375 C 928.125 34.019531 926.714844 22.042969 929.808594 9.515625 C 931.652344 2.070312 934.347656 -5.003906 938.296875 -11.585938 C 939.878906 -14.230469 941.648438 -16.765625 943.347656 -19.347656 C 943.5 -19.5625 943.71875 -19.75 943.996094 -20.066406 Z M 943.996094 -20.066406 " fill-opacity="1" fill-rule="nonzero"/></g><g clip-path="url(#c56d13132c)"><path fill="#bc4749" d="M 1047.390625 69.214844 C 1047.984375 69.664062 1048.597656 70.050781 1049.074219 70.554688 C 1049.246094 70.742188 1049.21875 71.300781 1049.074219 71.578125 C 1047.03125 75.5 1044.667969 79.230469 1041.878906 82.664062 C 1038.382812 86.972656 1034.515625 90.890625 1029.769531 93.859375 C 1025.289062 96.65625 1020.480469 98.363281 1015.148438 97.699219 C 1012.945312 97.429688 1010.777344 96.835938 1008.683594 95.773438 C 1003.144531 92.960938 997.53125 90.273438 991.8125 87.851562 C 986.167969 85.460938 980.125 84.515625 974.046875 83.824219 C 967.5 83.078125 960.863281 82.898438 954.460938 81.117188 C 951.71875 80.355469 949.140625 79.285156 947.027344 77.226562 C 945.238281 75.480469 944.832031 73.351562 945.15625 71.09375 C 945.398438 69.394531 946.074219 67.746094 946.628906 66.101562 C 947.132812 64.644531 947.871094 63.261719 948.277344 61.777344 C 949.445312 57.507812 948.492188 53.523438 946.199219 49.855469 C 944.105469 46.507812 941.839844 43.28125 939.679688 39.972656 C 934.914062 32.652344 932.875 24.597656 933.464844 15.910156 C 933.898438 9.589844 935.542969 3.546875 937.988281 -2.296875 C 940.113281 -7.378906 942.828125 -12.109375 946.011719 -16.578125 C 946.253906 -16.917969 946.515625 -17.25 946.820312 -17.65625 C 947.234375 -17.285156 947.582031 -16.988281 947.96875 -16.648438 C 947.738281 -16.296875 947.519531 -15.972656 947.3125 -15.652344 C 945.730469 -13.140625 943.996094 -10.722656 942.59375 -8.117188 C 939.328125 -2.035156 936.972656 4.375 936.046875 11.269531 C 935.050781 18.6875 936.019531 25.785156 939.121094 32.570312 C 941.066406 36.816406 944.066406 40.367188 946.882812 44.046875 C 948.707031 46.417969 950.390625 48.929688 951.925781 51.5 C 953.609375 54.324219 953.949219 57.488281 953.320312 60.671875 C 952.871094 62.957031 952.152344 65.183594 951.414062 67.398438 C 950.316406 70.679688 951.585938 74.367188 954.578125 76.273438 C 957.421875 78.078125 960.621094 78.914062 963.875 79.464844 C 970.242188 80.535156 976.644531 81.378906 982.992188 82.53125 C 988.730469 83.574219 994.167969 85.640625 999.484375 88.015625 C 1002.59375 89.398438 1005.75 90.6875 1008.890625 92.015625 C 1009.734375 92.375 1010.570312 92.789062 1011.441406 93.058594 C 1016.8125 94.695312 1021.992188 94.210938 1027 91.65625 C 1032.023438 89.09375 1035.953125 85.265625 1039.496094 80.976562 C 1042.265625 77.621094 1044.730469 74.050781 1046.734375 70.183594 C 1046.925781 69.859375 1047.148438 69.574219 1047.390625 69.214844 Z M 1047.390625 69.214844 " fill-opacity="1" fill-rule="nonzero"/></g><g clip-path="url(#6f9ae60ede)"><path fill="#bc4749" d="M 949.597656 -15.273438 C 949.976562 -14.949219 950.261719 -14.699219 950.597656 -14.410156 C 950.34375 -14.015625 950.136719 -13.679688 949.914062 -13.367188 C 947.070312 -9.363281 944.699219 -5.101562 943.007812 -0.507812 C 940.417969 6.515625 939.292969 13.726562 940.964844 21.152344 C 942.082031 26.105469 944.175781 30.621094 947.519531 34.453125 C 950.234375 37.554688 953.113281 40.519531 955.972656 43.496094 C 958.617188 46.25 960.800781 49.304688 962.140625 52.875 C 962.652344 54.242188 962.824219 55.796875 962.871094 57.273438 C 962.933594 59.152344 962.679688 61.039062 962.617188 62.929688 C 962.554688 64.933594 962.472656 66.992188 963.5625 68.753906 C 964.597656 70.425781 966.097656 71.757812 967.960938 72.40625 C 971.070312 73.492188 974.226562 74.484375 977.410156 75.328125 C 982.128906 76.585938 986.941406 77.503906 991.617188 78.886719 C 997.351562 80.578125 1003 82.59375 1008.683594 84.480469 C 1013.644531 86.128906 1018.671875 86.621094 1023.734375 85.074219 C 1028.015625 83.769531 1031.40625 81.074219 1034.453125 77.910156 C 1037.761719 74.472656 1040.441406 70.570312 1042.753906 66.40625 C 1042.886719 66.164062 1043.066406 65.941406 1043.21875 65.714844 C 1043.335938 65.742188 1043.417969 65.742188 1043.472656 65.777344 C 1045.125 66.957031 1045.152344 66.964844 1044.136719 68.78125 C 1041 74.410156 1037.214844 79.527344 1032.203125 83.644531 C 1029.488281 85.875 1026.53125 87.746094 1023.097656 88.601562 C 1020.425781 89.265625 1017.703125 89.398438 1014.914062 88.976562 C 1009.320312 88.140625 1004.242188 85.792969 999.015625 83.898438 C 991.5625 81.179688 983.902344 79.339844 976.085938 78.042969 C 971.773438 77.332031 967.464844 76.550781 963.355469 74.894531 C 959.570312 73.375 957.382812 69.78125 957.976562 65.804688 C 958.355469 63.269531 958.742188 60.734375 958.914062 58.179688 C 959.191406 53.964844 957.367188 50.402344 954.832031 47.253906 C 951.835938 43.542969 948.546875 40.070312 945.515625 36.375 C 940.390625 30.117188 938.027344 22.851562 938.207031 14.796875 C 938.324219 9.699219 939.429688 4.769531 941.191406 -0.015625 C 943.097656 -5.175781 945.820312 -9.878906 948.914062 -14.402344 C 949.101562 -14.652344 949.308594 -14.894531 949.597656 -15.273438 Z M 949.597656 -15.273438 " fill-opacity="1" fill-rule="nonzero"/></g><g clip-path="url(#373e4227e2)"><path fill="#bc4749" d="M 1038.851562 61.707031 C 1039.453125 62.246094 1039.945312 62.695312 1040.601562 63.289062 C 1039.15625 65.464844 1037.796875 67.65625 1036.277344 69.726562 C 1033.589844 73.394531 1030.335938 76.46875 1026.234375 78.511719 C 1023.421875 79.921875 1020.398438 80.703125 1017.214844 80.480469 C 1014.660156 80.300781 1012.0625 80.203125 1009.5625 79.679688 C 1006.445312 79.03125 1003.414062 78.007812 1000.347656 77.125 C 993.898438 75.273438 987.445312 73.441406 981.007812 71.523438 C 978.28125 70.714844 975.628906 69.664062 973.382812 67.863281 C 970.351562 65.429688 969.992188 61.984375 969.800781 58.40625 C 969.703125 56.445312 969.296875 54.441406 968.679688 52.570312 C 966.691406 46.617188 962.222656 42.535156 957.726562 38.480469 C 953.769531 34.917969 949.921875 31.277344 947.171875 26.621094 C 944.886719 22.746094 943.753906 18.570312 943.554688 14.140625 C 943.292969 8.160156 944.390625 2.40625 947.054688 -2.953125 C 948.589844 -6.066406 950.441406 -9.023438 952.160156 -12.042969 C 952.277344 -12.25 952.476562 -12.414062 952.691406 -12.65625 C 952.988281 -12.386719 953.25 -12.152344 953.546875 -11.875 C 953.320312 -11.515625 953.132812 -11.179688 952.914062 -10.859375 C 950.855469 -7.863281 949.066406 -4.726562 947.800781 -1.316406 C 945.066406 6.011719 944.238281 13.4375 947.035156 20.972656 C 948.679688 25.414062 951.378906 29.136719 954.8125 32.339844 C 958.066406 35.378906 961.421875 38.308594 964.675781 41.347656 C 967.492188 43.972656 969.964844 46.949219 971.457031 50.5 C 972.453125 52.875 973.09375 55.445312 973.515625 57.992188 C 974.152344 61.847656 975.675781 65.03125 979.164062 67.011719 C 980.628906 67.835938 982.148438 68.636719 983.738281 69.160156 C 990.140625 71.28125 996.550781 73.375 1003.007812 75.328125 C 1007.152344 76.578125 1011.378906 77.628906 1015.742188 77.765625 C 1020.839844 77.917969 1025.453125 76.425781 1029.5 73.25 C 1033.058594 70.453125 1035.695312 66.902344 1038.023438 63.082031 C 1038.246094 62.675781 1038.5 62.28125 1038.851562 61.707031 Z M 1038.851562 61.707031 " fill-opacity="1" fill-rule="nonzero"/></g><g clip-path="url(#c06daba514)"><path fill="#bc4749" d="M 1035.21875 58.78125 C 1035.378906 58.847656 1035.449219 58.855469 1035.503906 58.890625 C 1036.808594 59.933594 1036.800781 59.933594 1035.902344 61.371094 C 1033.15625 65.734375 1029.769531 69.492188 1025.121094 71.804688 C 1023.167969 72.765625 1020.921875 73.242188 1018.753906 73.601562 C 1012.863281 74.574219 1007.199219 73.125 1001.613281 71.523438 C 996.824219 70.148438 992.082031 68.566406 987.40625 66.839844 C 983.910156 65.542969 980.835938 63.484375 979.226562 59.925781 C 978.417969 58.144531 977.941406 56.210938 977.382812 54.324219 C 975.835938 49.144531 973.003906 44.746094 969.039062 41.132812 C 965.226562 37.644531 961.207031 34.378906 957.386719 30.898438 C 952.753906 26.683594 949.167969 21.78125 948.042969 15.40625 C 947.152344 10.335938 947.71875 5.390625 949.257812 0.527344 C 950.453125 -3.242188 952.386719 -6.640625 954.527344 -9.933594 C 954.660156 -10.136719 954.8125 -10.328125 954.957031 -10.535156 C 955.828125 -10.203125 955.847656 -9.75 955.378906 -9.050781 C 953.113281 -5.695312 951.324219 -2.109375 950.289062 1.8125 C 948.097656 10.121094 949.210938 17.84375 954.480469 24.777344 C 957.0625 28.175781 960.425781 30.792969 963.644531 33.5625 C 967.015625 36.457031 970.457031 39.308594 973.5625 42.488281 C 976.285156 45.285156 978.34375 48.648438 979.730469 52.371094 C 980.441406 54.277344 981.167969 56.183594 982.085938 57.992188 C 983.550781 60.878906 985.976562 62.839844 988.820312 64.285156 C 994.683594 67.289062 1000.914062 69.257812 1007.332031 70.542969 C 1010.230469 71.128906 1013.230469 71.496094 1016.183594 71.460938 C 1021.738281 71.390625 1026.484375 69.113281 1030.28125 65.058594 C 1031.863281 63.367188 1033.175781 61.410156 1034.613281 59.574219 C 1034.804688 59.3125 1035.019531 59.035156 1035.21875 58.78125 Z M 1035.21875 58.78125 " fill-opacity="1" fill-rule="nonzero"/></g></svg>