<svg xmlns="http://www.w3.org/2000/svg" xmlns:xlink="http://www.w3.org/1999/xlink" width="1366" zoomAndPan="magnify" viewBox="0 0 1024.5 576" height="768" preserveAspectRatio="xMidYMid meet" version="1.0"><defs><clipPath id="65033c516c"><path d="M 588 342.378906 L 1023 342.378906 L 1023 575.515625 L 588 575.515625 Z M 588 342.378906 " clip-rule="nonzero"/></clipPath><clipPath id="873b6b5f9b"><path d="M 606 354 L 1011 354 L 1011 575.515625 L 606 575.515625 Z M 606 354 " clip-rule="nonzero"/></clipPath><clipPath id="38900c96f5"><path d="M 627 365 L 1001 365 L 1001 575.515625 L 627 575.515625 Z M 627 365 " clip-rule="nonzero"/></clipPath><clipPath id="88c079e087"><path d="M 651 374 L 991 374 L 991 575.515625 L 651 575.515625 Z M 651 374 " clip-rule="nonzero"/></clipPath><clipPath id="be193d91bb"><path d="M 679 381 L 982 381 L 982 575.515625 L 679 575.515625 Z M 679 381 " clip-rule="nonzero"/></clipPath><clipPath id="d0cfe4f62b"><path d="M 705 388 L 972 388 L 972 575.515625 L 705 575.515625 Z M 705 388 " clip-rule="nonzero"/></clipPath><clipPath id="18ca331a78"><path d="M 719 394 L 965 394 L 965 575.515625 L 719 575.515625 Z M 719 394 " clip-rule="nonzero"/></clipPath><clipPath id="8a5af48bf4"><path d="M 729 400 L 955 400 L 955 575.515625 L 729 575.515625 Z M 729 400 " clip-rule="nonzero"/></clipPath><clipPath id="6bddb53ad1"><path d="M 739 406 L 947 406 L 947 575.515625 L 739 575.515625 Z M 739 406 " clip-rule="nonzero"/></clipPath><clipPath id="779769d577"><path d="M 748 413 L 938 413 L 938 575.515625 L 748 575.515625 Z M 748 413 " clip-rule="nonzero"/></clipPath><clipPath id="95547b24e1"><path d="M 758 420 L 929 420 L 929 575.515625 L 758 575.515625 Z M 758 420 " clip-rule="nonzero"/></clipPath><clipPath id="0eeaf999e7"><path d="M 766 427 L 920 427 L 920 575.515625 L 766 575.515625 Z M 766 427 " clip-rule="nonzero"/></clipPath><clipPath id="8ca8803937"><path d="M 57.875 57.710938 L 314.695312 57.710938 L 314.695312 287.851562 L 57.875 287.851562 Z M 57.875 57.710938 " clip-rule="nonzero"/></clipPath></defs><g clip-path="url(#65033c516c)"><path fill="#bc4749" d="M 1015.914062 574.980469 C 1016.234375 572.457031 1016.566406 570.171875 1016.800781 567.882812 C 1017.121094 564.75 1017.496094 561.617188 1017.632812 558.46875 C 1017.773438 555.320312 1017.773438 552.160156 1017.621094 549.011719 C 1017.398438 544.660156 1017.191406 540.277344 1016.609375 535.96875 C 1015.042969 524.347656 1011.3125 513.382812 1005.074219 503.46875 C 1002.0625 498.6875 998.222656 494.402344 994.550781 490.074219 C 992.566406 487.734375 990.15625 485.738281 987.882812 483.644531 C 984.082031 480.148438 979.867188 477.238281 975.25 474.910156 C 972.394531 473.464844 969.582031 471.898438 966.628906 470.695312 C 963.519531 469.433594 960.304688 468.28125 957.046875 467.546875 C 951.765625 466.367188 946.441406 465.160156 941.074219 464.703125 C 929.984375 463.746094 918.976562 464.789062 908.007812 466.742188 C 900.992188 467.988281 893.867188 468.753906 886.769531 469.402344 C 882.304688 469.804688 877.757812 469.460938 873.542969 467.710938 C 866.707031 464.882812 862.992188 459.558594 861.980469 452.296875 C 860.632812 442.671875 861.328125 433.050781 861.796875 423.417969 C 862.296875 413.351562 863.324219 403.285156 861.980469 393.191406 C 860.414062 381.449219 855.253906 372.007812 844.910156 365.699219 C 838.480469 361.773438 831.476562 359.210938 824.378906 356.839844 C 820.234375 355.453125 816.074219 354.09375 811.859375 352.957031 C 807.851562 351.875 803.804688 350.945312 799.714844 350.253906 C 794.707031 349.394531 789.664062 348.605469 784.601562 348.214844 C 779.582031 347.828125 774.535156 348.078125 769.503906 347.867188 C 762.417969 347.578125 755.527344 349.046875 748.554688 349.894531 C 739.542969 350.988281 731.113281 354.039062 722.808594 357.324219 C 717.402344 359.472656 712.242188 362.453125 707.320312 365.601562 C 700.320312 370.050781 693.902344 375.308594 688.1875 381.40625 C 681.757812 388.269531 676.140625 395.742188 671.691406 403.992188 C 664.910156 416.496094 660.777344 429.917969 659.296875 444.085938 C 658.351562 453.15625 658.269531 462.25 659.296875 471.316406 C 660.101562 478.304688 661.027344 485.277344 661.875 492.253906 C 662.46875 497.132812 663.261719 502.011719 662.625 506.976562 C 661.984375 511.914062 659.378906 515.433594 654.652344 516.738281 C 650.046875 518.011719 645.25 518.664062 640.523438 519.511719 C 634.8125 520.523438 629.015625 521.1875 623.375 522.476562 C 618.0625 523.695312 613.375 526.34375 609.121094 529.894531 C 605.738281 532.707031 603.171875 536.105469 601.273438 539.890625 C 599.734375 542.96875 598.945312 546.449219 597.917969 549.777344 C 595.464844 557.691406 596.269531 565.746094 595.867188 573.761719 C 595.8125 574.980469 595.449219 575.4375 594.203125 575.371094 C 592.707031 575.273438 591.207031 575.300781 589.710938 575.371094 C 588.644531 575.410156 588.199219 575.050781 588.214844 573.957031 C 588.269531 567.023438 588.074219 560.078125 588.394531 553.160156 C 588.558594 549.691406 589.640625 546.269531 590.320312 542.828125 C 590.707031 540.902344 591.015625 538.949219 591.554688 537.0625 C 591.96875 535.605469 592.609375 534.21875 593.246094 532.847656 C 594.132812 530.976562 595.007812 529.078125 596.089844 527.316406 C 599.136719 522.367188 603.160156 518.429688 608.179688 515.378906 C 613.929688 511.871094 620.335938 510.527344 626.714844 509 C 631.011719 507.976562 635.421875 507.421875 639.734375 506.421875 C 646.597656 504.855469 650.382812 500.253906 651.046875 493.417969 C 651.585938 487.816406 651.574219 482.144531 651.644531 476.488281 C 651.738281 467.476562 651.15625 458.464844 652.128906 449.441406 C 653.597656 435.8125 656.925781 422.710938 662.441406 410.191406 C 665.367188 403.546875 668.875 397.171875 673.328125 391.402344 C 677.207031 386.371094 681.089844 381.296875 685.472656 376.722656 C 689.230469 372.785156 693.554688 369.332031 697.878906 366.019531 C 701.734375 363.066406 705.796875 360.332031 710.027344 357.960938 C 714.253906 355.589844 718.761719 353.707031 723.222656 351.75 C 737.101562 345.691406 751.882812 343.777344 766.785156 342.738281 C 772.164062 342.363281 777.613281 342.878906 783.019531 343.15625 C 786.945312 343.347656 790.867188 343.65625 794.75 344.222656 C 799.171875 344.859375 803.582031 345.691406 807.9375 346.71875 C 812.996094 347.910156 818.027344 349.242188 822.976562 350.808594 C 832.433594 353.789062 841.777344 357.160156 850.386719 362.136719 C 859.636719 367.488281 865.292969 375.625 867.800781 385.996094 C 869.8125 394.285156 869.5625 402.703125 869.394531 411.132812 C 869.214844 419.601562 869.242188 428.0625 869.1875 436.53125 C 869.160156 440.539062 869.589844 444.476562 870.921875 448.300781 C 872.15625 451.867188 874.609375 454.332031 877.730469 456.136719 C 883.484375 459.464844 889.875 459.628906 896.238281 459.285156 C 904.585938 458.839844 912.917969 457.910156 921.261719 457.5625 C 930.941406 457.160156 940.589844 457.523438 950.171875 459.449219 C 956.449219 460.710938 962.566406 462.390625 968.402344 464.914062 C 972.839844 466.839844 977.121094 469.210938 981.238281 471.761719 C 985.023438 474.105469 988.726562 476.695312 992.082031 479.609375 C 995.242188 482.339844 997.863281 485.695312 1000.804688 488.703125 C 1004.753906 492.75 1007.304688 497.769531 1010.398438 502.414062 C 1014.554688 508.667969 1017.121094 515.542969 1019.0625 522.644531 C 1020.558594 528.121094 1021.628906 533.789062 1022.222656 539.445312 C 1023.054688 547.265625 1023.195312 555.140625 1022.488281 563.003906 C 1022.152344 566.691406 1021.585938 570.363281 1021.058594 574.023438 C 1021.003906 574.386719 1020.503906 574.925781 1020.183594 574.941406 C 1018.8125 575.035156 1017.441406 574.980469 1015.914062 574.980469 Z M 1015.914062 574.980469 " fill-opacity="1" fill-rule="nonzero"/></g><g clip-path="url(#873b6b5f9b)"><path fill="#bc4749" d="M 1004.726562 574.980469 C 1005.074219 572.554688 1005.378906 570.363281 1005.683594 568.1875 C 1006.890625 559.523438 1006.972656 550.828125 1005.878906 542.164062 C 1005.378906 538.226562 1004.449219 534.316406 1003.480469 530.460938 C 1001.523438 522.710938 998.308594 515.476562 993.800781 508.875 C 989.019531 501.875 983.222656 495.914062 976.179688 491.074219 C 968.625 485.875 960.386719 482.339844 951.472656 480.566406 C 943.417969 478.957031 935.210938 478.25 927.03125 479.707031 C 919.835938 480.980469 912.679688 482.4375 905.527344 483.90625 C 897.941406 485.472656 890.441406 487.511719 882.789062 488.660156 C 875.386719 489.785156 868.132812 488.730469 861.964844 483.933594 C 857.320312 480.328125 854.339844 475.546875 852.566406 469.929688 C 850.886719 464.621094 850.386719 459.144531 850.386719 453.667969 C 850.402344 443.535156 850.691406 433.382812 850.957031 423.25 C 851.164062 415.542969 851.648438 407.847656 850.625 400.164062 C 849.183594 389.449219 845.105469 380.105469 835.816406 373.949219 C 831.976562 371.410156 827.652344 369.484375 823.324219 367.832031 C 815.296875 364.785156 807.074219 362.191406 798.5625 360.902344 C 792.171875 359.929688 785.710938 359.097656 779.265625 358.808594 C 772.984375 358.515625 766.660156 358.835938 760.367188 359.128906 C 752.007812 359.527344 743.894531 361.621094 736.007812 364.117188 C 728.214844 366.570312 720.644531 369.871094 713.839844 374.570312 C 710.648438 376.761719 707.335938 378.84375 704.453125 381.394531 C 700.445312 384.929688 696.632812 388.726562 692.984375 392.664062 C 688.214844 397.808594 684.347656 403.632812 681.214844 409.898438 C 676.292969 419.726562 672.882812 430.015625 671.664062 441.023438 C 670.011719 455.898438 671.871094 470.359375 676.613281 484.445312 C 679.414062 492.792969 682.699219 500.960938 685.625 509.265625 C 687.289062 513.964844 688.8125 518.71875 688.589844 523.835938 C 688.410156 528.175781 684.792969 532.902344 680.785156 534.523438 C 675.460938 536.675781 669.832031 537.214844 664.273438 538.15625 C 657.894531 539.238281 651.433594 539.933594 645.085938 541.136719 C 638.109375 542.46875 631.277344 544.425781 625.742188 549.222656 C 623 551.59375 620.585938 554.210938 618.714844 557.484375 C 615.898438 562.40625 615.316406 567.828125 614.140625 573.136719 C 613.765625 574.800781 613.238281 575.550781 611.464844 575.339844 C 610.203125 575.1875 608.914062 575.257812 607.636719 575.328125 C 606.554688 575.382812 606.054688 574.953125 606.210938 573.886719 C 606.984375 568.339844 607.195312 562.640625 608.691406 557.304688 C 611.0625 548.859375 616.246094 542.039062 624.109375 537.992188 C 628.308594 535.828125 633.148438 534.746094 637.804688 533.625 C 642.199219 532.570312 646.734375 532.058594 651.210938 531.390625 C 654.386719 530.921875 657.578125 530.644531 660.75 530.171875 C 665.589844 529.464844 670.402344 528.578125 674.242188 525.207031 C 676.042969 523.628906 676.917969 521.519531 677.304688 519.148438 C 678.027344 514.921875 677.179688 510.898438 676.070312 506.867188 C 673.535156 497.6875 670.886719 488.535156 668.597656 479.289062 C 665.546875 466.949219 665.007812 454.417969 666.503906 441.800781 C 668.113281 428.171875 672.410156 415.386719 679.46875 403.660156 C 682.503906 398.613281 686.125 393.828125 690.019531 389.40625 C 694.066406 384.816406 698.53125 380.535156 703.230469 376.609375 C 706.863281 373.585938 711.066406 371.214844 715.140625 368.761719 C 727.648438 361.207031 741.511719 357.476562 755.777344 355.398438 C 765.191406 354.023438 774.714844 353.871094 784.269531 354.730469 C 793.847656 355.589844 803.320312 357.089844 812.496094 359.820312 C 820.121094 362.09375 827.761719 364.632812 834.957031 368 C 847.394531 373.808594 853.578125 384.289062 855.226562 397.765625 C 856.15625 405.421875 855.671875 413.046875 855.335938 420.683594 C 854.785156 433.523438 853.589844 446.390625 855.226562 459.214844 C 856.101562 466.007812 858.625 472.246094 864.53125 476.417969 C 868.46875 479.207031 872.917969 480.539062 877.757812 480.691406 C 885.355469 480.925781 892.742188 479.609375 900.121094 477.972656 C 910.726562 475.617188 921.359375 473.535156 932.285156 473.21875 C 940.382812 472.980469 948.339844 473.660156 956.117188 475.835938 C 963.0625 477.777344 969.636719 480.621094 975.792969 484.488281 C 983.445312 489.3125 989.65625 495.484375 995.117188 502.664062 C 999.234375 508.070312 1002.660156 513.8125 1004.878906 520.148438 C 1007.015625 526.234375 1008.953125 532.417969 1009.898438 538.90625 C 1011.117188 547.308594 1011.078125 555.683594 1010.371094 564.097656 C 1010.121094 567.023438 1009.605469 569.921875 1009.34375 572.847656 C 1009.175781 574.59375 1008.402344 575.285156 1006.679688 575.007812 C 1006.15625 574.910156 1005.601562 574.980469 1004.726562 574.980469 Z M 1004.726562 574.980469 " fill-opacity="1" fill-rule="nonzero"/></g><g clip-path="url(#38900c96f5)"><path fill="#bc4749" d="M 994.507812 574.816406 C 994.910156 571.695312 995.410156 568.699219 995.660156 565.679688 C 996.1875 559.4375 996.253906 553.214844 995.285156 546.960938 C 994.398438 541.304688 992.871094 535.882812 991.015625 530.460938 C 988.824219 524.015625 985.414062 518.359375 981.101562 513.328125 C 977.898438 509.582031 974.085938 506.214844 970.050781 503.386719 C 963.398438 498.742188 955.894531 496.050781 947.757812 494.75 C 937.832031 493.167969 928.207031 494.25 918.640625 496.566406 C 911.320312 498.339844 904.125 500.585938 896.832031 502.441406 C 890.375 504.09375 883.84375 505.242188 877.117188 504.648438 C 862.769531 503.371094 852.980469 495.855469 847.226562 482.839844 C 844.261719 476.140625 843 469.015625 842.75 461.804688 C 842.277344 447.957031 842.234375 434.089844 841.972656 420.242188 C 841.832031 413.128906 841.25 406.070312 839.144531 399.222656 C 836.082031 389.226562 829.730469 382.183594 820.21875 377.953125 C 812.941406 374.710938 805.289062 372.671875 797.441406 371.4375 C 791.214844 370.453125 784.960938 369.59375 778.683594 369.191406 C 772 368.761719 765.300781 369.191406 758.648438 370.148438 C 749.496094 371.453125 740.722656 373.90625 732.167969 377.441406 C 724.957031 380.410156 718.511719 384.554688 712.4375 389.242188 C 707.058594 393.386719 702.289062 398.347656 698.324219 403.910156 C 694.164062 409.730469 690.738281 415.929688 688.3125 422.738281 C 685.5 430.640625 683.820312 438.707031 683.726562 447.082031 C 683.628906 456.300781 685.082031 465.285156 688.160156 474.007812 C 691.542969 483.613281 696.132812 492.613281 701.359375 501.347656 C 704.644531 506.851562 707.75 512.496094 710.539062 518.277344 C 713.046875 523.476562 713.949219 529.0625 712.160156 534.761719 C 710.941406 538.644531 708.402344 541.609375 705.214844 544.0625 C 700.804688 547.460938 695.59375 549.054688 690.339844 550.414062 C 680.8125 552.894531 671.191406 555.042969 661.679688 557.59375 C 657.5625 558.703125 653.5 560.230469 649.644531 562.046875 C 647.234375 563.183594 645.390625 565.441406 643.0625 566.816406 C 640.011719 568.617188 638.984375 571.777344 637.167969 574.425781 C 636.890625 574.828125 636.351562 575.273438 635.90625 575.285156 C 633.035156 575.355469 630.167969 575.328125 627.035156 575.328125 C 627.214844 574.648438 627.28125 574.121094 627.476562 573.648438 C 628.515625 571.140625 629.445312 568.5625 630.722656 566.175781 C 631.527344 564.667969 632.746094 563.308594 634.007812 562.128906 C 635.738281 560.492188 637.597656 558.941406 639.582031 557.609375 C 643.324219 555.113281 647.496094 553.464844 651.851562 552.480469 C 661.667969 550.273438 671.566406 548.363281 681.394531 546.183594 C 686.191406 545.132812 691.046875 544.078125 695.355469 541.511719 C 700.183594 538.65625 703.289062 534.550781 703.675781 528.882812 C 703.9375 525.042969 703.289062 521.203125 701.679688 517.679688 C 698.933594 511.691406 696.078125 505.757812 693.097656 499.878906 C 688.273438 490.382812 683.613281 480.84375 681.1875 470.359375 C 678.429688 458.492188 677.832031 446.554688 680.1875 434.5625 C 681.839844 426.148438 684.625 418.121094 688.894531 410.648438 C 693.097656 403.296875 698.183594 396.726562 704.3125 390.835938 C 714.851562 380.726562 727.371094 374.265625 741.082031 369.871094 C 749.511719 367.167969 758.203125 365.976562 767.023438 365.394531 C 775.964844 364.796875 784.851562 365.253906 793.667969 366.65625 C 804.136719 368.320312 814.4375 370.828125 824.144531 375.152344 C 835.566406 380.257812 841.917969 389.40625 844.164062 401.566406 C 845.828125 410.578125 845.578125 419.671875 845.382812 428.753906 C 845.105469 442.4375 844.425781 456.164062 846.894531 469.738281 C 848.667969 479.511719 852.925781 487.953125 861.464844 493.609375 C 866.929688 497.230469 873.054688 498.699219 879.601562 498.601562 C 885.699219 498.519531 891.578125 497.214844 897.417969 495.675781 C 902.988281 494.207031 908.523438 492.585938 914.109375 491.183594 C 923.828125 488.746094 933.671875 487.304688 943.722656 488.21875 C 949.503906 488.746094 955.160156 489.964844 960.625 492.113281 C 966.433594 494.402344 971.839844 497.3125 976.402344 501.582031 C 979.175781 504.175781 981.640625 507.085938 984.414062 509.679688 C 987.910156 512.925781 990.363281 516.929688 992.191406 521.160156 C 994.523438 526.511719 996.3125 532.113281 997.972656 537.714844 C 998.988281 541.136719 999.582031 544.742188 999.875 548.304688 C 1000.21875 552.589844 1000.191406 556.929688 1000.054688 561.242188 C 999.957031 564.609375 999.527344 567.980469 999.097656 571.320312 C 998.542969 575.535156 998.777344 575.175781 994.507812 574.816406 Z M 994.507812 574.816406 " fill-opacity="1" fill-rule="nonzero"/></g><g clip-path="url(#88c079e087)"><path fill="#bc4749" d="M 651.585938 574.789062 C 652.722656 573.816406 653.820312 572.777344 655.011719 571.890625 C 656.371094 570.878906 657.757812 569.894531 659.253906 569.101562 C 662.070312 567.621094 664.871094 566.066406 667.835938 564.957031 C 672.078125 563.363281 676.460938 562.144531 680.785156 560.757812 C 688.0625 558.441406 695.371094 556.195312 702.636719 553.796875 C 709.375 551.566406 715.15625 547.875 719.328125 542.011719 C 723.042969 536.785156 723.945312 530.960938 722.585938 524.75 C 721.285156 518.746094 718.386719 513.480469 715.058594 508.40625 C 710.855469 502.011719 706.585938 495.675781 702.496094 489.214844 C 696.3125 479.441406 692.125 468.820312 690.558594 457.371094 C 688.730469 444.019531 690.367188 431.097656 696.203125 418.773438 C 699.417969 411.992188 703.441406 405.835938 708.542969 400.386719 C 717.484375 390.863281 728.394531 384.261719 740.539062 379.769531 C 748.445312 376.847656 756.679688 375.113281 765.148438 374.488281 C 773.816406 373.835938 782.4375 373.949219 791.007812 375.222656 C 800.117188 376.570312 809.15625 378.328125 817.558594 382.335938 C 825.847656 386.289062 831.378906 392.734375 834.5 401.289062 C 836.621094 407.125 837.605469 413.210938 837.800781 419.382812 C 838.144531 429.792969 838.257812 440.21875 838.617188 450.644531 C 838.921875 459.519531 839.53125 468.378906 841.570312 477.058594 C 844.09375 487.773438 849.015625 497.089844 858.167969 503.71875 C 864.292969 508.15625 871.199219 510.414062 878.742188 510.96875 C 888.128906 511.664062 897.109375 509.570312 906.136719 507.449219 C 914.054688 505.589844 922.011719 503.828125 930.039062 502.511719 C 937.46875 501.292969 944.929688 501.75 952.25 503.855469 C 957.171875 505.269531 961.816406 507.253906 966.101562 510.039062 C 967.722656 511.09375 969.332031 512.21875 970.703125 513.546875 C 975.320312 518.039062 979.839844 522.683594 982.652344 528.550781 C 985.648438 534.789062 988.1875 541.207031 989.183594 548.179688 C 990.363281 556.417969 990.320312 564.625 989.058594 572.832031 C 988.683594 575.273438 988.644531 575.257812 985.289062 574.789062 C 985.414062 573.359375 985.621094 571.902344 985.664062 570.449219 C 985.773438 564.859375 986.203125 559.257812 985.800781 553.699219 C 985.425781 548.542969 984.097656 543.480469 982.28125 538.546875 C 980.324219 533.277344 977.773438 528.382812 974.140625 524.167969 C 971.6875 521.3125 968.734375 518.84375 965.824219 516.417969 C 960.109375 511.636719 953.289062 509.195312 946.082031 508.042969 C 940.175781 507.101562 934.144531 506.960938 928.207031 508.101562 C 918.046875 510.054688 907.925781 512.316406 897.75 514.214844 C 888.292969 515.988281 878.796875 516.375 869.453125 513.453125 C 856.460938 509.390625 847.863281 500.585938 842.597656 488.261719 C 839.449219 480.882812 837.980469 473.066406 837.410156 465.148438 C 836.59375 453.542969 836.328125 441.898438 835.539062 430.277344 C 835.054688 423.222656 834.554688 416.082031 833.140625 409.164062 C 830.089844 394.34375 820.539062 385.429688 806.078125 381.613281 C 794.652344 378.605469 783.0625 376.886719 771.222656 377.414062 C 762.183594 377.832031 753.324219 379.203125 744.628906 381.960938 C 738.640625 383.859375 733.039062 386.523438 727.730469 389.644531 C 722.085938 392.96875 716.945312 397.117188 712.339844 401.941406 C 707.03125 407.515625 702.914062 413.808594 699.78125 420.753906 C 697.089844 426.730469 695.382812 432.996094 694.761719 439.609375 C 694.246094 445.128906 694.246094 450.535156 695.136719 455.996094 C 696.464844 464.121094 699.085938 471.789062 702.914062 479.054688 C 707.433594 487.609375 713.007812 495.441406 718.648438 503.273438 C 721.714844 507.53125 724.542969 512.039062 726.871094 516.722656 C 730.378906 523.808594 731.613281 531.335938 728.242188 538.890625 C 725.332031 545.421875 720.589844 550.496094 714.128906 553.574219 C 708.332031 556.332031 702.371094 558.746094 696.382812 561.046875 C 690.808594 563.195312 685.070312 564.914062 679.46875 566.996094 C 675.917969 568.3125 672.4375 569.878906 669 571.488281 C 666.867188 572.484375 664.882812 573.789062 662.832031 574.941406 C 662.59375 575.078125 662.332031 575.230469 662.070312 575.230469 C 658.65625 575.246094 655.246094 575.246094 651.835938 575.246094 C 651.765625 575.121094 651.683594 574.953125 651.585938 574.789062 Z M 651.585938 574.789062 " fill-opacity="1" fill-rule="nonzero"/></g><g clip-path="url(#be193d91bb)"><path fill="#bc4749" d="M 679.066406 574.773438 C 683.890625 572.695312 688.730469 570.613281 693.554688 568.519531 C 701.664062 564.984375 709.914062 561.726562 717.84375 557.816406 C 724.054688 554.765625 729.324219 550.332031 733.152344 544.367188 C 737.742188 537.242188 738.542969 529.644531 736.257812 521.589844 C 734.273438 514.589844 730.53125 508.542969 726.273438 502.761719 C 720.921875 495.496094 715.253906 488.425781 710.386719 480.84375 C 702.09375 467.921875 698.296875 453.683594 700.125 438.238281 C 700.792969 432.609375 702.371094 427.214844 704.703125 422.015625 C 707.40625 416 711.039062 410.6875 715.40625 405.765625 C 722.476562 397.808594 731.140625 392.082031 740.761719 387.949219 C 750.164062 383.902344 760.117188 381.824219 770.417969 381.394531 C 782.828125 380.867188 794.972656 382.183594 806.828125 385.84375 C 817.902344 389.269531 825.335938 396.589844 829.148438 407.570312 C 831.199219 413.488281 832.101562 419.632812 832.515625 425.828125 C 833.195312 435.949219 833.527344 446.085938 834.265625 456.191406 C 835.039062 466.910156 836.148438 477.613281 839.90625 487.800781 C 845.1875 502.152344 854.671875 512.398438 869.425781 517.207031 C 877.507812 519.84375 885.882812 520.273438 894.253906 519.09375 C 903.183594 517.832031 912.085938 516.25 920.984375 514.78125 C 928.777344 513.492188 936.609375 512.839844 944.457031 514.0625 C 949.921875 514.90625 955.132812 516.527344 959.875 519.636719 C 963.230469 521.839844 966.140625 524.402344 968.957031 527.246094 C 971.660156 529.976562 973.949219 532.957031 975.515625 536.355469 C 977.953125 541.664062 980.074219 547.085938 980.992188 552.980469 C 982.015625 559.550781 981.945312 566.050781 981.296875 572.609375 C 981.058594 575.035156 980.894531 575.160156 977.316406 574.882812 C 977.316406 574.328125 977.261719 573.734375 977.332031 573.164062 C 978.007812 567.425781 978.066406 561.714844 977.121094 555.972656 C 975.734375 547.585938 973.019531 539.738281 967.527344 533.167969 C 964.796875 529.894531 961.566406 527.050781 957.835938 524.792969 C 948.242188 518.984375 937.761719 518.054688 926.976562 519.066406 C 920.417969 519.691406 913.914062 520.785156 907.382812 521.671875 C 897.265625 523.058594 887.15625 524.28125 876.953125 522.519531 C 861.605469 519.882812 850.125 511.773438 842.359375 498.324219 C 838.0625 490.878906 835.898438 482.726562 834.445312 474.324219 C 832.390625 462.570312 831.808594 450.671875 831.046875 438.792969 C 830.464844 429.722656 829.882812 420.671875 827.222656 411.867188 C 823.492188 399.484375 815.464844 391.554688 803.097656 387.964844 C 796.316406 385.996094 789.355469 385.09375 782.328125 384.582031 C 774.714844 384.027344 767.148438 384.402344 759.6875 385.800781 C 755.417969 386.605469 751.246094 388.019531 747.058594 389.226562 C 740.914062 390.988281 735.398438 394.191406 730.226562 397.726562 C 725.527344 400.929688 721.007812 404.601562 717.609375 409.371094 C 716.265625 411.257812 714.710938 412.988281 713.410156 414.917969 C 709.027344 421.363281 706.394531 428.460938 705.089844 436.183594 C 703.453125 445.808594 704.660156 455.054688 707.917969 464.121094 C 710.179688 470.417969 713.351562 476.265625 717.277344 481.675781 C 721.65625 487.71875 726.300781 493.570312 730.765625 499.558594 C 736.296875 506.992188 741.027344 514.824219 742.773438 524.125 C 744.535156 533.511719 742.414062 541.816406 736.089844 549.011719 C 730.960938 554.851562 724.695312 559.175781 717.761719 562.558594 C 711.550781 565.582031 705.242188 568.394531 698.988281 571.335938 C 696.550781 572.484375 694.152344 573.746094 691.738281 574.941406 C 691.445312 575.078125 691.128906 575.273438 690.824219 575.273438 C 686.96875 575.300781 683.101562 575.285156 679.246094 575.285156 C 679.148438 575.121094 679.109375 574.953125 679.066406 574.773438 Z M 679.066406 574.773438 " fill-opacity="1" fill-rule="nonzero"/></g><g clip-path="url(#d0cfe4f62b)"><path fill="#bc4749" d="M 705.117188 575.3125 C 712.464844 571.210938 719.703125 567.371094 726.71875 563.167969 C 733.582031 559.050781 739.957031 554.253906 744.699219 547.613281 C 748.691406 542.054688 750.230469 535.773438 749.664062 529.0625 C 748.625 516.722656 743.148438 506.160156 735.855469 496.425781 C 730.40625 489.160156 724.445312 482.230469 719.535156 474.617188 C 710.886719 461.210938 707.585938 446.554688 712.023438 430.792969 C 713.867188 424.234375 717.039062 418.355469 721.339844 412.988281 C 726.84375 406.097656 733.636719 400.832031 741.316406 396.769531 C 750.480469 391.917969 760.378906 389.40625 770.75 388.714844 C 779.886719 388.105469 788.898438 388.78125 797.828125 390.75 C 811.804688 393.84375 820.871094 402.285156 824.546875 416.066406 C 826.207031 422.292969 827.125 428.78125 827.804688 435.199219 C 829.34375 449.800781 829.855469 464.496094 832.863281 478.929688 C 835.164062 489.980469 839.046875 500.320312 846.464844 509.054688 C 855.851562 520.121094 868.023438 525.722656 882.277344 527.300781 C 891.941406 528.371094 901.535156 527.273438 911.128906 526.402344 C 919.015625 525.679688 926.890625 524.863281 934.851562 525.5 C 941.242188 526 947.328125 527.664062 952.886719 530.710938 C 955.785156 532.292969 958.351562 534.664062 960.679688 537.046875 C 962.9375 539.363281 965.058594 541.957031 966.585938 544.785156 C 969.691406 550.511719 971.757812 556.652344 971.921875 563.265625 C 972.007812 566.46875 971.8125 569.683594 971.921875 572.875 C 971.980469 574.675781 971.300781 575.285156 969.609375 575.007812 C 969.234375 574.953125 968.84375 574.96875 968.375 574.953125 C 968.375 573.191406 968.359375 571.488281 968.375 569.796875 C 968.414062 564.222656 967.554688 558.828125 965.753906 553.519531 C 964.476562 549.761719 962.660156 546.367188 960.234375 543.371094 C 957.890625 540.472656 955.078125 537.992188 951.832031 535.96875 C 947.355469 533.167969 942.515625 531.335938 937.386719 530.40625 C 930.164062 529.089844 922.84375 529.230469 915.523438 529.6875 C 905.734375 530.296875 895.972656 531.210938 886.144531 530.585938 C 861.480469 529.007812 842.859375 515.019531 834.707031 491.671875 C 831.78125 483.308594 830.132812 474.660156 829.078125 465.910156 C 827.621094 453.863281 826.515625 441.785156 825.003906 429.738281 C 824.476562 425.523438 823.476562 421.324219 822.230469 417.261719 C 818 403.421875 808.503906 395.394531 794.375 392.761719 C 784.101562 390.847656 773.789062 390.558594 763.484375 392.5 C 757.773438 393.566406 752.089844 394.925781 746.90625 397.683594 C 742.660156 399.945312 738.238281 402.039062 734.480469 404.960938 C 730.640625 407.957031 727.3125 411.699219 724.140625 415.429688 C 719.398438 421.015625 716.667969 427.714844 715.253906 434.839844 C 712.964844 446.292969 715.253906 457.121094 720.644531 467.3125 C 724.859375 475.28125 730.40625 482.351562 736.046875 489.355469 C 742.441406 497.3125 747.707031 505.964844 751.078125 515.65625 C 753.546875 522.753906 754.917969 529.976562 753.753906 537.546875 C 752.921875 542.953125 750.441406 547.503906 746.875 551.507812 C 741.59375 557.457031 735.105469 561.921875 728.394531 566.066406 C 723.5 569.089844 718.511719 571.957031 713.5625 574.882812 C 713.1875 575.105469 712.742188 575.300781 712.339844 575.3125 C 709.984375 575.328125 707.613281 575.3125 705.117188 575.3125 Z M 705.117188 575.3125 " fill-opacity="1" fill-rule="nonzero"/></g><g clip-path="url(#18ca331a78)"><path fill="#bc4749" d="M 722.558594 574.953125 C 724.238281 573.832031 725.914062 572.695312 727.589844 571.570312 C 735.078125 566.550781 742.785156 561.867188 749.457031 555.738281 C 757.980469 547.902344 760.601562 538.199219 758.6875 527.039062 C 756.414062 513.730469 750.925781 501.761719 743.203125 490.796875 C 738.933594 484.722656 734.21875 478.96875 729.933594 472.925781 C 725.773438 467.046875 722.613281 460.613281 720.949219 453.585938 C 719.007812 445.40625 719.175781 437.253906 722.085938 429.253906 C 723.722656 424.761719 726.082031 420.710938 728.976562 416.886719 C 733.746094 410.605469 739.792969 405.878906 746.601562 402.257812 C 755.292969 397.640625 764.691406 395.242188 774.578125 394.746094 C 781.816406 394.371094 788.957031 394.773438 796 396.492188 C 807.4375 399.292969 815.035156 406.390625 819.261719 417.289062 C 821.785156 423.789062 822.976562 430.597656 823.851562 437.472656 C 825.683594 451.894531 826.679688 466.421875 829.839844 480.648438 C 832.476562 492.515625 836.664062 503.664062 844.664062 513.0625 C 852.882812 522.699219 863.226562 528.757812 875.539062 531.710938 C 886.019531 534.21875 896.625 534.109375 907.261719 533.789062 C 916.949219 533.484375 926.65625 533.054688 936.207031 535.289062 C 942.074219 536.660156 947.464844 538.988281 952.015625 543.136719 C 955.273438 546.101562 958.265625 549.289062 960.054688 553.3125 C 962.34375 558.46875 964.035156 563.835938 964.019531 569.589844 C 964.019531 570.960938 964.117188 572.332031 964.199219 573.707031 C 964.257812 574.605469 963.921875 574.980469 962.980469 575.023438 C 960.234375 575.148438 960.347656 575.050781 960.152344 572.234375 C 959.945312 569.171875 959.402344 566.109375 958.738281 563.113281 C 958.265625 560.976562 957.558594 558.84375 956.589844 556.886719 C 952.015625 547.613281 944.457031 542.082031 934.558594 539.378906 C 926.65625 537.230469 918.613281 537.074219 910.53125 536.980469 C 903.503906 536.882812 896.445312 536.910156 889.445312 536.410156 C 871.699219 535.148438 856.128906 529.019531 844.234375 515.210938 C 838.105469 508.097656 833.890625 499.917969 831.128906 490.992188 C 827.898438 480.507812 826.113281 469.722656 824.699219 458.867188 C 823.285156 448.066406 822.480469 437.167969 819.71875 426.578125 C 818.027344 420.101562 815.601562 413.945312 811.125 408.789062 C 805.660156 402.480469 798.550781 399.292969 790.480469 398.101562 C 781.523438 396.769531 772.636719 397.144531 763.792969 399.277344 C 756.402344 401.066406 749.609375 404.007812 743.273438 408.261719 C 739.527344 410.773438 736.339844 413.820312 733.554688 417.191406 C 728.464844 423.320312 725.234375 430.363281 724.390625 438.457031 C 723.222656 449.632812 726.730469 459.476562 732.679688 468.585938 C 736.878906 475.03125 741.566406 481.160156 745.835938 487.566406 C 754.003906 499.824219 759.980469 513.035156 762.488281 527.664062 C 763.457031 533.332031 763.570312 539.003906 761.808594 544.617188 C 760.226562 549.652344 757.191406 553.714844 753.308594 557.097656 C 749.898438 560.0625 746.238281 562.753906 742.566406 565.402344 C 738.128906 568.589844 733.566406 571.625 729.019531 574.664062 C 728.382812 575.09375 727.507812 575.273438 726.730469 575.328125 C 725.414062 575.4375 724.082031 575.355469 722.753906 575.355469 C 722.683594 575.203125 722.613281 575.078125 722.558594 574.953125 Z M 722.558594 574.953125 " fill-opacity="1" fill-rule="nonzero"/></g><g clip-path="url(#8a5af48bf4)"><path fill="#bc4749" d="M 736.171875 574.898438 C 738.210938 573.429688 740.277344 571.972656 742.300781 570.503906 C 747.390625 566.789062 752.628906 563.253906 757.539062 559.316406 C 766.507812 552.105469 769.003906 542.457031 767.339844 531.433594 C 764.957031 515.628906 759.105469 501.070312 750.96875 487.441406 C 746.792969 480.453125 741.941406 473.882812 737.585938 467.003906 C 732.195312 458.480469 728.839844 449.285156 729.90625 439 C 730.601562 432.332031 732.957031 426.285156 737.089844 420.878906 C 741.179688 415.527344 746.210938 411.328125 751.992188 408.109375 C 760.046875 403.617188 768.851562 401.550781 778.058594 401.039062 C 784.144531 400.691406 790.148438 401.082031 795.957031 402.992188 C 806.121094 406.335938 812.191406 413.753906 815.839844 423.472656 C 818.304688 430.042969 819.457031 436.933594 820.578125 443.824219 C 822.660156 456.59375 824.488281 469.417969 826.984375 482.117188 C 829.148438 493.097656 833.128906 503.496094 839.742188 512.703125 C 849.820312 526.734375 863.644531 534.816406 880.375 538.253906 C 890.027344 540.238281 899.84375 540.460938 909.644531 540.945312 C 916.285156 541.277344 922.925781 541.761719 929.375 543.523438 C 935.765625 545.257812 941.683594 548.042969 946.175781 553.019531 C 949.199219 556.375 951.917969 560.0625 952.847656 564.722656 C 953.304688 566.996094 953.984375 569.214844 954.441406 571.488281 C 954.648438 572.542969 954.578125 573.664062 954.648438 574.871094 C 953.96875 574.925781 953.484375 574.925781 953.011719 574.996094 C 951.292969 575.285156 950.933594 574.371094 950.753906 572.847656 C 950.140625 567.621094 948.5625 562.792969 945.316406 558.453125 C 939.8125 551.078125 932.257812 547.265625 923.550781 545.714844 C 916.425781 544.453125 909.1875 543.773438 901.964844 543.121094 C 891.414062 542.164062 880.890625 541.222656 870.796875 537.644531 C 851.484375 530.796875 838.382812 517.542969 830.769531 498.6875 C 826.984375 489.300781 824.824219 479.46875 823.089844 469.542969 C 821.050781 457.882812 819.207031 446.179688 817.042969 434.535156 C 816.003906 428.960938 814.050781 423.636719 811.152344 418.714844 C 806.1875 410.285156 798.855469 405.449219 789.191406 403.964844 C 781.039062 402.714844 773.109375 403.742188 765.207031 405.820312 C 758.828125 407.5 753.046875 410.425781 747.945312 414.433594 C 743.523438 417.910156 739.832031 422.140625 737.324219 427.394531 C 734.191406 433.9375 733.09375 440.691406 734.261719 447.746094 C 735.300781 454.054688 737.976562 459.769531 741.277344 465.230469 C 747.140625 474.894531 753.53125 484.253906 758.257812 494.566406 C 763.597656 506.199219 768.046875 518.109375 770.167969 530.796875 C 770.917969 535.246094 771.25 539.710938 770.558594 544.203125 C 769.546875 550.675781 766.496094 556.085938 761.394531 560.105469 C 756.375 564.070312 751.050781 567.660156 745.851562 571.417969 C 744.546875 572.359375 743.160156 573.191406 741.941406 574.21875 C 740.207031 575.703125 738.253906 575.21875 736.355469 575.285156 C 736.296875 575.175781 736.230469 575.035156 736.171875 574.898438 Z M 736.171875 574.898438 " fill-opacity="1" fill-rule="nonzero"/></g><g clip-path="url(#6bddb53ad1)"><path fill="#bc4749" d="M 747.167969 575.121094 C 750.425781 572.957031 753.519531 570.945312 756.566406 568.882812 C 762.042969 565.164062 767.535156 561.449219 771.222656 555.738281 C 774.246094 551.050781 775.0625 545.839844 774.925781 540.363281 C 774.746094 533.042969 772.984375 526.027344 770.960938 519.066406 C 767.257812 506.285156 762.40625 493.945312 756.179688 482.171875 C 753.335938 476.792969 750.136719 471.609375 747.167969 466.285156 C 744.007812 460.628906 740.96875 454.902344 739.792969 448.414062 C 738.378906 440.582031 739.5 433.21875 743.648438 426.300781 C 747.210938 420.351562 752.339844 416.097656 758.246094 412.867188 C 767.007812 408.054688 776.558594 406.070312 786.5 406.945312 C 798.367188 407.984375 806.632812 414.320312 811.511719 425.164062 C 814.285156 431.347656 815.90625 437.863281 817.15625 444.460938 C 818.597656 452.085938 819.886719 459.726562 821.132812 467.378906 C 822.714844 477.125 824.960938 486.707031 828.191406 496.023438 C 832.019531 507.058594 837.882812 516.863281 846.382812 524.957031 C 855.644531 533.789062 866.707031 539.265625 879.074219 542.273438 C 888.167969 544.492188 897.472656 545.257812 906.734375 546.308594 C 913.414062 547.058594 920.097656 547.945312 926.449219 550.273438 C 931.382812 552.089844 935.902344 554.585938 939.480469 558.621094 C 942.003906 561.464844 944.152344 564.5 945.316406 568.117188 C 946.011719 570.238281 946.386719 572.472656 946.96875 574.96875 C 945.707031 574.96875 944.625 575.035156 943.558594 574.925781 C 943.25 574.882812 942.820312 574.316406 942.765625 573.941406 C 942.003906 568.976562 939.6875 564.820312 936.347656 561.160156 C 929.734375 553.878906 920.886719 551.410156 911.710938 549.734375 C 900.648438 547.710938 889.375 546.949219 878.464844 544.0625 C 863.917969 540.210938 851.359375 533.097656 841.445312 521.660156 C 833.75 512.800781 828.84375 502.429688 825.472656 491.269531 C 822.328125 480.828125 820.273438 470.140625 818.375 459.40625 C 816.738281 450.132812 815.296875 440.800781 812.066406 431.902344 C 809.628906 425.136719 806.257812 418.980469 800.226562 414.679688 C 795.761719 411.492188 790.714844 409.925781 785.253906 409.605469 C 777.808594 409.175781 770.683594 410.453125 763.957031 413.695312 C 761.183594 415.027344 758.257812 416.277344 755.902344 418.1875 C 746.722656 425.660156 741.109375 435.824219 744.476562 449.675781 C 745.949219 455.71875 748.804688 461.15625 751.644531 466.574219 C 759.148438 480.910156 765.898438 495.566406 770.902344 510.984375 C 773.648438 519.453125 776.214844 527.96875 777.476562 536.796875 C 778.375 543.148438 778.363281 549.511719 775.328125 555.445312 C 773.039062 559.925781 769.503906 563.308594 765.46875 566.164062 C 762.101562 568.546875 758.46875 570.574219 755.210938 573.109375 C 752.851562 574.996094 750.414062 575.785156 747.167969 575.121094 Z M 747.167969 575.121094 " fill-opacity="1" fill-rule="nonzero"/></g><g clip-path="url(#779769d577)"><path fill="#bc4749" d="M 758.578125 575.246094 C 761.546875 573.277344 764.179688 571.585938 766.757812 569.796875 C 771 566.855469 775.144531 563.835938 777.933594 559.328125 C 781.261719 553.933594 781.925781 548.015625 781.316406 541.886719 C 780.277344 531.449219 777.144531 521.507812 773.96875 511.59375 C 769.351562 497.175781 763.734375 483.144531 757.316406 469.417969 C 754.847656 464.164062 752.519531 458.8125 750.523438 453.363281 C 747.652344 445.488281 747.722656 437.597656 751.785156 430.042969 C 753.699219 426.480469 756.441406 423.652344 759.632812 421.183594 C 767.160156 415.332031 775.714844 412.65625 785.199219 413.15625 C 795.527344 413.695312 802.820312 419.007812 807.644531 427.976562 C 811.164062 434.535156 813.039062 441.648438 814.550781 448.871094 C 816.726562 459.1875 818.609375 469.558594 820.941406 479.832031 C 823.324219 490.410156 826.5 500.765625 831.78125 510.332031 C 842.292969 529.355469 858.414062 541.167969 879.238281 546.546875 C 887.945312 548.792969 896.890625 550.191406 905.722656 551.953125 C 912.625 553.324219 919.460938 554.917969 925.601562 558.59375 C 929.457031 560.894531 932.660156 563.777344 934.960938 567.746094 C 936.25 569.976562 937.289062 572.207031 937.929688 574.675781 C 935.222656 575.480469 934.753906 575.257812 933.851562 572.929688 C 931.316406 566.359375 926.351562 562.128906 920.277344 559.050781 C 914.539062 556.140625 908.339844 554.710938 902.101562 553.421875 C 891.664062 551.246094 881.125 549.414062 871.101562 545.589844 C 848.210938 536.839844 833.265625 520.480469 825.128906 497.589844 C 821.066406 486.167969 818.527344 474.355469 816.117188 462.515625 C 814.3125 453.695312 812.71875 444.808594 809.460938 436.367188 C 807.160156 430.402344 804.191406 424.84375 798.980469 420.863281 C 793.683594 416.832031 787.679688 415.429688 781.039062 415.875 C 774.578125 416.304688 768.714844 418.371094 763.597656 422.042969 C 755.390625 427.9375 750.84375 437.042969 753.058594 448.511719 C 754.628906 456.578125 758.09375 463.996094 761.199219 471.511719 C 769.917969 492.628906 777.726562 514.0625 782.730469 536.410156 C 784.1875 542.925781 784.867188 549.554688 782.757812 556.125 C 781.273438 560.769531 778.40625 564.445312 774.589844 567.355469 C 771.609375 569.628906 768.351562 571.558594 765.425781 573.914062 C 763.402344 575.453125 761.296875 575.382812 758.578125 575.246094 Z M 758.578125 575.246094 " fill-opacity="1" fill-rule="nonzero"/></g><g clip-path="url(#95547b24e1)"><path fill="#bc4749" d="M 772.191406 575.1875 C 775.132812 572.847656 778.195312 570.574219 781.050781 568.0625 C 786.972656 562.863281 788.84375 556.054688 788.304688 548.457031 C 787.597656 538.378906 784.671875 528.785156 781.605469 519.261719 C 776.269531 502.679688 770.640625 486.179688 765.21875 469.625 C 763.292969 463.746094 761.296875 457.855469 759.855469 451.839844 C 758.410156 445.890625 758.535156 439.871094 761.363281 434.1875 C 764.289062 428.324219 769.171875 424.773438 775.105469 422.390625 C 780.125 420.367188 785.265625 420.144531 790.398438 421.570312 C 796.832031 423.359375 801.308594 427.699219 804.550781 433.382812 C 808.15625 439.679688 810.210938 446.570312 811.902344 453.570312 C 814.480469 464.273438 816.824219 475.046875 819.609375 485.695312 C 822.632812 497.203125 826.734375 508.308594 833.40625 518.304688 C 843.554688 533.511719 857.527344 543.785156 874.761719 549.484375 C 883.496094 552.382812 892.507812 554.460938 901.394531 556.902344 C 908.5625 558.871094 915.675781 560.976562 921.511719 565.859375 C 923.175781 567.257812 924.605469 568.992188 925.949219 570.710938 C 926.878906 571.902344 927.515625 573.332031 928.292969 574.691406 C 925.753906 575.3125 925.226562 575.273438 923.953125 573.136719 C 920.335938 567.09375 914.761719 563.570312 908.398438 561.378906 C 900.410156 558.636719 892.246094 556.417969 884.121094 554.03125 C 873.402344 550.886719 863.128906 546.808594 853.867188 540.417969 C 839.003906 530.15625 829.246094 516.085938 823.074219 499.28125 C 818.792969 487.621094 815.992188 475.558594 813.132812 463.511719 C 811.082031 454.859375 809.101562 446.179688 805.09375 438.167969 C 802.195312 432.371094 798.300781 427.476562 792.089844 425.023438 C 787.761719 423.320312 783.269531 423.027344 778.792969 424.429688 C 776.601562 425.121094 774.257812 425.746094 772.402344 427.007812 C 768.378906 429.738281 765.261719 433.34375 763.734375 438.125 C 761.613281 444.792969 762.417969 451.449219 764.359375 457.910156 C 768.851562 472.953125 773.703125 487.898438 778.238281 502.929688 C 781.996094 515.40625 785.683594 527.925781 789.066406 540.515625 C 790.632812 546.335938 791.382812 552.382812 789.980469 558.414062 C 788.707031 563.929688 785.558594 568.203125 781.023438 571.5 C 780.359375 571.988281 779.679688 572.484375 779.070312 573.054688 C 777.074219 574.871094 774.867188 575.910156 772.191406 575.1875 Z M 772.191406 575.1875 " fill-opacity="1" fill-rule="nonzero"/></g><g clip-path="url(#0eeaf999e7)"><path fill="#bc4749" d="M 782.148438 575.066406 C 783.296875 574.066406 784.449219 573.066406 785.613281 572.070312 C 790.273438 568.0625 793.058594 563.097656 793.433594 556.875 C 793.847656 550.121094 792.476562 543.621094 790.617188 537.230469 C 786.667969 523.628906 782.425781 510.109375 778.445312 496.507812 C 774.882812 484.335938 771.402344 472.136719 768.117188 459.894531 C 766.828125 455.082031 766.316406 450.089844 766.871094 445.058594 C 767.742188 437.183594 771.734375 431.511719 779.152344 428.753906 C 785.808594 426.273438 792.003906 427.632812 797.398438 432.34375 C 801.753906 436.144531 804.496094 441.066406 806.246094 446.402344 C 808.949219 454.695312 811.304688 463.109375 813.523438 471.539062 C 816.738281 483.769531 819.929688 495.996094 825.167969 507.558594 C 834.636719 528.453125 850.140625 543.105469 871.378906 551.496094 C 880.113281 554.949219 889.179688 557.527344 898.082031 560.507812 C 904.195312 562.558594 910.183594 564.859375 915.230469 569.019531 C 917.144531 570.585938 918.890625 572.332031 919.988281 574.789062 C 918.363281 575.175781 917.378906 574.898438 916.328125 573.582031 C 912.859375 569.242188 908.273438 566.289062 903.167969 564.332031 C 895.792969 561.503906 888.28125 558.996094 880.820312 556.390625 C 869.730469 552.519531 859.164062 547.65625 849.832031 540.390625 C 836.84375 530.28125 828.011719 517.207031 822.0625 501.984375 C 817.445312 490.171875 814.367188 477.917969 811.125 465.703125 C 809.042969 457.898438 806.910156 450.089844 803.082031 442.894531 C 801.351562 439.636719 799.257812 436.613281 796.304688 434.367188 C 791.480469 430.695312 786.222656 429.324219 780.304688 431.691406 C 773.773438 434.3125 770.820312 439.5 769.863281 446.054688 C 768.933594 452.421875 770.140625 458.660156 771.527344 464.828125 C 776.28125 485.917969 782.855469 506.492188 789.121094 527.136719 C 791.546875 535.136719 794.167969 543.09375 795.140625 551.441406 C 795.816406 557.316406 795.777344 563.15625 792.074219 568.175781 C 790.3125 570.558594 788.191406 572.722656 785.960938 574.675781 C 785.140625 575.398438 783.546875 575.246094 782.300781 575.496094 C 782.246094 575.371094 782.203125 575.21875 782.148438 575.066406 Z M 782.148438 575.066406 " fill-opacity="1" fill-rule="nonzero"/></g><g clip-path="url(#8ca8803937)"><path fill="#bc4749" d="M 61.894531 222.054688 C 60.511719 223.242188 59.269531 224.320312 57.875 225.515625 C 58.945312 227.160156 59.933594 228.859375 61.105469 230.425781 C 64.214844 234.632812 67.207031 238.957031 70.625 242.914062 C 73.898438 246.710938 77.550781 250.199219 81.191406 253.652344 C 83.816406 256.140625 86.640625 258.417969 89.480469 260.664062 C 94.21875 264.414062 99.253906 267.714844 104.523438 270.679688 C 109.480469 273.476562 114.53125 276.050781 119.855469 278.027344 C 125.214844 280.015625 130.628906 281.886719 136.085938 283.585938 C 138.964844 284.476562 141.984375 284.933594 144.960938 285.5 C 148.144531 286.101562 151.328125 286.742188 154.546875 287.101562 C 157.628906 287.441406 160.757812 287.441406 163.859375 287.613281 C 166.359375 287.746094 168.851562 288.0625 171.34375 288.019531 C 174.445312 287.953125 177.5625 287.730469 180.648438 287.335938 C 182.96875 287.039062 185.316406 286.5625 187.519531 285.789062 C 189.839844 284.976562 192.148438 283.933594 194.207031 282.605469 C 196.921875 280.859375 199.539062 278.890625 201.941406 276.722656 C 203.710938 275.132812 205.160156 273.152344 206.5625 271.203125 C 207.9375 269.296875 209.171875 267.265625 210.304688 265.195312 C 212.351562 261.457031 214.214844 257.609375 216.28125 253.875 C 218.019531 250.746094 220.609375 248.5 223.898438 247.023438 C 228.898438 244.785156 234.195312 243.6875 239.542969 242.753906 C 244.003906 241.972656 248.472656 241.289062 252.925781 240.476562 C 258.183594 239.523438 263.472656 238.671875 268.667969 237.429688 C 273.945312 236.171875 279.070312 234.382812 283.925781 231.875 C 290.050781 228.699219 295.464844 224.644531 300.066406 219.5 C 303.097656 216.109375 305.515625 212.316406 307.628906 208.316406 C 309.375 205.015625 310.757812 201.5625 311.675781 197.949219 C 312.367188 195.25 312.882812 192.507812 313.402344 189.765625 C 314.417969 184.414062 314.6875 179 314.328125 173.578125 C 313.988281 168.453125 313.589844 163.3125 312.773438 158.25 C 312.082031 153.988281 310.757812 149.824219 309.679688 145.632812 C 309.273438 144.078125 308.824219 142.523438 308.304688 141.003906 C 307.457031 138.566406 306.578125 136.148438 305.632812 133.753906 C 304.636719 131.230469 303.644531 128.683594 302.488281 126.230469 C 301.066406 123.21875 299.484375 120.285156 297.953125 117.320312 C 294.457031 110.546875 290.277344 104.183594 285.933594 97.941406 C 283.191406 94.003906 280.230469 90.199219 277.230469 86.449219 C 273.011719 81.191406 268.742188 75.964844 264.351562 70.847656 C 261.644531 67.691406 258.660156 64.78125 255.808594 61.730469 C 254.632812 60.472656 253.507812 59.179688 252.242188 57.757812 C 250.730469 59.042969 249.273438 60.273438 247.707031 61.605469 C 248.957031 62.992188 250.144531 64.265625 251.296875 65.589844 C 254.722656 69.5 258.191406 73.375 261.539062 77.359375 C 264.722656 81.144531 267.769531 85.054688 270.878906 88.90625 C 274.757812 93.707031 278.703125 98.453125 282.507812 103.320312 C 284.898438 106.367188 287.191406 109.503906 289.332031 112.734375 C 292.378906 117.328125 295.417969 121.941406 297.773438 126.964844 C 298.898438 129.367188 300.210938 131.679688 301.308594 134.089844 C 302.21875 136.066406 302.988281 138.117188 303.746094 140.167969 C 304.671875 142.640625 305.644531 145.113281 306.378906 147.648438 C 307.179688 150.398438 307.65625 153.242188 308.394531 156.011719 C 310.550781 164.074219 310.777344 172.339844 310.695312 180.59375 C 310.667969 183.613281 310.023438 186.636719 309.554688 189.640625 C 309.273438 191.472656 308.933594 193.324219 308.386719 195.097656 C 307.601562 197.660156 306.648438 200.167969 305.679688 202.667969 C 305.140625 204.0625 304.519531 205.457031 303.726562 206.722656 C 302.316406 209.007812 300.796875 211.21875 299.257812 213.421875 C 296.253906 217.71875 292.351562 221.074219 288.046875 223.996094 C 281.804688 228.230469 274.847656 230.785156 267.609375 232.636719 C 258.75 234.902344 249.722656 236.226562 240.675781 237.4375 C 236.839844 237.953125 233.007812 238.617188 229.214844 239.433594 C 225.992188 240.128906 222.773438 240.9375 219.683594 242.042969 C 215.5625 243.507812 212.28125 246.125 210.382812 250.214844 C 208.53125 254.21875 206.714844 258.238281 204.78125 262.203125 C 202.964844 265.925781 200.71875 269.378906 197.777344 272.328125 C 195.558594 274.546875 193.15625 276.589844 190.414062 278.136719 C 188.757812 279.070312 186.925781 279.699219 185.152344 280.410156 C 182.222656 281.597656 179.074219 281.8125 176.019531 282.453125 C 172.96875 283.089844 169.984375 283.097656 166.972656 283.054688 C 163.878906 283 160.792969 282.550781 157.710938 282.273438 C 155.964844 282.117188 154.222656 282.003906 152.488281 281.796875 C 151.109375 281.625 149.742188 281.363281 148.378906 281.101562 C 146.804688 280.796875 145.230469 280.464844 143.664062 280.113281 C 142.066406 279.761719 140.464844 279.421875 138.890625 278.988281 C 136.203125 278.261719 133.476562 277.578125 130.851562 276.660156 C 127.191406 275.394531 123.585938 273.980469 120 272.535156 C 114.695312 270.386719 109.640625 267.695312 104.832031 264.628906 C 100.324219 261.761719 95.964844 258.652344 91.703125 255.429688 C 86.738281 251.683594 82.109375 247.519531 77.980469 242.859375 C 74.464844 238.886719 71.074219 234.785156 67.800781 230.613281 C 65.949219 228.25 64.457031 225.605469 62.785156 223.097656 C 62.578125 222.746094 62.253906 222.457031 61.894531 222.054688 Z M 61.894531 222.054688 " fill-opacity="1" fill-rule="nonzero"/></g><path fill="#bc4749" d="M 243.050781 65.785156 C 242.132812 66.523438 241.324219 67.171875 240.507812 67.820312 C 239.96875 68.242188 239.839844 68.628906 240.355469 69.230469 C 244.09375 73.601562 247.4375 78.257812 250.667969 83.023438 C 254.777344 89.074219 259.046875 95.035156 263.371094 100.9375 C 266.152344 104.722656 269.117188 108.371094 272.101562 112.003906 C 274.675781 115.132812 277.460938 118.09375 280.035156 121.230469 C 282.058594 123.695312 283.953125 126.265625 285.796875 128.863281 C 287.417969 131.148438 289.015625 133.449219 290.375 135.894531 C 292.425781 139.589844 294.3125 143.367188 296.136719 147.179688 C 297.011719 149.015625 297.621094 150.984375 298.242188 152.925781 C 299.1875 155.882812 300.167969 158.84375 300.867188 161.855469 C 301.417969 164.21875 301.632812 166.675781 301.867188 169.109375 C 302.101562 171.539062 302.199219 173.984375 302.324219 176.421875 C 302.550781 180.765625 301.9375 185.035156 300.859375 189.199219 C 299.914062 192.832031 298.558594 196.339844 296.859375 199.726562 C 294.582031 204.269531 291.363281 208.054688 287.75 211.496094 C 284.835938 214.277344 281.472656 216.535156 277.8125 218.257812 C 274.730469 219.714844 271.664062 221.300781 268.425781 222.316406 C 263.5 223.863281 258.472656 225.136719 253.417969 226.191406 C 248.464844 227.214844 243.429688 227.882812 238.421875 228.589844 C 232.125 229.492188 225.804688 230.183594 219.519531 231.164062 C 215.015625 231.863281 210.574219 232.835938 206.4375 234.949219 C 202.902344 236.753906 200.492188 239.550781 198.839844 243.03125 C 197.195312 246.492188 195.871094 250.117188 194.164062 253.542969 C 191.761719 258.355469 188.785156 262.804688 184.316406 265.980469 C 182.714844 267.113281 180.703125 267.679688 179.101562 268.820312 C 177.347656 270.089844 175.21875 269.890625 173.355469 270.746094 C 172.078125 271.339844 170.480469 271.402344 169.023438 271.417969 C 165.625 271.453125 162.234375 271.363281 158.835938 271.238281 C 157.082031 271.175781 155.328125 271.042969 153.601562 270.753906 C 150.714844 270.269531 147.8125 269.78125 144.988281 269.027344 C 140.03125 267.707031 134.996094 266.519531 130.230469 264.667969 C 124.890625 262.597656 119.71875 260.035156 114.648438 257.363281 C 110.78125 255.332031 107.070312 252.957031 103.507812 250.421875 C 100.011719 247.933594 96.738281 245.117188 93.472656 242.3125 C 91.136719 240.296875 88.871094 238.175781 86.792969 235.902344 C 83.988281 232.835938 81.28125 229.660156 78.738281 226.371094 C 76.300781 223.222656 74.125 219.886719 71.859375 216.613281 C 71.417969 215.976562 71.058594 215.285156 70.617188 214.554688 C 69.484375 215.492188 68.414062 216.316406 67.414062 217.226562 C 67.246094 217.386719 67.246094 217.972656 67.398438 218.234375 C 70.4375 223.367188 73.816406 228.285156 77.640625 232.871094 C 81.9375 238.042969 86.566406 242.898438 91.730469 247.238281 C 95.855469 250.710938 100.128906 253.984375 104.660156 256.914062 C 109.765625 260.214844 115.054688 263.199219 120.683594 265.503906 C 125.394531 267.425781 130.140625 269.304688 134.960938 270.941406 C 138.074219 272.003906 141.335938 272.652344 144.546875 273.371094 C 147.40625 274.015625 150.285156 274.546875 153.171875 275.050781 C 154.609375 275.304688 156.082031 275.429688 157.550781 275.519531 C 160.804688 275.707031 164.058594 275.949219 167.324219 275.933594 C 169.382812 275.921875 171.433594 275.5 173.480469 275.257812 C 174.730469 275.105469 176.007812 275.058594 177.214844 274.746094 C 179.101562 274.25 180.972656 273.640625 182.789062 272.9375 C 186.664062 271.429688 189.792969 268.820312 192.597656 265.84375 C 195 263.300781 196.808594 260.304688 198.316406 257.167969 C 200.089844 253.488281 201.769531 249.757812 203.515625 246.070312 C 205.671875 241.519531 209.304688 238.6875 214.007812 237.078125 C 218.34375 235.597656 222.792969 234.679688 227.324219 234.058594 C 232.945312 233.285156 238.574219 232.519531 244.175781 231.640625 C 249.425781 230.8125 254.667969 229.957031 259.875 228.878906 C 265.367188 227.746094 270.773438 226.207031 275.890625 223.871094 C 279.539062 222.199219 283.207031 220.507812 286.335938 217.898438 C 288.378906 216.199219 290.492188 214.574219 292.363281 212.695312 C 295.492188 209.546875 298.0625 205.957031 299.925781 201.914062 C 301.15625 199.242188 302.28125 196.527344 303.367188 193.800781 C 303.800781 192.714844 304.058594 191.535156 304.265625 190.375 C 304.664062 188.191406 305.113281 186.007812 305.292969 183.792969 C 305.554688 180.511719 305.8125 177.195312 305.679688 173.914062 C 305.507812 169.832031 305.175781 165.722656 304.472656 161.691406 C 303.828125 157.96875 302.613281 154.347656 301.625 150.6875 C 300.203125 145.4375 297.890625 140.527344 295.527344 135.671875 C 293.898438 132.324219 291.902344 129.144531 289.898438 126.003906 C 285.886719 119.746094 281.429688 113.8125 276.574219 108.175781 C 274.207031 105.429688 272.003906 102.546875 269.730469 99.730469 C 267.472656 96.941406 265.125 94.21875 262.96875 91.359375 C 259.390625 86.601562 256 81.691406 252.382812 76.964844 C 249.640625 73.375 246.664062 69.960938 243.789062 66.46875 C 243.601562 66.21875 243.328125 66.03125 243.050781 65.785156 Z M 243.050781 65.785156 " fill-opacity="1" fill-rule="nonzero"/><path fill="#bc4749" d="M 78.484375 207.75 C 77.40625 208.648438 76.355469 209.484375 75.375 210.402344 C 75.238281 210.527344 75.347656 211.085938 75.507812 211.335938 C 77.667969 214.726562 79.742188 218.179688 82.054688 221.460938 C 85.550781 226.433594 89.527344 231.027344 93.921875 235.226562 C 98.734375 239.8125 103.878906 244.003906 109.453125 247.664062 C 115.421875 251.582031 121.636719 255.035156 128.308594 257.554688 C 133.351562 259.460938 138.511719 261.097656 143.703125 262.597656 C 146.742188 263.480469 149.914062 263.882812 153.042969 264.433594 C 156.6875 265.078125 160.34375 265.269531 164.039062 264.800781 C 165.480469 264.621094 167 264.847656 168.402344 264.539062 C 170.660156 264.035156 172.953125 263.46875 175.046875 262.535156 C 179.328125 260.621094 182.859375 257.714844 185.484375 253.742188 C 187.914062 250.074219 189.667969 246.070312 191.617188 242.167969 C 192.734375 239.929688 193.957031 237.726562 195.332031 235.632812 C 196.84375 233.328125 199.074219 231.800781 201.5625 230.640625 C 205.042969 229.023438 208.722656 228.007812 212.507812 227.496094 C 222.117188 226.179688 231.757812 225.066406 241.351562 223.683594 C 250.398438 222.367188 259.316406 220.4375 267.816406 216.945312 C 274.59375 214.160156 280.796875 210.453125 285.816406 205.023438 C 288.414062 202.210938 290.726562 199.132812 292.191406 195.546875 C 293.136719 193.246094 294.035156 190.914062 294.871094 188.570312 C 295.238281 187.535156 295.4375 186.429688 295.617188 185.339844 C 296.253906 181.4375 296.480469 177.507812 296.210938 173.554688 C 296.128906 172.328125 296.121094 171.097656 295.90625 169.902344 C 295.328125 166.746094 294.824219 163.554688 293.960938 160.46875 C 292.855469 156.523438 291.273438 152.71875 289.222656 149.160156 C 287.378906 145.964844 285.574219 142.730469 283.449219 139.726562 C 281.285156 136.660156 278.785156 133.820312 276.390625 130.914062 C 274.226562 128.28125 271.921875 125.761719 269.820312 123.082031 C 267.140625 119.675781 264.433594 116.257812 262.042969 112.644531 C 258.660156 107.527344 255.621094 102.183594 252.320312 97.007812 C 248.519531 91.035156 244.644531 85.121094 240.703125 79.238281 C 239.246094 77.070312 237.53125 75.085938 235.929688 73.007812 C 235.777344 72.808594 235.640625 72.59375 235.472656 72.332031 C 234.527344 73.105469 233.734375 73.761719 232.835938 74.492188 C 233.609375 75.488281 234.402344 76.40625 235.074219 77.40625 C 237.59375 81.117188 240.21875 84.769531 242.519531 88.609375 C 246.109375 94.578125 249.433594 100.710938 252.933594 106.734375 C 256.144531 112.257812 259.425781 117.730469 262.699219 123.226562 C 265.855469 128.53125 269.882812 133.160156 273.984375 137.730469 C 277.75 141.921875 281.453125 146.191406 284.289062 151.082031 C 285.949219 153.941406 287.542969 156.882812 288.800781 159.9375 C 289.808594 162.386719 290.230469 165.074219 290.941406 167.644531 C 292.210938 172.25 292.011719 176.953125 291.824219 181.628906 C 291.757812 183.273438 291.230469 184.910156 290.824219 186.527344 C 290.429688 188.074219 289.953125 189.601562 289.449219 191.113281 C 288.558594 193.773438 287.308594 196.265625 285.554688 198.449219 C 283.792969 200.652344 282.058594 202.929688 280.007812 204.84375 C 275.710938 208.855469 270.621094 211.679688 265.1875 213.878906 C 256.90625 217.234375 248.265625 219.214844 239.453125 220.417969 C 231.273438 221.53125 223.054688 222.414062 214.851562 223.4375 C 210.152344 224.03125 205.464844 224.707031 200.90625 226.144531 C 195.234375 227.933594 191.214844 231.496094 188.597656 236.820312 C 186.644531 240.792969 184.542969 244.703125 182.394531 248.589844 C 180.902344 251.285156 178.894531 253.5625 176.351562 255.378906 C 174.625 256.609375 172.726562 257.410156 170.875 258.363281 C 168.898438 259.378906 166.855469 259.882812 164.769531 260.160156 C 162.609375 260.449219 160.390625 260.332031 158.195312 260.351562 C 157.199219 260.359375 156.191406 260.351562 155.210938 260.234375 C 152.808594 259.9375 150.355469 259.785156 148.019531 259.191406 C 143.441406 258.039062 138.835938 256.898438 134.421875 255.269531 C 129.792969 253.5625 125.277344 251.449219 120.871094 249.210938 C 115.457031 246.457031 110.332031 243.15625 105.683594 239.238281 C 101.648438 235.847656 97.699219 232.324219 93.996094 228.582031 C 89.085938 223.617188 84.886719 218.0625 81.21875 212.109375 C 80.300781 210.6875 79.417969 209.269531 78.484375 207.75 Z M 78.484375 207.75 " fill-opacity="1" fill-rule="nonzero"/><path fill="#bc4749" d="M 229.816406 77.214844 C 229.167969 77.726562 228.566406 78.203125 227.875 78.742188 C 228.753906 79.941406 229.625 81.0625 230.445312 82.222656 C 238.347656 93.410156 244.347656 105.601562 249.515625 118.234375 C 252.085938 124.519531 254.703125 130.777344 257.394531 137.011719 C 259.847656 142.703125 263.371094 147.683594 267.671875 152.152344 C 269.855469 154.417969 272.003906 156.765625 273.828125 159.320312 C 275.960938 162.304688 277.589844 165.59375 278.945312 169.066406 C 280.679688 173.488281 280.691406 178.039062 280.464844 182.589844 C 280.359375 184.730469 279.523438 186.878906 278.730469 188.917969 C 275.941406 196.085938 270.738281 201.140625 264.246094 204.988281 C 257.644531 208.890625 250.441406 211.175781 243.015625 212.875 C 233.953125 214.941406 224.726562 215.851562 215.5 216.730469 C 209.3125 217.324219 203.144531 218.035156 196.996094 218.90625 C 193.121094 219.457031 189.46875 220.894531 186.296875 223.230469 C 184.054688 224.878906 182.394531 227.089844 180.882812 229.453125 C 178.300781 233.5 176.171875 237.851562 172.941406 241.46875 C 171.792969 242.753906 170.460938 243.886719 169.167969 245.027344 C 167.1875 246.761719 164.921875 248.039062 162.367188 248.707031 C 159.535156 249.441406 156.640625 249.875 153.699219 249.558594 C 150.542969 249.21875 147.335938 249.039062 144.25 248.335938 C 137.839844 246.890625 131.839844 244.289062 126.03125 241.25 C 120.601562 238.410156 115.546875 235.039062 110.738281 231.253906 C 106.71875 228.085938 102.96875 224.644531 99.550781 220.859375 C 94.921875 215.734375 90.742188 210.257812 87.378906 204.195312 C 86.890625 203.324219 86.335938 202.488281 85.730469 201.507812 C 84.804688 202.289062 83.878906 203 83.070312 203.828125 C 82.898438 204 83.023438 204.644531 83.214844 204.960938 C 84.6875 207.425781 86.136719 209.914062 87.738281 212.296875 C 91.925781 218.566406 96.773438 224.273438 102.3125 229.402344 C 106.71875 233.484375 111.476562 237.117188 116.566406 240.335938 C 121.871094 243.6875 127.445312 246.457031 133.269531 248.769531 C 138.730469 250.9375 144.277344 252.652344 150.121094 253.472656 C 153.988281 254.011719 157.792969 254.234375 161.621094 253.320312 C 162.621094 253.074219 163.742188 253.230469 164.679688 252.867188 C 167.863281 251.617188 171.214844 250.484375 173.597656 247.949219 C 175.765625 245.648438 177.671875 243.050781 179.398438 240.398438 C 181.609375 237.007812 183.417969 233.347656 185.613281 229.949219 C 187.878906 226.433594 191.332031 224.390625 195.195312 222.972656 C 199.765625 221.289062 204.546875 220.734375 209.332031 220.203125 C 217.226562 219.320312 225.140625 218.671875 233.015625 217.65625 C 241.539062 216.558594 249.949219 214.808594 258.066406 211.875 C 262.457031 210.292969 266.609375 208.226562 270.449219 205.617188 C 275.125 202.433594 279.027344 198.441406 281.722656 193.378906 C 283.351562 190.332031 284.339844 187.101562 285.058594 183.714844 C 285.84375 180.035156 285.375 176.421875 285.242188 172.789062 C 285.175781 170.972656 284.53125 169.15625 283.992188 167.382812 C 282.652344 162.925781 280.609375 158.789062 277.886719 155.03125 C 276.050781 152.511719 274.019531 150.128906 272.039062 147.71875 C 269.539062 144.671875 266.816406 141.785156 264.53125 138.574219 C 262.417969 135.609375 260.621094 132.390625 258.929688 129.160156 C 253.382812 118.570312 248.84375 107.464844 242.878906 97.078125 C 239.015625 90.351562 235.121094 83.636719 230.210938 77.585938 C 230.113281 77.476562 230.023438 77.414062 229.816406 77.214844 Z M 229.816406 77.214844 " fill-opacity="1" fill-rule="nonzero"/><path fill="#bc4749" d="M 225.625 80.792969 C 225.003906 81.324219 224.492188 81.757812 223.90625 82.261719 C 224.691406 83.355469 225.445312 84.425781 226.210938 85.496094 C 234.3125 96.953125 240.066406 109.539062 244.101562 122.921875 C 246.277344 130.140625 248.03125 137.46875 249.410156 144.894531 C 250.136719 148.835938 251.132812 152.746094 252.878906 156.40625 C 254.101562 158.96875 256.042969 161 258.003906 163.015625 C 260.738281 165.8125 263.460938 168.625 265.226562 172.175781 C 265.863281 173.464844 266.195312 174.910156 266.824219 176.207031 C 267.941406 178.5 267.644531 180.996094 267.632812 183.34375 C 267.625 185.367188 266.835938 187.507812 265.933594 189.378906 C 263.921875 193.605469 260.691406 196.851562 256.835938 199.46875 C 249.625 204.367188 241.496094 206.914062 233.089844 208.691406 C 223.53125 210.714844 213.828125 211.445312 204.097656 212.046875 C 199.046875 212.359375 194 212.730469 189.027344 213.828125 C 183.257812 215.105469 178.527344 217.9375 174.984375 222.71875 C 172.746094 225.742188 170.507812 228.761719 168.097656 231.640625 C 166.53125 233.511719 164.679688 235.09375 162.574219 236.449219 C 161.164062 237.359375 159.832031 238.390625 158.222656 238.804688 C 155.023438 239.640625 151.777344 240.261719 148.421875 239.964844 C 139.429688 239.15625 131.527344 235.496094 123.964844 230.855469 C 117.246094 226.738281 111.214844 221.785156 105.820312 216.066406 C 100.40625 210.320312 95.855469 203.910156 92.125 196.941406 C 92.042969 196.789062 91.945312 196.632812 91.875 196.5 C 91.765625 196.492188 91.675781 196.453125 91.640625 196.480469 C 88.726562 198.558594 88.691406 198.585938 90.398438 201.671875 C 93.417969 207.117188 97.0625 212.136719 101.152344 216.839844 C 105.730469 222.089844 110.917969 226.632812 116.574219 230.695312 C 121.554688 234.273438 126.878906 237.277344 132.472656 239.722656 C 137.6875 241.996094 143.082031 243.878906 148.863281 244.289062 C 152.046875 244.515625 155.191406 244.550781 158.277344 243.535156 C 158.976562 243.300781 159.839844 243.464844 160.460938 243.132812 C 162.476562 242.042969 164.472656 240.902344 166.378906 239.625 C 170.75 236.691406 173.347656 232.222656 176.035156 227.917969 C 180.503906 220.769531 186.851562 216.730469 195.144531 215.804688 C 202.175781 215.023438 209.222656 214.449219 216.273438 213.816406 C 225.015625 213.035156 233.71875 211.957031 242.214844 209.699219 C 249.410156 207.785156 256.3125 205.121094 262.367188 200.679688 C 266.699219 197.496094 270.234375 193.570312 272.238281 188.488281 C 272.777344 187.121094 272.824219 185.566406 273.289062 184.152344 C 274.007812 181.953125 273.722656 179.722656 273.515625 177.546875 C 273.183594 174.019531 272.128906 170.640625 270.152344 167.636719 C 268.8125 165.605469 267.464844 163.570312 265.933594 161.675781 C 264.363281 159.734375 262.492188 158.023438 260.910156 156.089844 C 259.597656 154.492188 258.382812 152.78125 257.328125 151 C 254.984375 147.019531 253.632812 142.613281 252.292969 138.214844 C 249.9375 130.492188 247.707031 122.722656 244.667969 115.222656 C 241.414062 107.195312 237.753906 99.351562 233.222656 91.953125 C 231.074219 88.445312 228.699219 85.066406 226.40625 81.640625 C 226.210938 81.351562 225.929688 81.125 225.625 80.792969 Z M 225.625 80.792969 " fill-opacity="1" fill-rule="nonzero"/><path fill="#bc4749" d="M 221.496094 84.320312 C 221.21875 84.550781 220.984375 84.777344 220.726562 84.949219 C 220.210938 85.289062 220.257812 85.597656 220.597656 86.089844 C 222.359375 88.625 224.25 91.089844 225.777344 93.761719 C 227.945312 97.519531 229.984375 101.367188 231.8125 105.304688 C 234.625 111.382812 236.730469 117.722656 238.230469 124.261719 C 239.5625 130.023438 240.246094 135.886719 240.523438 141.765625 C 240.714844 145.734375 240.300781 149.734375 240.308594 153.71875 C 240.316406 157.054688 240.328125 160.40625 240.75 163.699219 C 241.054688 166.082031 242.375 168.183594 244.238281 169.847656 C 246.960938 172.292969 249.410156 175 251.386719 178.085938 C 251.882812 178.859375 252.023438 179.875 252.285156 180.792969 C 252.402344 181.203125 252.359375 181.664062 252.5 182.058594 C 253.519531 184.730469 252.546875 187.140625 251.386719 189.433594 C 249.515625 193.109375 246.421875 195.589844 242.917969 197.597656 C 234.546875 202.378906 225.363281 204.539062 215.90625 205.472656 C 209.222656 206.140625 202.507812 206.410156 195.800781 206.796875 C 190.691406 207.09375 185.621094 207.605469 180.695312 209.0625 C 177.230469 210.085938 174.121094 211.832031 171.46875 214.25 C 169.003906 216.496094 166.773438 218.988281 164.347656 221.28125 C 162.59375 222.933594 160.722656 224.492188 158.835938 225.992188 C 157.820312 226.800781 156.710938 227.574219 155.527344 228.085938 C 152.234375 229.515625 148.765625 229.984375 145.167969 229.742188 C 138.011719 229.257812 131.75 226.316406 125.980469 222.378906 C 122.128906 219.761719 118.480469 216.820312 114.992188 213.726562 C 111.257812 210.417969 107.878906 206.707031 105.101562 202.53125 C 102.691406 198.925781 100.476562 195.1875 98.167969 191.507812 C 98.09375 191.390625 97.996094 191.285156 97.808594 191.050781 C 97.035156 191.714844 96.261719 192.320312 95.578125 193.019531 C 95.433594 193.164062 95.558594 193.703125 95.722656 193.972656 C 97.664062 197.199219 99.523438 200.492188 101.621094 203.621094 C 104.6875 208.207031 108.308594 212.34375 112.339844 216.109375 C 117.722656 221.136719 123.605469 225.445312 130.179688 228.824219 C 133.515625 230.542969 136.941406 232.027344 140.574219 232.898438 C 144.269531 233.789062 148.054688 234.382812 151.839844 233.492188 C 153.980469 232.988281 156.199219 232.457031 158.125 231.449219 C 161.722656 229.554688 164.617188 226.730469 167.296875 223.65625 C 169.886719 220.679688 172.574219 217.757812 175.542969 215.175781 C 178.8125 212.335938 182.949219 211.175781 187.167969 210.375 C 192.984375 209.277344 198.882812 209.140625 204.765625 208.863281 C 213.386719 208.457031 221.976562 207.695312 230.410156 205.734375 C 237.125 204.167969 243.617188 201.949219 249.417969 198.109375 C 253.3125 195.527344 256.671875 192.371094 258.273438 187.859375 C 258.886719 186.125 258.886719 184.152344 259.019531 182.285156 C 259.09375 181.367188 258.949219 180.40625 258.714844 179.503906 C 258.175781 177.429688 257.4375 175.40625 256.007812 173.757812 C 253.824219 171.25 251.53125 168.839844 249.34375 166.324219 C 247.332031 164.003906 245.929688 161.351562 245.578125 158.257812 C 245.019531 153.375 244.453125 148.492188 244.085938 143.59375 C 243.402344 134.546875 241.613281 125.742188 238.761719 117.140625 C 236.179688 109.324219 232.863281 101.84375 228.671875 94.785156 C 226.648438 91.367188 224.25 88.167969 222.019531 84.875 C 221.894531 84.695312 221.695312 84.535156 221.496094 84.320312 Z M 221.496094 84.320312 " fill-opacity="1" fill-rule="nonzero"/><path fill="#bc4749" d="M 102.601562 186.871094 C 101.855469 187.542969 101.160156 188.066406 100.621094 188.714844 C 100.453125 188.917969 100.550781 189.53125 100.730469 189.835938 C 102.519531 192.867188 104.253906 195.933594 106.195312 198.863281 C 109.703125 204.167969 114.039062 208.765625 118.8125 212.945312 C 123.164062 216.75 127.875 220.058594 133.136719 222.421875 C 137.128906 224.222656 141.335938 225.515625 145.804688 225.328125 C 147.917969 225.238281 150.066406 225.058594 152.035156 224.058594 C 152.757812 223.699219 153.683594 223.726562 154.355469 223.3125 C 157.136719 221.597656 159.832031 219.753906 162.277344 217.558594 C 165.066406 215.050781 167.789062 212.441406 170.8125 210.238281 C 174.488281 207.570312 178.769531 206.03125 183.273438 205.457031 C 188.039062 204.84375 192.839844 204.429688 197.644531 204.160156 C 205.394531 203.71875 213.164062 203.613281 220.796875 201.992188 C 227.207031 200.636719 233.367188 198.621094 238.726562 194.710938 C 240.765625 193.226562 242.546875 191.445312 243.636719 189.109375 C 244.542969 187.148438 244.742188 185.152344 244.167969 182.984375 C 243.382812 180.019531 241.675781 177.714844 239.644531 175.53125 C 238.265625 174.046875 237.027344 172.4375 235.742188 170.875 C 234.238281 169.039062 233.898438 166.808594 233.960938 164.589844 C 234.03125 162.089844 234.339844 159.578125 234.75 157.105469 C 235.792969 150.9375 236.945312 144.789062 236.890625 138.511719 C 236.800781 128.964844 234.734375 119.78125 231.371094 110.878906 C 228.898438 104.316406 225.804688 98.058594 221.859375 92.25 C 220.707031 90.558594 219.574219 88.867188 218.289062 86.980469 C 217.828125 87.601562 217.503906 88.050781 217.074219 88.644531 C 217.703125 89.507812 218.484375 90.566406 219.242188 91.648438 C 222.308594 96.042969 224.84375 100.730469 227.027344 105.621094 C 230.023438 112.335938 232.214844 119.304688 233.230469 126.597656 C 234.402344 135.015625 234.050781 143.359375 231.640625 151.566406 C 230.550781 155.289062 229.445312 159.011719 228.574219 162.78125 C 227.433594 167.707031 228.691406 172.042969 232.136719 175.800781 C 233.511719 177.3125 234.96875 178.902344 235.777344 180.738281 C 236.683594 182.789062 237.90625 184.964844 237.152344 187.417969 C 236.902344 188.226562 236.585938 189.054688 236.136719 189.765625 C 234.652344 192.074219 232.546875 193.757812 230.183594 195.078125 C 224.699219 198.152344 218.730469 199.738281 212.542969 200.332031 C 205.035156 201.039062 197.5 201.355469 189.972656 201.894531 C 184.003906 202.328125 178.105469 203.152344 172.609375 205.734375 C 169.28125 207.296875 166.234375 209.277344 163.410156 211.632812 C 161.335938 213.367188 159.300781 215.175781 157.117188 216.757812 C 155.480469 217.9375 153.71875 219.078125 151.847656 219.769531 C 148.324219 221.074219 144.683594 221.53125 140.851562 220.867188 C 133.425781 219.5625 127.398438 215.695312 121.769531 210.996094 C 114.066406 204.546875 108.003906 196.789062 103.230469 187.976562 C 103.058594 187.652344 102.871094 187.347656 102.601562 186.871094 Z M 102.601562 186.871094 " fill-opacity="1" fill-rule="nonzero"/><path fill="#bc4749" d="M 214.917969 90.039062 C 214.511719 90.386719 214.1875 90.667969 213.871094 90.9375 C 214.890625 92.464844 215.886719 93.941406 216.859375 95.421875 C 222.710938 104.398438 226.625 114.117188 228.015625 124.773438 C 228.726562 130.230469 228.359375 135.652344 227.144531 141.046875 C 226.011719 146.066406 223.828125 150.597656 221.316406 155.011719 C 219.582031 158.070312 217.792969 161.125 216.847656 164.542969 C 216.21875 166.84375 216.257812 169.210938 216.859375 171.558594 C 217.496094 174.011719 218.953125 176.097656 219.886719 178.390625 C 220.949219 180.980469 222.476562 183.660156 221.183594 186.707031 C 220.183594 189.054688 218.386719 190.503906 216.183594 191.609375 C 211.128906 194.152344 205.644531 194.835938 200.125 195.375 C 193.335938 196.042969 186.519531 196.519531 179.75 197.335938 C 174.875 197.929688 170.199219 199.441406 165.839844 201.722656 C 162.414062 203.511719 159.058594 205.457031 155.679688 207.335938 C 153.933594 208.304688 152.261719 209.421875 150.445312 210.222656 C 145.886719 212.226562 141.183594 212.378906 136.410156 210.949219 C 130.898438 209.304688 126.390625 206.03125 122.265625 202.171875 C 116.601562 196.878906 111.996094 190.761719 108.320312 183.9375 C 108.167969 183.652344 107.996094 183.378906 107.824219 183.101562 C 107.753906 182.984375 107.644531 182.894531 107.4375 182.671875 C 106.871094 183.191406 106.261719 183.632812 105.828125 184.21875 C 105.65625 184.449219 105.820312 185.042969 106 185.378906 C 108.363281 189.828125 111.0625 194.070312 114.289062 197.957031 C 117.554688 201.894531 121.132812 205.527344 125.234375 208.613281 C 129.261719 211.632812 133.613281 214.113281 138.585938 215.128906 C 142.039062 215.832031 145.5 215.777344 148.972656 214.609375 C 153.089844 213.222656 156.480469 210.699219 160.003906 208.34375 C 164.402344 205.402344 168.976562 202.757812 174.074219 201.195312 C 178.246094 199.917969 182.546875 199.222656 186.898438 198.945312 C 192.707031 198.558594 198.523438 198.316406 204.324219 197.839844 C 209.628906 197.398438 214.890625 196.609375 219.835938 194.46875 C 221.894531 193.578125 223.84375 192.507812 225.472656 190.953125 C 227.675781 188.847656 228.691406 185.753906 227.351562 182.4375 C 226.363281 179.992188 225.015625 177.796875 223.683594 175.550781 C 221.6875 172.1875 220.582031 168.535156 221.804688 164.640625 C 222.765625 161.613281 223.835938 158.574219 225.210938 155.714844 C 230.785156 144.121094 232.199219 132.144531 229.105469 119.621094 C 227.261719 112.175781 224.5625 105.097656 220.617188 98.515625 C 219.035156 95.875 217.261719 93.335938 215.5625 90.757812 C 215.410156 90.542969 215.195312 90.351562 214.917969 90.039062 Z M 214.917969 90.039062 " fill-opacity="1" fill-rule="nonzero"/><path fill="#bc4749" d="M 111.519531 179.316406 C 110.925781 179.765625 110.316406 180.152344 109.839844 180.65625 C 109.667969 180.84375 109.695312 181.402344 109.839844 181.679688 C 111.878906 185.601562 114.246094 189.332031 117.03125 192.769531 C 120.53125 197.074219 124.394531 200.996094 129.144531 203.964844 C 133.621094 206.757812 138.433594 208.46875 143.765625 207.800781 C 145.96875 207.53125 148.132812 206.9375 150.230469 205.878906 C 155.769531 203.0625 161.378906 200.375 167.097656 197.957031 C 172.746094 195.566406 178.789062 194.621094 184.867188 193.929688 C 191.410156 193.183594 198.046875 193 204.449219 191.222656 C 207.191406 190.457031 209.773438 189.386719 211.886719 187.328125 C 213.675781 185.582031 214.078125 183.453125 213.757812 181.195312 C 213.511719 179.496094 212.839844 177.851562 212.28125 176.207031 C 211.777344 174.75 211.039062 173.363281 210.636719 171.878906 C 209.46875 167.609375 210.421875 163.625 212.714844 159.957031 C 214.808594 156.613281 217.074219 153.382812 219.230469 150.074219 C 223.996094 142.757812 226.039062 134.699219 225.445312 126.011719 C 225.015625 119.691406 223.367188 113.648438 220.921875 107.804688 C 218.800781 102.726562 216.085938 97.996094 212.902344 93.527344 C 212.660156 93.183594 212.398438 92.851562 212.09375 92.449219 C 211.679688 92.816406 211.328125 93.113281 210.941406 93.453125 C 211.175781 93.804688 211.390625 94.128906 211.597656 94.453125 C 213.179688 96.960938 214.917969 99.378906 216.320312 101.988281 C 219.582031 108.066406 221.9375 114.476562 222.863281 121.375 C 223.863281 128.792969 222.890625 135.886719 219.789062 142.675781 C 217.847656 146.917969 214.84375 150.472656 212.03125 154.148438 C 210.203125 156.523438 208.523438 159.03125 206.984375 161.601562 C 205.304688 164.425781 204.960938 167.589844 205.589844 170.773438 C 206.042969 173.058594 206.761719 175.289062 207.496094 177.5 C 208.59375 180.78125 207.328125 184.46875 204.332031 186.375 C 201.492188 188.183594 198.289062 189.019531 195.035156 189.566406 C 188.667969 190.636719 182.265625 191.480469 175.917969 192.632812 C 170.183594 193.675781 164.742188 195.746094 159.429688 198.117188 C 156.316406 199.503906 153.160156 200.789062 150.023438 202.121094 C 149.175781 202.480469 148.339844 202.894531 147.46875 203.164062 C 142.101562 204.800781 136.921875 204.3125 131.914062 201.761719 C 126.886719 199.199219 122.957031 195.367188 119.414062 191.078125 C 116.644531 187.722656 114.183594 184.152344 112.175781 180.289062 C 111.988281 179.964844 111.761719 179.675781 111.519531 179.316406 Z M 111.519531 179.316406 " fill-opacity="1" fill-rule="nonzero"/><path fill="#bc4749" d="M 209.3125 94.832031 C 208.9375 95.152344 208.648438 95.40625 208.316406 95.695312 C 208.566406 96.089844 208.773438 96.421875 209 96.738281 C 211.839844 100.738281 214.214844 105 215.90625 109.59375 C 218.496094 116.617188 219.617188 123.828125 217.945312 131.253906 C 216.832031 136.210938 214.734375 140.722656 211.390625 144.554688 C 208.675781 147.65625 205.796875 150.625 202.9375 153.601562 C 200.296875 156.351562 198.109375 159.410156 196.769531 162.980469 C 196.257812 164.34375 196.085938 165.902344 196.042969 167.375 C 195.980469 169.253906 196.230469 171.144531 196.292969 173.03125 C 196.355469 175.035156 196.4375 177.09375 195.351562 178.859375 C 194.316406 180.53125 192.8125 181.859375 190.953125 182.507812 C 187.84375 183.597656 184.6875 184.585938 181.503906 185.429688 C 176.78125 186.691406 171.972656 187.605469 167.296875 188.992188 C 161.558594 190.683594 155.914062 192.695312 150.230469 194.585938 C 145.265625 196.230469 140.238281 196.722656 135.175781 195.179688 C 130.898438 193.875 127.507812 191.175781 124.460938 188.011719 C 121.148438 184.578125 118.472656 180.675781 116.160156 176.511719 C 116.023438 176.269531 115.84375 176.042969 115.691406 175.820312 C 115.574219 175.847656 115.496094 175.847656 115.441406 175.882812 C 113.785156 177.058594 113.757812 177.070312 114.773438 178.886719 C 117.914062 184.515625 121.699219 189.628906 126.707031 193.75 C 129.421875 195.976562 132.382812 197.847656 135.816406 198.703125 C 138.488281 199.367188 141.210938 199.503906 144 199.082031 C 149.589844 198.246094 154.671875 195.898438 159.894531 194 C 167.351562 191.285156 175.011719 189.441406 182.824219 188.148438 C 187.140625 187.4375 191.449219 186.652344 195.558594 185 C 199.34375 183.480469 201.527344 179.882812 200.933594 175.910156 C 200.554688 173.375 200.167969 170.835938 200 168.285156 C 199.71875 164.066406 201.546875 160.507812 204.082031 157.359375 C 207.074219 153.644531 210.367188 150.175781 213.398438 146.480469 C 218.523438 140.21875 220.886719 132.957031 220.707031 124.898438 C 220.589844 119.800781 219.484375 114.871094 217.722656 110.089844 C 215.816406 104.929688 213.089844 100.226562 209.996094 95.703125 C 209.808594 95.449219 209.601562 95.207031 209.3125 94.832031 Z M 209.3125 94.832031 " fill-opacity="1" fill-rule="nonzero"/><path fill="#bc4749" d="M 120.0625 171.808594 C 119.460938 172.347656 118.964844 172.796875 118.308594 173.390625 C 119.757812 175.566406 121.113281 177.761719 122.632812 179.828125 C 125.324219 183.496094 128.578125 186.574219 132.675781 188.613281 C 135.492188 190.027344 138.511719 190.808594 141.695312 190.582031 C 144.25 190.402344 146.847656 190.304688 149.347656 189.78125 C 152.46875 189.136719 155.5 188.109375 158.566406 187.230469 C 165.011719 185.378906 171.46875 183.542969 177.90625 181.628906 C 180.628906 180.816406 183.28125 179.765625 185.53125 177.96875 C 188.5625 175.53125 188.921875 172.085938 189.109375 168.507812 C 189.207031 166.546875 189.613281 164.542969 190.234375 162.671875 C 192.222656 156.71875 196.691406 152.636719 201.1875 148.582031 C 205.140625 145.023438 208.992188 141.378906 211.742188 136.722656 C 214.027344 132.847656 215.160156 128.675781 215.355469 124.242188 C 215.617188 118.261719 214.519531 112.507812 211.859375 107.148438 C 210.320312 104.039062 208.46875 101.078125 206.75 98.058594 C 206.632812 97.851562 206.4375 97.691406 206.222656 97.445312 C 205.925781 97.714844 205.664062 97.949219 205.367188 98.230469 C 205.589844 98.589844 205.78125 98.921875 205.996094 99.246094 C 208.054688 102.238281 209.84375 105.378906 211.113281 108.785156 C 213.847656 116.113281 214.671875 123.539062 211.875 131.074219 C 210.230469 135.519531 207.535156 139.242188 204.097656 142.441406 C 200.84375 145.480469 197.488281 148.410156 194.234375 151.453125 C 191.421875 154.078125 188.949219 157.054688 187.457031 160.605469 C 186.457031 162.980469 185.820312 165.550781 185.394531 168.09375 C 184.757812 171.953125 183.238281 175.136719 179.75 177.113281 C 178.285156 177.941406 176.765625 178.742188 175.171875 179.261719 C 168.769531 181.382812 162.359375 183.480469 155.902344 185.429688 C 151.757812 186.679688 147.53125 187.734375 143.171875 187.867188 C 138.074219 188.019531 133.460938 186.527344 129.414062 183.355469 C 125.851562 180.558594 123.21875 177.003906 120.890625 173.183594 C 120.664062 172.78125 120.414062 172.382812 120.0625 171.808594 Z M 120.0625 171.808594 " fill-opacity="1" fill-rule="nonzero"/><path fill="#bc4749" d="M 123.695312 168.886719 C 123.53125 168.949219 123.460938 168.957031 123.40625 168.992188 C 122.101562 170.039062 122.113281 170.039062 123.011719 171.476562 C 125.753906 175.835938 129.144531 179.59375 133.792969 181.90625 C 135.742188 182.867188 137.992188 183.34375 140.160156 183.703125 C 146.046875 184.675781 151.714844 183.226562 157.296875 181.628906 C 162.089844 180.25 166.828125 178.667969 171.503906 176.941406 C 175 175.648438 178.078125 173.589844 179.6875 170.027344 C 180.496094 168.246094 180.972656 166.316406 181.53125 164.425781 C 183.078125 159.246094 185.910156 154.851562 189.875 151.234375 C 193.6875 147.746094 197.707031 144.484375 201.527344 141.003906 C 206.15625 136.785156 209.746094 131.886719 210.871094 125.511719 C 211.761719 120.4375 211.195312 115.492188 209.65625 110.628906 C 208.460938 106.859375 206.527344 103.460938 204.386719 100.171875 C 204.25 99.964844 204.097656 99.777344 203.957031 99.570312 C 203.082031 99.902344 203.066406 100.351562 203.53125 101.050781 C 205.796875 104.40625 207.585938 107.996094 208.621094 111.914062 C 210.816406 120.222656 209.699219 127.945312 204.433594 134.878906 C 201.851562 138.277344 198.488281 140.894531 195.269531 143.664062 C 191.898438 146.558594 188.453125 149.410156 185.351562 152.59375 C 182.625 155.390625 180.566406 158.753906 179.183594 162.476562 C 178.472656 164.382812 177.746094 166.289062 176.828125 168.09375 C 175.363281 170.980469 172.933594 172.941406 170.09375 174.390625 C 164.230469 177.390625 158 179.363281 151.578125 180.648438 C 148.683594 181.230469 145.679688 181.601562 142.730469 181.566406 C 137.171875 181.492188 132.425781 179.21875 128.632812 175.164062 C 127.050781 173.472656 125.734375 171.511719 124.296875 169.675781 C 124.109375 169.417969 123.894531 169.136719 123.695312 168.886719 Z M 123.695312 168.886719 " fill-opacity="1" fill-rule="nonzero"/></svg>