<svg xmlns="http://www.w3.org/2000/svg" xmlns:xlink="http://www.w3.org/1999/xlink" width="1366" zoomAndPan="magnify" viewBox="0 0 1024.5 576" height="768" preserveAspectRatio="xMidYMid meet" version="1.0"><defs><clipPath id="a23981896a"><path d="M 588 342.378906 L 1023 342.378906 L 1023 575.515625 L 588 575.515625 Z M 588 342.378906 " clip-rule="nonzero"/></clipPath><clipPath id="1461279f52"><path d="M 606 354 L 1011 354 L 1011 575.515625 L 606 575.515625 Z M 606 354 " clip-rule="nonzero"/></clipPath><clipPath id="0a634c168d"><path d="M 627 365 L 1001 365 L 1001 575.515625 L 627 575.515625 Z M 627 365 " clip-rule="nonzero"/></clipPath><clipPath id="f756e133f7"><path d="M 651 374 L 991 374 L 991 575.515625 L 651 575.515625 Z M 651 374 " clip-rule="nonzero"/></clipPath><clipPath id="a595789bf5"><path d="M 679 381 L 982 381 L 982 575.515625 L 679 575.515625 Z M 679 381 " clip-rule="nonzero"/></clipPath><clipPath id="a456215a10"><path d="M 705 388 L 972 388 L 972 575.515625 L 705 575.515625 Z M 705 388 " clip-rule="nonzero"/></clipPath><clipPath id="2d251c2e3f"><path d="M 719 394 L 965 394 L 965 575.515625 L 719 575.515625 Z M 719 394 " clip-rule="nonzero"/></clipPath><clipPath id="e6aadd2ec9"><path d="M 729 400 L 955 400 L 955 575.515625 L 729 575.515625 Z M 729 400 " clip-rule="nonzero"/></clipPath><clipPath id="a9fb94fe63"><path d="M 739 406 L 947 406 L 947 575.515625 L 739 575.515625 Z M 739 406 " clip-rule="nonzero"/></clipPath><clipPath id="f7c5c2559c"><path d="M 748 413 L 938 413 L 938 575.515625 L 748 575.515625 Z M 748 413 " clip-rule="nonzero"/></clipPath><clipPath id="6194aa4cf7"><path d="M 758 420 L 929 420 L 929 575.515625 L 758 575.515625 Z M 758 420 " clip-rule="nonzero"/></clipPath><clipPath id="020277d917"><path d="M 766 427 L 920 427 L 920 575.515625 L 766 575.515625 Z M 766 427 " clip-rule="nonzero"/></clipPath><clipPath id="836eaabc1e"><path d="M 0 0.140625 L 180 0.140625 L 180 164.675781 L 0 164.675781 Z M 0 0.140625 " clip-rule="nonzero"/></clipPath><clipPath id="ccd7af49a2"><path d="M 0 0.140625 L 172 0.140625 L 172 153 L 0 153 Z M 0 0.140625 " clip-rule="nonzero"/></clipPath><clipPath id="69004f678f"><path d="M 0 0.140625 L 162 0.140625 L 162 142 L 0 142 Z M 0 0.140625 " clip-rule="nonzero"/></clipPath><clipPath id="584b66e0f0"><path d="M 0 0.140625 L 151 0.140625 L 151 131 L 0 131 Z M 0 0.140625 " clip-rule="nonzero"/></clipPath><clipPath id="2f4d750bf0"><path d="M 0 0.140625 L 140 0.140625 L 140 122 L 0 122 Z M 0 0.140625 " clip-rule="nonzero"/></clipPath><clipPath id="f3143da868"><path d="M 0 0.140625 L 125 0.140625 L 125 111 L 0 111 Z M 0 0.140625 " clip-rule="nonzero"/></clipPath><clipPath id="af0153a0e6"><path d="M 0 0.140625 L 110 0.140625 L 110 103 L 0 103 Z M 0 0.140625 " clip-rule="nonzero"/></clipPath><clipPath id="385c27f334"><path d="M 0 0.140625 L 97 0.140625 L 97 93 L 0 93 Z M 0 0.140625 " clip-rule="nonzero"/></clipPath><clipPath id="c9c45b2a17"><path d="M 0 0.140625 L 91 0.140625 L 91 85 L 0 85 Z M 0 0.140625 " clip-rule="nonzero"/></clipPath><clipPath id="4843289ecf"><path d="M 0 0.140625 L 87 0.140625 L 87 77 L 0 77 Z M 0 0.140625 " clip-rule="nonzero"/></clipPath><clipPath id="0511bc363c"><path d="M 0 0.140625 L 81 0.140625 L 81 68 L 0 68 Z M 0 0.140625 " clip-rule="nonzero"/></clipPath><clipPath id="71b4bf7a2c"><path d="M 0 0.140625 L 77 0.140625 L 77 61 L 0 61 Z M 0 0.140625 " clip-rule="nonzero"/></clipPath></defs><g clip-path="url(#a23981896a)"><path fill="#bc4749" d="M 1015.914062 574.980469 C 1016.234375 572.457031 1016.566406 570.171875 1016.800781 567.882812 C 1017.121094 564.75 1017.496094 561.617188 1017.632812 558.46875 C 1017.773438 555.320312 1017.773438 552.160156 1017.621094 549.011719 C 1017.398438 544.660156 1017.191406 540.277344 1016.609375 535.96875 C 1015.042969 524.347656 1011.3125 513.382812 1005.074219 503.46875 C 1002.0625 498.6875 998.222656 494.402344 994.550781 490.074219 C 992.566406 487.734375 990.15625 485.738281 987.882812 483.644531 C 984.082031 480.148438 979.867188 477.238281 975.25 474.910156 C 972.394531 473.464844 969.582031 471.898438 966.628906 470.695312 C 963.519531 469.433594 960.304688 468.28125 957.046875 467.546875 C 951.765625 466.367188 946.441406 465.160156 941.074219 464.703125 C 929.984375 463.746094 918.976562 464.789062 908.007812 466.742188 C 900.992188 467.988281 893.867188 468.753906 886.769531 469.402344 C 882.304688 469.804688 877.757812 469.460938 873.542969 467.710938 C 866.707031 464.882812 862.992188 459.558594 861.980469 452.296875 C 860.632812 442.671875 861.328125 433.050781 861.796875 423.417969 C 862.296875 413.351562 863.324219 403.285156 861.980469 393.191406 C 860.414062 381.449219 855.253906 372.007812 844.910156 365.699219 C 838.480469 361.773438 831.476562 359.210938 824.378906 356.839844 C 820.234375 355.453125 816.074219 354.09375 811.859375 352.957031 C 807.851562 351.875 803.804688 350.945312 799.714844 350.253906 C 794.707031 349.394531 789.664062 348.605469 784.601562 348.214844 C 779.582031 347.828125 774.535156 348.078125 769.503906 347.867188 C 762.417969 347.578125 755.527344 349.046875 748.554688 349.894531 C 739.542969 350.988281 731.113281 354.039062 722.808594 357.324219 C 717.402344 359.472656 712.242188 362.453125 707.320312 365.601562 C 700.320312 370.050781 693.902344 375.308594 688.1875 381.40625 C 681.757812 388.269531 676.140625 395.742188 671.691406 403.992188 C 664.910156 416.496094 660.777344 429.917969 659.296875 444.085938 C 658.351562 453.15625 658.269531 462.25 659.296875 471.316406 C 660.101562 478.304688 661.027344 485.277344 661.875 492.253906 C 662.46875 497.132812 663.261719 502.011719 662.625 506.976562 C 661.984375 511.914062 659.378906 515.433594 654.652344 516.738281 C 650.046875 518.011719 645.25 518.664062 640.523438 519.511719 C 634.8125 520.523438 629.015625 521.1875 623.375 522.476562 C 618.0625 523.695312 613.375 526.34375 609.121094 529.894531 C 605.738281 532.707031 603.171875 536.105469 601.273438 539.890625 C 599.734375 542.96875 598.945312 546.449219 597.917969 549.777344 C 595.464844 557.691406 596.269531 565.746094 595.867188 573.761719 C 595.8125 574.980469 595.449219 575.4375 594.203125 575.371094 C 592.707031 575.273438 591.207031 575.300781 589.710938 575.371094 C 588.644531 575.410156 588.199219 575.050781 588.214844 573.957031 C 588.269531 567.023438 588.074219 560.078125 588.394531 553.160156 C 588.558594 549.691406 589.640625 546.269531 590.320312 542.828125 C 590.707031 540.902344 591.015625 538.949219 591.554688 537.0625 C 591.96875 535.605469 592.609375 534.21875 593.246094 532.847656 C 594.132812 530.976562 595.007812 529.078125 596.089844 527.316406 C 599.136719 522.367188 603.160156 518.429688 608.179688 515.378906 C 613.929688 511.871094 620.335938 510.527344 626.714844 509 C 631.011719 507.976562 635.421875 507.421875 639.734375 506.421875 C 646.597656 504.855469 650.382812 500.253906 651.046875 493.417969 C 651.585938 487.816406 651.574219 482.144531 651.644531 476.488281 C 651.738281 467.476562 651.15625 458.464844 652.128906 449.441406 C 653.597656 435.8125 656.925781 422.710938 662.441406 410.191406 C 665.367188 403.546875 668.875 397.171875 673.328125 391.402344 C 677.207031 386.371094 681.089844 381.296875 685.472656 376.722656 C 689.230469 372.785156 693.554688 369.332031 697.878906 366.019531 C 701.734375 363.066406 705.796875 360.332031 710.027344 357.960938 C 714.253906 355.589844 718.761719 353.707031 723.222656 351.75 C 737.101562 345.691406 751.882812 343.777344 766.785156 342.738281 C 772.164062 342.363281 777.613281 342.878906 783.019531 343.15625 C 786.945312 343.347656 790.867188 343.65625 794.75 344.222656 C 799.171875 344.859375 803.582031 345.691406 807.9375 346.71875 C 812.996094 347.910156 818.027344 349.242188 822.976562 350.808594 C 832.433594 353.789062 841.777344 357.160156 850.386719 362.136719 C 859.636719 367.488281 865.292969 375.625 867.800781 385.996094 C 869.8125 394.285156 869.5625 402.703125 869.394531 411.132812 C 869.214844 419.601562 869.242188 428.0625 869.1875 436.53125 C 869.160156 440.539062 869.589844 444.476562 870.921875 448.300781 C 872.15625 451.867188 874.609375 454.332031 877.730469 456.136719 C 883.484375 459.464844 889.875 459.628906 896.238281 459.285156 C 904.585938 458.839844 912.917969 457.910156 921.261719 457.5625 C 930.941406 457.160156 940.589844 457.523438 950.171875 459.449219 C 956.449219 460.710938 962.566406 462.390625 968.402344 464.914062 C 972.839844 466.839844 977.121094 469.210938 981.238281 471.761719 C 985.023438 474.105469 988.726562 476.695312 992.082031 479.609375 C 995.242188 482.339844 997.863281 485.695312 1000.804688 488.703125 C 1004.753906 492.75 1007.304688 497.769531 1010.398438 502.414062 C 1014.554688 508.667969 1017.121094 515.542969 1019.0625 522.644531 C 1020.558594 528.121094 1021.628906 533.789062 1022.222656 539.445312 C 1023.054688 547.265625 1023.195312 555.140625 1022.488281 563.003906 C 1022.152344 566.691406 1021.585938 570.363281 1021.058594 574.023438 C 1021.003906 574.386719 1020.503906 574.925781 1020.183594 574.941406 C 1018.8125 575.035156 1017.441406 574.980469 1015.914062 574.980469 Z M 1015.914062 574.980469 " fill-opacity="1" fill-rule="nonzero"/></g><g clip-path="url(#1461279f52)"><path fill="#bc4749" d="M 1004.726562 574.980469 C 1005.074219 572.554688 1005.378906 570.363281 1005.683594 568.1875 C 1006.890625 559.523438 1006.972656 550.828125 1005.878906 542.164062 C 1005.378906 538.226562 1004.449219 534.316406 1003.480469 530.460938 C 1001.523438 522.710938 998.308594 515.476562 993.800781 508.875 C 989.019531 501.875 983.222656 495.914062 976.179688 491.074219 C 968.625 485.875 960.386719 482.339844 951.472656 480.566406 C 943.417969 478.957031 935.210938 478.25 927.03125 479.707031 C 919.835938 480.980469 912.679688 482.4375 905.527344 483.90625 C 897.941406 485.472656 890.441406 487.511719 882.789062 488.660156 C 875.386719 489.785156 868.132812 488.730469 861.964844 483.933594 C 857.320312 480.328125 854.339844 475.546875 852.566406 469.929688 C 850.886719 464.621094 850.386719 459.144531 850.386719 453.667969 C 850.402344 443.535156 850.691406 433.382812 850.957031 423.25 C 851.164062 415.542969 851.648438 407.847656 850.625 400.164062 C 849.183594 389.449219 845.105469 380.105469 835.816406 373.949219 C 831.976562 371.410156 827.652344 369.484375 823.324219 367.832031 C 815.296875 364.785156 807.074219 362.191406 798.5625 360.902344 C 792.171875 359.929688 785.710938 359.097656 779.265625 358.808594 C 772.984375 358.515625 766.660156 358.835938 760.367188 359.128906 C 752.007812 359.527344 743.894531 361.621094 736.007812 364.117188 C 728.214844 366.570312 720.644531 369.871094 713.839844 374.570312 C 710.648438 376.761719 707.335938 378.84375 704.453125 381.394531 C 700.445312 384.929688 696.632812 388.726562 692.984375 392.664062 C 688.214844 397.808594 684.347656 403.632812 681.214844 409.898438 C 676.292969 419.726562 672.882812 430.015625 671.664062 441.023438 C 670.011719 455.898438 671.871094 470.359375 676.613281 484.445312 C 679.414062 492.792969 682.699219 500.960938 685.625 509.265625 C 687.289062 513.964844 688.8125 518.71875 688.589844 523.835938 C 688.410156 528.175781 684.792969 532.902344 680.785156 534.523438 C 675.460938 536.675781 669.832031 537.214844 664.273438 538.15625 C 657.894531 539.238281 651.433594 539.933594 645.085938 541.136719 C 638.109375 542.46875 631.277344 544.425781 625.742188 549.222656 C 623 551.59375 620.585938 554.210938 618.714844 557.484375 C 615.898438 562.40625 615.316406 567.828125 614.140625 573.136719 C 613.765625 574.800781 613.238281 575.550781 611.464844 575.339844 C 610.203125 575.1875 608.914062 575.257812 607.636719 575.328125 C 606.554688 575.382812 606.054688 574.953125 606.210938 573.886719 C 606.984375 568.339844 607.195312 562.640625 608.691406 557.304688 C 611.0625 548.859375 616.246094 542.039062 624.109375 537.992188 C 628.308594 535.828125 633.148438 534.746094 637.804688 533.625 C 642.199219 532.570312 646.734375 532.058594 651.210938 531.390625 C 654.386719 530.921875 657.578125 530.644531 660.75 530.171875 C 665.589844 529.464844 670.402344 528.578125 674.242188 525.207031 C 676.042969 523.628906 676.917969 521.519531 677.304688 519.148438 C 678.027344 514.921875 677.179688 510.898438 676.070312 506.867188 C 673.535156 497.6875 670.886719 488.535156 668.597656 479.289062 C 665.546875 466.949219 665.007812 454.417969 666.503906 441.800781 C 668.113281 428.171875 672.410156 415.386719 679.46875 403.660156 C 682.503906 398.613281 686.125 393.828125 690.019531 389.40625 C 694.066406 384.816406 698.53125 380.535156 703.230469 376.609375 C 706.863281 373.585938 711.066406 371.214844 715.140625 368.761719 C 727.648438 361.207031 741.511719 357.476562 755.777344 355.398438 C 765.191406 354.023438 774.714844 353.871094 784.269531 354.730469 C 793.847656 355.589844 803.320312 357.089844 812.496094 359.820312 C 820.121094 362.09375 827.761719 364.632812 834.957031 368 C 847.394531 373.808594 853.578125 384.289062 855.226562 397.765625 C 856.15625 405.421875 855.671875 413.046875 855.335938 420.683594 C 854.785156 433.523438 853.589844 446.390625 855.226562 459.214844 C 856.101562 466.007812 858.625 472.246094 864.53125 476.417969 C 868.46875 479.207031 872.917969 480.539062 877.757812 480.691406 C 885.355469 480.925781 892.742188 479.609375 900.121094 477.972656 C 910.726562 475.617188 921.359375 473.535156 932.285156 473.21875 C 940.382812 472.980469 948.339844 473.660156 956.117188 475.835938 C 963.0625 477.777344 969.636719 480.621094 975.792969 484.488281 C 983.445312 489.3125 989.65625 495.484375 995.117188 502.664062 C 999.234375 508.070312 1002.660156 513.8125 1004.878906 520.148438 C 1007.015625 526.234375 1008.953125 532.417969 1009.898438 538.90625 C 1011.117188 547.308594 1011.078125 555.683594 1010.371094 564.097656 C 1010.121094 567.023438 1009.605469 569.921875 1009.34375 572.847656 C 1009.175781 574.59375 1008.402344 575.285156 1006.679688 575.007812 C 1006.15625 574.910156 1005.601562 574.980469 1004.726562 574.980469 Z M 1004.726562 574.980469 " fill-opacity="1" fill-rule="nonzero"/></g><g clip-path="url(#0a634c168d)"><path fill="#bc4749" d="M 994.507812 574.816406 C 994.910156 571.695312 995.410156 568.699219 995.660156 565.679688 C 996.1875 559.4375 996.253906 553.214844 995.285156 546.960938 C 994.398438 541.304688 992.871094 535.882812 991.015625 530.460938 C 988.824219 524.015625 985.414062 518.359375 981.101562 513.328125 C 977.898438 509.582031 974.085938 506.214844 970.050781 503.386719 C 963.398438 498.742188 955.894531 496.050781 947.757812 494.75 C 937.832031 493.167969 928.207031 494.25 918.640625 496.566406 C 911.320312 498.339844 904.125 500.585938 896.832031 502.441406 C 890.375 504.09375 883.84375 505.242188 877.117188 504.648438 C 862.769531 503.371094 852.980469 495.855469 847.226562 482.839844 C 844.261719 476.140625 843 469.015625 842.75 461.804688 C 842.277344 447.957031 842.234375 434.089844 841.972656 420.242188 C 841.832031 413.128906 841.25 406.070312 839.144531 399.222656 C 836.082031 389.226562 829.730469 382.183594 820.21875 377.953125 C 812.941406 374.710938 805.289062 372.671875 797.441406 371.4375 C 791.214844 370.453125 784.960938 369.59375 778.683594 369.191406 C 772 368.761719 765.300781 369.191406 758.648438 370.148438 C 749.496094 371.453125 740.722656 373.90625 732.167969 377.441406 C 724.957031 380.410156 718.511719 384.554688 712.4375 389.242188 C 707.058594 393.386719 702.289062 398.347656 698.324219 403.910156 C 694.164062 409.730469 690.738281 415.929688 688.3125 422.738281 C 685.5 430.640625 683.820312 438.707031 683.726562 447.082031 C 683.628906 456.300781 685.082031 465.285156 688.160156 474.007812 C 691.542969 483.613281 696.132812 492.613281 701.359375 501.347656 C 704.644531 506.851562 707.75 512.496094 710.539062 518.277344 C 713.046875 523.476562 713.949219 529.0625 712.160156 534.761719 C 710.941406 538.644531 708.402344 541.609375 705.214844 544.0625 C 700.804688 547.460938 695.59375 549.054688 690.339844 550.414062 C 680.8125 552.894531 671.191406 555.042969 661.679688 557.59375 C 657.5625 558.703125 653.5 560.230469 649.644531 562.046875 C 647.234375 563.183594 645.390625 565.441406 643.0625 566.816406 C 640.011719 568.617188 638.984375 571.777344 637.167969 574.425781 C 636.890625 574.828125 636.351562 575.273438 635.90625 575.285156 C 633.035156 575.355469 630.167969 575.328125 627.035156 575.328125 C 627.214844 574.648438 627.28125 574.121094 627.476562 573.648438 C 628.515625 571.140625 629.445312 568.5625 630.722656 566.175781 C 631.527344 564.667969 632.746094 563.308594 634.007812 562.128906 C 635.738281 560.492188 637.597656 558.941406 639.582031 557.609375 C 643.324219 555.113281 647.496094 553.464844 651.851562 552.480469 C 661.667969 550.273438 671.566406 548.363281 681.394531 546.183594 C 686.191406 545.132812 691.046875 544.078125 695.355469 541.511719 C 700.183594 538.65625 703.289062 534.550781 703.675781 528.882812 C 703.9375 525.042969 703.289062 521.203125 701.679688 517.679688 C 698.933594 511.691406 696.078125 505.757812 693.097656 499.878906 C 688.273438 490.382812 683.613281 480.84375 681.1875 470.359375 C 678.429688 458.492188 677.832031 446.554688 680.1875 434.5625 C 681.839844 426.148438 684.625 418.121094 688.894531 410.648438 C 693.097656 403.296875 698.183594 396.726562 704.3125 390.835938 C 714.851562 380.726562 727.371094 374.265625 741.082031 369.871094 C 749.511719 367.167969 758.203125 365.976562 767.023438 365.394531 C 775.964844 364.796875 784.851562 365.253906 793.667969 366.65625 C 804.136719 368.320312 814.4375 370.828125 824.144531 375.152344 C 835.566406 380.257812 841.917969 389.40625 844.164062 401.566406 C 845.828125 410.578125 845.578125 419.671875 845.382812 428.753906 C 845.105469 442.4375 844.425781 456.164062 846.894531 469.738281 C 848.667969 479.511719 852.925781 487.953125 861.464844 493.609375 C 866.929688 497.230469 873.054688 498.699219 879.601562 498.601562 C 885.699219 498.519531 891.578125 497.214844 897.417969 495.675781 C 902.988281 494.207031 908.523438 492.585938 914.109375 491.183594 C 923.828125 488.746094 933.671875 487.304688 943.722656 488.21875 C 949.503906 488.746094 955.160156 489.964844 960.625 492.113281 C 966.433594 494.402344 971.839844 497.3125 976.402344 501.582031 C 979.175781 504.175781 981.640625 507.085938 984.414062 509.679688 C 987.910156 512.925781 990.363281 516.929688 992.191406 521.160156 C 994.523438 526.511719 996.3125 532.113281 997.972656 537.714844 C 998.988281 541.136719 999.582031 544.742188 999.875 548.304688 C 1000.21875 552.589844 1000.191406 556.929688 1000.054688 561.242188 C 999.957031 564.609375 999.527344 567.980469 999.097656 571.320312 C 998.542969 575.535156 998.777344 575.175781 994.507812 574.816406 Z M 994.507812 574.816406 " fill-opacity="1" fill-rule="nonzero"/></g><g clip-path="url(#f756e133f7)"><path fill="#bc4749" d="M 651.585938 574.789062 C 652.722656 573.816406 653.820312 572.777344 655.011719 571.890625 C 656.371094 570.878906 657.757812 569.894531 659.253906 569.101562 C 662.070312 567.621094 664.871094 566.066406 667.835938 564.957031 C 672.078125 563.363281 676.460938 562.144531 680.785156 560.757812 C 688.0625 558.441406 695.371094 556.195312 702.636719 553.796875 C 709.375 551.566406 715.15625 547.875 719.328125 542.011719 C 723.042969 536.785156 723.945312 530.960938 722.585938 524.75 C 721.285156 518.746094 718.386719 513.480469 715.058594 508.40625 C 710.855469 502.011719 706.585938 495.675781 702.496094 489.214844 C 696.3125 479.441406 692.125 468.820312 690.558594 457.371094 C 688.730469 444.019531 690.367188 431.097656 696.203125 418.773438 C 699.417969 411.992188 703.441406 405.835938 708.542969 400.386719 C 717.484375 390.863281 728.394531 384.261719 740.539062 379.769531 C 748.445312 376.847656 756.679688 375.113281 765.148438 374.488281 C 773.816406 373.835938 782.4375 373.949219 791.007812 375.222656 C 800.117188 376.570312 809.15625 378.328125 817.558594 382.335938 C 825.847656 386.289062 831.378906 392.734375 834.5 401.289062 C 836.621094 407.125 837.605469 413.210938 837.800781 419.382812 C 838.144531 429.792969 838.257812 440.21875 838.617188 450.644531 C 838.921875 459.519531 839.53125 468.378906 841.570312 477.058594 C 844.09375 487.773438 849.015625 497.089844 858.167969 503.71875 C 864.292969 508.15625 871.199219 510.414062 878.742188 510.96875 C 888.128906 511.664062 897.109375 509.570312 906.136719 507.449219 C 914.054688 505.589844 922.011719 503.828125 930.039062 502.511719 C 937.46875 501.292969 944.929688 501.75 952.25 503.855469 C 957.171875 505.269531 961.816406 507.253906 966.101562 510.039062 C 967.722656 511.09375 969.332031 512.21875 970.703125 513.546875 C 975.320312 518.039062 979.839844 522.683594 982.652344 528.550781 C 985.648438 534.789062 988.1875 541.207031 989.183594 548.179688 C 990.363281 556.417969 990.320312 564.625 989.058594 572.832031 C 988.683594 575.273438 988.644531 575.257812 985.289062 574.789062 C 985.414062 573.359375 985.621094 571.902344 985.664062 570.449219 C 985.773438 564.859375 986.203125 559.257812 985.800781 553.699219 C 985.425781 548.542969 984.097656 543.480469 982.28125 538.546875 C 980.324219 533.277344 977.773438 528.382812 974.140625 524.167969 C 971.6875 521.3125 968.734375 518.84375 965.824219 516.417969 C 960.109375 511.636719 953.289062 509.195312 946.082031 508.042969 C 940.175781 507.101562 934.144531 506.960938 928.207031 508.101562 C 918.046875 510.054688 907.925781 512.316406 897.75 514.214844 C 888.292969 515.988281 878.796875 516.375 869.453125 513.453125 C 856.460938 509.390625 847.863281 500.585938 842.597656 488.261719 C 839.449219 480.882812 837.980469 473.066406 837.410156 465.148438 C 836.59375 453.542969 836.328125 441.898438 835.539062 430.277344 C 835.054688 423.222656 834.554688 416.082031 833.140625 409.164062 C 830.089844 394.34375 820.539062 385.429688 806.078125 381.613281 C 794.652344 378.605469 783.0625 376.886719 771.222656 377.414062 C 762.183594 377.832031 753.324219 379.203125 744.628906 381.960938 C 738.640625 383.859375 733.039062 386.523438 727.730469 389.644531 C 722.085938 392.96875 716.945312 397.117188 712.339844 401.941406 C 707.03125 407.515625 702.914062 413.808594 699.78125 420.753906 C 697.089844 426.730469 695.382812 432.996094 694.761719 439.609375 C 694.246094 445.128906 694.246094 450.535156 695.136719 455.996094 C 696.464844 464.121094 699.085938 471.789062 702.914062 479.054688 C 707.433594 487.609375 713.007812 495.441406 718.648438 503.273438 C 721.714844 507.53125 724.542969 512.039062 726.871094 516.722656 C 730.378906 523.808594 731.613281 531.335938 728.242188 538.890625 C 725.332031 545.421875 720.589844 550.496094 714.128906 553.574219 C 708.332031 556.332031 702.371094 558.746094 696.382812 561.046875 C 690.808594 563.195312 685.070312 564.914062 679.46875 566.996094 C 675.917969 568.3125 672.4375 569.878906 669 571.488281 C 666.867188 572.484375 664.882812 573.789062 662.832031 574.941406 C 662.59375 575.078125 662.332031 575.230469 662.070312 575.230469 C 658.65625 575.246094 655.246094 575.246094 651.835938 575.246094 C 651.765625 575.121094 651.683594 574.953125 651.585938 574.789062 Z M 651.585938 574.789062 " fill-opacity="1" fill-rule="nonzero"/></g><g clip-path="url(#a595789bf5)"><path fill="#bc4749" d="M 679.066406 574.773438 C 683.890625 572.695312 688.730469 570.613281 693.554688 568.519531 C 701.664062 564.984375 709.914062 561.726562 717.84375 557.816406 C 724.054688 554.765625 729.324219 550.332031 733.152344 544.367188 C 737.742188 537.242188 738.542969 529.644531 736.257812 521.589844 C 734.273438 514.589844 730.53125 508.542969 726.273438 502.761719 C 720.921875 495.496094 715.253906 488.425781 710.386719 480.84375 C 702.09375 467.921875 698.296875 453.683594 700.125 438.238281 C 700.792969 432.609375 702.371094 427.214844 704.703125 422.015625 C 707.40625 416 711.039062 410.6875 715.40625 405.765625 C 722.476562 397.808594 731.140625 392.082031 740.761719 387.949219 C 750.164062 383.902344 760.117188 381.824219 770.417969 381.394531 C 782.828125 380.867188 794.972656 382.183594 806.828125 385.84375 C 817.902344 389.269531 825.335938 396.589844 829.148438 407.570312 C 831.199219 413.488281 832.101562 419.632812 832.515625 425.828125 C 833.195312 435.949219 833.527344 446.085938 834.265625 456.191406 C 835.039062 466.910156 836.148438 477.613281 839.90625 487.800781 C 845.1875 502.152344 854.671875 512.398438 869.425781 517.207031 C 877.507812 519.84375 885.882812 520.273438 894.253906 519.09375 C 903.183594 517.832031 912.085938 516.25 920.984375 514.78125 C 928.777344 513.492188 936.609375 512.839844 944.457031 514.0625 C 949.921875 514.90625 955.132812 516.527344 959.875 519.636719 C 963.230469 521.839844 966.140625 524.402344 968.957031 527.246094 C 971.660156 529.976562 973.949219 532.957031 975.515625 536.355469 C 977.953125 541.664062 980.074219 547.085938 980.992188 552.980469 C 982.015625 559.550781 981.945312 566.050781 981.296875 572.609375 C 981.058594 575.035156 980.894531 575.160156 977.316406 574.882812 C 977.316406 574.328125 977.261719 573.734375 977.332031 573.164062 C 978.007812 567.425781 978.066406 561.714844 977.121094 555.972656 C 975.734375 547.585938 973.019531 539.738281 967.527344 533.167969 C 964.796875 529.894531 961.566406 527.050781 957.835938 524.792969 C 948.242188 518.984375 937.761719 518.054688 926.976562 519.066406 C 920.417969 519.691406 913.914062 520.785156 907.382812 521.671875 C 897.265625 523.058594 887.15625 524.28125 876.953125 522.519531 C 861.605469 519.882812 850.125 511.773438 842.359375 498.324219 C 838.0625 490.878906 835.898438 482.726562 834.445312 474.324219 C 832.390625 462.570312 831.808594 450.671875 831.046875 438.792969 C 830.464844 429.722656 829.882812 420.671875 827.222656 411.867188 C 823.492188 399.484375 815.464844 391.554688 803.097656 387.964844 C 796.316406 385.996094 789.355469 385.09375 782.328125 384.582031 C 774.714844 384.027344 767.148438 384.402344 759.6875 385.800781 C 755.417969 386.605469 751.246094 388.019531 747.058594 389.226562 C 740.914062 390.988281 735.398438 394.191406 730.226562 397.726562 C 725.527344 400.929688 721.007812 404.601562 717.609375 409.371094 C 716.265625 411.257812 714.710938 412.988281 713.410156 414.917969 C 709.027344 421.363281 706.394531 428.460938 705.089844 436.183594 C 703.453125 445.808594 704.660156 455.054688 707.917969 464.121094 C 710.179688 470.417969 713.351562 476.265625 717.277344 481.675781 C 721.65625 487.71875 726.300781 493.570312 730.765625 499.558594 C 736.296875 506.992188 741.027344 514.824219 742.773438 524.125 C 744.535156 533.511719 742.414062 541.816406 736.089844 549.011719 C 730.960938 554.851562 724.695312 559.175781 717.761719 562.558594 C 711.550781 565.582031 705.242188 568.394531 698.988281 571.335938 C 696.550781 572.484375 694.152344 573.746094 691.738281 574.941406 C 691.445312 575.078125 691.128906 575.273438 690.824219 575.273438 C 686.96875 575.300781 683.101562 575.285156 679.246094 575.285156 C 679.148438 575.121094 679.109375 574.953125 679.066406 574.773438 Z M 679.066406 574.773438 " fill-opacity="1" fill-rule="nonzero"/></g><g clip-path="url(#a456215a10)"><path fill="#bc4749" d="M 705.117188 575.3125 C 712.464844 571.210938 719.703125 567.371094 726.71875 563.167969 C 733.582031 559.050781 739.957031 554.253906 744.699219 547.613281 C 748.691406 542.054688 750.230469 535.773438 749.664062 529.0625 C 748.625 516.722656 743.148438 506.160156 735.855469 496.425781 C 730.40625 489.160156 724.445312 482.230469 719.535156 474.617188 C 710.886719 461.210938 707.585938 446.554688 712.023438 430.792969 C 713.867188 424.234375 717.039062 418.355469 721.339844 412.988281 C 726.84375 406.097656 733.636719 400.832031 741.316406 396.769531 C 750.480469 391.917969 760.378906 389.40625 770.75 388.714844 C 779.886719 388.105469 788.898438 388.78125 797.828125 390.75 C 811.804688 393.84375 820.871094 402.285156 824.546875 416.066406 C 826.207031 422.292969 827.125 428.78125 827.804688 435.199219 C 829.34375 449.800781 829.855469 464.496094 832.863281 478.929688 C 835.164062 489.980469 839.046875 500.320312 846.464844 509.054688 C 855.851562 520.121094 868.023438 525.722656 882.277344 527.300781 C 891.941406 528.371094 901.535156 527.273438 911.128906 526.402344 C 919.015625 525.679688 926.890625 524.863281 934.851562 525.5 C 941.242188 526 947.328125 527.664062 952.886719 530.710938 C 955.785156 532.292969 958.351562 534.664062 960.679688 537.046875 C 962.9375 539.363281 965.058594 541.957031 966.585938 544.785156 C 969.691406 550.511719 971.757812 556.652344 971.921875 563.265625 C 972.007812 566.46875 971.8125 569.683594 971.921875 572.875 C 971.980469 574.675781 971.300781 575.285156 969.609375 575.007812 C 969.234375 574.953125 968.84375 574.96875 968.375 574.953125 C 968.375 573.191406 968.359375 571.488281 968.375 569.796875 C 968.414062 564.222656 967.554688 558.828125 965.753906 553.519531 C 964.476562 549.761719 962.660156 546.367188 960.234375 543.371094 C 957.890625 540.472656 955.078125 537.992188 951.832031 535.96875 C 947.355469 533.167969 942.515625 531.335938 937.386719 530.40625 C 930.164062 529.089844 922.84375 529.230469 915.523438 529.6875 C 905.734375 530.296875 895.972656 531.210938 886.144531 530.585938 C 861.480469 529.007812 842.859375 515.019531 834.707031 491.671875 C 831.78125 483.308594 830.132812 474.660156 829.078125 465.910156 C 827.621094 453.863281 826.515625 441.785156 825.003906 429.738281 C 824.476562 425.523438 823.476562 421.324219 822.230469 417.261719 C 818 403.421875 808.503906 395.394531 794.375 392.761719 C 784.101562 390.847656 773.789062 390.558594 763.484375 392.5 C 757.773438 393.566406 752.089844 394.925781 746.90625 397.683594 C 742.660156 399.945312 738.238281 402.039062 734.480469 404.960938 C 730.640625 407.957031 727.3125 411.699219 724.140625 415.429688 C 719.398438 421.015625 716.667969 427.714844 715.253906 434.839844 C 712.964844 446.292969 715.253906 457.121094 720.644531 467.3125 C 724.859375 475.28125 730.40625 482.351562 736.046875 489.355469 C 742.441406 497.3125 747.707031 505.964844 751.078125 515.65625 C 753.546875 522.753906 754.917969 529.976562 753.753906 537.546875 C 752.921875 542.953125 750.441406 547.503906 746.875 551.507812 C 741.59375 557.457031 735.105469 561.921875 728.394531 566.066406 C 723.5 569.089844 718.511719 571.957031 713.5625 574.882812 C 713.1875 575.105469 712.742188 575.300781 712.339844 575.3125 C 709.984375 575.328125 707.613281 575.3125 705.117188 575.3125 Z M 705.117188 575.3125 " fill-opacity="1" fill-rule="nonzero"/></g><g clip-path="url(#2d251c2e3f)"><path fill="#bc4749" d="M 722.558594 574.953125 C 724.238281 573.832031 725.914062 572.695312 727.589844 571.570312 C 735.078125 566.550781 742.785156 561.867188 749.457031 555.738281 C 757.980469 547.902344 760.601562 538.199219 758.6875 527.039062 C 756.414062 513.730469 750.925781 501.761719 743.203125 490.796875 C 738.933594 484.722656 734.21875 478.96875 729.933594 472.925781 C 725.773438 467.046875 722.613281 460.613281 720.949219 453.585938 C 719.007812 445.40625 719.175781 437.253906 722.085938 429.253906 C 723.722656 424.761719 726.082031 420.710938 728.976562 416.886719 C 733.746094 410.605469 739.792969 405.878906 746.601562 402.257812 C 755.292969 397.640625 764.691406 395.242188 774.578125 394.746094 C 781.816406 394.371094 788.957031 394.773438 796 396.492188 C 807.4375 399.292969 815.035156 406.390625 819.261719 417.289062 C 821.785156 423.789062 822.976562 430.597656 823.851562 437.472656 C 825.683594 451.894531 826.679688 466.421875 829.839844 480.648438 C 832.476562 492.515625 836.664062 503.664062 844.664062 513.0625 C 852.882812 522.699219 863.226562 528.757812 875.539062 531.710938 C 886.019531 534.21875 896.625 534.109375 907.261719 533.789062 C 916.949219 533.484375 926.65625 533.054688 936.207031 535.289062 C 942.074219 536.660156 947.464844 538.988281 952.015625 543.136719 C 955.273438 546.101562 958.265625 549.289062 960.054688 553.3125 C 962.34375 558.46875 964.035156 563.835938 964.019531 569.589844 C 964.019531 570.960938 964.117188 572.332031 964.199219 573.707031 C 964.257812 574.605469 963.921875 574.980469 962.980469 575.023438 C 960.234375 575.148438 960.347656 575.050781 960.152344 572.234375 C 959.945312 569.171875 959.402344 566.109375 958.738281 563.113281 C 958.265625 560.976562 957.558594 558.84375 956.589844 556.886719 C 952.015625 547.613281 944.457031 542.082031 934.558594 539.378906 C 926.65625 537.230469 918.613281 537.074219 910.53125 536.980469 C 903.503906 536.882812 896.445312 536.910156 889.445312 536.410156 C 871.699219 535.148438 856.128906 529.019531 844.234375 515.210938 C 838.105469 508.097656 833.890625 499.917969 831.128906 490.992188 C 827.898438 480.507812 826.113281 469.722656 824.699219 458.867188 C 823.285156 448.066406 822.480469 437.167969 819.71875 426.578125 C 818.027344 420.101562 815.601562 413.945312 811.125 408.789062 C 805.660156 402.480469 798.550781 399.292969 790.480469 398.101562 C 781.523438 396.769531 772.636719 397.144531 763.792969 399.277344 C 756.402344 401.066406 749.609375 404.007812 743.273438 408.261719 C 739.527344 410.773438 736.339844 413.820312 733.554688 417.191406 C 728.464844 423.320312 725.234375 430.363281 724.390625 438.457031 C 723.222656 449.632812 726.730469 459.476562 732.679688 468.585938 C 736.878906 475.03125 741.566406 481.160156 745.835938 487.566406 C 754.003906 499.824219 759.980469 513.035156 762.488281 527.664062 C 763.457031 533.332031 763.570312 539.003906 761.808594 544.617188 C 760.226562 549.652344 757.191406 553.714844 753.308594 557.097656 C 749.898438 560.0625 746.238281 562.753906 742.566406 565.402344 C 738.128906 568.589844 733.566406 571.625 729.019531 574.664062 C 728.382812 575.09375 727.507812 575.273438 726.730469 575.328125 C 725.414062 575.4375 724.082031 575.355469 722.753906 575.355469 C 722.683594 575.203125 722.613281 575.078125 722.558594 574.953125 Z M 722.558594 574.953125 " fill-opacity="1" fill-rule="nonzero"/></g><g clip-path="url(#e6aadd2ec9)"><path fill="#bc4749" d="M 736.171875 574.898438 C 738.210938 573.429688 740.277344 571.972656 742.300781 570.503906 C 747.390625 566.789062 752.628906 563.253906 757.539062 559.316406 C 766.507812 552.105469 769.003906 542.457031 767.339844 531.433594 C 764.957031 515.628906 759.105469 501.070312 750.96875 487.441406 C 746.792969 480.453125 741.941406 473.882812 737.585938 467.003906 C 732.195312 458.480469 728.839844 449.285156 729.90625 439 C 730.601562 432.332031 732.957031 426.285156 737.089844 420.878906 C 741.179688 415.527344 746.210938 411.328125 751.992188 408.109375 C 760.046875 403.617188 768.851562 401.550781 778.058594 401.039062 C 784.144531 400.691406 790.148438 401.082031 795.957031 402.992188 C 806.121094 406.335938 812.191406 413.753906 815.839844 423.472656 C 818.304688 430.042969 819.457031 436.933594 820.578125 443.824219 C 822.660156 456.59375 824.488281 469.417969 826.984375 482.117188 C 829.148438 493.097656 833.128906 503.496094 839.742188 512.703125 C 849.820312 526.734375 863.644531 534.816406 880.375 538.253906 C 890.027344 540.238281 899.84375 540.460938 909.644531 540.945312 C 916.285156 541.277344 922.925781 541.761719 929.375 543.523438 C 935.765625 545.257812 941.683594 548.042969 946.175781 553.019531 C 949.199219 556.375 951.917969 560.0625 952.847656 564.722656 C 953.304688 566.996094 953.984375 569.214844 954.441406 571.488281 C 954.648438 572.542969 954.578125 573.664062 954.648438 574.871094 C 953.96875 574.925781 953.484375 574.925781 953.011719 574.996094 C 951.292969 575.285156 950.933594 574.371094 950.753906 572.847656 C 950.140625 567.621094 948.5625 562.792969 945.316406 558.453125 C 939.8125 551.078125 932.257812 547.265625 923.550781 545.714844 C 916.425781 544.453125 909.1875 543.773438 901.964844 543.121094 C 891.414062 542.164062 880.890625 541.222656 870.796875 537.644531 C 851.484375 530.796875 838.382812 517.542969 830.769531 498.6875 C 826.984375 489.300781 824.824219 479.46875 823.089844 469.542969 C 821.050781 457.882812 819.207031 446.179688 817.042969 434.535156 C 816.003906 428.960938 814.050781 423.636719 811.152344 418.714844 C 806.1875 410.285156 798.855469 405.449219 789.191406 403.964844 C 781.039062 402.714844 773.109375 403.742188 765.207031 405.820312 C 758.828125 407.5 753.046875 410.425781 747.945312 414.433594 C 743.523438 417.910156 739.832031 422.140625 737.324219 427.394531 C 734.191406 433.9375 733.09375 440.691406 734.261719 447.746094 C 735.300781 454.054688 737.976562 459.769531 741.277344 465.230469 C 747.140625 474.894531 753.53125 484.253906 758.257812 494.566406 C 763.597656 506.199219 768.046875 518.109375 770.167969 530.796875 C 770.917969 535.246094 771.25 539.710938 770.558594 544.203125 C 769.546875 550.675781 766.496094 556.085938 761.394531 560.105469 C 756.375 564.070312 751.050781 567.660156 745.851562 571.417969 C 744.546875 572.359375 743.160156 573.191406 741.941406 574.21875 C 740.207031 575.703125 738.253906 575.21875 736.355469 575.285156 C 736.296875 575.175781 736.230469 575.035156 736.171875 574.898438 Z M 736.171875 574.898438 " fill-opacity="1" fill-rule="nonzero"/></g><g clip-path="url(#a9fb94fe63)"><path fill="#bc4749" d="M 747.167969 575.121094 C 750.425781 572.957031 753.519531 570.945312 756.566406 568.882812 C 762.042969 565.164062 767.535156 561.449219 771.222656 555.738281 C 774.246094 551.050781 775.0625 545.839844 774.925781 540.363281 C 774.746094 533.042969 772.984375 526.027344 770.960938 519.066406 C 767.257812 506.285156 762.40625 493.945312 756.179688 482.171875 C 753.335938 476.792969 750.136719 471.609375 747.167969 466.285156 C 744.007812 460.628906 740.96875 454.902344 739.792969 448.414062 C 738.378906 440.582031 739.5 433.21875 743.648438 426.300781 C 747.210938 420.351562 752.339844 416.097656 758.246094 412.867188 C 767.007812 408.054688 776.558594 406.070312 786.5 406.945312 C 798.367188 407.984375 806.632812 414.320312 811.511719 425.164062 C 814.285156 431.347656 815.90625 437.863281 817.15625 444.460938 C 818.597656 452.085938 819.886719 459.726562 821.132812 467.378906 C 822.714844 477.125 824.960938 486.707031 828.191406 496.023438 C 832.019531 507.058594 837.882812 516.863281 846.382812 524.957031 C 855.644531 533.789062 866.707031 539.265625 879.074219 542.273438 C 888.167969 544.492188 897.472656 545.257812 906.734375 546.308594 C 913.414062 547.058594 920.097656 547.945312 926.449219 550.273438 C 931.382812 552.089844 935.902344 554.585938 939.480469 558.621094 C 942.003906 561.464844 944.152344 564.5 945.316406 568.117188 C 946.011719 570.238281 946.386719 572.472656 946.96875 574.96875 C 945.707031 574.96875 944.625 575.035156 943.558594 574.925781 C 943.25 574.882812 942.820312 574.316406 942.765625 573.941406 C 942.003906 568.976562 939.6875 564.820312 936.347656 561.160156 C 929.734375 553.878906 920.886719 551.410156 911.710938 549.734375 C 900.648438 547.710938 889.375 546.949219 878.464844 544.0625 C 863.917969 540.210938 851.359375 533.097656 841.445312 521.660156 C 833.75 512.800781 828.84375 502.429688 825.472656 491.269531 C 822.328125 480.828125 820.273438 470.140625 818.375 459.40625 C 816.738281 450.132812 815.296875 440.800781 812.066406 431.902344 C 809.628906 425.136719 806.257812 418.980469 800.226562 414.679688 C 795.761719 411.492188 790.714844 409.925781 785.253906 409.605469 C 777.808594 409.175781 770.683594 410.453125 763.957031 413.695312 C 761.183594 415.027344 758.257812 416.277344 755.902344 418.1875 C 746.722656 425.660156 741.109375 435.824219 744.476562 449.675781 C 745.949219 455.71875 748.804688 461.15625 751.644531 466.574219 C 759.148438 480.910156 765.898438 495.566406 770.902344 510.984375 C 773.648438 519.453125 776.214844 527.96875 777.476562 536.796875 C 778.375 543.148438 778.363281 549.511719 775.328125 555.445312 C 773.039062 559.925781 769.503906 563.308594 765.46875 566.164062 C 762.101562 568.546875 758.46875 570.574219 755.210938 573.109375 C 752.851562 574.996094 750.414062 575.785156 747.167969 575.121094 Z M 747.167969 575.121094 " fill-opacity="1" fill-rule="nonzero"/></g><g clip-path="url(#f7c5c2559c)"><path fill="#bc4749" d="M 758.578125 575.246094 C 761.546875 573.277344 764.179688 571.585938 766.757812 569.796875 C 771 566.855469 775.144531 563.835938 777.933594 559.328125 C 781.261719 553.933594 781.925781 548.015625 781.316406 541.886719 C 780.277344 531.449219 777.144531 521.507812 773.96875 511.59375 C 769.351562 497.175781 763.734375 483.144531 757.316406 469.417969 C 754.847656 464.164062 752.519531 458.8125 750.523438 453.363281 C 747.652344 445.488281 747.722656 437.597656 751.785156 430.042969 C 753.699219 426.480469 756.441406 423.652344 759.632812 421.183594 C 767.160156 415.332031 775.714844 412.65625 785.199219 413.15625 C 795.527344 413.695312 802.820312 419.007812 807.644531 427.976562 C 811.164062 434.535156 813.039062 441.648438 814.550781 448.871094 C 816.726562 459.1875 818.609375 469.558594 820.941406 479.832031 C 823.324219 490.410156 826.5 500.765625 831.78125 510.332031 C 842.292969 529.355469 858.414062 541.167969 879.238281 546.546875 C 887.945312 548.792969 896.890625 550.191406 905.722656 551.953125 C 912.625 553.324219 919.460938 554.917969 925.601562 558.59375 C 929.457031 560.894531 932.660156 563.777344 934.960938 567.746094 C 936.25 569.976562 937.289062 572.207031 937.929688 574.675781 C 935.222656 575.480469 934.753906 575.257812 933.851562 572.929688 C 931.316406 566.359375 926.351562 562.128906 920.277344 559.050781 C 914.539062 556.140625 908.339844 554.710938 902.101562 553.421875 C 891.664062 551.246094 881.125 549.414062 871.101562 545.589844 C 848.210938 536.839844 833.265625 520.480469 825.128906 497.589844 C 821.066406 486.167969 818.527344 474.355469 816.117188 462.515625 C 814.3125 453.695312 812.71875 444.808594 809.460938 436.367188 C 807.160156 430.402344 804.191406 424.84375 798.980469 420.863281 C 793.683594 416.832031 787.679688 415.429688 781.039062 415.875 C 774.578125 416.304688 768.714844 418.371094 763.597656 422.042969 C 755.390625 427.9375 750.84375 437.042969 753.058594 448.511719 C 754.628906 456.578125 758.09375 463.996094 761.199219 471.511719 C 769.917969 492.628906 777.726562 514.0625 782.730469 536.410156 C 784.1875 542.925781 784.867188 549.554688 782.757812 556.125 C 781.273438 560.769531 778.40625 564.445312 774.589844 567.355469 C 771.609375 569.628906 768.351562 571.558594 765.425781 573.914062 C 763.402344 575.453125 761.296875 575.382812 758.578125 575.246094 Z M 758.578125 575.246094 " fill-opacity="1" fill-rule="nonzero"/></g><g clip-path="url(#6194aa4cf7)"><path fill="#bc4749" d="M 772.191406 575.1875 C 775.132812 572.847656 778.195312 570.574219 781.050781 568.0625 C 786.972656 562.863281 788.84375 556.054688 788.304688 548.457031 C 787.597656 538.378906 784.671875 528.785156 781.605469 519.261719 C 776.269531 502.679688 770.640625 486.179688 765.21875 469.625 C 763.292969 463.746094 761.296875 457.855469 759.855469 451.839844 C 758.410156 445.890625 758.535156 439.871094 761.363281 434.1875 C 764.289062 428.324219 769.171875 424.773438 775.105469 422.390625 C 780.125 420.367188 785.265625 420.144531 790.398438 421.570312 C 796.832031 423.359375 801.308594 427.699219 804.550781 433.382812 C 808.15625 439.679688 810.210938 446.570312 811.902344 453.570312 C 814.480469 464.273438 816.824219 475.046875 819.609375 485.695312 C 822.632812 497.203125 826.734375 508.308594 833.40625 518.304688 C 843.554688 533.511719 857.527344 543.785156 874.761719 549.484375 C 883.496094 552.382812 892.507812 554.460938 901.394531 556.902344 C 908.5625 558.871094 915.675781 560.976562 921.511719 565.859375 C 923.175781 567.257812 924.605469 568.992188 925.949219 570.710938 C 926.878906 571.902344 927.515625 573.332031 928.292969 574.691406 C 925.753906 575.3125 925.226562 575.273438 923.953125 573.136719 C 920.335938 567.09375 914.761719 563.570312 908.398438 561.378906 C 900.410156 558.636719 892.246094 556.417969 884.121094 554.03125 C 873.402344 550.886719 863.128906 546.808594 853.867188 540.417969 C 839.003906 530.15625 829.246094 516.085938 823.074219 499.28125 C 818.792969 487.621094 815.992188 475.558594 813.132812 463.511719 C 811.082031 454.859375 809.101562 446.179688 805.09375 438.167969 C 802.195312 432.371094 798.300781 427.476562 792.089844 425.023438 C 787.761719 423.320312 783.269531 423.027344 778.792969 424.429688 C 776.601562 425.121094 774.257812 425.746094 772.402344 427.007812 C 768.378906 429.738281 765.261719 433.34375 763.734375 438.125 C 761.613281 444.792969 762.417969 451.449219 764.359375 457.910156 C 768.851562 472.953125 773.703125 487.898438 778.238281 502.929688 C 781.996094 515.40625 785.683594 527.925781 789.066406 540.515625 C 790.632812 546.335938 791.382812 552.382812 789.980469 558.414062 C 788.707031 563.929688 785.558594 568.203125 781.023438 571.5 C 780.359375 571.988281 779.679688 572.484375 779.070312 573.054688 C 777.074219 574.871094 774.867188 575.910156 772.191406 575.1875 Z M 772.191406 575.1875 " fill-opacity="1" fill-rule="nonzero"/></g><g clip-path="url(#020277d917)"><path fill="#bc4749" d="M 782.148438 575.066406 C 783.296875 574.066406 784.449219 573.066406 785.613281 572.070312 C 790.273438 568.0625 793.058594 563.097656 793.433594 556.875 C 793.847656 550.121094 792.476562 543.621094 790.617188 537.230469 C 786.667969 523.628906 782.425781 510.109375 778.445312 496.507812 C 774.882812 484.335938 771.402344 472.136719 768.117188 459.894531 C 766.828125 455.082031 766.316406 450.089844 766.871094 445.058594 C 767.742188 437.183594 771.734375 431.511719 779.152344 428.753906 C 785.808594 426.273438 792.003906 427.632812 797.398438 432.34375 C 801.753906 436.144531 804.496094 441.066406 806.246094 446.402344 C 808.949219 454.695312 811.304688 463.109375 813.523438 471.539062 C 816.738281 483.769531 819.929688 495.996094 825.167969 507.558594 C 834.636719 528.453125 850.140625 543.105469 871.378906 551.496094 C 880.113281 554.949219 889.179688 557.527344 898.082031 560.507812 C 904.195312 562.558594 910.183594 564.859375 915.230469 569.019531 C 917.144531 570.585938 918.890625 572.332031 919.988281 574.789062 C 918.363281 575.175781 917.378906 574.898438 916.328125 573.582031 C 912.859375 569.242188 908.273438 566.289062 903.167969 564.332031 C 895.792969 561.503906 888.28125 558.996094 880.820312 556.390625 C 869.730469 552.519531 859.164062 547.65625 849.832031 540.390625 C 836.84375 530.28125 828.011719 517.207031 822.0625 501.984375 C 817.445312 490.171875 814.367188 477.917969 811.125 465.703125 C 809.042969 457.898438 806.910156 450.089844 803.082031 442.894531 C 801.351562 439.636719 799.257812 436.613281 796.304688 434.367188 C 791.480469 430.695312 786.222656 429.324219 780.304688 431.691406 C 773.773438 434.3125 770.820312 439.5 769.863281 446.054688 C 768.933594 452.421875 770.140625 458.660156 771.527344 464.828125 C 776.28125 485.917969 782.855469 506.492188 789.121094 527.136719 C 791.546875 535.136719 794.167969 543.09375 795.140625 551.441406 C 795.816406 557.316406 795.777344 563.15625 792.074219 568.175781 C 790.3125 570.558594 788.191406 572.722656 785.960938 574.675781 C 785.140625 575.398438 783.546875 575.246094 782.300781 575.496094 C 782.246094 575.371094 782.203125 575.21875 782.148438 575.066406 Z M 782.148438 575.066406 " fill-opacity="1" fill-rule="nonzero"/></g><g clip-path="url(#836eaabc1e)"><path fill="#bc4749" d="M -72.761719 98.882812 C -74.144531 100.066406 -75.386719 101.148438 -76.78125 102.34375 C -75.710938 103.988281 -74.722656 105.6875 -73.550781 107.253906 C -70.441406 111.460938 -67.445312 115.785156 -64.03125 119.742188 C -60.757812 123.535156 -57.105469 127.023438 -53.464844 130.476562 C -50.839844 132.96875 -48.015625 135.242188 -45.175781 137.492188 C -40.4375 141.242188 -35.402344 144.539062 -30.132812 147.507812 C -25.175781 150.304688 -20.125 152.875 -14.800781 154.855469 C -9.441406 156.839844 -4.027344 158.710938 1.429688 160.410156 C 4.308594 161.300781 7.328125 161.761719 10.304688 162.328125 C 13.488281 162.929688 16.671875 163.566406 19.890625 163.925781 C 22.972656 164.269531 26.101562 164.269531 29.203125 164.441406 C 31.703125 164.574219 34.195312 164.890625 36.6875 164.84375 C 39.789062 164.78125 42.910156 164.554688 45.992188 164.160156 C 48.3125 163.863281 50.660156 163.386719 52.863281 162.613281 C 55.183594 161.804688 57.492188 160.761719 59.550781 159.429688 C 62.265625 157.6875 64.882812 155.71875 67.285156 153.550781 C 69.054688 151.960938 70.503906 149.980469 71.90625 148.03125 C 73.28125 146.125 74.515625 144.089844 75.648438 142.023438 C 77.699219 138.28125 79.558594 134.433594 81.625 130.703125 C 83.363281 127.574219 85.953125 125.324219 89.242188 123.851562 C 94.242188 121.613281 99.539062 120.515625 104.886719 119.578125 C 109.347656 118.796875 113.816406 118.113281 118.269531 117.304688 C 123.527344 116.351562 128.816406 115.496094 134.011719 114.257812 C 139.289062 112.996094 144.414062 111.207031 149.273438 108.699219 C 155.394531 105.527344 160.808594 101.46875 165.410156 96.328125 C 168.441406 92.9375 170.859375 89.144531 172.972656 85.140625 C 174.71875 81.839844 176.101562 78.390625 177.019531 74.773438 C 177.710938 72.078125 178.226562 69.335938 178.746094 66.589844 C 179.761719 61.242188 180.03125 55.828125 179.671875 50.40625 C 179.332031 45.28125 178.933594 40.136719 178.117188 35.074219 C 177.425781 30.8125 176.101562 26.648438 175.023438 22.460938 C 174.621094 20.90625 174.167969 19.347656 173.648438 17.828125 C 172.804688 15.394531 171.921875 12.972656 170.976562 10.582031 C 169.980469 8.054688 168.992188 5.511719 167.832031 3.054688 C 166.410156 0.0429688 164.828125 -2.886719 163.296875 -5.855469 C 159.800781 -12.625 155.621094 -18.992188 151.277344 -25.230469 C 148.535156 -29.171875 145.574219 -32.972656 142.574219 -36.722656 C 138.355469 -41.984375 134.085938 -47.207031 129.695312 -52.324219 C 126.988281 -55.480469 124.003906 -58.394531 121.15625 -61.441406 C 119.976562 -62.699219 118.851562 -63.996094 117.585938 -65.417969 C 116.074219 -64.128906 114.617188 -62.898438 113.054688 -61.566406 C 114.300781 -60.183594 115.488281 -58.90625 116.640625 -57.585938 C 120.066406 -53.671875 123.539062 -49.796875 126.882812 -45.8125 C 130.066406 -42.027344 133.113281 -38.117188 136.222656 -34.269531 C 140.101562 -29.46875 144.046875 -24.71875 147.851562 -19.855469 C 150.242188 -16.808594 152.535156 -13.667969 154.675781 -10.441406 C 157.722656 -5.847656 160.761719 -1.234375 163.117188 3.792969 C 164.242188 6.195312 165.554688 8.503906 166.652344 10.914062 C 167.5625 12.894531 168.335938 14.941406 169.089844 16.992188 C 170.015625 19.464844 170.988281 21.9375 171.722656 24.472656 C 172.523438 27.226562 173 30.066406 173.738281 32.835938 C 175.894531 40.902344 176.121094 49.164062 176.039062 57.421875 C 176.011719 60.441406 175.367188 63.460938 174.898438 66.464844 C 174.621094 68.300781 174.277344 70.152344 173.730469 71.921875 C 172.945312 74.484375 171.992188 76.996094 171.023438 79.496094 C 170.484375 80.886719 169.863281 82.28125 169.070312 83.550781 C 167.660156 85.832031 166.140625 88.046875 164.601562 90.25 C 161.597656 94.546875 157.695312 97.902344 153.390625 100.824219 C 147.148438 105.058594 140.191406 107.613281 132.953125 109.464844 C 124.09375 111.730469 115.066406 113.050781 106.019531 114.265625 C 102.183594 114.777344 98.351562 115.445312 94.558594 116.261719 C 91.335938 116.953125 88.117188 117.761719 85.027344 118.871094 C 80.90625 120.335938 77.625 122.953125 75.726562 127.042969 C 73.875 131.042969 72.058594 135.0625 70.125 139.027344 C 68.308594 142.75 66.0625 146.203125 63.121094 149.152344 C 60.902344 151.375 58.5 153.414062 55.757812 154.960938 C 54.101562 155.898438 52.269531 156.527344 50.496094 157.238281 C 47.566406 158.425781 44.417969 158.640625 41.363281 159.277344 C 38.3125 159.917969 35.328125 159.925781 32.316406 159.878906 C 29.222656 159.828125 26.140625 159.378906 23.054688 159.097656 C 21.308594 158.945312 19.566406 158.828125 17.832031 158.621094 C 16.453125 158.449219 15.089844 158.191406 13.722656 157.929688 C 12.148438 157.625 10.574219 157.292969 9.007812 156.941406 C 7.410156 156.589844 5.808594 156.25 4.234375 155.816406 C 1.546875 155.089844 -1.179688 154.40625 -3.804688 153.488281 C -7.464844 152.21875 -11.070312 150.808594 -14.65625 149.359375 C -19.960938 147.210938 -25.015625 144.523438 -29.824219 141.457031 C -34.332031 138.589844 -38.691406 135.476562 -42.953125 132.257812 C -47.917969 128.507812 -52.546875 124.34375 -56.675781 119.6875 C -60.191406 115.714844 -63.582031 111.613281 -66.855469 107.441406 C -68.707031 105.074219 -70.199219 102.433594 -71.871094 99.925781 C -72.078125 99.574219 -72.402344 99.285156 -72.761719 98.882812 Z M -72.761719 98.882812 " fill-opacity="1" fill-rule="nonzero"/></g><g clip-path="url(#ccd7af49a2)"><path fill="#bc4749" d="M 108.394531 -57.386719 C 107.476562 -56.648438 106.667969 -56 105.851562 -55.355469 C 105.3125 -54.933594 105.183594 -54.546875 105.699219 -53.941406 C 109.4375 -49.574219 112.78125 -44.914062 116.011719 -40.148438 C 120.121094 -34.097656 124.390625 -28.136719 128.714844 -22.238281 C 131.496094 -18.453125 134.460938 -14.800781 137.449219 -11.167969 C 140.019531 -8.039062 142.804688 -5.082031 145.378906 -1.945312 C 147.402344 0.519531 149.296875 3.09375 151.140625 5.691406 C 152.761719 7.972656 154.359375 10.277344 155.71875 12.722656 C 157.769531 16.417969 159.65625 20.195312 161.480469 24.007812 C 162.355469 25.839844 162.964844 27.808594 163.585938 29.753906 C 164.53125 32.710938 165.511719 35.667969 166.210938 38.679688 C 166.761719 41.046875 166.976562 43.5 167.210938 45.9375 C 167.445312 48.367188 167.542969 50.8125 167.667969 53.246094 C 167.894531 57.589844 167.28125 61.863281 166.203125 66.023438 C 165.257812 69.65625 163.902344 73.164062 162.203125 76.554688 C 159.925781 81.09375 156.707031 84.878906 153.09375 88.324219 C 150.179688 91.101562 146.816406 93.359375 143.15625 95.085938 C 140.074219 96.542969 137.007812 98.125 133.769531 99.140625 C 128.84375 100.6875 123.816406 101.964844 118.761719 103.015625 C 113.808594 104.042969 108.773438 104.707031 103.765625 105.417969 C 97.46875 106.316406 91.148438 107.007812 84.863281 107.988281 C 80.359375 108.691406 75.917969 109.660156 71.78125 111.773438 C 68.246094 113.582031 65.835938 116.378906 64.183594 119.859375 C 62.539062 123.320312 61.214844 126.945312 59.507812 130.371094 C 57.105469 135.179688 54.128906 139.632812 49.660156 142.804688 C 48.0625 143.9375 46.046875 144.503906 44.445312 145.648438 C 42.691406 146.914062 40.5625 146.71875 38.699219 147.570312 C 37.421875 148.164062 35.824219 148.226562 34.367188 148.246094 C 30.96875 148.28125 27.578125 148.191406 24.179688 148.066406 C 22.425781 148.003906 20.671875 147.867188 18.945312 147.578125 C 16.058594 147.09375 13.15625 146.609375 10.332031 145.855469 C 5.375 144.53125 0.339844 143.34375 -4.425781 141.492188 C -9.765625 139.425781 -14.933594 136.863281 -20.007812 134.191406 C -23.875 132.160156 -27.585938 129.785156 -31.148438 127.25 C -34.644531 124.757812 -37.917969 121.945312 -41.183594 119.140625 C -43.519531 117.125 -45.785156 115.003906 -47.863281 112.726562 C -50.667969 109.660156 -53.375 106.488281 -55.917969 103.195312 C -58.355469 100.050781 -60.53125 96.714844 -62.796875 93.441406 C -63.238281 92.800781 -63.597656 92.109375 -64.039062 91.382812 C -65.171875 92.316406 -66.242188 93.144531 -67.242188 94.050781 C -67.410156 94.214844 -67.410156 94.796875 -67.257812 95.058594 C -64.21875 100.195312 -60.839844 105.113281 -57.015625 109.699219 C -52.71875 114.867188 -48.089844 119.722656 -42.925781 124.066406 C -38.800781 127.539062 -34.527344 130.808594 -29.996094 133.742188 C -24.890625 137.042969 -19.601562 140.027344 -13.972656 142.328125 C -9.261719 144.253906 -4.515625 146.132812 0.304688 147.769531 C 3.417969 148.828125 6.679688 149.476562 9.890625 150.195312 C 12.75 150.84375 15.628906 151.375 18.515625 151.878906 C 19.953125 152.128906 21.425781 152.253906 22.894531 152.34375 C 26.148438 152.535156 29.402344 152.777344 32.667969 152.757812 C 34.726562 152.75 36.777344 152.328125 38.828125 152.085938 C 40.074219 151.933594 41.351562 151.886719 42.558594 151.574219 C 44.445312 151.078125 46.316406 150.464844 48.132812 149.765625 C 52.007812 148.253906 55.136719 145.648438 57.941406 142.671875 C 60.34375 140.125 62.152344 137.132812 63.660156 133.992188 C 65.433594 130.316406 67.113281 126.585938 68.859375 122.898438 C 71.015625 118.347656 74.648438 115.515625 79.351562 113.90625 C 83.6875 112.421875 88.136719 111.503906 92.667969 110.882812 C 98.289062 110.113281 103.917969 109.347656 109.519531 108.464844 C 114.769531 107.640625 120.011719 106.785156 125.21875 105.707031 C 130.710938 104.574219 136.117188 103.035156 141.234375 100.695312 C 144.882812 99.023438 148.550781 97.335938 151.679688 94.726562 C 153.722656 93.027344 155.835938 91.398438 157.707031 89.519531 C 160.835938 86.375 163.40625 82.785156 165.269531 78.738281 C 166.5 76.070312 167.625 73.351562 168.710938 70.628906 C 169.144531 69.539062 169.402344 68.363281 169.609375 67.203125 C 170.007812 65.019531 170.457031 62.832031 170.636719 60.621094 C 170.898438 57.339844 171.15625 54.019531 171.023438 50.738281 C 170.851562 46.65625 170.519531 42.546875 169.816406 38.519531 C 169.171875 34.796875 167.957031 31.171875 166.96875 27.511719 C 165.546875 22.261719 163.234375 17.351562 160.871094 12.496094 C 159.242188 9.152344 157.246094 5.96875 155.242188 2.832031 C 151.230469 -3.425781 146.773438 -9.363281 141.917969 -15 C 139.550781 -17.742188 137.347656 -20.628906 135.074219 -23.441406 C 132.816406 -26.230469 130.46875 -28.953125 128.3125 -31.8125 C 124.734375 -36.570312 121.34375 -41.480469 117.730469 -46.210938 C 114.984375 -49.796875 112.011719 -53.214844 109.132812 -56.703125 C 108.945312 -56.953125 108.675781 -57.144531 108.394531 -57.386719 Z M 108.394531 -57.386719 " fill-opacity="1" fill-rule="nonzero"/></g><g clip-path="url(#69004f678f)"><path fill="#bc4749" d="M -56.171875 84.574219 C -57.25 85.472656 -58.300781 86.308594 -59.28125 87.226562 C -59.417969 87.351562 -59.308594 87.910156 -59.148438 88.164062 C -56.988281 91.550781 -54.914062 95.003906 -52.601562 98.289062 C -49.105469 103.261719 -45.128906 107.855469 -40.734375 112.054688 C -35.921875 116.640625 -30.777344 120.828125 -25.203125 124.488281 C -19.234375 128.410156 -13.019531 131.863281 -6.347656 134.378906 C -1.304688 136.285156 3.855469 137.921875 9.046875 139.425781 C 12.085938 140.304688 15.257812 140.710938 18.386719 141.257812 C 22.03125 141.90625 25.6875 142.09375 29.386719 141.628906 C 30.824219 141.449219 32.34375 141.671875 33.746094 141.367188 C 36.003906 140.863281 38.296875 140.296875 40.390625 139.363281 C 44.671875 137.445312 48.203125 134.542969 50.832031 130.566406 C 53.257812 126.898438 55.011719 122.898438 56.960938 118.996094 C 58.078125 116.757812 59.300781 114.554688 60.675781 112.457031 C 62.1875 110.15625 64.417969 108.628906 66.90625 107.46875 C 70.386719 105.847656 74.066406 104.832031 77.851562 104.320312 C 87.460938 103.007812 97.101562 101.894531 106.695312 100.507812 C 115.742188 99.195312 124.660156 97.261719 133.160156 93.773438 C 139.9375 90.984375 146.140625 87.28125 151.160156 81.851562 C 153.757812 79.035156 156.070312 75.960938 157.535156 72.375 C 158.480469 70.070312 159.378906 67.742188 160.214844 65.394531 C 160.582031 64.363281 160.78125 63.253906 160.960938 62.167969 C 161.597656 58.265625 161.824219 54.335938 161.554688 50.378906 C 161.472656 49.15625 161.464844 47.925781 161.25 46.730469 C 160.671875 43.574219 160.167969 40.378906 159.304688 37.296875 C 158.199219 33.347656 156.617188 29.546875 154.566406 25.984375 C 152.722656 22.792969 150.917969 19.554688 148.796875 16.550781 C 146.628906 13.488281 144.128906 10.644531 141.738281 7.742188 C 139.570312 5.105469 137.269531 2.589844 135.164062 -0.0898438 C 132.484375 -3.5 129.777344 -6.914062 127.386719 -10.53125 C 124.003906 -15.648438 120.964844 -20.988281 117.664062 -26.167969 C 113.863281 -32.136719 109.988281 -38.054688 106.046875 -43.933594 C 104.589844 -46.101562 102.875 -48.089844 101.273438 -50.167969 C 101.121094 -50.363281 100.984375 -50.578125 100.816406 -50.839844 C 99.871094 -50.066406 99.078125 -49.410156 98.179688 -48.683594 C 98.953125 -47.683594 99.746094 -46.765625 100.417969 -45.769531 C 102.9375 -42.054688 105.5625 -38.40625 107.863281 -34.566406 C 111.453125 -28.59375 114.78125 -22.460938 118.277344 -16.4375 C 121.488281 -10.917969 124.769531 -5.441406 128.042969 0.0546875 C 131.199219 5.359375 135.226562 9.988281 139.328125 14.554688 C 143.09375 18.746094 146.800781 23.019531 149.632812 27.910156 C 151.292969 30.769531 152.886719 33.707031 154.144531 36.765625 C 155.152344 39.210938 155.574219 41.898438 156.285156 44.472656 C 157.554688 49.074219 157.355469 53.777344 157.167969 58.453125 C 157.101562 60.097656 156.574219 61.734375 156.167969 63.355469 C 155.773438 64.902344 155.296875 66.429688 154.792969 67.941406 C 153.902344 70.601562 152.652344 73.09375 150.898438 75.277344 C 149.136719 77.480469 147.402344 79.753906 145.351562 81.671875 C 141.054688 85.679688 135.964844 88.503906 130.53125 90.707031 C 122.25 94.0625 113.609375 96.039062 104.796875 97.246094 C 96.617188 98.359375 88.398438 99.242188 80.195312 100.265625 C 75.496094 100.859375 70.808594 101.535156 66.25 102.972656 C 60.578125 104.761719 56.558594 108.320312 53.941406 113.644531 C 51.988281 117.621094 49.886719 121.53125 47.738281 125.414062 C 46.246094 128.113281 44.238281 130.386719 41.695312 132.203125 C 39.96875 133.4375 38.070312 134.238281 36.21875 135.191406 C 34.242188 136.207031 32.199219 136.710938 30.113281 136.988281 C 27.957031 137.277344 25.734375 137.160156 23.539062 137.175781 C 22.542969 137.1875 21.535156 137.175781 20.554688 137.058594 C 18.152344 136.761719 15.699219 136.609375 13.363281 136.015625 C 8.785156 134.867188 4.179688 133.722656 -0.234375 132.097656 C -4.863281 130.386719 -9.378906 128.273438 -13.785156 126.035156 C -19.199219 123.285156 -24.324219 119.984375 -28.972656 116.0625 C -33.007812 112.675781 -36.957031 109.148438 -40.660156 105.410156 C -45.570312 100.445312 -49.769531 94.886719 -53.4375 88.9375 C -54.355469 87.515625 -55.238281 86.09375 -56.171875 84.574219 Z M -56.171875 84.574219 " fill-opacity="1" fill-rule="nonzero"/></g><g clip-path="url(#584b66e0f0)"><path fill="#bc4749" d="M 95.160156 -45.957031 C 94.511719 -45.445312 93.910156 -44.96875 93.21875 -44.429688 C 94.097656 -43.234375 94.96875 -42.109375 95.789062 -40.949219 C 103.691406 -29.765625 109.691406 -17.570312 114.859375 -4.9375 C 117.433594 1.347656 120.046875 7.605469 122.738281 13.835938 C 125.191406 19.527344 128.714844 24.511719 133.015625 28.980469 C 135.199219 31.246094 137.347656 33.59375 139.171875 36.144531 C 141.304688 39.128906 142.933594 42.421875 144.289062 45.894531 C 146.027344 50.316406 146.035156 54.867188 145.808594 59.417969 C 145.703125 61.554688 144.867188 63.707031 144.074219 65.746094 C 141.285156 72.914062 136.082031 77.964844 129.589844 81.816406 C 122.988281 85.71875 115.785156 88 108.359375 89.699219 C 99.296875 91.769531 90.070312 92.675781 80.84375 93.558594 C 74.65625 94.152344 68.488281 94.863281 62.339844 95.734375 C 58.464844 96.28125 54.8125 97.722656 51.640625 100.058594 C 49.402344 101.703125 47.738281 103.917969 46.226562 106.28125 C 43.644531 110.328125 41.515625 114.679688 38.285156 118.292969 C 37.136719 119.578125 35.804688 120.710938 34.511719 121.855469 C 32.53125 123.589844 30.265625 124.867188 27.710938 125.53125 C 24.878906 126.269531 21.984375 126.703125 19.042969 126.386719 C 15.886719 126.042969 12.679688 125.863281 9.59375 125.164062 C 3.183594 123.714844 -2.816406 121.117188 -8.625 118.078125 C -14.054688 115.238281 -19.109375 111.863281 -23.917969 108.078125 C -27.9375 104.914062 -31.6875 101.46875 -35.105469 97.683594 C -39.734375 92.558594 -43.914062 87.082031 -47.277344 81.023438 C -47.765625 80.152344 -48.320312 79.316406 -48.925781 78.335938 C -49.851562 79.117188 -50.777344 79.828125 -51.585938 80.65625 C -51.757812 80.824219 -51.628906 81.472656 -51.441406 81.789062 C -49.96875 84.25 -48.519531 86.742188 -46.917969 89.125 C -42.730469 95.390625 -37.882812 101.101562 -32.34375 106.226562 C -27.9375 110.308594 -23.179688 113.941406 -18.089844 117.160156 C -12.785156 120.515625 -7.210938 123.285156 -1.386719 125.59375 C 4.074219 127.761719 9.621094 129.480469 15.464844 130.296875 C 19.332031 130.835938 23.136719 131.0625 26.964844 130.144531 C 27.964844 129.902344 29.089844 130.054688 30.023438 129.695312 C 33.207031 128.445312 36.558594 127.3125 38.941406 124.777344 C 41.109375 122.476562 43.015625 119.875 44.742188 117.222656 C 46.953125 113.835938 48.761719 110.175781 50.957031 106.777344 C 53.222656 103.261719 56.675781 101.21875 60.542969 99.796875 C 65.109375 98.117188 69.890625 97.558594 74.675781 97.027344 C 82.570312 96.148438 90.484375 95.5 98.359375 94.484375 C 106.882812 93.386719 115.292969 91.632812 123.410156 88.703125 C 127.800781 87.121094 131.953125 85.050781 135.792969 82.445312 C 140.46875 79.261719 144.371094 75.269531 147.070312 70.207031 C 148.695312 67.15625 149.683594 63.929688 150.40625 60.539062 C 151.1875 56.863281 150.71875 53.246094 150.585938 49.617188 C 150.519531 47.800781 149.875 45.984375 149.335938 44.210938 C 147.996094 39.75 145.953125 35.613281 143.230469 31.855469 C 141.394531 29.339844 139.363281 26.957031 137.382812 24.546875 C 134.882812 21.5 132.160156 18.613281 129.875 15.402344 C 127.761719 12.433594 125.964844 9.214844 124.273438 5.988281 C 118.726562 -4.605469 114.1875 -15.710938 108.222656 -26.09375 C 104.359375 -32.820312 100.464844 -39.539062 95.554688 -45.589844 C 95.457031 -45.695312 95.367188 -45.761719 95.160156 -45.957031 Z M 95.160156 -45.957031 " fill-opacity="1" fill-rule="nonzero"/></g><g clip-path="url(#2f4d750bf0)"><path fill="#bc4749" d="M 90.96875 -42.378906 C 90.347656 -41.847656 89.835938 -41.417969 89.25 -40.914062 C 90.035156 -39.816406 90.789062 -38.746094 91.554688 -37.675781 C 99.65625 -26.222656 105.410156 -13.632812 109.445312 -0.253906 C 111.625 6.96875 113.375 14.296875 114.753906 21.722656 C 115.480469 25.660156 116.480469 29.574219 118.222656 33.230469 C 119.445312 35.792969 121.386719 37.828125 123.347656 39.839844 C 126.082031 42.636719 128.804688 45.453125 130.570312 49.003906 C 131.207031 50.289062 131.539062 51.738281 132.167969 53.03125 C 133.285156 55.324219 132.988281 57.824219 132.976562 60.171875 C 132.96875 62.195312 132.179688 64.335938 131.277344 66.203125 C 129.265625 70.429688 126.035156 73.675781 122.179688 76.292969 C 114.96875 81.195312 106.839844 83.738281 98.433594 85.519531 C 88.875 87.542969 79.171875 88.269531 69.441406 88.875 C 64.390625 89.1875 59.34375 89.554688 54.371094 90.652344 C 48.601562 91.929688 43.871094 94.761719 40.328125 99.546875 C 38.089844 102.566406 35.851562 105.589844 33.441406 108.464844 C 31.875 110.335938 30.023438 111.917969 27.917969 113.277344 C 26.507812 114.183594 25.175781 115.21875 23.566406 115.632812 C 20.367188 116.46875 17.121094 117.089844 13.765625 116.792969 C 4.773438 115.984375 -3.128906 112.324219 -10.691406 107.683594 C -17.40625 103.566406 -23.441406 98.609375 -28.835938 92.890625 C -34.25 87.148438 -38.800781 80.734375 -42.53125 73.765625 C -42.613281 73.613281 -42.710938 73.460938 -42.78125 73.328125 C -42.890625 73.316406 -42.980469 73.28125 -43.015625 73.308594 C -45.929688 75.386719 -45.964844 75.414062 -44.257812 78.496094 C -41.234375 83.945312 -37.59375 88.964844 -33.503906 93.664062 C -28.925781 98.917969 -23.738281 103.457031 -18.082031 107.523438 C -13.101562 111.101562 -7.777344 114.105469 -2.183594 116.550781 C 3.03125 118.824219 8.425781 120.703125 14.207031 121.117188 C 17.390625 121.34375 20.535156 121.378906 23.621094 120.363281 C 24.324219 120.128906 25.1875 120.289062 25.804688 119.957031 C 27.820312 118.871094 29.816406 117.726562 31.722656 116.449219 C 36.09375 113.519531 38.691406 109.050781 41.378906 104.742188 C 45.847656 97.59375 52.195312 93.558594 60.488281 92.632812 C 67.519531 91.847656 74.566406 91.273438 81.617188 90.644531 C 90.359375 89.863281 99.0625 88.785156 107.558594 86.527344 C 114.753906 84.609375 121.65625 81.949219 127.710938 77.507812 C 132.042969 74.324219 135.578125 70.394531 137.582031 65.316406 C 138.121094 63.949219 138.167969 62.390625 138.632812 60.980469 C 139.355469 58.777344 139.066406 56.546875 138.859375 54.371094 C 138.527344 50.847656 137.472656 47.464844 135.496094 44.464844 C 134.15625 42.429688 132.808594 40.398438 131.277344 38.5 C 129.707031 36.558594 127.835938 34.851562 126.253906 32.917969 C 124.941406 31.316406 123.726562 29.609375 122.675781 27.828125 C 120.328125 23.84375 118.976562 19.4375 117.636719 15.042969 C 115.28125 7.316406 113.054688 -0.449219 110.011719 -7.949219 C 106.757812 -15.980469 103.097656 -23.820312 98.566406 -31.21875 C 96.417969 -34.726562 94.042969 -38.109375 91.75 -41.535156 C 91.554688 -41.820312 91.273438 -42.046875 90.96875 -42.378906 Z M 90.96875 -42.378906 " fill-opacity="1" fill-rule="nonzero"/></g><g clip-path="url(#f3143da868)"><path fill="#bc4749" d="M 86.84375 -38.855469 C 86.5625 -38.621094 86.328125 -38.394531 86.070312 -38.226562 C 85.554688 -37.882812 85.601562 -37.578125 85.941406 -37.082031 C 87.707031 -34.546875 89.59375 -32.082031 91.121094 -29.414062 C 93.289062 -25.65625 95.332031 -21.804688 97.15625 -17.867188 C 99.96875 -11.789062 102.074219 -5.449219 103.574219 1.085938 C 104.90625 6.851562 105.589844 12.714844 105.867188 18.59375 C 106.058594 22.558594 105.644531 26.558594 105.652344 30.542969 C 105.660156 33.878906 105.671875 37.234375 106.09375 40.523438 C 106.398438 42.90625 107.722656 45.011719 109.582031 46.675781 C 112.304688 49.121094 114.753906 51.828125 116.730469 54.910156 C 117.226562 55.683594 117.367188 56.699219 117.628906 57.617188 C 117.746094 58.03125 117.703125 58.488281 117.84375 58.886719 C 118.863281 61.554688 117.890625 63.964844 116.730469 66.257812 C 114.859375 69.9375 111.765625 72.417969 108.261719 74.421875 C 99.890625 79.207031 90.707031 81.363281 81.25 82.300781 C 74.566406 82.964844 67.851562 83.234375 61.144531 83.621094 C 56.035156 83.917969 50.964844 84.429688 46.039062 85.886719 C 42.574219 86.914062 39.464844 88.65625 36.8125 91.074219 C 34.347656 93.324219 32.117188 95.816406 29.691406 98.109375 C 27.9375 99.761719 26.066406 101.316406 24.179688 102.820312 C 23.164062 103.628906 22.054688 104.402344 20.871094 104.914062 C 17.578125 106.34375 14.109375 106.8125 10.511719 106.570312 C 3.355469 106.082031 -2.90625 103.144531 -8.675781 99.203125 C -12.527344 96.589844 -16.175781 93.648438 -19.664062 90.554688 C -23.398438 87.246094 -26.777344 83.53125 -29.554688 79.359375 C -31.964844 75.753906 -34.175781 72.011719 -36.488281 68.335938 C -36.558594 68.21875 -36.660156 68.109375 -36.847656 67.878906 C -37.621094 68.542969 -38.394531 69.144531 -39.078125 69.847656 C -39.222656 69.992188 -39.097656 70.53125 -38.933594 70.800781 C -36.992188 74.027344 -35.128906 77.320312 -33.035156 80.449219 C -29.96875 85.035156 -26.347656 89.167969 -22.316406 92.9375 C -16.929688 97.964844 -11.050781 102.269531 -4.476562 105.652344 C -1.140625 107.367188 2.285156 108.851562 5.917969 109.726562 C 9.613281 110.613281 13.398438 111.207031 17.183594 110.316406 C 19.324219 109.816406 21.542969 109.285156 23.46875 108.277344 C 27.066406 106.378906 29.960938 103.554688 32.640625 100.480469 C 35.230469 97.503906 37.917969 94.582031 40.886719 92.003906 C 44.160156 89.160156 48.292969 88 52.511719 87.199219 C 58.328125 86.105469 64.226562 85.96875 70.109375 85.691406 C 78.730469 85.285156 87.320312 84.519531 95.753906 82.5625 C 102.46875 80.996094 108.960938 78.773438 114.761719 74.9375 C 118.65625 72.355469 122.019531 69.199219 123.617188 64.683594 C 124.230469 62.949219 124.230469 60.980469 124.363281 59.109375 C 124.4375 58.191406 124.292969 57.230469 124.058594 56.332031 C 123.519531 54.253906 122.78125 52.230469 121.351562 50.585938 C 119.167969 48.078125 116.875 45.667969 114.6875 43.148438 C 112.675781 40.832031 111.273438 38.175781 110.921875 35.085938 C 110.363281 30.203125 109.796875 25.320312 109.429688 20.417969 C 108.746094 11.375 106.957031 2.570312 104.105469 -6.035156 C 101.527344 -13.847656 98.207031 -21.328125 94.015625 -28.386719 C 91.996094 -31.804688 89.59375 -35.007812 87.363281 -38.296875 C 87.238281 -38.476562 87.039062 -38.636719 86.84375 -38.855469 Z M 86.84375 -38.855469 " fill-opacity="1" fill-rule="nonzero"/></g><g clip-path="url(#af0153a0e6)"><path fill="#bc4749" d="M -32.054688 63.695312 C -32.800781 64.371094 -33.496094 64.890625 -34.035156 65.539062 C -34.203125 65.746094 -34.105469 66.359375 -33.925781 66.664062 C -32.136719 69.695312 -30.402344 72.761719 -28.460938 75.691406 C -24.953125 80.996094 -20.617188 85.589844 -15.84375 89.773438 C -11.492188 93.574219 -6.78125 96.882812 -1.519531 99.25 C 2.472656 101.046875 6.679688 102.34375 11.148438 102.152344 C 13.261719 102.0625 15.410156 101.882812 17.378906 100.886719 C 18.101562 100.527344 19.027344 100.554688 19.699219 100.140625 C 22.480469 98.421875 25.175781 96.578125 27.621094 94.386719 C 30.410156 91.875 33.132812 89.269531 36.15625 87.066406 C 39.832031 84.394531 44.113281 82.859375 48.617188 82.28125 C 53.382812 81.671875 58.183594 81.257812 62.988281 80.988281 C 70.738281 80.546875 78.507812 80.4375 86.140625 78.820312 C 92.550781 77.460938 98.710938 75.449219 104.070312 71.535156 C 106.109375 70.054688 107.890625 68.273438 108.980469 65.933594 C 109.886719 63.976562 110.085938 61.980469 109.511719 59.8125 C 108.726562 56.84375 107.019531 54.542969 104.988281 52.359375 C 103.613281 50.875 102.371094 49.265625 101.085938 47.699219 C 99.582031 45.867188 99.242188 43.636719 99.304688 41.414062 C 99.375 38.914062 99.683594 36.40625 100.097656 33.933594 C 101.140625 27.765625 102.289062 21.613281 102.234375 15.339844 C 102.144531 5.789062 100.078125 -3.390625 96.714844 -12.292969 C 94.242188 -18.855469 91.148438 -25.113281 87.203125 -30.921875 C 86.050781 -32.613281 84.917969 -34.304688 83.632812 -36.191406 C 83.171875 -35.574219 82.847656 -35.121094 82.417969 -34.53125 C 83.046875 -33.667969 83.828125 -32.605469 84.585938 -31.527344 C 87.652344 -27.128906 90.1875 -22.445312 92.371094 -17.554688 C 95.367188 -10.835938 97.558594 -3.867188 98.574219 3.425781 C 99.746094 11.839844 99.394531 20.183594 96.984375 28.394531 C 95.898438 32.117188 94.789062 35.839844 93.917969 39.605469 C 92.777344 44.535156 94.035156 48.867188 97.480469 52.628906 C 98.855469 54.136719 100.3125 55.730469 101.121094 57.5625 C 102.027344 59.613281 103.25 61.789062 102.496094 64.246094 C 102.246094 65.054688 101.929688 65.882812 101.480469 66.589844 C 99.996094 68.902344 97.894531 70.582031 95.527344 71.90625 C 90.042969 74.980469 84.074219 76.5625 77.886719 77.15625 C 70.378906 77.867188 62.84375 78.183594 55.316406 78.722656 C 49.347656 79.152344 43.449219 79.980469 37.953125 82.5625 C 34.625 84.125 31.578125 86.105469 28.753906 88.460938 C 26.679688 90.195312 24.644531 92.003906 22.460938 93.585938 C 20.824219 94.761719 19.0625 95.90625 17.191406 96.597656 C 13.667969 97.902344 10.027344 98.359375 6.195312 97.695312 C -1.230469 96.390625 -7.257812 92.523438 -12.886719 87.820312 C -20.589844 81.375 -26.652344 73.613281 -31.425781 64.800781 C -31.597656 64.480469 -31.785156 64.171875 -32.054688 63.695312 Z M -32.054688 63.695312 " fill-opacity="1" fill-rule="nonzero"/></g><g clip-path="url(#385c27f334)"><path fill="#bc4749" d="M 80.261719 -33.136719 C 79.855469 -32.785156 79.53125 -32.507812 79.21875 -32.238281 C 80.234375 -30.707031 81.230469 -29.234375 82.203125 -27.75 C 88.054688 -18.777344 91.96875 -9.054688 93.359375 1.597656 C 94.070312 7.058594 93.703125 12.480469 92.488281 17.875 C 91.355469 22.890625 89.171875 27.421875 86.664062 31.839844 C 84.925781 34.894531 83.136719 37.953125 82.191406 41.371094 C 81.5625 43.671875 81.601562 46.035156 82.203125 48.382812 C 82.839844 50.839844 84.296875 52.925781 85.234375 55.21875 C 86.292969 57.808594 87.820312 60.484375 86.527344 63.535156 C 85.527344 65.882812 83.730469 67.328125 81.527344 68.433594 C 76.472656 70.980469 70.988281 71.664062 65.46875 72.203125 C 58.679688 72.867188 51.863281 73.34375 45.09375 74.164062 C 40.21875 74.757812 35.542969 76.265625 31.183594 78.550781 C 27.757812 80.339844 24.402344 82.28125 21.023438 84.160156 C 19.277344 85.132812 17.605469 86.246094 15.789062 87.046875 C 11.230469 89.054688 6.527344 89.207031 1.753906 87.777344 C -3.757812 86.128906 -8.261719 82.859375 -12.390625 79 C -18.054688 73.703125 -22.660156 67.589844 -26.335938 60.765625 C -26.488281 60.476562 -26.660156 60.207031 -26.832031 59.929688 C -26.902344 59.8125 -27.011719 59.722656 -27.21875 59.496094 C -27.785156 60.019531 -28.394531 60.460938 -28.828125 61.042969 C -29 61.277344 -28.835938 61.871094 -28.65625 62.203125 C -26.292969 66.65625 -23.59375 70.898438 -20.367188 74.78125 C -17.101562 78.722656 -13.523438 82.355469 -9.421875 85.4375 C -5.394531 88.460938 -1.042969 90.941406 3.929688 91.957031 C 7.382812 92.660156 10.84375 92.605469 14.316406 91.4375 C 18.433594 90.050781 21.824219 87.523438 25.347656 85.167969 C 29.746094 82.226562 34.320312 79.585938 39.417969 78.019531 C 43.589844 76.742188 47.890625 76.050781 52.242188 75.773438 C 58.050781 75.386719 63.867188 75.144531 69.667969 74.667969 C 74.972656 74.226562 80.234375 73.433594 85.179688 71.292969 C 87.238281 70.402344 89.1875 69.335938 90.816406 67.777344 C 93.019531 65.675781 94.035156 62.582031 92.695312 59.261719 C 91.707031 56.816406 90.359375 54.625 89.027344 52.375 C 87.03125 49.011719 85.925781 45.363281 87.148438 41.46875 C 88.109375 38.4375 89.179688 35.398438 90.554688 32.539062 C 96.128906 20.949219 97.542969 8.972656 94.449219 -3.554688 C 92.605469 -11 89.90625 -18.074219 85.960938 -24.65625 C 84.378906 -27.300781 82.605469 -29.835938 80.90625 -32.417969 C 80.753906 -32.632812 80.539062 -32.820312 80.261719 -33.136719 Z M 80.261719 -33.136719 " fill-opacity="1" fill-rule="nonzero"/></g><g clip-path="url(#c9c45b2a17)"><path fill="#bc4749" d="M -23.136719 56.144531 C -23.730469 56.59375 -24.339844 56.980469 -24.816406 57.484375 C -24.988281 57.671875 -24.960938 58.230469 -24.816406 58.507812 C -22.777344 62.429688 -20.410156 66.160156 -17.625 69.59375 C -14.125 73.902344 -10.257812 77.820312 -5.511719 80.789062 C -1.035156 83.585938 3.777344 85.292969 9.109375 84.628906 C 11.3125 84.359375 13.476562 83.765625 15.574219 82.703125 C 21.113281 79.890625 26.722656 77.203125 32.441406 74.78125 C 38.089844 72.390625 44.132812 71.445312 50.210938 70.753906 C 56.753906 70.007812 63.390625 69.828125 69.792969 68.046875 C 72.535156 67.285156 75.117188 66.214844 77.230469 64.15625 C 79.019531 62.410156 79.421875 60.28125 79.101562 58.023438 C 78.855469 56.324219 78.183594 54.675781 77.625 53.03125 C 77.121094 51.574219 76.382812 50.191406 75.980469 48.707031 C 74.8125 44.4375 75.765625 40.453125 78.058594 36.785156 C 80.152344 33.4375 82.417969 30.210938 84.574219 26.902344 C 89.339844 19.582031 91.382812 11.527344 90.789062 2.839844 C 90.359375 -3.480469 88.710938 -9.523438 86.265625 -15.367188 C 84.144531 -20.449219 81.429688 -25.179688 78.246094 -29.648438 C 78.003906 -29.988281 77.742188 -30.320312 77.4375 -30.726562 C 77.023438 -30.355469 76.671875 -30.0625 76.285156 -29.71875 C 76.519531 -29.367188 76.734375 -29.042969 76.941406 -28.722656 C 78.523438 -26.210938 80.261719 -23.792969 81.664062 -21.1875 C 84.925781 -15.105469 87.28125 -8.695312 88.207031 -1.800781 C 89.207031 5.617188 88.234375 12.714844 85.132812 19.5 C 83.191406 23.746094 80.1875 27.296875 77.375 30.976562 C 75.546875 33.347656 73.867188 35.859375 72.328125 38.429688 C 70.648438 41.253906 70.304688 44.417969 70.9375 47.601562 C 71.386719 49.886719 72.105469 52.113281 72.84375 54.328125 C 73.9375 57.609375 72.671875 61.296875 69.675781 63.203125 C 66.835938 65.007812 63.632812 65.84375 60.378906 66.394531 C 54.011719 67.464844 47.609375 68.308594 41.261719 69.460938 C 35.527344 70.503906 30.085938 72.570312 24.773438 74.945312 C 21.660156 76.328125 18.503906 77.617188 15.367188 78.945312 C 14.523438 79.304688 13.683594 79.71875 12.8125 79.988281 C 7.445312 81.625 2.265625 81.140625 -2.742188 78.585938 C -7.769531 76.023438 -11.699219 72.195312 -15.242188 67.90625 C -18.011719 64.550781 -20.472656 60.980469 -22.480469 57.113281 C -22.667969 56.789062 -22.894531 56.503906 -23.136719 56.144531 Z M -23.136719 56.144531 " fill-opacity="1" fill-rule="nonzero"/></g><g clip-path="url(#4843289ecf)"><path fill="#bc4749" d="M 74.65625 -28.34375 C 74.28125 -28.019531 73.992188 -27.769531 73.660156 -27.480469 C 73.910156 -27.085938 74.117188 -26.75 74.34375 -26.4375 C 77.183594 -22.433594 79.558594 -18.171875 81.25 -13.578125 C 83.839844 -6.554688 84.960938 0.65625 83.289062 8.082031 C 82.175781 13.035156 80.082031 17.550781 76.734375 21.382812 C 74.019531 24.484375 71.140625 27.449219 68.28125 30.425781 C 65.640625 33.179688 63.453125 36.234375 62.113281 39.804688 C 61.601562 41.171875 61.429688 42.726562 61.386719 44.203125 C 61.324219 46.082031 61.574219 47.96875 61.636719 49.859375 C 61.699219 51.863281 61.78125 53.921875 60.695312 55.683594 C 59.660156 57.355469 58.160156 58.6875 56.296875 59.335938 C 53.1875 60.421875 50.03125 61.414062 46.847656 62.257812 C 42.125 63.515625 37.316406 64.433594 32.640625 65.816406 C 26.902344 67.507812 21.257812 69.523438 15.574219 71.410156 C 10.609375 73.058594 5.582031 73.550781 0.519531 72.003906 C -3.757812 70.699219 -7.148438 68.003906 -10.195312 64.839844 C -13.503906 61.402344 -16.183594 57.5 -18.496094 53.335938 C -18.632812 53.09375 -18.8125 52.871094 -18.964844 52.644531 C -19.082031 52.671875 -19.160156 52.671875 -19.214844 52.707031 C -20.871094 53.886719 -20.898438 53.894531 -19.882812 55.710938 C -16.742188 61.339844 -12.957031 66.457031 -7.949219 70.574219 C -5.234375 72.804688 -2.273438 74.675781 1.160156 75.53125 C 3.832031 76.195312 6.554688 76.328125 9.34375 75.90625 C 14.933594 75.070312 20.015625 72.722656 25.238281 70.828125 C 32.695312 68.109375 40.355469 66.269531 48.167969 64.972656 C 52.484375 64.261719 56.792969 63.480469 60.902344 61.824219 C 64.6875 60.304688 66.871094 56.710938 66.277344 52.734375 C 65.898438 50.199219 65.511719 47.664062 65.34375 45.109375 C 65.0625 40.894531 66.890625 37.332031 69.425781 34.183594 C 72.417969 30.472656 75.710938 27 78.742188 23.304688 C 83.867188 17.046875 86.230469 9.78125 86.050781 1.726562 C 85.933594 -3.371094 84.828125 -8.300781 83.066406 -13.085938 C 81.160156 -18.246094 78.433594 -22.949219 75.339844 -27.472656 C 75.152344 -27.722656 74.945312 -27.964844 74.65625 -28.34375 Z M 74.65625 -28.34375 " fill-opacity="1" fill-rule="nonzero"/></g><g clip-path="url(#0511bc363c)"><path fill="#bc4749" d="M -14.59375 48.636719 C -15.195312 49.175781 -15.691406 49.625 -16.347656 50.21875 C -14.898438 52.394531 -13.542969 54.585938 -12.023438 56.65625 C -9.332031 60.324219 -6.078125 63.398438 -1.976562 65.441406 C 0.835938 66.851562 3.855469 67.632812 7.039062 67.410156 C 9.59375 67.230469 12.191406 67.132812 14.691406 66.609375 C 17.8125 65.960938 20.84375 64.9375 23.910156 64.054688 C 30.355469 62.203125 36.8125 60.371094 43.25 58.453125 C 45.972656 57.644531 48.628906 56.59375 50.875 54.792969 C 53.90625 52.359375 54.265625 48.914062 54.453125 45.335938 C 54.550781 43.375 54.957031 41.371094 55.578125 39.5 C 57.566406 33.546875 62.035156 29.464844 66.53125 25.410156 C 70.484375 21.847656 74.335938 18.207031 77.085938 13.550781 C 79.371094 9.675781 80.503906 5.5 80.699219 1.070312 C 80.960938 -4.910156 79.863281 -10.664062 77.203125 -16.023438 C 75.664062 -19.136719 73.8125 -22.09375 72.09375 -25.113281 C 71.980469 -25.320312 71.78125 -25.484375 71.566406 -25.726562 C 71.269531 -25.457031 71.007812 -25.222656 70.710938 -24.945312 C 70.9375 -24.585938 71.125 -24.25 71.339844 -23.929688 C 73.398438 -20.933594 75.1875 -17.796875 76.457031 -14.386719 C 79.191406 -7.058594 80.015625 0.367188 77.222656 7.902344 C 75.574219 12.34375 72.878906 16.066406 69.441406 19.269531 C 66.1875 22.308594 62.835938 25.238281 59.578125 28.277344 C 56.765625 30.902344 54.292969 33.878906 52.800781 37.429688 C 51.800781 39.804688 51.164062 42.375 50.738281 44.921875 C 50.101562 48.777344 48.582031 51.960938 45.09375 53.941406 C 43.628906 54.765625 42.109375 55.566406 40.515625 56.089844 C 34.113281 58.210938 27.703125 60.304688 21.246094 62.257812 C 17.101562 63.507812 12.875 64.558594 8.515625 64.695312 C 3.417969 64.847656 -1.195312 63.355469 -5.242188 60.179688 C -8.804688 57.382812 -11.4375 53.832031 -13.765625 50.011719 C -13.992188 49.605469 -14.242188 49.210938 -14.59375 48.636719 Z M -14.59375 48.636719 " fill-opacity="1" fill-rule="nonzero"/></g><g clip-path="url(#71b4bf7a2c)"><path fill="#bc4749" d="M -10.960938 45.710938 C -11.121094 45.777344 -11.195312 45.785156 -11.25 45.820312 C -12.550781 46.863281 -12.542969 46.863281 -11.644531 48.300781 C -8.902344 52.664062 -5.511719 56.421875 -0.863281 58.734375 C 1.085938 59.695312 3.335938 60.171875 5.503906 60.53125 C 11.390625 61.503906 17.058594 60.054688 22.640625 58.453125 C 27.433594 57.078125 32.171875 55.496094 36.847656 53.769531 C 40.34375 52.472656 43.421875 50.414062 45.03125 46.855469 C 45.839844 45.074219 46.316406 43.140625 46.875 41.253906 C 48.421875 36.074219 51.253906 31.675781 55.21875 28.0625 C 59.03125 24.574219 63.050781 21.308594 66.871094 17.828125 C 71.503906 13.613281 75.089844 8.710938 76.214844 2.335938 C 77.105469 -2.734375 76.539062 -7.679688 75 -12.542969 C 73.804688 -16.3125 71.871094 -19.710938 69.730469 -23.003906 C 69.597656 -23.207031 69.441406 -23.398438 69.300781 -23.605469 C 68.425781 -23.273438 68.410156 -22.820312 68.875 -22.121094 C 71.140625 -18.765625 72.933594 -15.179688 73.964844 -11.257812 C 76.160156 -2.949219 75.042969 4.773438 69.777344 11.707031 C 67.195312 15.105469 63.832031 17.722656 60.613281 20.492188 C 57.242188 23.386719 53.796875 26.238281 50.695312 29.417969 C 47.96875 32.214844 45.910156 35.578125 44.527344 39.300781 C 43.816406 41.207031 43.089844 43.113281 42.171875 44.921875 C 40.707031 47.808594 38.277344 49.769531 35.4375 51.214844 C 29.574219 54.21875 23.34375 56.1875 16.921875 57.472656 C 14.027344 58.058594 11.023438 58.425781 8.074219 58.390625 C 2.515625 58.320312 -2.230469 56.042969 -6.023438 51.988281 C -7.605469 50.296875 -8.921875 48.339844 -10.359375 46.503906 C -10.546875 46.242188 -10.761719 45.964844 -10.960938 45.710938 Z M -10.960938 45.710938 " fill-opacity="1" fill-rule="nonzero"/></g></svg>