<svg xmlns="http://www.w3.org/2000/svg" xmlns:xlink="http://www.w3.org/1999/xlink" width="1366" zoomAndPan="magnify" viewBox="0 0 1024.5 576" height="768" preserveAspectRatio="xMidYMid meet" version="1.0"><defs><clipPath id="9f9f62691b"><path d="M 0 0.140625 L 1024 0.140625 L 1024 575.859375 L 0 575.859375 Z M 0 0.140625 " clip-rule="nonzero"/></clipPath><clipPath id="0c1cb4b58c"><path d="M 212 137.464844 L 1024 137.464844 L 1024 575 L 212 575 Z M 212 137.464844 " clip-rule="nonzero"/></clipPath><clipPath id="f64384a8b2"><path d="M 533 284 L 852 284 L 852 575.859375 L 533 575.859375 Z M 533 284 " clip-rule="nonzero"/></clipPath><clipPath id="b401d81f2c"><path d="M 547 297 L 836 297 L 836 575.859375 L 547 575.859375 Z M 547 297 " clip-rule="nonzero"/></clipPath></defs><g clip-path="url(#9f9f62691b)"><path fill="#ffffff" d="M 0 0.140625 L 1024 0.140625 L 1024 575.859375 L 0 575.859375 Z M 0 0.140625 " fill-opacity="1" fill-rule="nonzero"/><path fill="#ffffff" d="M 0 0.140625 L 1024 0.140625 L 1024 575.859375 L 0 575.859375 Z M 0 0.140625 " fill-opacity="1" fill-rule="nonzero"/></g><g clip-path="url(#0c1cb4b58c)"><path fill="#bc4749" d="M 1015.648438 574.21875 C 1016.246094 569.480469 1016.871094 565.1875 1017.316406 560.890625 C 1017.914062 555.007812 1018.617188 549.125 1018.875 543.214844 C 1019.136719 537.304688 1019.136719 531.367188 1018.851562 525.460938 C 1018.433594 517.285156 1018.042969 509.058594 1016.949219 500.960938 C 1014.007812 479.148438 1007.003906 458.554688 995.289062 439.941406 C 989.640625 430.960938 982.429688 422.914062 975.53125 414.792969 C 971.808594 410.394531 967.277344 406.644531 963.011719 402.714844 C 955.875 396.152344 947.960938 390.6875 939.292969 386.3125 C 933.929688 383.605469 928.644531 380.664062 923.101562 378.398438 C 917.269531 376.03125 911.230469 373.871094 905.113281 372.488281 C 895.195312 370.277344 885.195312 368.011719 875.121094 367.152344 C 854.296875 365.355469 833.625 367.308594 813.035156 370.980469 C 799.859375 373.324219 786.480469 374.753906 773.152344 375.976562 C 764.769531 376.734375 756.230469 376.082031 748.316406 372.800781 C 735.480469 367.492188 728.503906 357.496094 726.605469 343.851562 C 724.078125 325.785156 725.378906 307.71875 726.265625 289.625 C 727.203125 270.726562 729.128906 251.828125 726.605469 232.875 C 723.664062 210.824219 713.976562 193.097656 694.558594 181.25 C 682.476562 173.882812 669.332031 169.066406 656.003906 164.617188 C 648.21875 162.011719 640.410156 159.460938 632.496094 157.328125 C 624.972656 155.296875 617.371094 153.550781 609.691406 152.25 C 600.292969 150.636719 590.816406 149.152344 581.3125 148.425781 C 571.890625 147.695312 562.414062 148.164062 552.964844 147.773438 C 539.660156 147.226562 526.722656 149.984375 513.628906 151.574219 C 496.707031 153.628906 480.878906 159.359375 465.285156 165.527344 C 455.132812 169.5625 445.449219 175.160156 436.207031 181.070312 C 423.058594 189.425781 411.007812 199.292969 400.28125 210.746094 C 388.203125 223.632812 377.660156 237.664062 369.300781 253.15625 C 356.570312 276.636719 348.8125 301.835938 346.027344 328.441406 C 344.257812 345.46875 344.101562 362.546875 346.027344 379.570312 C 347.539062 392.691406 349.28125 405.785156 350.871094 418.878906 C 351.988281 428.042969 353.472656 437.207031 352.277344 446.527344 C 351.078125 455.796875 346.183594 462.40625 337.308594 464.855469 C 328.664062 467.25 319.65625 468.472656 310.78125 470.0625 C 300.054688 471.960938 289.171875 473.210938 278.578125 475.632812 C 268.605469 477.921875 259.808594 482.894531 251.816406 489.558594 C 245.460938 494.84375 240.648438 501.222656 237.082031 508.328125 C 234.191406 514.109375 232.707031 520.644531 230.78125 526.890625 C 226.171875 541.757812 227.683594 556.882812 226.925781 571.929688 C 226.824219 574.21875 226.144531 575.078125 223.804688 574.949219 C 220.992188 574.765625 218.179688 574.816406 215.367188 574.949219 C 213.363281 575.027344 212.53125 574.347656 212.558594 572.292969 C 212.660156 559.277344 212.296875 546.234375 212.894531 533.242188 C 213.207031 526.734375 215.238281 520.304688 216.515625 513.847656 C 217.242188 510.230469 217.816406 506.558594 218.832031 503.019531 C 219.613281 500.285156 220.808594 497.683594 222.007812 495.105469 C 223.671875 491.589844 225.3125 488.023438 227.34375 484.71875 C 233.070312 475.425781 240.621094 468.03125 250.042969 462.304688 C 260.847656 455.71875 272.875 453.191406 284.851562 450.328125 C 292.921875 448.402344 301.199219 447.359375 309.296875 445.488281 C 322.183594 442.542969 329.289062 433.902344 330.539062 421.066406 C 331.554688 410.550781 331.527344 399.902344 331.65625 389.28125 C 331.839844 372.359375 330.746094 355.4375 332.570312 338.492188 C 335.328125 312.898438 341.578125 288.300781 351.9375 264.792969 C 357.429688 252.320312 364.015625 240.347656 372.375 229.515625 C 379.664062 220.066406 386.953125 210.539062 395.179688 201.949219 C 402.234375 194.554688 410.355469 188.070312 418.476562 181.851562 C 425.714844 176.304688 433.34375 171.175781 441.28125 166.726562 C 449.222656 162.273438 457.683594 158.734375 466.066406 155.0625 C 492.125 143.6875 519.875 140.09375 547.863281 138.140625 C 557.960938 137.4375 568.195312 138.402344 578.347656 138.921875 C 585.714844 139.285156 593.082031 139.859375 600.371094 140.925781 C 608.675781 142.125 616.953125 143.6875 625.128906 145.613281 C 634.628906 147.851562 644.078125 150.351562 653.375 153.292969 C 671.128906 158.890625 688.675781 165.214844 704.839844 174.5625 C 722.203125 184.609375 732.828125 199.890625 737.539062 219.363281 C 741.3125 234.929688 740.84375 250.734375 740.53125 266.5625 C 740.195312 282.46875 740.246094 298.347656 740.140625 314.253906 C 740.089844 321.777344 740.894531 329.171875 743.394531 336.355469 C 745.710938 343.046875 750.320312 347.679688 756.179688 351.066406 C 766.980469 357.3125 778.984375 357.625 790.933594 356.972656 C 806.605469 356.140625 822.25 354.398438 837.921875 353.746094 C 856.09375 352.992188 874.210938 353.667969 892.199219 357.285156 C 903.992188 359.65625 915.472656 362.804688 926.433594 367.542969 C 934.765625 371.164062 942.808594 375.613281 950.539062 380.402344 C 957.648438 384.804688 964.597656 389.671875 970.898438 395.136719 C 976.832031 400.265625 981.753906 406.566406 987.273438 412.214844 C 994.691406 419.816406 999.480469 429.242188 1005.289062 437.964844 C 1013.097656 449.703125 1017.914062 462.617188 1021.558594 475.945312 C 1024.371094 486.226562 1026.375 496.875 1027.492188 507.496094 C 1029.054688 522.179688 1029.316406 536.964844 1027.988281 551.726562 C 1027.363281 558.652344 1026.296875 565.550781 1025.308594 572.421875 C 1025.203125 573.101562 1024.265625 574.117188 1023.667969 574.140625 C 1021.089844 574.324219 1018.511719 574.21875 1015.648438 574.21875 Z M 1015.648438 574.21875 " fill-opacity="1" fill-rule="nonzero"/></g><path fill="#bc4749" d="M 994.640625 574.21875 C 995.289062 569.664062 995.863281 565.550781 996.4375 561.464844 C 998.699219 545.191406 998.855469 528.871094 996.800781 512.597656 C 995.863281 505.207031 994.121094 497.863281 992.296875 490.628906 C 988.625 476.074219 982.585938 462.484375 974.125 450.09375 C 965.144531 436.949219 954.261719 425.753906 941.039062 416.667969 C 926.851562 406.90625 911.386719 400.265625 894.648438 396.933594 C 879.523438 393.914062 864.109375 392.585938 848.75 395.320312 C 835.238281 397.714844 821.808594 400.449219 808.375 403.207031 C 794.132812 406.152344 780.050781 409.976562 765.679688 412.136719 C 751.777344 414.246094 738.164062 412.269531 726.578125 403.261719 C 717.855469 396.492188 712.261719 387.511719 708.929688 376.96875 C 705.777344 366.996094 704.839844 356.714844 704.839844 346.429688 C 704.867188 327.402344 705.414062 308.34375 705.90625 289.3125 C 706.296875 274.839844 707.210938 260.390625 705.285156 245.96875 C 702.574219 225.847656 694.921875 208.300781 677.480469 196.742188 C 670.269531 191.976562 662.148438 188.359375 654.023438 185.261719 C 638.953125 179.535156 623.515625 174.664062 607.53125 172.242188 C 595.527344 170.421875 583.398438 168.859375 571.292969 168.3125 C 559.5 167.765625 547.628906 168.363281 535.808594 168.910156 C 520.109375 169.667969 504.882812 173.597656 490.070312 178.285156 C 475.4375 182.890625 461.222656 189.085938 448.441406 197.914062 C 442.453125 202.027344 436.234375 205.929688 430.816406 210.722656 C 423.292969 217.359375 416.136719 224.492188 409.289062 231.886719 C 400.332031 241.542969 393.070312 252.476562 387.1875 264.246094 C 377.945312 282.703125 371.539062 302.019531 369.25 322.6875 C 366.152344 350.621094 369.640625 377.773438 378.542969 404.222656 C 383.800781 419.894531 389.972656 435.230469 395.464844 450.824219 C 398.589844 459.648438 401.453125 468.578125 401.035156 478.183594 C 400.699219 486.332031 393.902344 495.210938 386.378906 498.253906 C 376.382812 502.289062 365.8125 503.304688 355.375 505.074219 C 343.398438 507.105469 331.265625 508.40625 319.34375 510.671875 C 306.25 513.171875 293.414062 516.84375 283.027344 525.851562 C 277.875 530.300781 273.34375 535.222656 269.828125 541.367188 C 264.542969 550.605469 263.453125 560.785156 261.238281 570.757812 C 260.535156 573.882812 259.546875 575.285156 256.214844 574.894531 C 253.84375 574.609375 251.425781 574.738281 249.027344 574.871094 C 247 574.972656 246.0625 574.167969 246.347656 572.164062 C 247.804688 561.75 248.195312 551.050781 251.007812 541.027344 C 255.460938 525.171875 265.195312 512.363281 279.957031 504.761719 C 287.84375 500.703125 296.929688 498.671875 305.675781 496.5625 C 313.929688 494.585938 322.441406 493.621094 330.851562 492.371094 C 336.8125 491.488281 342.800781 490.964844 348.761719 490.082031 C 357.847656 488.753906 366.878906 487.085938 374.089844 480.761719 C 377.476562 477.792969 379.117188 473.835938 379.84375 469.382812 C 381.199219 461.445312 379.609375 453.894531 377.527344 446.320312 C 372.765625 429.085938 367.792969 411.902344 363.496094 394.539062 C 357.769531 371.371094 356.753906 347.835938 359.566406 324.148438 C 362.585938 298.554688 370.65625 274.554688 383.90625 252.53125 C 389.605469 243.054688 396.402344 234.074219 403.71875 225.769531 C 411.320312 217.152344 419.703125 209.105469 428.527344 201.738281 C 435.347656 196.0625 443.234375 191.613281 450.890625 187.003906 C 474.371094 172.816406 500.402344 165.8125 527.191406 161.910156 C 544.867188 159.332031 562.753906 159.046875 580.691406 160.660156 C 598.679688 162.273438 616.457031 165.085938 633.691406 170.214844 C 648.011719 174.484375 662.355469 179.246094 675.867188 185.574219 C 699.21875 196.480469 710.828125 216.160156 713.925781 241.464844 C 715.671875 255.835938 714.757812 270.152344 714.132812 284.5 C 713.09375 308.605469 710.855469 332.761719 713.925781 356.84375 C 715.566406 369.601562 720.304688 381.316406 731.394531 389.152344 C 738.789062 394.382812 747.144531 396.882812 756.230469 397.167969 C 770.496094 397.613281 784.371094 395.136719 798.222656 392.066406 C 818.136719 387.640625 838.105469 383.734375 858.617188 383.136719 C 873.820312 382.695312 888.765625 383.96875 903.367188 388.058594 C 916.410156 391.703125 928.75 397.039062 940.308594 404.300781 C 954.679688 413.363281 966.34375 424.945312 976.597656 438.429688 C 984.332031 448.585938 990.761719 459.363281 994.925781 471.257812 C 998.933594 482.6875 1002.578125 494.296875 1004.351562 506.480469 C 1006.640625 522.257812 1006.5625 537.980469 1005.234375 553.785156 C 1004.765625 559.277344 1003.804688 564.71875 1003.308594 570.210938 C 1002.996094 573.492188 1001.539062 574.792969 998.3125 574.269531 C 997.320312 574.089844 996.28125 574.21875 994.640625 574.21875 Z M 994.640625 574.21875 " fill-opacity="1" fill-rule="nonzero"/><path fill="#bc4749" d="M 975.453125 573.90625 C 976.207031 568.050781 977.144531 562.425781 977.613281 556.75 C 978.605469 545.035156 978.734375 533.347656 976.910156 521.605469 C 975.246094 510.984375 972.382812 500.804688 968.894531 490.628906 C 964.78125 478.523438 958.375 467.902344 950.28125 458.449219 C 944.265625 451.421875 937.105469 445.097656 929.53125 439.785156 C 917.035156 431.0625 902.953125 426.011719 887.671875 423.566406 C 869.03125 420.597656 850.964844 422.628906 833 426.976562 C 819.253906 430.308594 805.746094 434.527344 792.050781 438.015625 C 779.917969 441.113281 767.660156 443.273438 755.03125 442.152344 C 728.089844 439.757812 709.707031 425.648438 698.90625 401.203125 C 693.335938 388.628906 690.964844 375.25 690.496094 361.710938 C 689.613281 335.707031 689.535156 309.671875 689.039062 283.664062 C 688.777344 270.308594 687.683594 257.058594 683.726562 244.199219 C 677.976562 225.429688 666.050781 212.203125 648.191406 204.265625 C 634.527344 198.171875 620.15625 194.347656 605.421875 192.027344 C 593.730469 190.179688 581.992188 188.566406 570.199219 187.8125 C 557.648438 187.003906 545.078125 187.8125 532.582031 189.609375 C 515.398438 192.054688 498.917969 196.664062 482.859375 203.300781 C 469.320312 208.871094 457.214844 216.65625 445.8125 225.457031 C 435.710938 233.238281 426.757812 242.558594 419.3125 253 C 411.5 263.933594 405.070312 275.570312 400.515625 288.351562 C 395.230469 303.191406 392.082031 318.339844 391.898438 334.066406 C 391.714844 351.378906 394.449219 368.246094 400.230469 384.621094 C 406.582031 402.660156 415.199219 419.558594 425.011719 435.957031 C 431.183594 446.292969 437.011719 456.890625 442.246094 467.746094 C 446.957031 477.507812 448.648438 488 445.292969 498.699219 C 443 505.988281 438.238281 511.558594 432.25 516.164062 C 423.972656 522.542969 414.183594 525.539062 404.316406 528.089844 C 386.429688 532.75 368.363281 536.785156 350.507812 541.574219 C 342.773438 543.65625 335.144531 546.519531 327.910156 549.929688 C 323.378906 552.066406 319.917969 556.308594 315.542969 558.886719 C 309.816406 562.269531 307.890625 568.207031 304.480469 573.179688 C 303.957031 573.933594 302.945312 574.765625 302.109375 574.792969 C 296.722656 574.921875 291.332031 574.871094 285.449219 574.871094 C 285.789062 573.59375 285.917969 572.605469 286.28125 571.71875 C 288.234375 567.007812 289.980469 562.164062 292.375 557.6875 C 293.882812 554.851562 296.175781 552.300781 298.542969 550.085938 C 301.796875 547.015625 305.285156 544.097656 309.007812 541.601562 C 316.039062 536.914062 323.875 533.816406 332.046875 531.96875 C 350.480469 527.828125 369.066406 524.234375 387.523438 520.148438 C 396.53125 518.171875 405.644531 516.191406 413.738281 511.375 C 422.800781 506.011719 428.632812 498.308594 429.359375 487.660156 C 429.855469 480.449219 428.632812 473.238281 425.609375 466.625 C 420.457031 455.378906 415.09375 444.238281 409.496094 433.199219 C 400.4375 415.367188 391.691406 397.457031 387.132812 377.773438 C 381.953125 355.488281 380.835938 333.074219 385.261719 310.558594 C 388.359375 294.753906 393.589844 279.683594 401.609375 265.648438 C 409.496094 251.851562 419.050781 239.511719 430.558594 228.449219 C 450.34375 209.472656 473.851562 197.339844 499.597656 189.085938 C 515.425781 184.011719 531.746094 181.773438 548.304688 180.679688 C 565.097656 179.558594 581.78125 180.417969 598.339844 183.046875 C 617.996094 186.171875 637.335938 190.882812 655.558594 199.003906 C 677.011719 208.585938 688.933594 225.769531 693.152344 248.597656 C 696.277344 265.519531 695.808594 282.597656 695.441406 299.648438 C 694.921875 325.34375 693.648438 351.117188 698.28125 376.601562 C 701.613281 394.957031 709.605469 410.808594 725.640625 421.433594 C 735.898438 428.226562 747.40625 430.984375 759.691406 430.804688 C 771.148438 430.648438 782.183594 428.199219 793.144531 425.3125 C 803.609375 422.550781 813.996094 419.503906 824.488281 416.875 C 842.738281 412.292969 861.222656 409.585938 880.09375 411.304688 C 890.949219 412.292969 901.570312 414.585938 911.828125 418.621094 C 922.738281 422.914062 932.890625 428.382812 941.453125 436.402344 C 946.660156 441.269531 951.296875 446.734375 956.5 451.605469 C 963.0625 457.695312 967.667969 465.21875 971.105469 473.160156 C 975.480469 483.207031 978.839844 493.726562 981.960938 504.242188 C 983.863281 510.671875 984.980469 517.441406 985.527344 524.132812 C 986.179688 532.175781 986.128906 540.324219 985.867188 548.421875 C 985.683594 554.746094 984.878906 561.074219 984.070312 567.347656 C 983.027344 575.261719 983.472656 574.582031 975.453125 573.90625 Z M 975.453125 573.90625 " fill-opacity="1" fill-rule="nonzero"/><path fill="#bc4749" d="M 331.554688 573.855469 C 333.6875 572.03125 335.746094 570.082031 337.984375 568.414062 C 340.535156 566.511719 343.136719 564.664062 345.949219 563.179688 C 351.234375 560.394531 356.492188 557.480469 362.066406 555.398438 C 370.03125 552.402344 378.257812 550.113281 386.378906 547.507812 C 400.046875 543.160156 413.765625 538.945312 427.40625 534.441406 C 440.058594 530.25 450.914062 523.324219 458.75 512.3125 C 465.726562 502.5 467.421875 491.566406 464.867188 479.902344 C 462.421875 468.628906 456.980469 458.738281 450.734375 449.210938 C 442.84375 437.207031 434.828125 425.3125 427.148438 413.179688 C 415.535156 394.824219 407.675781 374.886719 404.734375 353.382812 C 401.296875 328.3125 404.367188 304.050781 415.328125 280.90625 C 421.367188 268.175781 428.917969 256.617188 438.496094 246.386719 C 455.289062 228.5 475.777344 216.109375 498.582031 207.675781 C 513.421875 202.183594 528.882812 198.929688 544.789062 197.757812 C 561.0625 196.53125 577.253906 196.742188 593.339844 199.136719 C 610.445312 201.660156 627.417969 204.96875 643.195312 212.492188 C 658.761719 219.910156 669.148438 232.015625 675.007812 248.078125 C 678.988281 259.039062 680.839844 270.464844 681.203125 282.050781 C 681.855469 301.601562 682.0625 321.179688 682.738281 340.753906 C 683.3125 357.417969 684.457031 374.050781 688.285156 390.347656 C 693.023438 410.472656 702.261719 427.964844 719.445312 440.410156 C 730.953125 448.742188 743.917969 452.984375 758.078125 454.023438 C 775.703125 455.328125 792.570312 451.394531 809.519531 447.414062 C 824.382812 443.925781 839.328125 440.617188 854.398438 438.144531 C 868.355469 435.855469 882.359375 436.714844 896.105469 440.671875 C 905.347656 443.324219 914.066406 447.046875 922.113281 452.28125 C 925.15625 454.257812 928.175781 456.367188 930.753906 458.867188 C 939.425781 467.300781 947.910156 476.023438 953.195312 487.035156 C 958.820312 498.75 963.582031 510.804688 965.457031 523.898438 C 967.667969 539.363281 967.589844 554.773438 965.222656 570.183594 C 964.519531 574.765625 964.441406 574.738281 958.140625 573.855469 C 958.375 571.171875 958.765625 568.441406 958.84375 565.707031 C 959.054688 555.214844 959.859375 544.699219 959.105469 534.257812 C 958.402344 524.574219 955.902344 515.074219 952.492188 505.804688 C 948.820312 495.914062 944.03125 486.722656 937.210938 478.808594 C 932.601562 473.445312 927.058594 468.8125 921.589844 464.257812 C 910.867188 455.273438 898.058594 450.691406 884.519531 448.53125 C 873.429688 446.761719 862.105469 446.5 850.964844 448.636719 C 831.882812 452.308594 812.878906 456.550781 793.769531 460.117188 C 776.015625 463.449219 758.183594 464.179688 740.636719 458.683594 C 716.242188 451.058594 700.101562 434.527344 690.210938 411.382812 C 684.300781 397.535156 681.542969 382.851562 680.472656 367.988281 C 678.9375 346.195312 678.441406 324.328125 676.960938 302.511719 C 676.046875 289.261719 675.109375 275.855469 672.457031 262.863281 C 666.726562 235.035156 648.792969 218.296875 621.640625 211.136719 C 600.1875 205.488281 578.425781 202.261719 556.191406 203.25 C 539.21875 204.03125 522.582031 206.609375 506.261719 211.789062 C 495.015625 215.355469 484.496094 220.351562 474.527344 226.210938 C 463.929688 232.457031 454.273438 240.242188 445.628906 249.300781 C 435.660156 259.765625 427.929688 271.585938 422.042969 284.628906 C 416.992188 295.847656 413.792969 307.617188 412.621094 320.035156 C 411.65625 330.394531 411.65625 340.546875 413.324219 350.804688 C 415.824219 366.058594 420.742188 380.457031 427.929688 394.097656 C 436.414062 410.160156 446.878906 424.867188 457.476562 439.578125 C 463.230469 447.570312 468.539062 456.03125 472.914062 464.828125 C 479.5 478.132812 481.816406 492.269531 475.488281 506.457031 C 470.023438 518.71875 461.121094 528.246094 448.988281 534.023438 C 438.105469 539.207031 426.914062 543.734375 415.667969 548.054688 C 405.199219 552.089844 394.421875 555.320312 383.90625 559.226562 C 377.242188 561.699219 370.707031 564.640625 364.25 567.660156 C 360.242188 569.535156 356.519531 571.980469 352.667969 574.140625 C 352.222656 574.402344 351.730469 574.6875 351.234375 574.6875 C 344.832031 574.714844 338.425781 574.714844 332.023438 574.714844 C 331.890625 574.480469 331.734375 574.167969 331.554688 573.855469 Z M 331.554688 573.855469 " fill-opacity="1" fill-rule="nonzero"/><path fill="#bc4749" d="M 383.152344 573.828125 C 392.210938 569.925781 401.296875 566.019531 410.355469 562.089844 C 425.585938 555.449219 441.074219 549.332031 455.964844 541.992188 C 467.628906 536.261719 477.519531 527.933594 484.707031 516.738281 C 493.324219 503.359375 494.832031 489.089844 490.539062 473.964844 C 486.816406 460.820312 479.785156 449.46875 471.792969 438.613281 C 461.746094 424.972656 451.097656 411.695312 441.960938 397.457031 C 426.390625 373.191406 419.257812 346.457031 422.695312 317.457031 C 423.945312 306.886719 426.914062 296.761719 431.285156 286.996094 C 436.363281 275.699219 443.183594 265.730469 451.382812 256.488281 C 464.660156 241.542969 480.929688 230.792969 498.996094 223.035156 C 516.648438 215.433594 535.339844 211.527344 554.683594 210.722656 C 577.980469 209.730469 600.785156 212.203125 623.046875 219.078125 C 643.84375 225.507812 657.800781 239.253906 664.957031 259.871094 C 668.8125 270.988281 670.503906 282.519531 671.285156 294.15625 C 672.558594 313.160156 673.183594 332.191406 674.5625 351.167969 C 676.023438 371.292969 678.105469 391.390625 685.160156 410.523438 C 695.078125 437.46875 712.886719 456.707031 740.585938 465.738281 C 755.761719 470.6875 771.484375 471.492188 787.210938 469.28125 C 803.972656 466.910156 820.6875 463.945312 837.402344 461.183594 C 852.03125 458.761719 866.738281 457.539062 881.472656 459.832031 C 891.730469 461.417969 901.519531 464.464844 910.421875 470.296875 C 916.722656 474.433594 922.191406 479.25 927.476562 484.585938 C 932.550781 489.714844 936.847656 495.3125 939.789062 501.691406 C 944.371094 511.664062 948.351562 521.839844 950.070312 532.90625 C 951.996094 545.246094 951.867188 557.453125 950.644531 569.769531 C 950.203125 574.324219 949.890625 574.558594 943.171875 574.039062 C 943.171875 572.996094 943.070312 571.875 943.199219 570.808594 C 944.472656 560.03125 944.578125 549.304688 942.808594 538.527344 C 940.203125 522.777344 935.101562 508.042969 924.792969 495.703125 C 919.664062 489.558594 913.597656 484.222656 906.597656 479.980469 C 888.582031 469.070312 868.902344 467.328125 848.648438 469.226562 C 836.332031 470.398438 824.125 472.457031 811.863281 474.121094 C 792.859375 476.726562 773.878906 479.015625 754.71875 475.710938 C 725.902344 470.765625 704.347656 455.535156 689.769531 430.28125 C 681.699219 416.304688 677.636719 400.996094 674.902344 385.21875 C 671.050781 363.144531 669.957031 340.808594 668.523438 318.496094 C 667.429688 301.472656 666.339844 284.472656 661.339844 267.941406 C 654.335938 244.695312 639.261719 229.804688 616.042969 223.058594 C 603.3125 219.363281 590.242188 217.671875 577.042969 216.707031 C 562.753906 215.667969 548.539062 216.371094 534.53125 219 C 526.515625 220.507812 518.679688 223.164062 510.816406 225.429688 C 499.285156 228.734375 488.921875 234.75 479.210938 241.386719 C 470.386719 247.402344 461.902344 254.300781 455.523438 263.253906 C 452.996094 266.796875 450.082031 270.050781 447.636719 273.667969 C 439.410156 285.773438 434.460938 299.101562 432.015625 313.601562 C 428.941406 331.671875 431.207031 349.035156 437.324219 366.058594 C 441.570312 377.878906 447.53125 388.863281 454.898438 399.015625 C 463.125 410.367188 471.84375 421.355469 480.226562 432.601562 C 490.617188 446.554688 499.492188 461.261719 502.773438 478.730469 C 506.078125 496.355469 502.097656 511.949219 490.226562 525.460938 C 480.59375 536.417969 468.824219 544.542969 455.808594 550.894531 C 444.144531 556.570312 432.300781 561.855469 420.558594 567.371094 C 415.980469 569.535156 411.476562 571.902344 406.945312 574.140625 C 406.398438 574.402344 405.800781 574.765625 405.226562 574.765625 C 397.988281 574.816406 390.726562 574.792969 383.488281 574.792969 C 383.308594 574.480469 383.230469 574.167969 383.152344 573.828125 Z M 383.152344 573.828125 " fill-opacity="1" fill-rule="nonzero"/><path fill="#bc4749" d="M 432.066406 574.84375 C 445.863281 567.136719 459.453125 559.925781 472.625 552.039062 C 485.511719 544.308594 497.488281 535.300781 506.390625 522.832031 C 513.890625 512.390625 516.777344 500.597656 515.710938 488 C 513.757812 464.828125 503.476562 444.992188 489.78125 426.714844 C 479.550781 413.074219 468.355469 400.058594 459.140625 385.765625 C 442.898438 360.59375 436.699219 333.074219 445.03125 303.476562 C 448.492188 291.164062 454.457031 280.125 462.527344 270.050781 C 472.859375 257.113281 485.617188 247.21875 500.039062 239.589844 C 517.246094 230.480469 535.835938 225.769531 555.308594 224.464844 C 572.464844 223.320312 589.382812 224.597656 606.148438 228.292969 C 632.390625 234.097656 649.417969 249.953125 656.316406 275.828125 C 659.4375 287.519531 661.15625 299.703125 662.433594 311.753906 C 665.324219 339.167969 666.285156 366.761719 671.933594 393.863281 C 676.257812 414.609375 683.546875 434.03125 697.472656 450.433594 C 715.097656 471.207031 737.953125 481.722656 764.714844 484.691406 C 782.863281 486.695312 800.875 484.640625 818.890625 483 C 833.703125 481.644531 848.492188 480.109375 863.433594 481.308594 C 875.433594 482.246094 886.863281 485.367188 897.300781 491.097656 C 902.742188 494.0625 907.558594 498.515625 911.933594 502.992188 C 916.175781 507.339844 920.160156 512.207031 923.023438 517.519531 C 928.855469 528.269531 932.734375 539.804688 933.046875 552.222656 C 933.203125 558.234375 932.835938 564.273438 933.046875 570.261719 C 933.148438 573.648438 931.875 574.792969 928.699219 574.269531 C 927.996094 574.167969 927.265625 574.191406 926.382812 574.167969 C 926.382812 570.859375 926.355469 567.660156 926.382812 564.484375 C 926.460938 554.019531 924.84375 543.890625 921.460938 533.921875 C 919.066406 526.867188 915.65625 520.488281 911.101562 514.863281 C 906.699219 509.421875 901.414062 504.761719 895.324219 500.960938 C 886.914062 495.703125 877.828125 492.265625 868.199219 490.523438 C 854.632812 488.050781 840.890625 488.308594 827.144531 489.167969 C 808.765625 490.316406 790.4375 492.035156 771.980469 490.863281 C 725.667969 487.894531 690.703125 461.625 675.398438 417.789062 C 669.90625 402.089844 666.804688 385.84375 664.828125 369.417969 C 662.09375 346.796875 660.011719 324.121094 657.175781 301.496094 C 656.183594 293.582031 654.308594 285.695312 651.96875 278.066406 C 644.027344 252.085938 626.195312 237.015625 599.667969 232.066406 C 580.375 228.476562 561.007812 227.929688 541.664062 231.574219 C 530.941406 233.578125 520.265625 236.128906 510.53125 241.308594 C 502.5625 245.554688 494.257812 249.484375 487.203125 254.976562 C 479.992188 260.601562 473.746094 267.628906 467.785156 274.632812 C 458.882812 285.125 453.753906 297.695312 451.097656 311.078125 C 446.800781 332.582031 451.097656 352.914062 461.222656 372.046875 C 469.136719 387.015625 479.550781 400.292969 490.148438 413.441406 C 502.148438 428.382812 512.039062 444.628906 518.367188 462.824219 C 523 476.152344 525.578125 489.714844 523.390625 503.929688 C 521.828125 514.082031 517.167969 522.621094 510.476562 530.144531 C 500.558594 541.3125 488.375 549.695312 475.777344 557.480469 C 466.585938 563.15625 457.214844 568.542969 447.921875 574.035156 C 447.21875 574.453125 446.386719 574.816406 445.628906 574.84375 C 441.203125 574.871094 436.753906 574.84375 432.066406 574.84375 Z M 432.066406 574.84375 " fill-opacity="1" fill-rule="nonzero"/><path fill="#bc4749" d="M 464.816406 574.167969 C 467.964844 572.058594 471.117188 569.925781 474.265625 567.816406 C 488.324219 558.390625 502.796875 549.59375 515.320312 538.085938 C 531.332031 523.378906 536.25 505.152344 532.660156 484.199219 C 528.390625 459.207031 518.082031 436.738281 503.578125 416.148438 C 495.5625 404.746094 486.710938 393.941406 478.667969 382.589844 C 470.855469 371.550781 464.921875 359.472656 461.796875 346.273438 C 458.152344 330.914062 458.464844 315.609375 463.929688 300.585938 C 467.003906 292.152344 471.429688 284.550781 476.871094 277.363281 C 485.824219 265.574219 497.175781 256.695312 509.957031 249.902344 C 526.28125 241.230469 543.929688 236.726562 562.492188 235.789062 C 576.082031 235.085938 589.488281 235.84375 602.714844 239.070312 C 624.191406 244.328125 638.457031 257.660156 646.398438 278.121094 C 651.136719 290.328125 653.375 303.113281 655.015625 316.023438 C 658.449219 343.097656 660.324219 370.382812 666.261719 397.089844 C 671.207031 419.375 679.066406 440.304688 694.089844 457.957031 C 709.527344 476.050781 728.949219 487.425781 752.066406 492.96875 C 771.746094 497.683594 791.660156 497.472656 811.628906 496.875 C 829.824219 496.300781 848.046875 495.496094 865.984375 499.6875 C 876.996094 502.265625 887.125 506.636719 895.664062 514.421875 C 901.78125 519.992188 907.402344 525.980469 910.761719 533.53125 C 915.058594 543.214844 918.234375 553.289062 918.207031 564.09375 C 918.207031 566.667969 918.390625 569.246094 918.546875 571.824219 C 918.648438 573.515625 918.023438 574.21875 916.253906 574.296875 C 911.101562 574.53125 911.308594 574.347656 910.945312 569.066406 C 910.554688 563.3125 909.539062 557.558594 908.289062 551.933594 C 907.402344 547.925781 906.074219 543.917969 904.253906 540.246094 C 895.664062 522.832031 881.472656 512.441406 862.886719 507.367188 C 848.046875 503.332031 832.949219 503.046875 817.773438 502.863281 C 804.574219 502.679688 791.324219 502.734375 778.175781 501.796875 C 744.855469 499.425781 715.617188 487.921875 693.28125 461.992188 C 681.777344 448.636719 673.863281 433.277344 668.679688 416.511719 C 662.617188 396.832031 659.257812 376.578125 656.601562 356.191406 C 653.945312 335.914062 652.4375 315.453125 647.253906 295.5625 C 644.078125 283.40625 639.523438 271.847656 631.117188 262.160156 C 620.859375 250.316406 607.503906 244.328125 592.351562 242.089844 C 575.535156 239.589844 558.847656 240.292969 542.238281 244.304688 C 528.363281 247.660156 515.605469 253.179688 503.710938 261.171875 C 496.679688 265.882812 490.695312 271.613281 485.460938 277.9375 C 475.90625 289.445312 469.839844 302.667969 468.253906 317.871094 C 466.066406 338.855469 472.652344 357.339844 483.820312 374.441406 C 491.707031 386.546875 500.507812 398.054688 508.527344 410.082031 C 523.859375 433.09375 535.078125 457.902344 539.792969 485.367188 C 541.613281 496.015625 541.820312 506.664062 538.515625 517.207031 C 535.546875 526.65625 529.847656 534.285156 522.558594 540.636719 C 516.152344 546.207031 509.28125 551.257812 502.382812 556.230469 C 494.050781 562.21875 485.488281 567.917969 476.949219 573.621094 C 475.75 574.425781 474.109375 574.765625 472.652344 574.871094 C 470.179688 575.078125 467.679688 574.921875 465.179688 574.921875 C 465.050781 574.636719 464.921875 574.402344 464.816406 574.167969 Z M 464.816406 574.167969 " fill-opacity="1" fill-rule="nonzero"/><path fill="#bc4749" d="M 490.382812 574.0625 C 494.207031 571.304688 498.085938 568.570312 501.886719 565.8125 C 511.441406 558.832031 521.28125 552.195312 530.496094 544.800781 C 547.339844 531.265625 552.027344 513.144531 548.902344 492.449219 C 544.425781 462.773438 533.441406 435.4375 518.160156 409.847656 C 510.324219 396.726562 501.210938 384.386719 493.035156 371.472656 C 482.910156 355.464844 476.609375 338.203125 478.613281 318.886719 C 479.914062 306.367188 484.339844 295.015625 492.097656 284.863281 C 499.777344 274.8125 509.230469 266.925781 520.085938 260.886719 C 535.210938 252.453125 551.742188 248.574219 569.027344 247.609375 C 580.457031 246.957031 591.726562 247.6875 602.636719 251.28125 C 621.71875 257.554688 633.121094 271.480469 639.964844 289.730469 C 644.601562 302.070312 646.761719 315.007812 648.871094 327.949219 C 652.773438 351.921875 656.210938 376.003906 660.898438 399.851562 C 664.957031 420.46875 672.429688 439.992188 684.847656 457.277344 C 703.773438 483.625 729.726562 498.800781 761.148438 505.257812 C 779.269531 508.980469 797.699219 509.398438 816.105469 510.308594 C 828.574219 510.933594 841.046875 511.84375 853.152344 515.148438 C 865.152344 518.40625 876.269531 523.636719 884.703125 532.984375 C 890.378906 539.28125 895.480469 546.207031 897.222656 554.953125 C 898.082031 559.222656 899.359375 563.390625 900.21875 567.660156 C 900.609375 569.636719 900.480469 571.746094 900.609375 574.011719 C 899.332031 574.113281 898.421875 574.113281 897.535156 574.246094 C 894.308594 574.792969 893.632812 573.074219 893.292969 570.210938 C 892.148438 560.394531 889.179688 551.335938 883.089844 543.1875 C 872.753906 529.339844 858.566406 522.179688 842.21875 519.261719 C 828.835938 516.894531 815.246094 515.617188 801.683594 514.394531 C 781.871094 512.597656 762.113281 510.828125 743.160156 504.113281 C 706.898438 491.253906 682.296875 466.363281 668.003906 430.960938 C 660.898438 413.335938 656.835938 394.878906 653.582031 376.238281 C 649.753906 354.34375 646.292969 332.371094 642.230469 310.503906 C 640.277344 300.039062 636.609375 290.042969 631.167969 280.800781 C 621.847656 264.972656 608.074219 255.886719 589.929688 253.101562 C 574.625 250.757812 559.734375 252.6875 544.894531 256.589844 C 532.917969 259.742188 522.0625 265.234375 512.484375 272.757812 C 504.179688 279.292969 497.253906 287.230469 492.542969 297.097656 C 486.660156 309.386719 484.601562 322.0625 486.789062 335.316406 C 488.742188 347.160156 493.765625 357.886719 499.960938 368.140625 C 510.972656 386.289062 522.972656 403.859375 531.851562 423.226562 C 541.875 445.070312 550.230469 467.433594 554.214844 491.253906 C 555.621094 499.609375 556.246094 507.992188 554.941406 516.425781 C 553.042969 528.582031 547.316406 538.738281 537.734375 546.285156 C 528.3125 553.730469 518.3125 560.472656 508.550781 567.527344 C 506.105469 569.300781 503.5 570.859375 501.210938 572.789062 C 497.957031 575.574219 494.285156 574.660156 490.71875 574.792969 C 490.617188 574.582031 490.484375 574.324219 490.382812 574.0625 Z M 490.382812 574.0625 " fill-opacity="1" fill-rule="nonzero"/><path fill="#bc4749" d="M 511.023438 574.480469 C 517.144531 570.417969 522.949219 566.644531 528.675781 562.765625 C 538.957031 555.789062 549.269531 548.8125 556.191406 538.085938 C 561.867188 529.285156 563.402344 519.496094 563.144531 509.214844 C 562.804688 495.46875 559.5 482.296875 555.699219 469.226562 C 548.746094 445.226562 539.636719 422.058594 527.945312 399.953125 C 522.609375 389.855469 516.597656 380.117188 511.023438 370.121094 C 505.089844 359.5 499.386719 348.746094 497.175781 336.5625 C 494.519531 321.855469 496.628906 308.03125 504.414062 295.042969 C 511.101562 283.875 520.734375 275.882812 531.824219 269.816406 C 548.277344 260.78125 566.214844 257.058594 584.878906 258.699219 C 607.164062 260.652344 622.679688 272.550781 631.84375 292.90625 C 637.050781 304.519531 640.097656 316.753906 642.441406 329.144531 C 645.148438 343.464844 647.566406 357.808594 649.910156 372.175781 C 652.878906 390.480469 657.097656 408.46875 663.160156 425.960938 C 670.347656 446.683594 681.359375 465.089844 697.316406 480.292969 C 714.707031 496.875 735.480469 507.160156 758.703125 512.808594 C 775.78125 516.972656 793.25 518.40625 810.640625 520.382812 C 823.1875 521.789062 835.734375 523.453125 847.65625 527.828125 C 856.925781 531.238281 865.414062 535.925781 872.128906 543.5 C 876.867188 548.835938 880.902344 554.539062 883.089844 561.332031 C 884.390625 565.316406 885.09375 569.507812 886.1875 574.191406 C 883.816406 574.191406 881.785156 574.324219 879.78125 574.113281 C 879.210938 574.035156 878.402344 572.96875 878.296875 572.265625 C 876.867188 562.945312 872.519531 555.136719 866.246094 548.265625 C 853.828125 534.597656 837.21875 529.964844 819.984375 526.8125 C 799.210938 523.011719 778.046875 521.582031 757.558594 516.164062 C 730.25 508.929688 706.664062 495.574219 688.050781 474.097656 C 673.601562 457.460938 664.386719 437.988281 658.058594 417.03125 C 652.148438 397.429688 648.296875 377.359375 644.730469 357.207031 C 641.660156 339.792969 638.953125 322.273438 632.886719 305.558594 C 628.304688 292.855469 621.976562 281.296875 610.652344 273.226562 C 602.269531 267.238281 592.792969 264.296875 582.539062 263.699219 C 568.558594 262.890625 555.175781 265.285156 542.550781 271.378906 C 537.34375 273.875 531.851562 276.21875 527.425781 279.8125 C 510.191406 293.84375 499.648438 312.925781 505.976562 338.933594 C 508.734375 350.285156 514.097656 360.488281 519.433594 370.667969 C 533.519531 397.585938 546.195312 425.101562 555.59375 454.050781 C 560.75 469.957031 565.5625 485.941406 567.933594 502.523438 C 569.625 514.449219 569.597656 526.398438 563.898438 537.539062 C 559.601562 545.949219 552.964844 552.300781 545.390625 557.664062 C 539.0625 562.140625 532.242188 565.941406 526.125 570.703125 C 521.699219 574.246094 517.117188 575.730469 511.023438 574.480469 Z M 511.023438 574.480469 " fill-opacity="1" fill-rule="nonzero"/><path fill="#bc4749" d="M 532.449219 574.714844 C 538.019531 571.015625 542.96875 567.839844 547.808594 564.484375 C 555.777344 558.964844 563.558594 553.289062 568.792969 544.828125 C 575.039062 534.703125 576.289062 523.585938 575.144531 512.078125 C 573.191406 492.476562 567.308594 473.808594 561.347656 455.195312 C 552.679688 428.121094 542.132812 401.777344 530.082031 376.003906 C 525.449219 366.136719 521.074219 356.089844 517.324219 345.859375 C 511.9375 331.070312 512.066406 316.257812 519.695312 302.070312 C 523.285156 295.378906 528.441406 290.070312 534.429688 285.4375 C 548.566406 274.449219 564.628906 269.425781 582.433594 270.363281 C 601.828125 271.378906 615.523438 281.347656 624.582031 298.191406 C 631.195312 310.503906 634.707031 323.859375 637.546875 337.421875 C 641.632812 356.792969 645.171875 376.265625 649.546875 395.554688 C 654.023438 415.417969 659.984375 434.863281 669.90625 452.828125 C 689.636719 488.546875 719.914062 510.726562 759.015625 520.824219 C 775.363281 525.042969 792.15625 527.671875 808.738281 530.980469 C 821.703125 533.554688 834.539062 536.550781 846.070312 543.449219 C 853.308594 547.769531 859.320312 553.183594 863.640625 560.628906 C 866.0625 564.820312 868.015625 569.011719 869.214844 573.648438 C 864.136719 575.15625 863.25 574.742188 861.558594 570.367188 C 856.796875 558.027344 847.476562 550.085938 836.074219 544.308594 C 825.296875 538.839844 813.660156 536.160156 801.945312 533.738281 C 782.339844 529.652344 762.554688 526.214844 743.734375 519.03125 C 700.753906 502.601562 672.691406 471.882812 657.410156 428.902344 C 649.78125 407.453125 645.015625 385.273438 640.488281 363.039062 C 637.101562 346.484375 634.109375 329.796875 627.992188 313.941406 C 623.671875 302.746094 618.097656 292.308594 608.308594 284.835938 C 598.367188 277.261719 587.09375 274.632812 574.625 275.464844 C 562.492188 276.273438 551.480469 280.152344 541.875 287.050781 C 526.460938 298.113281 517.925781 315.21875 522.089844 336.746094 C 525.03125 351.898438 531.539062 365.824219 537.371094 379.933594 C 553.746094 419.582031 568.402344 459.832031 577.800781 501.796875 C 580.535156 514.03125 581.808594 526.476562 577.851562 538.816406 C 575.066406 547.535156 569.675781 554.433594 562.519531 559.902344 C 556.921875 564.171875 550.804688 567.789062 545.3125 572.214844 C 541.511719 575.105469 537.554688 574.972656 532.449219 574.714844 Z M 532.449219 574.714844 " fill-opacity="1" fill-rule="nonzero"/><g clip-path="url(#f64384a8b2)"><path fill="#bc4749" d="M 558.015625 574.609375 C 563.535156 570.210938 569.285156 565.941406 574.648438 561.230469 C 585.765625 551.464844 589.28125 538.683594 588.265625 524.417969 C 586.9375 505.492188 581.445312 487.476562 575.691406 469.59375 C 565.667969 438.457031 555.097656 407.476562 544.921875 376.394531 C 541.300781 365.355469 537.554688 354.292969 534.84375 342.996094 C 532.136719 331.828125 532.371094 320.527344 537.683594 309.855469 C 543.175781 298.84375 552.339844 292.179688 563.480469 287.699219 C 572.90625 283.898438 582.5625 283.484375 592.195312 286.164062 C 604.273438 289.523438 612.683594 297.671875 618.777344 308.34375 C 625.542969 320.164062 629.398438 333.101562 632.574219 346.25 C 637.414062 366.347656 641.816406 386.574219 647.046875 406.566406 C 652.722656 428.175781 660.429688 449.027344 672.949219 467.796875 C 692.007812 496.355469 718.246094 515.644531 750.605469 526.34375 C 767.007812 531.785156 783.929688 535.691406 800.617188 540.273438 C 814.074219 543.96875 827.429688 547.925781 838.390625 557.089844 C 841.515625 559.71875 844.195312 562.972656 846.71875 566.199219 C 848.464844 568.441406 849.664062 571.121094 851.121094 573.671875 C 846.355469 574.84375 845.367188 574.765625 842.972656 570.757812 C 836.175781 559.40625 825.710938 552.792969 813.761719 548.679688 C 798.769531 543.527344 783.433594 539.359375 768.179688 534.882812 C 748.054688 528.972656 728.765625 521.320312 711.375 509.320312 C 683.46875 490.054688 665.140625 463.632812 653.554688 432.078125 C 645.511719 410.183594 640.253906 387.535156 634.890625 364.914062 C 631.039062 348.667969 627.316406 332.371094 619.789062 317.324219 C 614.351562 306.445312 607.035156 297.253906 595.371094 292.644531 C 587.25 289.445312 578.816406 288.898438 570.40625 291.527344 C 566.292969 292.828125 561.894531 294 558.40625 296.371094 C 550.855469 301.496094 545 308.265625 542.132812 317.246094 C 538.152344 329.769531 539.660156 342.265625 543.304688 354.398438 C 551.742188 382.640625 560.851562 410.707031 569.363281 438.925781 C 576.421875 462.355469 583.34375 485.863281 589.695312 509.5 C 592.636719 520.433594 594.042969 531.785156 591.414062 543.109375 C 589.019531 553.472656 583.109375 561.488281 574.597656 567.683594 C 573.347656 568.597656 572.074219 569.535156 570.925781 570.601562 C 567.179688 574.011719 563.039062 575.964844 558.015625 574.609375 Z M 558.015625 574.609375 " fill-opacity="1" fill-rule="nonzero"/></g><g clip-path="url(#b401d81f2c)"><path fill="#bc4749" d="M 576.707031 574.375 C 578.867188 572.5 581.027344 570.625 583.214844 568.753906 C 591.960938 561.230469 597.195312 551.910156 597.898438 540.21875 C 598.679688 527.542969 596.101562 515.332031 592.613281 503.332031 C 585.191406 477.792969 577.226562 452.410156 569.753906 426.871094 C 563.066406 404.015625 556.53125 381.105469 550.359375 358.121094 C 547.941406 349.085938 546.976562 339.714844 548.019531 330.265625 C 549.660156 315.476562 557.15625 304.828125 571.082031 299.648438 C 583.578125 294.988281 595.214844 297.539062 605.34375 306.390625 C 613.515625 313.523438 618.671875 322.765625 621.953125 332.789062 C 627.027344 348.355469 631.453125 364.160156 635.617188 379.988281 C 641.660156 402.949219 647.644531 425.910156 657.488281 447.621094 C 675.265625 486.851562 704.371094 514.371094 744.253906 530.121094 C 760.65625 536.601562 777.679688 541.445312 794.394531 547.039062 C 805.875 550.894531 817.121094 555.214844 826.597656 563.023438 C 830.191406 565.96875 833.46875 569.246094 835.527344 573.855469 C 832.480469 574.582031 830.632812 574.0625 828.652344 571.589844 C 822.144531 563.441406 813.527344 557.898438 803.949219 554.226562 C 790.097656 548.914062 775.988281 544.203125 761.984375 539.308594 C 741.15625 532.046875 721.320312 522.910156 703.800781 509.265625 C 679.40625 490.289062 662.824219 465.738281 651.65625 437.15625 C 642.988281 414.976562 637.207031 391.960938 631.117188 369.027344 C 627.210938 354.371094 623.203125 339.714844 616.015625 326.203125 C 612.761719 320.085938 608.832031 314.410156 603.285156 310.191406 C 594.226562 303.292969 584.359375 300.71875 573.242188 305.167969 C 560.984375 310.089844 555.4375 319.824219 553.640625 332.140625 C 551.898438 344.085938 554.160156 355.800781 556.765625 367.386719 C 565.695312 406.984375 578.035156 445.617188 589.800781 484.378906 C 594.355469 499.402344 599.277344 514.34375 601.097656 530.015625 C 602.375 541.054688 602.296875 552.011719 595.347656 561.4375 C 592.039062 565.914062 588.058594 569.976562 583.867188 573.648438 C 582.328125 575 579.335938 574.714844 576.992188 575.183594 C 576.886719 574.949219 576.8125 574.660156 576.707031 574.375 Z M 576.707031 574.375 " fill-opacity="1" fill-rule="nonzero"/></g></svg>